<svg width="32" height="32" fill="none" xmlns="http://www.w3.org/2000/svg"><path d="m16 7 1.912 3.667 4.088.506-3 2.753.6 4.074-3.6-2.292L12.4 18l.6-4.074-3-2.753 4.2-.506L16 7Z" fill="#F63"/><path d="m16 30-8.436-9.949c-.117-.15-.233-.3-.348-.451A10.889 10.889 0 0 1 5 13a11 11 0 1 1 22 0 10.89 10.89 0 0 1-2.215 6.597l-.001.003s-.3.394-.345.447L16 30ZM8.812 18.395c.002 0 .234.308.287.374L16 26.908l6.91-8.15c.044-.055.278-.365.279-.366A8.9 8.9 0 0 0 25 13a9 9 0 0 0-18 0 8.904 8.904 0 0 0 1.812 5.395Z" fill="#1D1A3F"/></svg>