<svg width="170" height="70" viewBox="0 0 170 70" fill="none" xmlns="http://www.w3.org/2000/svg">
<g clip-path="url(#clip0_2239_19244)">
<path d="M73.8911 27.9953H79.7523V25.3926H73.8911V27.9953Z" fill="#24B4D4"/>
<path d="M40.9893 40.1745H31.2141L29.3464 44.2873H25.6907L33.6976 27.2005C34.2142 26.0879 35.3268 25.3925 36.5388 25.3925H37.711L46.5325 44.2873H42.8768L40.9893 40.1745ZM32.4459 37.4128H39.7376L36.0619 29.4456L32.4459 37.4128ZM62.1689 41.4063V44.3071H53.2878C52.0758 44.3071 51.1023 43.3336 51.1023 42.1415V25.3925H54.2415V41.3865H62.1689V41.4063ZM89.8256 37.2936H85.4546V44.2873H82.375V27.5581C82.375 26.366 83.3287 25.4123 84.5208 25.4123H90.521C94.1569 25.4123 96.8391 27.8959 96.8391 31.3927C96.8391 33.9756 95.3093 36.022 93.0045 36.8764L97.3557 44.3071H93.8986L89.8256 37.2936ZM85.4546 34.3928H90.3223C92.3688 34.3928 93.6801 33.1213 93.6801 31.353C93.6801 29.6046 92.3688 28.3131 90.3223 28.3131H85.4546V34.3928ZM101.906 34.512C101.906 28.929 106.197 24.7368 112.019 24.7368C117.82 24.7368 122.112 28.929 122.112 34.512C122.112 40.095 117.84 44.2873 112.019 44.2873C106.197 44.2873 101.906 40.095 101.906 34.512ZM118.913 34.512C118.913 30.6178 115.972 27.7171 112.019 27.7171C108.065 27.7171 105.104 30.6576 105.104 34.512C105.104 38.3665 108.065 41.307 112.019 41.307C115.952 41.307 118.913 38.4062 118.913 34.512ZM144.901 25.3925V42.8567C144.901 43.6515 144.265 44.2873 143.47 44.2873H142.159L131.211 30.7967V44.2873H127.973V27.4786C127.973 26.3263 128.907 25.3925 130.059 25.3925H130.953L141.662 38.6645V25.3925H144.901ZM70.5136 25.3925H62.1689V28.2932H69.4209V44.2873H72.5998V27.419C72.5998 26.3064 71.666 25.3925 70.5136 25.3925Z" fill="#42596A"/>
</g>
<defs>
<clipPath id="clip0_2239_19244">
<rect width="119.409" height="19.8683" fill="white" transform="translate(25.5913 24.5977)"/>
</clipPath>
</defs>
</svg>
