<svg width="40" height="39" viewBox="0 0 40 39" fill="none" xmlns="http://www.w3.org/2000/svg">
<g clip-path="url(#clip0_15_1576)">
<g style="mix-blend-mode:multiply" opacity="0.53">
<path d="M32.9 33.25L32.96 33.16L30.21 38.42C30.1232 38.5745 29.9969 38.7031 29.844 38.7927C29.6911 38.8823 29.5172 38.9297 29.34 38.93H23.54C23.2791 38.9316 23.0279 38.8311 22.84 38.65L13.27 29.28L13.32 32.68C13.3176 32.8682 13.2622 33.0519 13.16 33.21L13.04 33.36L13.14 33.25L10.46 38.39C10.3745 38.5463 10.2487 38.677 10.0958 38.7684C9.94281 38.8598 9.7682 38.9087 9.59001 38.91H1.39001C1.12479 38.91 0.870438 38.8046 0.682901 38.6171C0.495365 38.4296 0.390008 38.1752 0.390008 37.91L8.09656e-06 10.24C-0.000635388 10.0801 0.0370863 9.92233 0.110008 9.78L2.84001 4.58C2.91889 4.40948 3.04422 4.26463 3.20162 4.16205C3.35903 4.05947 3.54215 4.00331 3.73001 4H31.73C31.8613 4 31.9914 4.02587 32.1127 4.07612C32.234 4.12638 32.3443 4.20003 32.4371 4.29289C32.53 4.38575 32.6036 4.49599 32.6539 4.61732C32.7041 4.73864 32.73 4.86868 32.73 5L32.84 13.12C32.8391 13.2765 32.8014 13.4307 32.73 13.57C32.7349 13.5964 32.7349 13.6236 32.73 13.65C32.6991 13.704 32.6622 13.7543 32.62 13.8L32.71 13.69L31.8 14.8L31.41 15.34L30.03 18.83C29.944 18.983 29.8193 19.1107 29.6683 19.2002C29.5174 19.2897 29.3455 19.3379 29.17 19.34H25.65L32.65 26.23C32.8384 26.4146 32.9463 26.6662 32.95 26.93L33.02 32.66C33.0515 32.8647 33.009 33.0739 32.9 33.25Z" fill="black"/>
</g>
<path d="M35.94 14.8699L38.69 9.60986C38.6053 9.76473 38.4811 9.89441 38.3301 9.98575C38.179 10.0771 38.0065 10.1268 37.83 10.1299H26.26L23.52 15.3799H35.08C35.2555 15.3778 35.4274 15.3296 35.5783 15.2401C35.7293 15.1505 35.854 15.0229 35.94 14.8699Z" fill="#919100"/>
<path d="M38.0902 29.6802H32.2902C32.0278 29.6791 31.7764 29.575 31.5902 29.3902L19.1602 17.2202L16.4102 22.4802L28.8402 34.6302C29.0264 34.815 29.2778 34.9191 29.5402 34.9202H35.3402C35.5174 34.9199 35.6913 34.8725 35.8442 34.7829C35.997 34.6933 36.1233 34.5647 36.2102 34.4102L39.0002 29.1602C38.9114 29.3226 38.7794 29.4572 38.6187 29.549C38.4581 29.6408 38.2751 29.6862 38.0902 29.6802Z" fill="#919100"/>
<path d="M18.34 29.64H10.13C9.86479 29.64 9.61044 29.5347 9.4229 29.3471C9.23537 29.1596 9.13001 28.9052 9.13001 28.64L8.75001 1.00002C8.74609 0.833352 8.7839 0.668349 8.86001 0.52002L6.11001 5.78002C6.03709 5.92235 5.99936 6.0801 6.00001 6.24002L6.38001 33.9C6.38001 34.1652 6.48536 34.4196 6.6729 34.6071C6.86044 34.7947 7.11479 34.9 7.38001 34.9H15.58C15.7582 34.8987 15.9328 34.8498 16.0858 34.7584C16.2387 34.667 16.3645 34.5364 16.45 34.38L19.2 29.13C19.114 29.283 18.9893 29.4107 18.8383 29.5002C18.6874 29.5897 18.5155 29.638 18.34 29.64Z" fill="#919100"/>
<path d="M37.69 0.05C37.9552 0.05 38.2096 0.155357 38.3971 0.342893C38.5846 0.53043 38.69 0.784783 38.69 1.05L38.8 9.16C38.8 9.42522 38.6946 9.67957 38.5071 9.86711C38.3196 10.0546 38.0652 10.16 37.8 10.16H26.23L38.69 22.27C38.7887 22.3641 38.8672 22.4774 38.9205 22.603C38.9738 22.7285 39.0008 22.8636 39 23L39.07 28.74C39.07 29.0052 38.9646 29.2596 38.7771 29.4471C38.5896 29.6346 38.3352 29.74 38.07 29.74H32.27C32.0077 29.7389 31.7563 29.6347 31.57 29.45L19.16 17.22L19.32 28.67C19.32 28.9352 19.2146 29.1896 19.0271 29.3771C18.8396 29.5646 18.5852 29.67 18.32 29.67H10.13C9.86478 29.67 9.61043 29.5646 9.42289 29.3771C9.23536 29.1896 9.13 28.9352 9.13 28.67L8.75 1C8.75 0.734784 8.85536 0.48043 9.04289 0.292893C9.23043 0.105357 9.48478 0 9.75 0L37.69 0.05Z" fill="#ECEC00"/>
</g>
<defs>
<clipPath id="clip0_15_1576">
<rect width="39.06" height="38.93" fill="white"/>
</clipPath>
</defs>
</svg>
