<svg width="170" height="70" viewBox="0 0 170 70" fill="none" xmlns="http://www.w3.org/2000/svg">
<path d="M92.998 23.0465L101.004 20.1163L92.998 17.1023V13L106.711 18.4419V21.7907L92.998 27.2326V23.0465Z" fill="#A100FF"/>
<path d="M17.2806 48.9998C14.3848 48.9998 12 47.5766 12 44.3952V44.2277C12 40.3766 15.4069 39.037 19.5803 39.037H21.5392V38.2836C21.5392 36.6929 20.8578 35.7719 19.1544 35.7719C17.6213 35.7719 16.8548 36.6091 16.7696 37.7812H12.511C12.8517 34.2649 15.6624 32.5905 19.4099 32.5905C23.2426 32.5905 26.0533 34.1812 26.0533 38.1161V48.6649H21.7096V46.8231C20.8578 47.9952 19.4099 48.9998 17.2806 48.9998ZM21.5392 43.4743V41.9673H19.7506C17.5362 41.9673 16.4289 42.5533 16.4289 43.9766V44.144C16.4289 45.2324 17.1103 45.9859 18.6434 45.9859C20.1765 45.9022 21.5392 45.065 21.5392 43.4743ZM36.1887 48.9998C31.7598 48.9998 28.5233 46.3208 28.5233 40.9626V40.7115C28.5233 35.3533 31.9301 32.5068 36.1887 32.5068C39.8511 32.5068 42.8321 34.3487 43.1728 38.451H38.9142C38.6587 36.944 37.807 35.9394 36.2739 35.9394C34.4001 35.9394 33.0374 37.4463 33.0374 40.544V41.0463C33.0374 44.2277 34.2298 45.651 36.2739 45.651C37.807 45.651 38.9142 44.5626 39.1697 42.8045H43.258C43.0025 46.4882 40.5325 48.9998 36.1887 48.9998ZM52.8824 48.9998C48.4534 48.9998 45.2169 46.3208 45.2169 40.9626V40.7115C45.2169 35.3533 48.6238 32.5068 52.8824 32.5068C56.5447 32.5068 59.5257 34.3487 59.8664 38.451H55.6078C55.3523 36.944 54.5006 35.9394 52.9675 35.9394C51.0938 35.9394 49.731 37.4463 49.731 40.544V41.0463C49.731 44.2277 50.9234 45.651 52.9675 45.651C54.5006 45.651 55.6078 44.5626 55.8634 42.8045H59.9516C59.6961 46.4882 57.2261 48.9998 52.8824 48.9998ZM69.6611 48.9998C65.0619 48.9998 61.9105 46.3208 61.9105 41.0463V40.7115C61.9105 35.437 65.2322 32.5068 69.576 32.5068C73.579 32.5068 76.9007 34.6836 76.9007 39.958V41.8836H66.4246C66.595 44.7301 67.8726 45.8184 69.7463 45.8184C71.4498 45.8184 72.3866 44.8975 72.7273 43.8091H76.9007C76.3897 46.7394 73.8346 48.9998 69.6611 48.9998ZM66.5098 38.9533H72.4718C72.3866 36.6091 71.2794 35.6045 69.4908 35.6045C68.1281 35.6882 66.8505 36.4417 66.5098 38.9533ZM79.6262 32.9254H84.1403V35.2696C84.9069 33.7626 86.5251 32.5905 88.9951 32.5905C91.8909 32.5905 93.8499 34.3487 93.8499 38.1161V48.6649H89.3358V38.7859C89.3358 36.944 88.5692 36.1068 86.951 36.1068C85.4179 36.1068 84.1403 37.0277 84.1403 39.037V48.6649H79.6262V32.9254ZM102.112 28.1533V32.9254H105.178V36.1905H102.112V43.6417C102.112 44.8138 102.623 45.3998 103.73 45.3998C104.411 45.3998 104.837 45.3161 105.263 45.1487V48.5812C104.752 48.7487 103.815 48.9161 102.708 48.9161C99.2157 48.9161 97.5974 47.3254 97.5974 44.144V36.1905H95.7237V32.9254H97.5974V29.9952L102.112 28.1533ZM122.042 48.6649H117.613V46.3208C116.846 47.8277 115.313 48.9998 112.928 48.9998C110.032 48.9998 107.903 47.2417 107.903 43.558V32.9254H112.417V42.9719C112.417 44.8138 113.184 45.651 114.717 45.651C116.25 45.651 117.528 44.6463 117.528 42.7208V32.9254H122.042V48.6649ZM125.363 32.9254H129.877V35.8556C130.814 33.7626 132.347 32.758 134.732 32.758V37.1115C131.666 37.1115 129.877 38.0324 129.877 40.6277V48.7487H125.363V32.9254ZM143.846 48.9998C139.246 48.9998 136.095 46.3208 136.095 41.0463V40.7115C136.095 35.437 139.417 32.5068 143.76 32.5068C147.763 32.5068 151.085 34.6836 151.085 39.958V41.8836H140.694C140.865 44.7301 142.142 45.8184 144.016 45.8184C145.719 45.8184 146.656 44.8975 146.997 43.8091H151.17C150.489 46.7394 148.019 48.9998 143.846 48.9998ZM140.609 38.9533H146.656C146.571 36.6091 145.464 35.6045 143.675 35.6045C142.312 35.6882 141.035 36.4417 140.609 38.9533Z" fill="black"/>
</svg>
