<svg width="41" height="41" viewBox="0 0 41 41" fill="none" xmlns="http://www.w3.org/2000/svg">
<g clip-path="url(#clip0_15_1577)">
<g style="mix-blend-mode:multiply" opacity="0.53">
<path d="M34.3601 33.3403L34.2801 27.6003C34.2723 27.1659 34.0925 26.7523 33.7801 26.4503L27.8601 20.6603H29.7301C30.0264 20.6654 30.3183 20.5876 30.5727 20.4356C30.8271 20.2837 31.0341 20.0636 31.1701 19.8003L33.8801 14.6003C34.0216 14.3541 34.0941 14.0743 34.0901 13.7903L34.0001 5.67032C33.9922 5.2362 33.8135 4.82268 33.5028 4.51943C33.192 4.21617 32.7743 4.04762 32.3401 4.05032H4.34008C4.03557 4.04841 3.73676 4.13289 3.47834 4.29397C3.21991 4.45504 3.01247 4.6861 2.88008 4.96032L0.180077 10.1103C0.0549049 10.3437 -0.00714348 10.6056 7.70949e-05 10.8703L0.370077 38.5403C0.38276 38.9677 0.558865 39.3739 0.862113 39.6753C1.16536 39.9767 1.57265 40.1503 2.00008 40.1603H10.2101C10.5051 40.1592 10.7941 40.0776 11.0461 39.9243C11.2982 39.771 11.5035 39.5518 11.6401 39.2903L14.3601 34.0903C14.5016 33.8441 14.5741 33.5643 14.5701 33.2803V31.4303L23.0001 39.7203C23.3108 40.0233 23.7261 40.1952 24.1601 40.2003H30.0001C30.2957 40.202 30.5862 40.1228 30.84 39.9712C31.0939 39.8196 31.3014 39.6014 31.4401 39.3403L34.1901 34.0803C34.306 33.8511 34.3644 33.5971 34.3601 33.3403Z" fill="black"/>
</g>
<path d="M40.3601 29.3401L40.2801 23.6001C40.2723 23.1656 40.0925 22.752 39.7801 22.4501L33.8601 16.6601H35.7301C36.0264 16.6652 36.3183 16.5874 36.5727 16.4354C36.8271 16.2834 37.034 16.0634 37.1701 15.8001L39.8801 10.6001C40.0216 10.3539 40.0941 10.074 40.0901 9.79008L40.0001 1.67008C39.9962 1.45339 39.9496 1.23959 39.8631 1.04089C39.7765 0.842199 39.6517 0.6625 39.4957 0.512062C39.3397 0.361624 39.1555 0.243394 38.9538 0.164127C38.7521 0.0848594 38.5368 0.0461067 38.3201 0.0500823H10.3201C10.0276 0.050926 9.74086 0.131429 9.49069 0.282947C9.24051 0.434464 9.03633 0.651271 8.90008 0.910082L6.18008 6.11008C6.0549 6.34341 5.99286 6.6054 6.00008 6.87008L6.37008 34.5401C6.38276 34.9674 6.55887 35.3737 6.86211 35.675C7.16536 35.9764 7.57265 36.15 8.00008 36.1601H16.2101C16.5051 36.159 16.7941 36.0774 17.0461 35.9241C17.2982 35.7708 17.5035 35.5516 17.6401 35.2901L20.3601 30.0901C20.5016 29.8439 20.5741 29.564 20.5701 29.2801V27.4301L29.0001 35.7201C29.3108 36.0231 29.7261 36.195 30.1601 36.2001H36.0001C36.2957 36.2018 36.5862 36.1225 36.84 35.971C37.0939 35.8194 37.3014 35.6012 37.4401 35.3401L40.1901 30.0801V30.1301C40.3143 29.8859 40.3728 29.6137 40.3601 29.3401ZM32.9201 29.6601C32.8752 29.6618 32.8305 29.6537 32.7891 29.6365C32.7476 29.6192 32.7105 29.5931 32.6801 29.5601L19.1301 16.3101L16.3801 21.5601L16.4901 29.6301H10.7601C10.7172 29.6393 10.6729 29.6393 10.6301 29.6301C10.5686 29.6046 10.5159 29.5617 10.4786 29.5066C10.4412 29.4515 10.4209 29.3866 10.4201 29.3201L10.1101 6.54008H35.5901C35.6812 6.54005 35.7687 6.57554 35.8341 6.63903C35.8995 6.70253 35.9375 6.789 35.9401 6.88008V10.0701H25.2901L22.5501 15.3201L36.1301 28.6001C36.192 28.6689 36.2275 28.7575 36.2301 28.8501V29.6701L32.9201 29.6601Z" fill="black"/>
<path d="M38.34 1.33027C38.3846 1.33027 38.4289 1.33907 38.4701 1.35615C38.5114 1.37324 38.5488 1.39829 38.5804 1.42986C38.612 1.46143 38.637 1.49891 38.6541 1.54016C38.6712 1.58141 38.68 1.62562 38.68 1.67027L38.79 9.79027C38.7914 9.83399 38.7838 9.87752 38.7677 9.91818C38.7516 9.95885 38.7274 9.99578 38.6964 10.0267C38.6655 10.0576 38.6286 10.0819 38.5879 10.098C38.5472 10.1141 38.5037 10.1217 38.46 10.1203H25.34L38.88 23.3503C38.942 23.4191 38.9774 23.5077 38.98 23.6003L39.06 29.3403C39.0574 29.4287 39.0204 29.5126 38.9569 29.5742C38.8935 29.6359 38.8085 29.6703 38.72 29.6703H32.92C32.8751 29.672 32.8304 29.6639 32.789 29.6467C32.7476 29.6294 32.7104 29.6033 32.68 29.5703L19.13 16.3103L19.3 29.3103C19.3028 29.3548 19.2963 29.3994 19.2808 29.4413C19.2654 29.4831 19.2413 29.5213 19.2103 29.5533C19.1792 29.5853 19.1418 29.6105 19.1004 29.6272C19.059 29.6439 19.0146 29.6518 18.97 29.6503H10.77C10.6789 29.6503 10.5913 29.6148 10.526 29.5513C10.4606 29.4878 10.4226 29.4014 10.42 29.3103L10 1.62027C10 1.5301 10.0358 1.44362 10.0996 1.37986C10.1633 1.31609 10.2498 1.28027 10.34 1.28027L38.34 1.33027Z" fill="#ECEC00"/>
</g>
<defs>
<clipPath id="clip0_15_1577">
<rect width="40.36" height="40.21" fill="white"/>
</clipPath>
</defs>
</svg>
