<svg width="170" height="70" viewBox="0 0 170 70" fill="none" xmlns="http://www.w3.org/2000/svg">
<path fill-rule="evenodd" clip-rule="evenodd" d="M98.0012 47.4531C91.7251 52.2171 82.6283 54.7588 74.7962 54.7588C63.8143 54.7588 53.9277 50.5758 46.4481 43.6187C45.8605 43.0716 46.387 42.3261 47.0922 42.7521C55.1641 47.5887 65.1447 50.4984 75.4544 50.4984C82.4074 50.4984 90.0562 49.0169 97.0891 45.9426C98.1516 45.4778 99.0401 46.6591 98.0012 47.4531Z" fill="#FF9900"/>
<path fill-rule="evenodd" clip-rule="evenodd" d="M100.61 44.3782C99.8109 43.3228 95.3072 43.8796 93.2857 44.1265C92.6698 44.2039 92.5758 43.652 93.1305 43.255C96.7175 40.6552 102.603 41.4056 103.29 42.2771C103.976 43.1534 103.111 49.2293 99.7403 52.1294C99.2232 52.5748 98.7296 52.3375 98.96 51.7469C99.7168 49.8006 101.414 45.4385 100.61 44.3782Z" fill="#FF9900"/>
<path fill-rule="evenodd" clip-rule="evenodd" d="M93.4268 24.9012V22.3739C93.4268 21.9915 93.7088 21.7349 94.0473 21.7349H105.034C105.387 21.7349 105.669 21.9963 105.669 22.3739V24.538C105.664 24.9012 105.368 25.3756 104.841 26.126L99.1481 34.4969C101.264 34.4436 103.497 34.768 105.415 35.8815C105.847 36.1333 105.965 36.5012 105.998 36.8643V39.561C105.998 39.9289 105.603 40.3598 105.189 40.1371C101.809 38.3119 97.3193 38.1134 93.5819 40.1565C93.2011 40.3695 92.8015 39.9435 92.8015 39.5755V37.0144C92.8015 36.6029 92.8062 35.9009 93.2058 35.2763L99.8016 25.5354H94.0614C93.7088 25.5354 93.4268 25.2788 93.4268 24.9012Z" fill="black"/>
<path fill-rule="evenodd" clip-rule="evenodd" d="M53.3492 40.6698H50.0067C49.687 40.6456 49.4332 40.3987 49.4097 40.084V22.4177C49.4097 22.0642 49.6964 21.7834 50.0537 21.7834H53.1706C53.495 21.7979 53.7535 22.0546 53.7771 22.3741V24.6835H53.8382C54.6515 22.4516 56.1794 21.4106 58.2385 21.4106C60.3305 21.4106 61.6374 22.4516 62.5776 24.6835C63.3862 22.4516 65.2244 21.4106 67.1942 21.4106C68.5951 21.4106 70.1277 22.0061 71.0633 23.3424C72.121 24.8287 71.9048 26.988 71.9048 28.881L71.9001 40.0308C71.9001 40.3842 71.6133 40.6698 71.256 40.6698H67.9182C67.5844 40.6456 67.3164 40.3697 67.3164 40.0308V30.6674C67.3164 29.9219 67.3822 28.0628 67.2224 27.3559C66.9732 26.1698 66.2257 25.8357 65.2573 25.8357C64.4487 25.8357 63.6025 26.3925 63.2593 27.2833C62.9161 28.1741 62.949 29.6653 62.949 30.6674V40.0308C62.949 40.3842 62.6623 40.6698 62.305 40.6698H58.9671C58.6287 40.6456 58.3654 40.3697 58.3654 40.0308L58.3607 30.6674C58.3607 28.697 58.6757 25.797 56.3016 25.797C53.8993 25.797 53.9933 28.6244 53.9933 30.6674V40.0308C53.9933 40.3842 53.7065 40.6698 53.3493 40.6698" fill="black"/>
<path fill-rule="evenodd" clip-rule="evenodd" d="M115.127 21.4106C120.087 21.4106 122.771 25.797 122.771 31.3743C122.771 36.7628 119.805 41.0378 115.127 41.0378C110.257 41.0378 107.605 36.6515 107.605 31.1855C107.605 25.6856 110.29 21.4106 115.127 21.4106ZM115.156 25.0175C112.692 25.0175 112.537 28.4743 112.537 30.6287C112.537 32.788 112.504 37.397 115.127 37.397C117.718 37.397 117.84 33.6788 117.84 31.413C117.84 29.9219 117.779 28.1402 117.342 26.7265C116.965 25.4968 116.218 25.0175 115.156 25.0175Z" fill="black"/>
<path fill-rule="evenodd" clip-rule="evenodd" d="M129.203 40.6698H125.874C125.54 40.6456 125.273 40.3697 125.273 40.0308L125.268 22.3596C125.296 22.0352 125.573 21.7834 125.912 21.7834H129.01C129.301 21.7979 129.541 22.0013 129.607 22.2773V24.9788H129.668C130.604 22.5629 131.915 21.4106 134.224 21.4106C135.723 21.4106 137.185 21.9674 138.126 23.4925C139 24.9062 139 27.2833 139 28.9923V40.1131C138.962 40.4229 138.685 40.6698 138.356 40.6698H135.004C134.698 40.6456 134.444 40.4132 134.412 40.1131V30.5174C134.412 28.5856 134.628 25.7582 132.32 25.7582C131.506 25.7582 130.759 26.3199 130.387 27.1719C129.917 28.2516 129.856 29.3264 129.856 30.5174V40.0308C129.851 40.3842 129.56 40.6698 129.203 40.6698" fill="black"/>
<path fill-rule="evenodd" clip-rule="evenodd" d="M84.6685 32.2313C84.6685 33.5723 84.7014 34.6907 84.0433 35.8817C83.512 36.85 82.6658 37.4455 81.7303 37.4455C80.4469 37.4455 79.6947 36.4384 79.6947 34.9521C79.6947 32.0182 82.2474 31.4857 84.6685 31.4857V32.2313ZM88.0393 40.6214C87.8183 40.8248 87.4986 40.8393 87.2495 40.7037C86.14 39.7548 85.9378 39.3143 85.3314 38.4089C83.4979 40.3358 82.1957 40.9119 79.8216 40.9119C77.0056 40.9119 74.8196 39.1254 74.8196 35.5476C74.8196 32.7541 76.2863 30.8514 78.3831 29.9219C80.1977 29.0988 82.7316 28.9536 84.6685 28.7261V28.2806C84.6685 27.4624 84.7296 26.4942 84.2595 25.7873C83.8552 25.1531 83.0748 24.8916 82.3838 24.8916C81.1097 24.8916 79.9768 25.5646 79.6994 26.9589C79.643 27.2688 79.422 27.5738 79.1164 27.5883L75.8773 27.2301C75.6047 27.1671 75.2991 26.9396 75.379 26.5087C76.1218 22.4613 79.6759 21.2412 82.8539 21.2412C84.4805 21.2412 86.6054 21.6866 87.8888 22.9551C89.5154 24.5189 89.3603 26.6055 89.3603 28.8761V34.2404C89.3603 35.8526 90.009 36.5595 90.6202 37.4309C90.8318 37.7408 90.8788 38.1136 90.6061 38.346C89.9244 38.9318 88.7115 40.0211 88.044 40.6311L88.0393 40.6214" fill="black"/>
<path fill-rule="evenodd" clip-rule="evenodd" d="M40.8489 32.2313C40.8489 33.5723 40.8819 34.6907 40.2237 35.8817C39.6925 36.85 38.8509 37.4455 37.9107 37.4455C36.6273 37.4455 35.8798 36.4384 35.8798 34.9521C35.8798 32.0182 38.4325 31.4857 40.8489 31.4857V32.2313ZM44.2197 40.6214C43.9987 40.8248 43.679 40.8393 43.4299 40.7037C42.3204 39.7548 42.123 39.3143 41.5118 38.4089C39.6784 40.3358 38.3808 40.9119 36.002 40.9119C33.1907 40.9119 31 39.1254 31 35.5476C31 32.7541 32.4715 30.8514 34.5635 29.9219C36.3781 29.0988 38.9121 28.9536 40.8489 28.7261V28.2806C40.8489 27.4624 40.9101 26.4942 40.4446 25.7873C40.0356 25.1531 39.2552 24.8916 38.5689 24.8916C37.2949 24.8916 36.1572 25.5646 35.8798 26.9589C35.8234 27.2688 35.6024 27.5738 35.3016 27.5883L32.0578 27.2301C31.7851 27.1671 31.4842 26.9396 31.5594 26.5087C32.3069 22.4613 35.8563 21.2412 39.0343 21.2412C40.6609 21.2412 42.7858 21.6866 44.0692 22.9551C45.6958 24.5189 45.5407 26.6055 45.5407 28.8761V34.2404C45.5407 35.8526 46.1895 36.5595 46.8006 37.4309C47.0169 37.7408 47.0639 38.1136 46.7912 38.346C46.1095 38.9318 44.8966 40.0211 44.2291 40.6311L44.2197 40.6214" fill="black"/>
</svg>
