<svg width="32" height="32" viewBox="0 0 32 32" fill="none" xmlns="http://www.w3.org/2000/svg">
<path d="M2.01957 12.4113L12.3777 2.02C12.4533 1.94327 12.5434 1.88234 12.6428 1.84077C12.7421 1.7992 12.8487 1.77781 12.9564 1.77783H29.6143C29.7755 1.77783 29.9302 1.842 30.0442 1.95623C30.1582 2.07046 30.2223 2.22538 30.2223 2.38693V19.0379C30.2223 19.1458 30.2009 19.2526 30.1594 19.3521C30.1179 19.4516 30.0571 19.5419 29.9805 19.6177L19.5858 30.0163C19.5098 30.092 19.4195 30.1518 19.3201 30.1921C19.2207 30.2325 19.1143 30.2525 19.0071 30.2511H2.38584C2.22832 30.2512 2.07691 30.1901 1.9635 30.0806C1.85009 29.9711 1.78353 29.8217 1.77783 29.664V12.991C1.77939 12.7735 1.8662 12.5653 2.01957 12.4113Z" fill="#1D1A3F"/>
<path d="M19.1096 12.5508H8.56109C8.37499 12.5508 8.22412 12.7019 8.22412 12.8884V15.9632C8.22412 16.1496 8.37499 16.3007 8.56109 16.3007H19.1096C19.2957 16.3007 19.4466 16.1496 19.4466 15.9632V12.8884C19.4466 12.7019 19.2957 12.5508 19.1096 12.5508Z" fill="white"/>
<path d="M19.1022 20.0435H12.2969C12.1108 20.0435 11.96 20.1946 11.96 20.381V23.4558C11.96 23.6423 12.1108 23.7934 12.2969 23.7934H19.1022C19.2883 23.7934 19.4392 23.6423 19.4392 23.4558V20.381C19.4392 20.1946 19.2883 20.0435 19.1022 20.0435Z" fill="white"/>
</svg>
