<svg width="32" height="32" viewBox="0 0 32 32" fill="none" xmlns="http://www.w3.org/2000/svg">
<path d="M14.6665 14.6665H22.6665C23.0443 14.6665 23.3607 14.5385 23.6158 14.2825C23.8718 14.0274 23.9998 13.7109 23.9998 13.3332C23.9998 12.9554 23.8718 12.6385 23.6158 12.3825C23.3607 12.1274 23.0443 11.9998 22.6665 11.9998H14.6665C14.2887 11.9998 13.9723 12.1274 13.7172 12.3825C13.4612 12.6385 13.3332 12.9554 13.3332 13.3332C13.3332 13.7109 13.4612 14.0274 13.7172 14.2825C13.9723 14.5385 14.2887 14.6665 14.6665 14.6665ZM14.6665 18.6665H17.3332C17.7109 18.6665 18.0278 18.5385 18.2838 18.2825C18.5389 18.0274 18.6665 17.7109 18.6665 17.3332C18.6665 16.9554 18.5389 16.6385 18.2838 16.3825C18.0278 16.1274 17.7109 15.9998 17.3332 15.9998H14.6665C14.2887 15.9998 13.9723 16.1274 13.7172 16.3825C13.4612 16.6385 13.3332 16.9554 13.3332 17.3332C13.3332 17.7109 13.4612 18.0274 13.7172 18.2825C13.9723 18.5385 14.2887 18.6665 14.6665 18.6665ZM14.6665 10.6665H22.6665C23.0443 10.6665 23.3607 10.5389 23.6158 10.2838C23.8718 10.0278 23.9998 9.71095 23.9998 9.33317C23.9998 8.95539 23.8718 8.6385 23.6158 8.3825C23.3607 8.12739 23.0443 7.99984 22.6665 7.99984H14.6665C14.2887 7.99984 13.9723 8.12739 13.7172 8.3825C13.4612 8.6385 13.3332 8.95539 13.3332 9.33317C13.3332 9.71095 13.4612 10.0278 13.7172 10.2838C13.9723 10.5389 14.2887 10.6665 14.6665 10.6665ZM10.6665 23.9998C9.93317 23.9998 9.30561 23.7389 8.78384 23.2172C8.26117 22.6945 7.99984 22.0665 7.99984 21.3332V5.33317C7.99984 4.59984 8.26117 3.97184 8.78384 3.44917C9.30561 2.92739 9.93317 2.6665 10.6665 2.6665H26.6665C27.3998 2.6665 28.0278 2.92739 28.5505 3.44917C29.0723 3.97184 29.3332 4.59984 29.3332 5.33317V21.3332C29.3332 22.0665 29.0723 22.6945 28.5505 23.2172C28.0278 23.7389 27.3998 23.9998 26.6665 23.9998H10.6665ZM10.6665 21.3332H26.6665V5.33317H10.6665V21.3332ZM5.33317 29.3332C4.59984 29.3332 3.97228 29.0723 3.4505 28.5505C2.92784 28.0278 2.6665 27.3998 2.6665 26.6665V9.33317C2.6665 8.95539 2.7945 8.6385 3.0505 8.3825C3.30562 8.12739 3.62206 7.99984 3.99984 7.99984C4.37762 7.99984 4.6945 8.12739 4.9505 8.3825C5.20562 8.6385 5.33317 8.95539 5.33317 9.33317V26.6665H22.6665C23.0443 26.6665 23.3607 26.7945 23.6158 27.0505C23.8718 27.3056 23.9998 27.6221 23.9998 27.9998C23.9998 28.3776 23.8718 28.6941 23.6158 28.9492C23.3607 29.2052 23.0443 29.3332 22.6665 29.3332H5.33317ZM10.6665 5.33317V21.3332V5.33317Z" fill="#4FBECD"/>
</svg>
