<svg width="98" height="40" viewBox="0 0 98 40" fill="none" xmlns="http://www.w3.org/2000/svg">
<path d="M1.1138 13.3467L12.1622 2.25841C12.2429 2.17653 12.339 2.11152 12.4449 2.06716C12.5509 2.0228 12.6646 1.99997 12.7794 2H30.5474C30.7194 2 30.8844 2.06848 31.006 2.19037C31.1276 2.31226 31.196 2.47757 31.196 2.64995V20.4179C31.196 20.533 31.1732 20.6469 31.1289 20.7531C31.0847 20.8593 31.0198 20.9556 30.9381 21.0365L19.8507 32.1326C19.7696 32.2135 19.6732 32.2773 19.5673 32.3203C19.4613 32.3633 19.3478 32.3847 19.2334 32.3832H1.50448C1.33647 32.3833 1.17497 32.3181 1.054 32.2012C0.933028 32.0844 0.86203 31.925 0.855957 31.7568V13.9653C0.857615 13.7332 0.950218 13.5111 1.1138 13.3467Z" fill="#1D1A3F"/>
<path d="M19.3429 13.4956H8.09136C7.89285 13.4956 7.73193 13.6569 7.73193 13.8558V17.1369C7.73193 17.3358 7.89285 17.4971 8.09136 17.4971H19.3429C19.5414 17.4971 19.7023 17.3358 19.7023 17.1369V13.8558C19.7023 13.6569 19.5414 13.4956 19.3429 13.4956Z" fill="white"/>
<path d="M19.335 21.4907H12.0762C11.8777 21.4907 11.7168 21.652 11.7168 21.8509V25.132C11.7168 25.3309 11.8777 25.4922 12.0762 25.4922H19.335C19.5335 25.4922 19.6944 25.3309 19.6944 25.132V21.8509C19.6944 21.652 19.5335 21.4907 19.335 21.4907Z" fill="white"/>
<path d="M39.8346 8.34286C39.8224 8.26196 39.8298 8.17941 39.8563 8.1018C39.8828 8.02419 39.9276 7.95367 39.9872 7.89586C40.0468 7.83804 40.1195 7.79454 40.1995 7.76882C40.2795 7.7431 40.3645 7.73588 40.4479 7.74772H48.1468C52.5907 7.74772 54.8127 9.68974 54.8127 13.5738V14.3569C54.8127 17.343 53.5618 19.1258 51.0601 19.7052C51.6773 19.7691 52.274 19.9574 52.8118 20.2582C53.3496 20.5589 53.8168 20.9653 54.1832 21.4515C54.8999 22.5291 55.2551 23.7957 55.2001 25.0771V26.0794C55.2519 26.901 55.1273 27.724 54.8342 28.4964C54.5411 29.2688 54.0858 29.9737 53.4973 30.5665C52.3594 31.6314 50.6727 32.1326 48.4373 32.1326H40.4479C40.3645 32.1444 40.2795 32.1372 40.1995 32.1115C40.1195 32.0858 40.0468 32.0423 39.9872 31.9845C39.9276 31.9267 39.8828 31.8561 39.8563 31.7785C39.8298 31.7009 39.8224 31.6184 39.8346 31.5375V8.34286ZM48.0742 18.9143C48.7111 18.965 49.3521 18.8929 49.9601 18.702C50.5682 18.5112 51.1313 18.2054 51.6169 17.8024C52.0288 17.3494 52.3425 16.8206 52.5394 16.2475C52.7363 15.6744 52.8123 15.0687 52.7629 14.4665V13.5738C52.8165 13.0062 52.7465 12.434 52.5575 11.8944C52.3684 11.3547 52.0644 10.8597 51.6654 10.4415C50.6588 9.70196 49.4043 9.35298 48.1468 9.46265H41.9005V18.9143H48.0742ZM48.4696 30.449C49.1112 30.505 49.7579 30.4362 50.3718 30.2466C50.9857 30.057 51.5544 29.7504 52.0447 29.3449C52.4448 28.9011 52.7501 28.3846 52.9427 27.8254C53.1352 27.2661 53.2113 26.6753 53.1664 26.0873V24.9675C53.2234 24.3672 53.1541 23.762 52.9626 23.1886C52.7712 22.6151 52.4616 22.0854 52.0527 21.6316C51.0412 20.8495 49.7576 20.4764 48.4696 20.5901H41.9328V30.449H48.4696Z" fill="#1D1A3F"/>
<path d="M59.2918 6.77653C59.2918 6.385 59.4855 6.18923 59.8729 6.18923H60.6799C60.7622 6.17734 60.8462 6.18433 60.9253 6.20964C61.0043 6.23494 61.0761 6.27787 61.1349 6.33497C61.1938 6.39207 61.238 6.46175 61.2641 6.53844C61.2902 6.61512 61.2974 6.69666 61.2851 6.77653V31.5686C61.296 31.6479 61.2878 31.7285 61.261 31.8042C61.2343 31.8798 61.1899 31.9484 61.1312 32.0046C61.0726 32.0608 61.0013 32.103 60.923 32.1279C60.8446 32.1528 60.7614 32.1597 60.6799 32.1481H59.8729C59.7925 32.159 59.7106 32.1514 59.6338 32.1259C59.5571 32.1004 59.4876 32.0577 59.431 32.0013C59.3744 31.9448 59.3323 31.8762 59.3081 31.8011C59.2839 31.7259 59.2784 31.6463 59.2918 31.5686V6.77653Z" fill="#1D1A3F"/>
<path d="M65.8123 18.8907C65.7668 18.1848 65.8779 17.4777 66.1383 16.817C66.3986 16.1564 66.8021 15.5578 67.3214 15.0615C68.5457 14.107 70.0967 13.637 71.6631 13.7459H73.6807C75.2481 13.6417 76.7976 14.1205 78.0143 15.085C78.5309 15.5828 78.932 16.182 79.1909 16.8423C79.4497 17.5027 79.5604 18.209 79.5154 18.9142V27.2539C79.5612 27.9568 79.4509 28.661 79.1919 29.319C78.9329 29.9769 78.5314 30.5732 78.0143 31.0675C76.7976 32.032 75.2481 32.5108 73.6807 32.4065H71.6631C70.0935 32.5088 68.5421 32.0304 67.3214 31.0675C66.8016 30.5748 66.3977 29.979 66.1372 29.3208C65.8767 28.6626 65.7659 27.9575 65.8123 27.2539V18.8907ZM73.6807 30.7307C76.247 30.7307 77.5301 29.5718 77.5301 27.2539V18.8907C77.5301 16.5676 76.247 15.406 73.6807 15.406H71.6631C69.113 15.406 67.8379 16.5676 67.8379 18.8907V27.2539C67.8379 29.5718 69.1264 30.7307 71.7035 30.7307H73.6807Z" fill="#1D1A3F"/>
<path d="M83.6555 34.4817C83.7047 34.4327 83.7638 34.3942 83.8291 34.3686C83.8944 34.343 83.9644 34.3308 84.0348 34.3329H84.9871C85.0565 34.3294 85.1258 34.3409 85.19 34.3667C85.2542 34.3924 85.3117 34.4317 85.3583 34.4817C85.4555 34.5926 85.5046 34.7357 85.4955 34.881C85.4955 36.6873 86.7787 37.5905 89.345 37.5905H91.3625C92.403 37.6683 93.4367 37.373 94.2677 36.7604C94.605 36.4209 94.8638 36.0155 95.0266 35.5712C95.1894 35.1269 95.2526 34.654 95.2119 34.1841V29.7754L91.7821 31.2554C90.7954 31.6757 89.7285 31.8891 88.6509 31.8819C87.9627 31.921 87.2732 31.8277 86.6223 31.6073C85.9713 31.3869 85.3717 31.0437 84.858 30.5976C84.3835 30.1088 84.0176 29.5305 83.783 28.8987C83.5484 28.267 83.4501 27.5952 83.4941 26.925V18.8907C83.4502 18.185 83.5621 17.4783 83.8223 16.8179C84.0826 16.1575 84.4852 15.5587 85.0032 15.0615C86.2275 14.107 87.7785 13.637 89.345 13.7459H91.3625C92.9299 13.6417 94.4794 14.1205 95.6961 15.085C96.2127 15.5828 96.6139 16.182 96.8727 16.8423C97.1316 17.5027 97.2422 18.209 97.1972 18.9142V34.1058C97.2429 34.8084 97.1302 35.5122 96.8667 36.1682C96.6033 36.8241 96.1956 37.4164 95.6719 37.9037C94.4568 38.8527 92.9191 39.325 91.3625 39.2271H89.345C87.8056 39.3275 86.2761 38.922 85.0032 38.076C84.5166 37.6936 84.1283 37.2065 83.8692 36.6534C83.6101 36.1002 83.4872 35.4961 83.5103 34.8889C83.5012 34.7398 83.5535 34.5934 83.6555 34.4817ZM95.2119 28.0448V18.8907C95.2119 16.5676 93.9288 15.406 91.3625 15.406H89.345C86.7679 15.406 85.4794 16.5676 85.4794 18.8907V26.925C85.4516 27.3635 85.5191 27.8027 85.6776 28.2142C85.8361 28.6256 86.082 29.0001 86.3994 29.3134C87.1113 29.8821 88.0218 30.1626 88.9415 30.0965C89.7282 30.1119 90.5094 29.9651 91.2334 29.6658L95.2119 28.0448Z" fill="#1D1A3F"/>
</svg>
