<svg width="49" height="43" viewBox="0 0 49 43" fill="none" xmlns="http://www.w3.org/2000/svg">
<path opacity="0.45" d="M41.6801 3.62695H6.87474L0.0800781 6.81628L1.25873 42.5923H36.0641L42.8587 39.4029L41.6801 3.62695Z" fill="black"/>
<path d="M12.3521 0.922852H47.1574L48.2667 36.6989H13.5307L12.3521 0.922852ZM46.9494 35.3122L45.9094 2.24019H13.7387L14.7787 35.3122H46.9494Z" fill="#1D1A3F"/>
<path d="M46.9495 35.3122H14.7788L13.7388 2.24023H45.9095L46.9495 35.3122Z" fill="url(#paint0_linear_4394_62884)"/>
<path d="M13.5309 36.6988L12.3523 0.853516L5.62695 4.11218L6.73629 39.8882H41.611L48.3363 36.6988H13.5309Z" fill="#1D1A3F"/>
<path d="M18.0376 19.9203H22.5443L22.4749 17.8403H17.9683L18.0376 19.9203Z" fill="#1D1A3F"/>
<path d="M30.0322 31.6375H32.0429L31.9042 26.9922H29.8936L30.0322 31.6375Z" fill="#1D1A3F"/>
<path d="M25.2483 12.3631L21.9897 9.03516L20.603 10.5605L23.8617 13.8192L25.2483 12.3631Z" fill="#1D1A3F"/>
<path d="M34.7468 23.1095C35.3014 22.5548 35.7174 21.8615 35.9948 21.0988C36.2721 20.3361 36.4108 19.5735 36.3414 18.7415C36.2721 17.1468 35.6481 15.5521 34.4694 14.4428C33.2908 13.2641 31.7654 12.6401 30.1014 12.5708C29.3388 12.5708 28.5068 12.7788 27.8134 13.0561C27.1201 13.4028 26.4268 13.8188 25.8721 14.4428C25.3174 14.9975 24.9014 15.6908 24.6241 16.4535C24.3468 17.2161 24.2081 17.9788 24.2774 18.8108C24.3468 20.4055 24.9708 22.0001 26.1494 23.1095C27.3281 24.2881 28.8534 24.9121 30.4481 24.9815C31.2108 24.9815 32.0428 24.8428 32.7361 24.4961C33.5681 24.1495 34.2614 23.6641 34.7468 23.1095Z" fill="#1D1A3F"/>
<path d="M30.9335 5.91504H28.9229L29.1308 10.5604H31.1415L30.9335 5.91504Z" fill="#1D1A3F"/>
<path d="M25.8724 25.4672L24.347 23.9419L21.2964 27.2006L22.7524 28.7259L25.8724 25.4672Z" fill="#1D1A3F"/>
<path d="M40.4324 27.0619L37.1044 23.8032L35.7178 25.2592L39.0458 28.5179L40.4324 27.0619Z" fill="#1D1A3F"/>
<path d="M42.9281 17.6323H38.4907V19.7123H42.9974L42.9281 17.6323Z" fill="#1D1A3F"/>
<path d="M39.6698 10.3525L38.2137 8.89648L35.1631 12.1552L36.6191 13.6112L39.6698 10.3525Z" fill="#1D1A3F"/>
<defs>
<linearGradient id="paint0_linear_4394_62884" x1="13.7526" y1="18.7936" x2="46.9703" y2="18.7936" gradientUnits="userSpaceOnUse">
<stop stop-color="#FFFF00"/>
<stop offset="0.1594" stop-color="#FFFF04"/>
<stop offset="0.3245" stop-color="#FFFF11"/>
<stop offset="0.4924" stop-color="#FFFF25"/>
<stop offset="0.6622" stop-color="#FFFF42"/>
<stop offset="0.8315" stop-color="#FFFF67"/>
<stop offset="1" stop-color="#FFFF94"/>
</linearGradient>
</defs>
</svg>
