<svg width="170" height="70" viewBox="0 0 170 70" fill="none" xmlns="http://www.w3.org/2000/svg">
<path d="M85.0013 0C65.6683 0 50 15.6683 50 35.0013C50 54.3344 65.6683 70.0027 85.0013 70.0027C104.334 70.0027 120.003 54.3274 120.003 35.0013C120.003 15.6753 104.327 0 85.0013 0ZM84.9873 4.31648C101.959 4.31648 115.714 18.0718 115.714 35.0434C115.714 52.015 101.959 65.7703 84.9873 65.7703C68.0157 65.7703 54.2604 52.008 54.2604 35.0434C54.2604 18.0788 68.0157 4.31648 84.9873 4.31648Z" fill="#5514B4"/>
<path d="M67.5532 23.04V46.8718H77.2513C81.6589 46.8718 85.0434 44.1179 85.0434 39.7594C85.0434 35.9194 82.0443 34.4479 82.0443 34.4479C82.0443 34.4479 84.3497 32.9763 84.3497 29.711C84.3497 25.913 81.3505 23.04 76.929 23.04H67.5532ZM72.9208 27.6929H75.7868C77.8259 27.6929 78.7088 28.7369 78.7088 30.0333C78.7088 31.4347 77.6997 32.3247 75.9199 32.3247H72.9208V27.6929ZM72.9208 37.0966H75.7868C77.8259 37.0966 78.7088 38.1407 78.7088 39.437C78.7088 40.8385 77.6997 41.7284 75.9199 41.7284H72.9208V37.0966Z" fill="#5514B4"/>
<path d="M92.24 46.7947V28.5058H86.8794V22.998H103.557V28.5058H97.9649V46.7947H92.24Z" fill="#5514B4"/>
</svg>
