<svg width="186" height="39" viewBox="0 0 186 39" fill="none" xmlns="http://www.w3.org/2000/svg">
<path d="M37.3528 13.6764C37.3528 11.6895 37.916 10.1563 39.0425 9.09239C40.1689 8.0207 41.7491 7.48877 43.7907 7.48877H46.9119C48.9615 7.48877 50.5416 8.0207 51.6681 9.08457C52.7867 10.1484 53.3499 11.6817 53.3499 13.6764V14.9906C53.3499 15.3817 53.1465 15.5695 52.7397 15.5695H51.981C51.5742 15.5695 51.3708 15.3739 51.3708 14.9906V13.6764C51.3708 12.2136 50.9875 11.1106 50.2287 10.3675C49.4699 9.62433 48.3669 9.24884 46.9198 9.24884H43.7986C42.3592 9.24884 41.2562 9.62433 40.4974 10.3675C39.7387 11.1106 39.3632 12.2214 39.3632 13.6764V26.1768C39.3632 27.6397 39.7387 28.7426 40.4974 29.4936C41.2562 30.2446 42.3514 30.6201 43.7986 30.6201H46.9198C48.3591 30.6201 49.4621 30.2446 50.2287 29.4936C50.9875 28.7426 51.3708 27.6397 51.3708 26.1768V24.8627C51.3708 24.4715 51.5742 24.2838 51.981 24.2838H52.7397C53.1465 24.2838 53.3499 24.4794 53.3499 24.8627V26.1768C53.3499 28.1794 52.7867 29.7048 51.6681 30.7687C50.5494 31.8326 48.9615 32.3645 46.9119 32.3645H43.7907C41.7491 32.3645 40.1689 31.8326 39.0425 30.7609C37.916 29.6892 37.3528 28.1638 37.3528 26.1768V13.6764Z" fill="#1D1A3F"/>
<path d="M56.729 26.6147C56.729 23.6422 58.6377 22.1559 62.4551 22.1559H67.8527V18.8704C67.8527 17.6657 67.5554 16.7818 66.9531 16.2107C66.3507 15.6397 65.4042 15.3503 64.1135 15.3503H62.7837C61.5321 15.3503 60.609 15.6162 60.0145 16.1403C59.42 16.6644 59.1305 17.4702 59.1305 18.5419C59.1305 18.933 58.935 19.1207 58.5517 19.1207H57.7772C57.4017 19.1207 57.2062 18.9252 57.2062 18.5419C57.2062 17.0086 57.6755 15.8196 58.6221 14.9748C59.5686 14.1299 60.9532 13.7075 62.7837 13.7075H64.1135C65.9831 13.7075 67.3911 14.1456 68.3455 15.0139C69.292 15.8822 69.7692 17.1729 69.7692 18.8704V31.5351C69.7692 31.9262 69.5736 32.114 69.1903 32.114H68.4472C68.0717 32.114 67.884 31.9184 67.884 31.5351V30.3148L64.2308 31.8402C63.3782 32.2 62.4473 32.3799 61.4538 32.3799C60.0379 32.3799 58.9037 31.9654 58.0354 31.1362C57.1671 30.307 56.7368 29.1649 56.7368 27.7099V26.6226L56.729 26.6147ZM67.8605 28.805V23.6891H62.4864C61.1409 23.6891 60.1709 23.9238 59.5686 24.3931C58.9663 24.8625 58.669 25.5978 58.669 26.6147V27.7021C58.669 28.6877 58.9428 29.4387 59.4904 29.9471C60.0379 30.4634 60.8046 30.7137 61.7902 30.7137C62.5333 30.7137 63.1904 30.5964 63.7615 30.3696L67.8683 28.805H67.8605Z" fill="#1D1A3F"/>
<path d="M74.7368 32.1145C74.3379 32.1145 74.1423 31.9189 74.1423 31.5356V14.5529C74.1423 14.1539 74.3379 13.9583 74.7368 13.9583H75.4409C75.8398 13.9583 76.0354 14.1539 76.0354 14.5529V15.867L77.8111 14.7171C78.8672 14.0366 79.978 13.7002 81.1513 13.7002H81.6755C82.0744 13.7002 82.27 13.8958 82.27 14.2947V15.0535C82.27 15.4524 82.0744 15.648 81.6755 15.648H81.1826C80.0014 15.648 78.9532 15.8905 78.0458 16.3755L76.0589 17.4628V31.52C76.0589 31.9111 75.8633 32.0988 75.4643 32.0988H74.7368V32.1145Z" fill="#1D1A3F"/>
<path d="M83.8186 18.8704C83.8186 17.2198 84.3036 15.9448 85.2814 15.053C86.2592 14.1612 87.6595 13.7075 89.49 13.7075H91.1796C93.0101 13.7075 94.4103 14.1534 95.3882 15.053C96.366 15.9448 96.851 17.2198 96.851 18.8704V22.2732C96.851 22.9381 96.499 23.2745 95.7949 23.2745H85.7508V27.2249C85.7508 29.556 87.0024 30.7137 89.4978 30.7137H91.1874C92.4312 30.7137 93.3621 30.4478 93.9957 29.9237C94.6215 29.3996 94.9344 28.6173 94.9344 27.5926V27.53C94.9344 27.1701 95.13 26.9902 95.5133 26.9902H96.2721C96.6632 26.9902 96.851 27.1701 96.851 27.53V27.6082C96.851 29.0788 96.3582 30.2444 95.3725 31.0892C94.3869 31.9419 92.9866 32.3643 91.1796 32.3643H89.49C87.6595 32.3643 86.2592 31.9184 85.2814 31.0266C84.3036 30.1349 83.8186 28.8676 83.8186 27.2171V18.8626V18.8704ZM94.9188 18.8704C94.9188 16.5315 93.6672 15.3659 91.1718 15.3659H89.4821C86.9867 15.3659 85.7351 16.5315 85.7351 18.8704V21.7178H94.911V18.8704H94.9188Z" fill="#1D1A3F"/>
<path d="M100.692 18.8704C100.692 17.2198 101.177 15.9448 102.155 15.053C103.133 14.1612 104.533 13.7075 106.363 13.7075H108.053C109.883 13.7075 111.284 14.1534 112.261 15.053C113.239 15.9448 113.724 17.2198 113.724 18.8704V22.2732C113.724 22.9381 113.372 23.2745 112.668 23.2745H102.624V27.2249C102.624 29.556 103.876 30.7137 106.371 30.7137H108.061C109.305 30.7137 110.235 30.4478 110.869 29.9237C111.495 29.3996 111.808 28.6173 111.808 27.5926V27.53C111.808 27.1701 112.003 26.9902 112.387 26.9902H113.145C113.537 26.9902 113.724 27.1701 113.724 27.53V27.6082C113.724 29.0788 113.231 30.2444 112.246 31.0892C111.26 31.9419 109.86 32.3643 108.053 32.3643H106.363C104.533 32.3643 103.133 31.9184 102.155 31.0266C101.177 30.1349 100.692 28.8676 100.692 27.2171V18.8626V18.8704ZM111.792 18.8704C111.792 16.5315 110.54 15.3659 108.045 15.3659H106.355C103.86 15.3659 102.608 16.5315 102.608 18.8704V21.7178H111.784V18.8704H111.792Z" fill="#1D1A3F"/>
<path d="M118.472 32.1145C118.073 32.1145 117.878 31.9189 117.878 31.5356V14.5529C117.878 14.1539 118.073 13.9583 118.472 13.9583H119.176C119.575 13.9583 119.771 14.1539 119.771 14.5529V15.867L121.547 14.7171C122.603 14.0366 123.714 13.7002 124.887 13.7002H125.411C125.81 13.7002 126.006 13.8958 126.006 14.2947V15.0535C126.006 15.4524 125.81 15.648 125.411 15.648H124.918C123.737 15.648 122.689 15.8905 121.781 16.3755L119.794 17.4628V31.52C119.794 31.9111 119.599 32.0988 119.2 32.0988H118.472V32.1145Z" fill="#1D1A3F"/>
<path d="M135.002 8.33377C135.002 7.93482 135.197 7.73926 135.596 7.73926H136.402C136.793 7.73926 136.981 7.93482 136.981 8.33377V18.8707H148.574V8.33377C148.574 7.93482 148.777 7.73926 149.184 7.73926H149.958C150.365 7.73926 150.569 7.93482 150.569 8.33377V31.5198C150.569 31.9188 150.365 32.1143 149.958 32.1143H149.184C148.777 32.1143 148.574 31.9188 148.574 31.5198V20.5995H136.981V31.5198C136.981 31.9188 136.785 32.1143 136.402 32.1143H135.596C135.197 32.1143 135.002 31.9188 135.002 31.5198V8.33377Z" fill="#1D1A3F"/>
<path d="M154.902 14.5374C154.902 14.1462 155.098 13.9585 155.497 13.9585H156.256C156.631 13.9585 156.819 14.1541 156.819 14.5374V27.4759C156.819 29.5645 157.844 30.6049 159.893 30.6049C160.675 30.6049 161.387 30.4641 162.029 30.1903L166.253 28.352V14.5374C166.253 14.1462 166.441 13.9585 166.824 13.9585H167.583C167.974 13.9585 168.162 14.1541 168.162 14.5374V31.5436C168.162 31.9191 167.966 32.1068 167.583 32.1068H166.855C166.464 32.1068 166.276 31.9191 166.276 31.5436V30.0338L162.545 31.7235C161.598 32.1538 160.621 32.365 159.604 32.365C158.11 32.365 156.952 31.9425 156.138 31.1055C155.317 30.2607 154.91 29.056 154.91 27.4759V14.5374H154.902Z" fill="#1D1A3F"/>
<path d="M178.237 32.372C176.407 32.372 175.006 31.9261 174.036 31.0344C173.066 30.1426 172.581 28.8753 172.581 27.2248V6.76881C172.581 6.37768 172.777 6.18994 173.16 6.18994H173.919C174.294 6.18994 174.482 6.38551 174.482 6.76881V15.9603L178.135 14.3645C179.082 13.9264 180.052 13.7074 181.061 13.7074C182.563 13.7074 183.736 14.1377 184.581 14.9981C185.426 15.8586 185.848 17.0789 185.848 18.6591V27.2248C185.848 28.8753 185.363 30.1504 184.386 31.0344C183.408 31.9183 182 32.372 180.161 32.372H178.221H178.237ZM174.49 27.2248C174.49 29.5403 175.742 30.698 178.237 30.698H180.177C182.672 30.698 183.924 29.5403 183.924 27.2248V18.6591C183.924 17.603 183.65 16.813 183.103 16.281C182.555 15.7491 181.781 15.4831 180.772 15.4831C180.028 15.4831 179.324 15.6239 178.667 15.9134L174.49 17.6734V27.2248Z" fill="#1D1A3F"/>
<path d="M0.258144 13.3324L11.3192 2.2557C11.4835 2.09143 11.7025 1.99756 11.9372 1.99756H29.6866C30.0464 1.99756 30.3359 2.28699 30.3359 2.64683V20.3962C30.3359 20.6309 30.242 20.8499 30.0777 21.0142L19.0166 32.0987C18.8524 32.263 18.6333 32.3569 18.3986 32.3569H0.649272C0.289434 32.3491 0 32.0596 0 31.7076V13.9504C0 13.7157 0.0938706 13.4967 0.258144 13.3324Z" fill="#00B265"/>
<path d="M6.88379 13.8413V25.1058C6.88379 25.3013 7.04806 25.4656 7.24363 25.4656H18.5081C18.7037 25.4656 18.8679 25.3013 18.8679 25.1058V13.8413C18.8679 13.6457 18.7037 13.4814 18.5081 13.4814H7.24363C7.04806 13.4814 6.88379 13.6457 6.88379 13.8413ZM14.5108 21.4683H11.2331C11.0376 21.4683 10.8733 21.304 10.8733 21.1084V17.8308C10.8733 17.6352 11.0376 17.4709 11.2331 17.4709H14.5108C14.7063 17.4709 14.8706 17.6352 14.8706 17.8308V21.1084C14.8706 21.304 14.7063 21.4683 14.5108 21.4683Z" fill="white"/>
</svg>
