<svg width="140" height="39" viewBox="0 0 140 39" fill="none" xmlns="http://www.w3.org/2000/svg">
<path d="M37.1879 13.5984C37.1337 12.7641 37.2547 11.9276 37.543 11.1425C37.8313 10.3574 38.2807 9.64089 38.8623 9.03877C40.1738 7.90396 41.8803 7.3292 43.6131 7.43862H46.7283C48.4496 7.31967 50.1492 7.87728 51.4635 8.99216C52.0465 9.5949 52.4967 10.3126 52.7851 11.0992C53.0735 11.8858 53.1937 12.7239 53.1379 13.5596V14.8646C53.1379 15.2452 52.9277 15.4394 52.5227 15.4394H51.7439C51.3389 15.4394 51.1364 15.2452 51.1364 14.8646V13.5984C51.1795 13.0013 51.101 12.4017 50.9056 11.8357C50.7102 11.2697 50.4019 10.7489 49.9993 10.3049C49.0997 9.5169 47.9232 9.11738 46.7283 9.19413H43.6131C43.0188 9.15318 42.4223 9.23028 41.8581 9.42096C41.294 9.61163 40.7734 9.91209 40.3265 10.3049C39.9268 10.7506 39.6209 11.2717 39.4269 11.8374C39.2329 12.4032 39.1548 13.002 39.1972 13.5984V26.0268C39.1547 26.6244 39.2327 27.2245 39.4266 27.7915C39.6206 28.3585 39.9266 28.881 40.3265 29.3281C40.773 29.721 41.2938 30.021 41.8582 30.2104C42.4226 30.3998 43.0192 30.4748 43.6131 30.4311H46.7283C47.3244 30.4725 47.9228 30.3949 48.4885 30.2028C49.0541 30.0107 49.5757 29.7081 50.0227 29.3126C50.4255 28.8671 50.7338 28.345 50.9292 27.7777C51.1246 27.2104 51.2031 26.6096 51.1598 26.0113V24.7063C51.1598 24.3257 51.3623 24.1315 51.7672 24.1315H52.546C52.951 24.1315 53.1613 24.3257 53.1613 24.7063V26.0113C53.2059 26.8532 53.0721 27.695 52.7689 28.4819C52.4656 29.2689 51.9996 29.9833 51.4012 30.5787C50.0869 31.6936 48.3873 32.2512 46.666 32.1322H43.6131C41.8945 32.2483 40.1984 31.6909 38.8857 30.5787C38.304 29.9766 37.8547 29.2601 37.5664 28.475C37.2781 27.6899 37.1571 26.8534 37.2112 26.019L37.1879 13.5984Z" fill="#1D1A3F"/>
<path d="M56.4791 26.4391C56.4791 23.4873 58.3795 22.0115 62.1801 22.0115H67.5616V18.7568C67.6016 18.2771 67.542 17.7943 67.3866 17.3385C67.2311 16.8828 66.9832 16.4639 66.6582 16.108C65.8684 15.4803 64.8691 15.1749 63.8623 15.2535H62.5383C61.5574 15.1671 60.5788 15.4436 59.7891 16.0303C59.4758 16.3392 59.2339 16.7127 59.0806 17.1247C58.9272 17.5366 58.866 17.977 58.9013 18.415C58.9115 18.4929 58.9036 18.5721 58.8782 18.6465C58.8529 18.7209 58.8107 18.7884 58.755 18.844C58.6993 18.8995 58.6316 18.9416 58.557 18.9669C58.4824 18.9921 58.403 19 58.3249 18.9898H57.5461C57.4683 19.0003 57.3891 18.9926 57.3148 18.9673C57.2405 18.942 57.1731 18.8998 57.1179 18.844C57.0627 18.7883 57.0214 18.7205 56.997 18.646C56.9727 18.5716 56.966 18.4925 56.9776 18.415C56.9382 17.7577 57.0441 17.0997 57.2877 16.4877C57.5313 15.8756 57.9066 15.3244 58.3872 14.8729C59.564 13.976 61.0304 13.542 62.5072 13.6534H63.8623C65.3792 13.5412 66.8829 14.0014 68.0757 14.9428C68.5712 15.4456 68.9539 16.0478 69.1983 16.7094C69.4427 17.3709 69.5432 18.0768 69.4931 18.7801V31.3327C69.5033 31.4106 69.4954 31.4898 69.4701 31.5642C69.4447 31.6386 69.4026 31.7062 69.3469 31.7617C69.2912 31.8173 69.2234 31.8593 69.1489 31.8846C69.0743 31.9099 68.9949 31.9177 68.9168 31.9076H68.138C68.0607 31.9167 67.9824 31.908 67.9091 31.8822C67.8358 31.8563 67.7695 31.8139 67.7152 31.7583C67.661 31.7027 67.6203 31.6354 67.5964 31.5616C67.5725 31.4878 67.5659 31.4095 67.5772 31.3327V30.121L63.9324 31.6279C63.0591 31.9903 62.1212 32.1726 61.1754 32.1639C60.5537 32.1932 59.9324 32.0984 59.348 31.885C58.7635 31.6716 58.2277 31.3438 57.772 30.9211C57.3306 30.4768 56.9875 29.9452 56.7648 29.3605C56.5421 28.7758 56.4448 28.1511 56.4791 27.5266V26.4391ZM67.5616 28.6218V23.5417H62.2112C61.194 23.4602 60.177 23.7022 59.3062 24.233C58.9933 24.5044 58.749 24.8457 58.5934 25.229C58.4378 25.6124 58.3751 26.027 58.4106 26.4391V27.5266C58.3772 27.9318 58.4293 28.3395 58.5634 28.7234C58.6976 29.1074 58.9108 29.4591 59.1894 29.7559C59.8235 30.2999 60.644 30.5782 61.4791 30.5327C62.1467 30.5445 62.8103 30.4285 63.4339 30.1909L67.5616 28.6218Z" fill="#1D1A3F"/>
<path d="M75.0461 15.5557H72.4293C72.3516 15.5673 72.2723 15.5606 72.1976 15.5364C72.123 15.5121 72.055 15.4708 71.9991 15.4158C71.9432 15.3608 71.9009 15.2935 71.8755 15.2194C71.8502 15.1453 71.8424 15.0663 71.853 14.9887V14.4294C71.8424 14.3518 71.8502 14.2728 71.8755 14.1987C71.9009 14.1245 71.9432 14.0573 71.9991 14.0023C72.055 13.9473 72.123 13.906 72.1976 13.8817C72.2723 13.8574 72.3516 13.8508 72.4293 13.8624H75.0617V8.42494C75.0514 8.34704 75.0593 8.26785 75.0847 8.19347C75.11 8.11909 75.1522 8.05151 75.2079 7.99596C75.2636 7.94041 75.3313 7.89837 75.4059 7.87308C75.4805 7.8478 75.5599 7.83994 75.638 7.85013H76.4168C76.4964 7.83759 76.5778 7.84359 76.6546 7.86768C76.7315 7.89176 76.8017 7.93327 76.8598 7.98895C76.9179 8.04462 76.9623 8.11296 76.9895 8.1886C77.0166 8.26425 77.0259 8.34514 77.0165 8.42494V13.8624H81.6894C82.0865 13.8624 82.2813 14.0488 82.2813 14.4294V14.9731C82.2813 15.346 82.0865 15.5402 81.6894 15.5402H77.0165V27.3782C76.9854 27.7617 77.0329 28.1474 77.1561 28.512C77.2793 28.8766 77.4756 29.2123 77.733 29.4988C78.3752 30.0153 79.1932 30.2631 80.0149 30.1901H81.6504C81.7285 30.1799 81.8079 30.1878 81.8825 30.2131C81.9571 30.2384 82.0248 30.2804 82.0805 30.336C82.1362 30.3915 82.1784 30.4591 82.2037 30.5335C82.2291 30.6078 82.2369 30.687 82.2267 30.7649V31.3475C82.2359 31.4245 82.2272 31.5026 82.2013 31.5758C82.1753 31.6489 82.1328 31.7151 82.0771 31.7691C82.0213 31.8232 81.9539 31.8638 81.8799 31.8877C81.8059 31.9115 81.7274 31.9181 81.6504 31.9068H79.9993C76.7179 31.9068 75.0798 30.3973 75.085 27.3782L75.0461 15.5557Z" fill="#1D1A3F"/>
<path d="M84.4929 26.4379C84.4929 23.4861 86.3932 22.0102 90.1939 22.0102H95.5754V18.7556C95.6154 18.2758 95.5558 17.793 95.4004 17.3373C95.2449 16.8816 94.997 16.4627 94.672 16.1068C93.8737 15.4722 92.8621 15.1664 91.8449 15.2523H90.521C89.5378 15.1676 88.5574 15.4438 87.764 16.0291C87.4533 16.3396 87.2138 16.7136 87.0619 17.1252C86.9099 17.5369 86.8492 17.9765 86.8839 18.4138C86.8944 18.4924 86.8864 18.5724 86.8607 18.6475C86.8349 18.7225 86.792 18.7906 86.7354 18.8463C86.6788 18.902 86.61 18.9439 86.5344 18.9686C86.4588 18.9932 86.3785 19.0001 86.2998 18.9886H85.521C85.4437 18.9978 85.3654 18.9891 85.2921 18.9632C85.2188 18.9373 85.1525 18.8949 85.0982 18.8393C85.044 18.7837 85.0033 18.7164 84.9794 18.6426C84.9555 18.5688 84.9489 18.4905 84.9602 18.4138C84.9209 17.7565 85.0267 17.0985 85.2703 16.4865C85.5139 15.8744 85.8893 15.3232 86.3699 14.8717C87.5549 13.9674 89.0337 13.533 90.521 13.6522H91.8449C93.3618 13.54 94.8656 14.0002 96.0583 14.9416C96.5539 15.4444 96.9366 16.0466 97.1809 16.7081C97.4253 17.3697 97.5258 18.0756 97.4758 18.7789V31.3315C97.4862 31.4102 97.4783 31.4902 97.4525 31.5652C97.4267 31.6403 97.3839 31.7083 97.3272 31.764C97.2706 31.8197 97.2018 31.8616 97.1262 31.8863C97.0506 31.911 96.9703 31.9178 96.8916 31.9063H96.1128C96.035 31.9168 95.9558 31.9091 95.8815 31.8838C95.8072 31.8585 95.7398 31.8163 95.6846 31.7606C95.6295 31.7048 95.5881 31.637 95.5637 31.5626C95.5394 31.4881 95.5327 31.409 95.5443 31.3315V30.1198L91.9072 31.6267C91.0315 31.9901 90.0909 32.1724 89.1425 32.1627C88.5221 32.191 87.9022 32.0956 87.3192 31.8822C86.7362 31.6688 86.2016 31.3417 85.7468 30.9198C85.3054 30.4756 84.9623 29.944 84.7396 29.3593C84.5169 28.7746 84.4196 28.1498 84.454 27.5253L84.4929 26.4379ZM95.5754 28.6206V23.5405H90.225C89.2077 23.4579 88.1904 23.7 87.32 24.2318C87.0113 24.5055 86.7715 24.8478 86.62 25.231C86.4684 25.6143 86.4094 26.0277 86.4478 26.4379V27.5253C86.4144 27.9306 86.4664 28.3383 86.6006 28.7222C86.7347 29.1062 86.948 29.4579 87.2266 29.7547C87.857 30.2996 88.6755 30.5783 89.5085 30.5315C90.1786 30.5441 90.8449 30.4281 91.4711 30.1897L95.5754 28.6206Z" fill="#1D1A3F"/>
<path d="M102.079 6.73905C102.079 6.35066 102.266 6.15647 102.64 6.15647H103.418C103.498 6.14467 103.579 6.15161 103.655 6.17671C103.731 6.20182 103.801 6.2444 103.858 6.30104C103.914 6.35768 103.957 6.4268 103.982 6.50287C104.007 6.57893 104.014 6.65982 104.003 6.73905V31.3317C104.013 31.4103 104.005 31.4903 103.979 31.5654C103.954 31.6404 103.911 31.7085 103.854 31.7642C103.797 31.8199 103.729 31.8618 103.653 31.8865C103.577 31.9112 103.497 31.918 103.418 31.9065H102.64C102.562 31.9157 102.484 31.907 102.411 31.8811C102.337 31.8552 102.271 31.8128 102.217 31.7572C102.163 31.7017 102.122 31.6343 102.098 31.5605C102.074 31.4867 102.068 31.4084 102.079 31.3317V6.73905Z" fill="#1D1A3F"/>
<path d="M108.372 18.7565C108.327 18.0576 108.433 17.3572 108.681 16.7022C108.93 16.0472 109.315 15.4526 109.812 14.9581C110.998 14.0075 112.501 13.5411 114.018 13.6531H115.965C117.478 13.5497 118.973 14.0246 120.147 14.9814C120.646 15.4752 121.033 16.0695 121.283 16.7246C121.532 17.3796 121.639 18.0803 121.596 18.7798V27.0524C121.64 27.7496 121.534 28.4482 121.284 29.1009C121.034 29.7535 120.646 30.345 120.147 30.8353C118.973 31.792 117.478 32.267 115.965 32.1636H114.018C112.498 32.2691 110.994 31.7942 109.812 30.8353C109.312 30.3457 108.923 29.7545 108.672 29.1018C108.42 28.4491 108.313 27.7502 108.356 27.0524L108.372 18.7565ZM115.965 30.5013C118.442 30.5013 119.68 29.3517 119.68 27.0524V18.7565C119.68 16.452 118.442 15.2998 115.965 15.2998H114.018C111.536 15.2998 110.293 16.452 110.287 18.7565V27.0524C110.287 29.3517 111.531 30.5013 114.018 30.5013H115.965Z" fill="#1D1A3F"/>
<path d="M125.591 34.222C125.639 34.1734 125.696 34.1352 125.759 34.1098C125.822 34.0844 125.89 34.0724 125.957 34.0744H126.876C126.944 34.0698 127.011 34.0807 127.073 34.1063C127.135 34.1319 127.19 34.1715 127.235 34.222C127.328 34.332 127.376 34.474 127.367 34.6181C127.367 36.4099 128.605 37.3058 131.082 37.3058H133.029C134.033 37.383 135.031 37.09 135.833 36.4824C136.158 36.1456 136.408 35.7435 136.565 35.3027C136.722 34.862 136.783 34.3929 136.744 33.9268V29.5536L133.434 31.0217C132.482 31.4385 131.452 31.6503 130.412 31.6431C129.748 31.681 129.083 31.588 128.455 31.3695C127.827 31.1509 127.248 30.811 126.752 30.3692C126.294 29.8842 125.941 29.3106 125.714 28.684C125.488 28.0573 125.393 27.3909 125.436 26.7261V18.7564C125.393 18.0564 125.501 17.3553 125.752 16.7003C126.004 16.0452 126.392 15.4512 126.892 14.958C128.074 14.0112 129.57 13.545 131.082 13.653H133.029C134.542 13.5496 136.037 14.0245 137.211 14.9813C137.701 15.4752 138.081 16.0669 138.325 16.7176C138.569 17.3682 138.673 18.063 138.629 18.7564V33.8491C138.672 34.546 138.562 35.2438 138.308 35.8943C138.054 36.5448 137.661 37.1325 137.157 37.6165C135.984 38.5579 134.5 39.0263 132.998 38.9292H131.051C129.565 39.0288 128.089 38.6266 126.861 37.7874C126.397 37.4049 126.028 36.9204 125.784 36.3718C125.539 35.8233 125.425 35.2257 125.451 34.6259C125.443 34.478 125.493 34.3328 125.591 34.222ZM136.744 27.8369V18.7564C136.744 16.452 135.506 15.2998 133.029 15.2998H131.082C128.6 15.2998 127.359 16.452 127.359 18.7564V26.7261C127.328 27.1588 127.389 27.5931 127.536 28.0011C127.684 28.4092 127.915 28.7819 128.216 29.0953C128.903 29.6594 129.782 29.9376 130.669 29.872C131.428 29.8836 132.181 29.7382 132.881 29.4448L136.744 27.8369Z" fill="#1D1A3F"/>
<path d="M0.253166 13.2554L11.1009 2.25634C11.1802 2.17511 11.2745 2.11063 11.3786 2.06662C11.4826 2.02262 11.5942 1.99997 11.707 2H29.1524C29.3213 2 29.4833 2.06793 29.6027 2.18883C29.7221 2.30974 29.7892 2.47373 29.7892 2.64472V20.2697C29.7892 20.3839 29.7668 20.4969 29.7234 20.6022C29.6799 20.7076 29.6162 20.8031 29.536 20.8834L18.6499 31.8902C18.5703 31.9704 18.4757 32.0337 18.3716 32.0764C18.2675 32.1191 18.1561 32.1403 18.0438 32.1388H0.63675C0.471787 32.1389 0.313219 32.0742 0.194445 31.9583C0.0756717 31.8424 0.00596251 31.6843 0 31.5174L0 13.8691C0.00162795 13.6388 0.0925498 13.4185 0.253166 13.2554Z" fill="#3631FF"/>
<path d="M18.5034 24.9458V21.6911C18.5014 21.5969 18.4636 21.5072 18.3978 21.4406C18.3321 21.374 18.2434 21.3358 18.1505 21.3338H12.9644C12.8714 21.3318 12.7828 21.2935 12.717 21.2269C12.6513 21.1603 12.6135 21.0706 12.6115 20.9765V17.7218C12.6135 17.6276 12.6513 17.5379 12.717 17.4713C12.7828 17.4047 12.8714 17.3664 12.9644 17.3645H18.1505C18.2441 17.3645 18.3338 17.3268 18.4 17.2598C18.4662 17.1928 18.5034 17.1019 18.5034 17.0071V13.7602C18.5034 13.6655 18.4662 13.5746 18.4 13.5076C18.3338 13.4406 18.2441 13.4029 18.1505 13.4029H7.10323C7.0566 13.4019 7.01024 13.4104 6.96695 13.428C6.92366 13.4455 6.88434 13.4718 6.85136 13.5052C6.81838 13.5386 6.79242 13.5784 6.77506 13.6223C6.75769 13.6661 6.74928 13.713 6.75033 13.7602V24.9458C6.75033 25.0405 6.78751 25.1314 6.85369 25.1984C6.91987 25.2654 7.00963 25.3031 7.10323 25.3031H18.1505C18.2434 25.3011 18.3321 25.2628 18.3978 25.1962C18.4636 25.1297 18.5014 25.0399 18.5034 24.9458Z" fill="white"/>
</svg>
