<svg width="32" height="32" viewBox="0 0 32 32" fill="none" xmlns="http://www.w3.org/2000/svg">
<path d="M2.01988 12.406L12.3913 2.01988C12.5454 1.86585 12.7507 1.77783 12.9708 1.77783H29.6135C29.9509 1.77783 30.2223 2.04922 30.2223 2.38662V19.0293C30.2223 19.2494 30.1343 19.4548 29.9802 19.6088L19.6088 30.0022C19.4548 30.1563 19.2494 30.2443 19.0293 30.2443H2.38662C2.04922 30.2369 1.77783 29.9656 1.77783 29.6355V12.9854C1.77783 12.7654 1.86585 12.56 2.01988 12.406Z" fill="#FF6633"/>
<path d="M19.4767 15.9488V12.8828C19.4767 12.6994 19.3227 12.5454 19.1393 12.5454H16.066C15.8826 12.5454 15.7286 12.6994 15.7286 12.8828V15.472C15.7286 15.9194 15.3692 16.2788 14.9218 16.2788H12.7873C12.3399 16.2788 11.9805 15.9194 11.9805 15.472V12.8828C11.9805 12.6994 11.8265 12.5454 11.6431 12.5454H8.56982C8.38645 12.5454 8.23242 12.6994 8.23242 12.8828V15.9488C8.23242 16.1321 8.38645 16.2862 8.56982 16.2862H11.1664C11.6138 16.2862 11.9732 16.6456 11.9732 17.093V19.2274C11.9732 19.6749 11.6138 20.0343 11.1664 20.0343H8.56982C8.38645 20.0343 8.23242 20.1883 8.23242 20.3717V23.4596C8.23242 23.643 8.38645 23.797 8.56982 23.797H11.6431C11.8265 23.797 11.9805 23.643 11.9805 23.4596V20.8484C11.9805 20.401 12.3399 20.0416 12.7873 20.0416H14.9218C15.3692 20.0416 15.7286 20.401 15.7286 20.8484V23.445C15.7286 23.6283 15.8826 23.7824 16.066 23.7824H19.1393C19.3227 23.7824 19.4767 23.6283 19.4767 23.445V20.3717C19.4767 20.1883 19.3227 20.0343 19.1393 20.0343H16.5428C16.0954 20.0343 15.7359 19.6749 15.7359 19.2274V17.093C15.7359 16.6456 16.0954 16.2862 16.5428 16.2862H19.1393C19.3227 16.2862 19.4767 16.1321 19.4767 15.9488Z" fill="white"/>
</svg>
