<svg width="170" height="70" viewBox="0 0 170 70" fill="none" xmlns="http://www.w3.org/2000/svg">
<path d="M67.6956 57.8556H63.5811V41.3403H67.6956V57.8556Z" fill="#C4122E"/>
<path d="M100.872 46.0727C100.703 45.9856 99.3788 45.191 97.4108 45.191C94.7508 45.191 92.9053 47.0654 92.9053 49.596C92.9053 52.05 94.6713 54.005 97.4108 54.005C99.3449 54.005 100.691 53.2262 100.872 53.1285V57.5612C100.356 57.7064 98.95 58.1486 97.1228 58.1486C92.4948 58.1486 88.4324 54.9171 88.4324 49.5947C88.4324 44.6643 92.1077 41.0473 97.1228 41.0473C99.0517 41.0473 100.483 41.5225 100.872 41.64V46.0727ZM57.9248 46.0727C57.7593 45.9856 56.4364 45.191 54.4684 45.191C51.8032 45.191 49.959 47.0654 49.959 49.596C49.959 52.05 51.7263 54.005 54.4684 54.005C56.4025 54.005 57.7475 53.2262 57.9248 53.1285V57.5612C57.4139 57.7064 56.0089 58.1486 54.1713 58.1486C49.5472 58.1486 45.49 54.9171 45.49 49.5947C45.49 44.6643 49.1653 41.0473 54.1726 41.0473C56.1093 41.0473 57.5377 41.5225 57.9248 41.64V46.0727ZM113.815 45.253C111.374 45.253 109.561 47.1987 109.561 49.596C109.561 51.9985 111.374 53.943 113.815 53.943C116.254 53.943 118.072 51.9985 118.072 49.596C118.072 47.1987 116.254 45.253 113.815 45.253ZM122.432 49.596C122.432 54.3204 118.831 58.1486 113.817 58.1486C108.8 58.1486 105.205 54.3205 105.205 49.5947C105.205 44.8794 108.802 41.0473 113.815 41.0473C118.831 41.0473 122.432 44.8794 122.432 49.596ZM83.2987 45.0946C83.2374 45.0748 81.5054 44.5903 80.0822 44.5903C78.4335 44.5903 77.5368 45.1501 77.5368 45.9434C77.5368 46.9493 78.7463 47.3004 79.4227 47.5169L80.5579 47.8826C83.2296 48.7432 84.4456 50.5953 84.4456 52.607C84.4456 56.756 80.8433 58.1499 77.6945 58.1499C75.5063 58.1499 73.4562 57.7407 73.2542 57.6985V53.8967C73.6165 53.9891 75.3421 54.5119 77.1393 54.5119C79.1868 54.5119 80.1278 53.9047 80.1278 52.9701C80.1278 52.1332 79.3132 51.65 78.2927 51.3252C78.0451 51.2408 77.6698 51.1219 77.4143 51.0374C75.1231 50.3035 73.2125 48.9386 73.2125 46.2061C73.2125 43.1171 75.4958 41.0433 79.2884 41.0433C81.2916 41.0433 83.1762 41.5357 83.2987 41.5687V45.0932V45.0946Z" fill="#C4122E"/>
<path d="M41.1266 23.5922C41.1266 22.4543 40.2091 21.5316 39.0843 21.5316C37.9596 21.5316 37.0408 22.4543 37.0408 23.5909V27.9273C37.0542 28.467 37.2754 28.9801 37.657 29.357C38.0387 29.7339 38.5506 29.9448 39.0837 29.9448C39.6168 29.9448 40.1287 29.7339 40.5104 29.357C40.892 28.9801 41.1132 28.467 41.1266 27.9273V23.5922ZM52.3467 17.9028C52.3467 17.354 52.1315 16.8277 51.7484 16.4396C51.3652 16.0516 50.8456 15.8336 50.3038 15.8336C49.762 15.8336 49.2424 16.0516 48.8592 16.4396C48.4761 16.8277 48.2609 17.354 48.2609 17.9028V27.9273C48.2609 28.4761 48.4761 29.0024 48.8592 29.3904C49.2424 29.7785 49.762 29.9965 50.3038 29.9965C50.8456 29.9965 51.3652 29.7785 51.7484 29.3904C52.1315 29.0024 52.3467 28.4761 52.3467 27.9273V17.9014V17.9028ZM63.5681 10.1171C63.5681 8.97921 62.6506 8.05515 61.5259 8.05515C60.3998 8.05515 59.4823 8.97921 59.4823 10.1171V32.0471C59.4958 32.5869 59.7169 33.0999 60.0986 33.4769C60.4802 33.8538 60.9922 34.0648 61.5252 34.0648C62.0583 34.0648 62.5702 33.8538 62.9519 33.4769C63.3335 33.0999 63.5547 32.5869 63.5681 32.0471V10.1171ZM74.7882 17.9028C74.7882 17.354 74.573 16.8277 74.1899 16.4396C73.8068 16.0516 73.2871 15.8336 72.7453 15.8336C72.2035 15.8336 71.6839 16.0516 71.3008 16.4396C70.9176 16.8277 70.7024 17.354 70.7024 17.9028V27.9273C70.7024 28.4761 70.9176 29.0024 71.3008 29.3904C71.6839 29.7785 72.2035 29.9965 72.7453 29.9965C73.2871 29.9965 73.8068 29.7785 74.1899 29.3904C74.573 29.0024 74.7882 28.4761 74.7882 27.9273V17.9014V17.9028ZM85.9966 23.5922C85.997 23.0463 85.7833 22.5226 85.4025 22.1362C85.0217 21.7498 84.5051 21.5323 83.9661 21.5316C83.4259 21.5312 82.9076 21.7478 82.5248 22.1338C82.142 22.5198 81.9259 23.0438 81.9238 23.5909V27.9273C81.9238 28.4743 82.1384 28.999 82.5203 29.3858C82.9022 29.7726 83.4201 29.9899 83.9602 29.9899C84.5003 29.9899 85.0183 29.7726 85.4002 29.3858C85.7821 28.999 85.9966 28.4743 85.9966 27.9273V23.5922ZM97.222 17.9028C97.2085 17.3648 96.9881 16.8534 96.6076 16.4777C96.2272 16.102 95.7169 15.8917 95.1855 15.8917C94.6542 15.8917 94.1439 16.102 93.7634 16.4777C93.383 16.8534 93.1626 17.3648 93.1491 17.9028V27.9273C93.1491 28.4743 93.3637 28.999 93.7456 29.3858C94.1275 29.7726 94.6455 29.9899 95.1855 29.9899C95.7256 29.9899 96.2436 29.7726 96.6255 29.3858C97.0074 28.999 97.222 28.4743 97.222 27.9273V17.9014V17.9028ZM108.45 10.1171C108.45 9.57006 108.235 9.04543 107.853 8.65862C107.472 8.27181 106.954 8.05451 106.413 8.05451C105.873 8.05451 105.355 8.27181 104.973 8.65862C104.592 9.04543 104.377 9.57006 104.377 10.1171V32.0471C104.365 32.3256 104.409 32.6036 104.506 32.8645C104.603 33.1254 104.751 33.3637 104.941 33.5651C105.131 33.7664 105.36 33.9267 105.613 34.0362C105.866 34.1457 106.138 34.2021 106.413 34.2021C106.689 34.2021 106.961 34.1457 107.214 34.0362C107.467 33.9267 107.696 33.7664 107.886 33.5651C108.076 33.3637 108.224 33.1254 108.321 32.8645C108.418 32.6036 108.462 32.3256 108.45 32.0471V10.1171ZM119.675 17.9028C119.675 16.7636 118.764 15.8382 117.613 15.8382C117.073 15.8385 116.556 16.0561 116.174 16.443C115.792 16.8298 115.578 17.3544 115.578 17.9014V27.9273C115.578 29.0718 116.49 29.9945 117.613 29.9945C118.764 29.9945 119.675 29.0718 119.675 27.9273V17.9014V17.9028ZM130.88 23.5922C130.88 23.0447 130.665 22.5195 130.283 22.1323C129.9 21.7451 129.382 21.5276 128.841 21.5276C128.301 21.5276 127.782 21.7451 127.4 22.1323C127.018 22.5195 126.803 23.0447 126.803 23.5922V27.9273C126.803 29.0718 127.717 29.9958 128.841 29.9958C129.965 29.9958 130.878 29.0718 130.878 27.9273V23.5922H130.88Z" fill="#15495D"/>
<path d="M128.525 55.6799V55.9386H127.797V57.854H127.498V55.94H126.768V55.6799H128.525ZM128.677 55.6799H129.145L129.788 57.4633H129.798L130.42 55.6812H130.878V57.854H130.572V56.072H130.562L129.91 57.854H129.627L128.991 56.072H128.977V57.854H128.677V55.6799Z" fill="#C4122E"/>
</svg>
