<svg width="32" height="32" viewBox="0 0 32 32" fill="none" xmlns="http://www.w3.org/2000/svg">
<path d="M6 16H12V18H6V16ZM6 12H16V14H6V12ZM6 8H16V10H6V8Z" fill="#1D1A3F"/>
<path d="M16 26H4V6H28V16H30V6C30 5.46957 29.7893 4.96086 29.4142 4.58579C29.0391 4.21071 28.5304 4 28 4H4C3.46957 4 2.96086 4.21071 2.58579 4.58579C2.21071 4.96086 2 5.46957 2 6V26C2 26.5304 2.21071 27.0391 2.58579 27.4142C2.96086 27.7893 3.46957 28 4 28H16V26Z" fill="#1D1A3F"/>
<path d="M25.912 20.703L24 17L22.2 20.703L18 21.297L21 24L20.229 28L24 25.75L27.771 28L27 24L30 21.297L25.912 20.703Z" fill="#FF6633"/>
</svg>
