<svg width="170" height="70" viewBox="0 0 170 70" fill="none" xmlns="http://www.w3.org/2000/svg">
<path d="M69.2269 19.585C68.1558 19.585 67.1829 19.8296 66.331 20.3128C65.4979 20.7823 64.7764 21.3973 64.1919 22.1386C63.6065 22.8749 63.1578 23.7016 62.8556 24.5992C62.5529 25.4942 62.3997 26.3956 62.3997 27.2814C62.3997 28.1437 62.5475 29.0382 62.8355 29.9422C63.1257 30.8488 63.551 31.6819 64.0959 32.4157C64.6472 33.1603 65.3264 33.7746 66.1126 34.2472C66.9204 34.7326 67.8521 34.9799 68.8814 34.9799H89.4396C90.0239 34.9799 90.5259 34.7802 90.9353 34.3867C91.3447 33.9934 91.5532 33.5093 91.5532 32.9488C91.5532 32.3881 91.3447 31.9047 90.9353 31.5107C90.5259 31.1179 90.0239 30.9188 89.4396 30.9188H69.955C69.2296 30.9188 68.6456 30.7972 68.2231 30.5603C67.783 30.3156 67.436 30.0168 67.1842 29.6715C66.9329 29.3199 66.7577 28.9292 66.6659 28.5102C66.5694 28.0643 66.5198 27.6512 66.5198 27.2814C66.5198 26.9147 66.5694 26.5004 66.6659 26.0549C66.7577 25.6346 66.9329 25.2457 67.1842 24.8946C67.436 24.5477 67.7829 24.2502 68.221 24.0048C68.6464 23.7652 69.2296 23.6462 69.955 23.6462H89.4396C90.0239 23.6462 90.5259 23.4472 90.9353 23.0539C91.3447 22.6591 91.5532 22.1761 91.5532 21.6162C91.5532 21.0545 91.3447 20.5714 90.9353 20.1784C90.5259 19.7848 90.0239 19.585 89.4396 19.585H69.2269Z" fill="#00ADEF"/>
<path d="M98.2036 19.5854C97.4978 19.5854 96.8306 19.7145 96.2209 19.9717C95.6188 20.2264 95.0818 20.5765 94.6271 21.011C94.1758 21.4462 93.8117 21.9616 93.5476 22.5429C93.2808 23.1301 93.1458 23.7706 93.1458 24.4493C93.1458 25.1274 93.2808 25.7688 93.5476 26.3546C93.8117 26.9352 94.1758 27.4511 94.6271 27.8871C95.0818 28.3237 95.6187 28.6739 96.2222 28.9268C96.8306 29.1826 97.4978 29.3127 98.2036 29.3127H117.445C117.676 29.3127 117.861 29.3878 118.031 29.5535C118.203 29.7196 118.282 29.9068 118.282 30.1489C118.282 30.3648 118.203 30.536 118.039 30.688C117.866 30.8449 117.679 30.9198 117.445 30.9198H96.2977C95.7148 30.9198 95.2113 31.1181 94.8026 31.5109C94.3932 31.9049 94.1854 32.3891 94.1854 32.949C94.1854 33.5095 94.3932 33.9937 94.8026 34.3864C95.2113 34.7797 95.7148 34.9801 96.2977 34.9801H117.307C118.01 34.9801 118.68 34.8565 119.297 34.6144C119.916 34.371 120.461 34.0259 120.918 33.5859C121.372 33.1514 121.736 32.6369 121.999 32.0556C122.266 31.4697 122.4 30.8271 122.4 30.1489C122.4 29.471 122.266 28.8264 121.999 28.2294C121.736 27.6373 121.372 27.1144 120.918 26.6779C120.464 26.2414 119.92 25.8924 119.305 25.6366C118.682 25.3824 118.012 25.2511 117.307 25.2511H98.1337C97.9025 25.2511 97.7077 25.1738 97.5253 25.0051C97.3463 24.8415 97.2654 24.6664 97.2654 24.4493C97.2654 24.2157 97.3463 24.0354 97.5178 23.8852C97.7022 23.7225 97.897 23.6465 98.1337 23.6465H119.25C119.832 23.6465 120.337 23.4469 120.746 23.0547C121.154 22.6601 121.362 22.1766 121.362 21.6162C121.362 21.0545 121.154 20.5718 120.746 20.178C120.337 19.7853 119.83 19.5854 119.25 19.5854H98.2036Z" fill="#00ADEF"/>
<path d="M128.4 19.5854C127.695 19.5854 127.027 19.7145 126.417 19.9717C125.815 20.2264 125.278 20.5765 124.824 21.011C124.371 21.4483 124.008 21.9623 123.743 22.5429C123.478 23.1288 123.341 23.7694 123.341 24.4493C123.341 25.1293 123.478 25.77 123.743 26.3546C124.008 26.9352 124.371 27.4511 124.824 27.8871C125.278 28.3237 125.815 28.6739 126.418 28.9268C127.027 29.1826 127.693 29.3127 128.4 29.3127H147.642C147.87 29.3127 148.055 29.3878 148.227 29.5535C148.399 29.7183 148.478 29.9068 148.478 30.1489C148.478 30.3648 148.4 30.536 148.234 30.688C148.062 30.8449 147.875 30.9198 147.642 30.9198H126.493C125.91 30.9198 125.407 31.1181 124.998 31.5109C124.59 31.9049 124.384 32.3891 124.384 32.949C124.384 33.5095 124.59 33.9937 124.998 34.3864C125.407 34.7797 125.91 34.9801 126.493 34.9801H147.504C148.206 34.9801 148.876 34.8565 149.492 34.6144C150.111 34.371 150.657 34.0272 151.113 33.5859C151.568 33.1514 151.932 32.6351 152.196 32.0556C152.462 31.4697 152.597 30.8271 152.597 30.1489C152.597 29.471 152.462 28.8256 152.196 28.2294C151.934 27.6373 151.568 27.1157 151.113 26.6779C150.659 26.2414 150.116 25.8916 149.501 25.6366C148.88 25.3824 148.208 25.2511 147.504 25.2511H128.33C128.097 25.2511 127.906 25.1738 127.721 25.0051C127.543 24.8415 127.461 24.6664 127.461 24.4493C127.461 24.2157 127.543 24.0354 127.713 23.8852C127.898 23.7225 128.094 23.6465 128.33 23.6465H149.446C150.028 23.6465 150.532 23.4469 150.942 23.0547C151.35 22.6601 151.558 22.1766 151.558 21.6162C151.558 21.0545 151.35 20.5718 150.942 20.178C150.532 19.7853 150.026 19.5854 149.446 19.5854H128.4Z" fill="#00ADEF"/>
<path d="M40.1618 25.0359C40.1618 25.873 39.4545 26.5529 38.5838 26.5529H34.3712C33.4998 26.5529 32.7947 25.873 32.7947 25.0359V21.1181C32.7947 20.2815 33.4998 19.6021 34.3712 19.6021H38.5838C39.4545 19.6021 40.1618 20.2815 40.1618 21.1181V25.0359Z" fill="#00ADEF"/>
<path d="M32.0728 25.0359C32.0728 25.873 31.3661 26.5529 30.4949 26.5529H26.2825C25.4116 26.5529 24.7065 25.873 24.7065 25.0359V21.1181C24.7065 20.2815 25.4116 19.6021 26.2825 19.6021H30.4949C31.3661 19.6021 32.0728 20.2815 32.0728 21.1181V25.0359Z" fill="#00ADEF"/>
<path d="M32.0595 40.3317C32.0595 41.1685 31.3522 41.8461 30.481 41.8461H26.27C25.3988 41.8461 24.6924 41.1685 24.6924 40.3317V36.4148C24.6924 35.5791 25.3988 34.8999 26.27 34.8999H30.481C31.3522 34.8999 32.0595 35.5791 32.0595 36.4148V40.3317Z" fill="#00ADEF"/>
<path d="M40.1269 40.3295C40.1269 41.1665 39.4197 41.8451 38.5477 41.8451H34.3369C33.4645 41.8451 32.7585 41.1665 32.7585 40.3295V36.4151C32.7585 35.5763 33.4645 34.8989 34.3369 34.8989H38.5477C39.4197 34.8989 40.1269 35.5763 40.1269 36.4151V40.3295Z" fill="#00ADEF"/>
<path d="M48.2655 40.3163C48.2655 41.1539 47.5596 41.8305 46.6863 41.8305H42.4751C41.6031 41.8305 40.8984 41.1539 40.8984 40.3163V36.4003C40.8984 35.5637 41.6031 34.8882 42.4751 34.8882H46.6863C47.5596 34.8882 48.2655 35.5637 48.2655 36.4003V40.3163Z" fill="#00ADEF"/>
<path d="M23.9323 32.7083C23.9323 33.5467 23.2248 34.2252 22.3539 34.2252H18.1413C17.2704 34.2252 16.5645 33.5467 16.5645 32.7083V28.7909C16.5645 27.9539 17.2704 27.2739 18.1413 27.2739H22.3539C23.2248 27.2739 23.9323 27.9539 23.9323 28.7909V32.7083Z" fill="#00ADEF"/>
<path d="M23.9605 40.368V36.3966C23.9605 35.5755 23.2401 34.9097 22.354 34.9097H18.2091C17.6599 34.9097 17.1769 35.1654 16.8884 35.5569C16.7373 35.9484 16.6393 36.3618 16.605 36.7944V37.486C16.7963 39.9173 18.9836 41.8392 21.6588 41.8392C22.2171 41.8392 22.7539 41.7511 23.2552 41.5958C23.6806 41.33 23.9605 40.878 23.9605 40.368Z" fill="#00ADEF"/>
<path d="M18.1486 26.5314H22.3492C23.2161 26.5314 23.9196 25.8535 23.9196 25.0177V21.1058C23.9196 20.588 23.6501 20.1319 23.2373 19.8595C22.8231 19.716 22.3864 19.6235 21.9273 19.5913H21.1962C18.6225 19.7732 16.5933 21.8356 16.5933 24.3597C16.5933 24.8876 16.6849 25.3943 16.8483 25.8677C17.1309 26.2694 17.608 26.5314 18.1486 26.5314Z" fill="#00ADEF"/>
<path d="M46.6804 26.5314H42.4804C41.6138 26.5314 40.9087 25.8535 40.9087 25.0177V21.1058C40.9087 20.588 41.1811 20.1319 41.5918 19.8595C42.0084 19.716 42.4442 19.6235 42.9015 19.5913H43.6345C46.2055 19.7732 48.2382 21.8356 48.2382 24.3597C48.2382 24.8876 48.1455 25.3943 47.9816 25.8677C47.6985 26.2694 47.2213 26.5314 46.6804 26.5314Z" fill="#00ADEF"/>
<path d="M26.2469 42.5029H30.4748C31.3477 42.5029 32.0572 43.1829 32.0572 44.0225V47.9528C32.0572 48.4743 31.7862 48.9314 31.3709 49.2063C30.953 49.3497 30.5123 49.4427 30.0524 49.4749H29.314C26.7241 49.292 24.6785 47.2193 24.6785 44.6837C24.6785 44.1539 24.773 43.6452 24.9361 43.1685C25.222 42.7675 25.7023 42.5029 26.2469 42.5029Z" fill="#4F4C4C"/>
<path d="M64.1128 44.141C64.1128 43.5117 64.2192 42.8816 64.4343 42.2467C64.6486 41.6118 64.9612 41.0336 65.3732 40.5151C65.785 39.9943 66.2827 39.5694 66.8668 39.2397C67.4507 38.908 68.1093 38.7432 68.8492 38.7432H83.8584C84.2035 38.7432 84.4954 38.8598 84.7352 39.0908C84.9755 39.3213 85.0955 39.6021 85.0955 39.9339C85.0955 40.2619 84.9755 40.5435 84.7352 40.7735C84.4954 41.0045 84.2035 41.1211 83.8584 41.1211H69.3903C68.7889 41.1211 68.304 41.2234 67.9357 41.4302C67.5668 41.6363 67.2739 41.8873 67.0596 42.1848C66.8453 42.4823 66.6985 42.8086 66.6216 43.1635C66.5453 43.5163 66.5064 43.8422 66.5064 44.141C66.5064 44.4377 66.5452 44.7629 66.6216 45.1183C66.6985 45.4725 66.8453 45.7983 67.0596 46.095C67.2739 46.3932 67.5668 46.6444 67.9357 46.8504C68.304 47.0564 68.7889 47.1594 69.3903 47.1594H83.8584C84.2035 47.1594 84.4954 47.2753 84.7352 47.5058C84.9755 47.7377 85.0955 48.0171 85.0955 48.3468C85.0955 48.6778 84.9755 48.9585 84.7352 49.189C84.4954 49.42 84.2035 49.5359 83.8584 49.5359H68.5906C67.8888 49.5359 67.2619 49.3711 66.7127 49.0393C66.1636 48.7113 65.6947 48.2862 65.309 47.766C64.9227 47.2463 64.6272 46.6649 64.4222 46.0216C64.216 45.3772 64.1128 44.7514 64.1128 44.141Z" fill="#4F4C4C"/>
<path d="M103.739 46.8506C104.117 46.6445 104.412 46.3934 104.627 46.0944C104.841 45.7985 104.987 45.4726 105.066 45.1185C105.142 44.7631 105.181 44.4378 105.181 44.1411C105.181 43.8424 105.142 43.5165 105.066 43.1637C104.987 42.8096 104.841 42.4817 104.627 42.185C104.412 41.8875 104.117 41.6351 103.739 41.4304C103.363 41.2235 102.88 41.1213 102.296 41.1213H91.8953C91.2945 41.1213 90.8097 41.2235 90.4428 41.4304C90.0745 41.6351 89.7803 41.8875 89.5656 42.185C89.3517 42.4817 89.2062 42.8096 89.1288 43.1637C89.0512 43.5165 89.0136 43.8424 89.0136 44.1411C89.0136 44.4378 89.0514 44.7631 89.1288 45.1185C89.2062 45.4726 89.3517 45.7985 89.5656 46.0944C89.7803 46.3934 90.0745 46.6445 90.4428 46.8506C90.8097 47.0558 91.2945 47.1596 91.8953 47.1596H102.296C102.88 47.1596 103.363 47.0558 103.739 46.8506ZM107.574 44.1411C107.574 44.7683 107.467 45.398 107.252 46.0339C107.039 46.6688 106.725 47.2457 106.313 47.7662C105.902 48.2864 105.404 48.7114 104.821 49.0395C104.236 49.3712 103.575 49.536 102.838 49.536H91.097C90.3948 49.5033 89.7687 49.3172 89.218 48.979C88.6693 48.6411 88.2022 48.2169 87.8162 47.7041C87.43 47.1936 87.1337 46.6252 86.9294 45.9968C86.7216 45.3697 86.6194 44.7515 86.6194 44.1411C86.6194 43.5119 86.7271 42.8817 86.9411 42.2469C87.1529 41.612 87.4671 41.0337 87.8813 40.5148C88.2914 39.9938 88.7893 39.5696 89.3736 39.2399C89.9566 38.909 90.617 38.7441 91.3556 38.7441H103.095C103.8 38.7776 104.427 38.9643 104.974 39.3017C105.525 39.6383 105.992 40.0654 106.379 40.5766C106.763 41.0879 107.059 41.6563 107.267 42.2839C107.473 42.91 107.574 43.5295 107.574 44.1411Z" fill="#4F4C4C"/>
<path d="M127.07 46.2317C127.551 46.5531 128.042 46.9046 128.538 47.2832C128.727 47.4156 128.892 47.5691 129.028 47.7402C129.166 47.9148 129.235 48.1162 129.235 48.347C129.235 48.6779 129.113 48.9587 128.873 49.1892C128.633 49.4202 128.34 49.536 127.998 49.536C127.707 49.536 127.415 49.4202 127.123 49.1892C126.418 48.6931 125.699 48.2153 124.961 47.7533C124.222 47.291 123.454 46.8799 122.656 46.5158C121.858 46.1526 121.03 45.8641 120.172 45.6491C119.313 45.4366 118.42 45.3284 117.496 45.3284H112.372C112.149 45.3606 111.961 45.459 111.806 45.6246C111.651 45.7912 111.574 45.9968 111.574 46.2441V48.347C111.574 48.6779 111.449 48.9587 111.2 49.1892C110.951 49.4202 110.665 49.536 110.338 49.536C109.995 49.536 109.704 49.4202 109.462 49.1892C109.222 48.9587 109.102 48.6779 109.102 48.347V45.9724C109.102 45.5582 109.184 45.1675 109.347 44.7966C109.51 44.4242 109.728 44.1025 110.003 43.8305C110.278 43.5588 110.603 43.3453 110.982 43.1874C111.361 43.031 111.77 42.9517 112.217 42.9517H125.863C126.119 42.9517 126.345 42.8662 126.543 42.6916C126.741 42.5198 126.84 42.2996 126.84 42.0367C126.84 41.7894 126.741 41.5746 126.543 41.3917C126.345 41.2115 126.119 41.1213 125.863 41.1213H110.338C109.995 41.1213 109.704 41.0055 109.462 40.7742C109.222 40.5431 109.102 40.2621 109.102 39.9332C109.102 39.6028 109.222 39.321 109.462 39.091C109.704 38.86 109.995 38.7441 110.338 38.7441H125.758C126.24 38.7441 126.688 38.8309 127.109 39.004C127.531 39.1781 127.9 39.413 128.216 39.7097C128.535 40.0061 128.784 40.3538 128.965 40.7504C129.143 41.145 129.235 41.5746 129.235 42.0367C129.235 42.4979 129.143 42.9281 128.965 43.3234C128.784 43.7187 128.535 44.0664 128.216 44.3652C127.9 44.6593 127.531 44.8945 127.109 45.0683C126.688 45.2421 126.24 45.3284 125.758 45.3284H125.655C126.119 45.6092 126.593 45.9103 127.07 46.2317Z" fill="#4F4C4C"/>
<path d="M130.757 39.9332C130.757 39.6028 130.876 39.3211 131.117 39.0905C131.356 38.86 131.648 38.7441 131.992 38.7441H147.411C147.891 38.7441 148.343 38.8309 148.763 39.004C149.184 39.1773 149.553 39.413 149.869 39.7097C150.188 40.0061 150.436 40.353 150.617 40.7504C150.797 41.145 150.887 41.5746 150.887 42.0367C150.887 42.4979 150.797 42.9281 150.617 43.3234C150.436 43.72 150.188 44.0664 149.869 44.3636C149.553 44.6601 149.184 44.8945 148.763 45.0683C148.343 45.2421 147.891 45.3284 147.411 45.3284H134.026C133.802 45.3619 133.614 45.459 133.459 45.6246C133.305 45.7912 133.226 45.9968 133.226 46.2441V48.347C133.226 48.6779 133.102 48.9587 132.854 49.1892C132.606 49.4202 132.317 49.536 131.992 49.536C131.648 49.536 131.356 49.4202 131.117 49.1892C130.876 48.9587 130.757 48.6779 130.757 48.347V45.9724C130.757 45.5587 130.831 45.1675 130.987 44.7966C131.141 44.4258 131.362 44.1025 131.645 43.8305C131.927 43.5588 132.252 43.3453 132.621 43.1874C132.992 43.031 133.398 42.9517 133.844 42.9517H147.515C147.771 42.9517 147.999 42.8662 148.197 42.6916C148.395 42.5198 148.492 42.2996 148.492 42.0367C148.492 41.7894 148.395 41.5746 148.197 41.3917C147.999 41.2115 147.771 41.1206 147.515 41.1206H131.992C131.648 41.1206 131.356 41.0055 131.117 40.7742C130.876 40.5444 130.757 40.2621 130.757 39.9332Z" fill="#4F4C4C"/>
<path d="M32.0661 32.685C32.0661 33.5231 31.3589 34.2025 30.4882 34.2025H26.2759C25.4037 34.2025 24.6978 33.5231 24.6978 32.685V28.7674C24.6978 27.9306 25.4037 27.252 26.2759 27.252H30.4882C31.3589 27.252 32.0661 27.9306 32.0661 28.7674V32.685Z" fill="#4F4C4C"/>
<path d="M40.1377 32.685C40.1377 33.5231 39.4318 34.2025 38.5625 34.2025H34.3499C33.4793 34.2025 32.772 33.5231 32.772 32.685V28.7674C32.772 27.9306 33.4793 27.252 34.3499 27.252H38.5625C39.4318 27.252 40.1377 27.9306 40.1377 28.7674V32.685Z" fill="#4F4C4C"/>
<path d="M48.2655 32.685C48.2655 33.5231 47.5596 34.2025 46.6863 34.2025H42.4751C41.6031 34.2025 40.8984 33.5231 40.8984 32.685V28.7674C40.8984 27.9306 41.6031 27.252 42.4751 27.252H46.6863C47.5596 27.252 48.2655 27.9306 48.2655 28.7674V32.685Z" fill="#4F4C4C"/>
<path d="M40.1377 47.9604C40.1377 48.7975 39.4318 49.4775 38.5625 49.4775H34.3499C33.4793 49.4775 32.772 48.7975 32.772 47.9604V44.0431C32.772 43.206 33.4793 42.5273 34.3499 42.5273H38.5625C39.4318 42.5273 40.1377 43.206 40.1377 44.0431V47.9604Z" fill="#4F4C4C"/>
<path d="M48.2655 47.9604C48.2655 48.7975 47.5596 49.4775 46.6863 49.4775H42.4751C41.6031 49.4775 40.8984 48.7975 40.8984 47.9604V44.0431C40.8984 43.206 41.6031 42.5273 42.4751 42.5273H46.6863C47.5596 42.5273 48.2655 43.206 48.2655 44.0431V47.9604Z" fill="#4F4C4C"/>
<path d="M56.3479 40.3241C56.3479 41.1611 55.642 41.8398 54.7709 41.8398H50.5574C49.6868 41.8398 48.9795 41.1611 48.9795 40.3241V36.4077C48.9795 35.5714 49.6868 34.8936 50.5574 34.8936H54.7709C55.642 34.8936 56.3479 35.5714 56.3479 36.4077V40.3241Z" fill="#4F4C4C"/>
<path d="M48.9734 28.7417V32.715C48.9734 33.5366 49.6961 34.2019 50.5856 34.2019H54.7518C55.3026 34.2019 55.7886 33.9469 56.08 33.5567C56.2328 33.1639 56.3292 32.7493 56.364 32.3179V31.6251C56.1712 29.1899 53.9744 27.269 51.2875 27.269C50.7244 27.269 50.1851 27.3554 49.6809 27.5117C49.2542 27.7777 48.9734 28.2298 48.9734 28.7417Z" fill="#4F4C4C"/>
<path d="M54.7875 42.5303H50.5588C49.6841 42.5303 48.9761 43.2103 48.9761 44.0506V47.9809C48.9761 48.5011 49.2475 48.9593 49.6627 49.2339C50.0806 49.3781 50.5213 49.47 50.9821 49.5023H51.7188C54.3107 49.3194 56.3542 47.2468 56.3542 44.7112C56.3542 44.182 56.2617 43.6721 56.0962 43.1956C55.8122 42.7938 55.3308 42.5303 54.7875 42.5303Z" fill="#4F4C4C"/>
</svg>
