<svg width="184" height="40" viewBox="0 0 184 40" fill="none" xmlns="http://www.w3.org/2000/svg">
<path d="M38.8804 8.43211C38.8804 8.02713 39.0789 7.82861 39.4839 7.82861H47.0593C51.4346 7.82861 53.6183 9.7979 53.6183 13.7365V14.5226C53.6183 17.548 52.3875 19.3585 49.9259 19.9461C51.3075 20.1684 52.3319 20.756 52.9989 21.7169C53.6659 22.6777 53.9994 23.9006 53.9994 25.3934V26.4098C53.9994 28.3712 53.4436 29.8878 52.3239 30.9598C51.2043 32.0318 49.5526 32.5718 47.3451 32.5718H39.4839C39.0789 32.5718 38.8804 32.3733 38.8804 31.9683V8.43211ZM46.9799 19.152C48.5521 19.152 49.7194 18.7788 50.4738 18.0244C51.2281 17.2701 51.6013 16.1425 51.6013 14.6417V13.7365C51.6013 12.2913 51.244 11.2352 50.5214 10.5681C49.7988 9.90113 48.6474 9.56762 47.0593 9.56762H40.9132V19.152H46.9878H46.9799ZM47.3451 30.8407C48.9492 30.8407 50.1244 30.4675 50.8629 29.7211C51.6013 28.9746 51.9666 27.8709 51.9666 26.4177V25.2822C51.9666 23.7259 51.6013 22.5983 50.8708 21.8995C50.1403 21.2007 48.965 20.8434 47.3531 20.8434H40.9132V30.8407H47.3531H47.3451Z" fill="#1D1A3F"/>
<path d="M57.1438 26.9815C57.1438 23.9641 59.0813 22.4553 62.9564 22.4553H68.4354V19.1202C68.4354 17.8974 68.1337 17.0001 67.5223 16.4204C66.9108 15.8407 65.95 15.5469 64.6398 15.5469H63.2899C62.0194 15.5469 61.0824 15.8169 60.4789 16.3489C59.8754 16.881 59.5816 17.6989 59.5816 18.7867C59.5816 19.1838 59.3831 19.3743 58.994 19.3743H58.2078C57.8267 19.3743 57.6282 19.1758 57.6282 18.7867C57.6282 17.2304 58.1046 16.0234 59.0654 15.1658C60.0263 14.3082 61.4318 13.8794 63.2899 13.8794H64.6398C66.5376 13.8794 67.9669 14.3241 68.9357 15.2055C69.8965 16.0869 70.3809 17.3971 70.3809 19.1202V31.9762C70.3809 32.3732 70.1824 32.5638 69.7933 32.5638H69.0389C68.6578 32.5638 68.4672 32.3653 68.4672 31.9762V30.7375L64.7589 32.2859C63.8934 32.6512 62.9484 32.8338 61.94 32.8338C60.5027 32.8338 59.3513 32.4129 58.4699 31.5712C57.5885 30.7295 57.1517 29.5702 57.1517 28.0932V26.9895L57.1438 26.9815ZM68.4434 29.2049V24.0117H62.9881C61.6223 24.0117 60.6377 24.2499 60.0263 24.7264C59.4148 25.2028 59.1131 25.9492 59.1131 26.9815V28.0853C59.1131 29.0858 59.391 29.8481 59.9469 30.3642C60.5027 30.8883 61.2809 31.1424 62.2814 31.1424C63.0358 31.1424 63.7028 31.0233 64.2825 30.793L68.4513 29.2049H68.4434Z" fill="#1D1A3F"/>
<path d="M74.4944 19.1281C74.4944 17.4526 74.9867 16.1582 75.9793 15.253C76.9719 14.3478 78.3933 13.8872 80.2514 13.8872H81.9745C83.8326 13.8872 85.254 14.3398 86.2466 15.253C87.2392 16.1582 87.7315 17.4526 87.7315 19.1281V19.6918C87.7315 20.0889 87.533 20.2795 87.1439 20.2795H86.3578C85.9766 20.2795 85.786 20.0809 85.786 19.6918V19.1281C85.786 16.7776 84.5155 15.6024 81.9824 15.6024H80.2593C77.7342 15.6024 76.4716 16.7776 76.4716 19.1281V27.6087C76.4716 29.9591 77.7342 31.1344 80.2593 31.1344H81.9824C84.5155 31.1344 85.786 29.9591 85.786 27.6087V27.037C85.786 26.6558 85.9766 26.4573 86.3578 26.4573H87.1439C87.5409 26.4573 87.7315 26.6479 87.7315 27.037V27.6087C87.7315 29.2842 87.2392 30.5785 86.2466 31.4758C85.254 32.3811 83.8326 32.8337 81.9745 32.8337H80.2514C78.3933 32.8337 76.9719 32.3811 75.9793 31.4758C74.9867 30.5706 74.4944 29.2842 74.4944 27.6087V19.1281Z" fill="#1D1A3F"/>
<path d="M91.9559 6.84396C91.9559 6.44692 92.1545 6.25635 92.5435 6.25635H93.3138C93.7108 6.25635 93.9014 6.45486 93.9014 6.84396V21.9392H96.7759L102.414 14.6258C102.66 14.3003 102.946 14.1414 103.295 14.1414H104.034C104.224 14.1414 104.367 14.1891 104.447 14.2844C104.534 14.3797 104.574 14.4908 104.574 14.6258C104.574 14.737 104.526 14.8561 104.439 14.9752L98.4991 22.8047L104.645 31.7221C104.732 31.8412 104.78 31.9683 104.78 32.0874C104.78 32.2224 104.74 32.3335 104.653 32.4288C104.566 32.5241 104.447 32.5718 104.296 32.5718H103.494C103.128 32.5718 102.843 32.405 102.628 32.0715L96.7521 23.6067H93.8935V31.9842C93.8935 32.3812 93.6949 32.5718 93.3059 32.5718H92.5356C92.1386 32.5718 91.948 32.3732 91.948 31.9842V6.84396H91.9559Z" fill="#1D1A3F"/>
<path d="M112.308 32.8337C110.49 32.8337 109.092 32.4049 108.115 31.5393C107.139 30.6738 106.646 29.4827 106.646 27.9581V27.6246C106.646 27.4102 106.694 27.2673 106.789 27.1799C106.884 27.0926 107.035 27.0529 107.25 27.0529H108.02C108.218 27.0529 108.369 27.0926 108.465 27.1799C108.56 27.2673 108.608 27.4181 108.608 27.6246V27.9581C108.608 30.1259 109.838 31.2138 112.3 31.2138H114.071C116.548 31.2138 117.779 30.1497 117.779 28.0216V27.5372C117.779 26.6876 117.533 26.0364 117.033 25.5759C116.532 25.1153 115.746 24.7501 114.666 24.4801L111.347 23.6463C109.743 23.2413 108.584 22.6855 107.861 21.9629C107.147 21.2482 106.789 20.2477 106.789 18.9772V18.7072C106.789 17.2461 107.274 16.0709 108.234 15.1974C109.195 14.3239 110.529 13.8872 112.229 13.8872H114.031C115.857 13.8872 117.263 14.316 118.232 15.1815C119.208 16.0471 119.693 17.2382 119.693 18.7628V19.0486C119.693 19.263 119.645 19.406 119.558 19.4933C119.47 19.5807 119.32 19.6204 119.121 19.6204H118.351C117.946 19.6204 117.747 19.4298 117.747 19.0486V18.7628C117.747 16.595 116.509 15.5071 114.039 15.5071H112.252C111.109 15.5071 110.243 15.793 109.648 16.3568C109.052 16.9205 108.751 17.7067 108.751 18.7072V18.9772C108.751 19.7951 108.989 20.4224 109.457 20.8671C109.926 21.3117 110.688 21.6611 111.736 21.9152L115.04 22.7331C116.723 23.146 117.93 23.7098 118.653 24.4324C119.375 25.1471 119.732 26.1873 119.732 27.5372V28.0216C119.732 29.5224 119.248 30.7056 118.271 31.5552C117.295 32.4049 115.905 32.8337 114.087 32.8337H112.316H112.308Z" fill="#1D1A3F"/>
<path d="M125.092 15.8565H122.408C122.011 15.8565 121.821 15.6659 121.821 15.2768V14.7131C121.821 14.3319 122.019 14.1334 122.408 14.1334H125.092V8.57491C125.092 8.17788 125.291 7.9873 125.68 7.9873H126.45C126.855 7.9873 127.053 8.18582 127.053 8.57491V14.1334H131.778C132.183 14.1334 132.382 14.324 132.382 14.7131V15.2768C132.382 15.658 132.183 15.8565 131.778 15.8565H127.053V27.9422C127.053 28.9189 127.3 29.6495 127.784 30.118C128.276 30.5865 129.047 30.8247 130.111 30.8247H131.778C132.175 30.8247 132.366 31.0232 132.366 31.4123V31.9999C132.366 32.3811 132.167 32.5717 131.778 32.5717H130.095C126.752 32.5717 125.084 31.0232 125.084 27.9343V15.8486L125.092 15.8565Z" fill="#1D1A3F"/>
<path d="M134.724 26.9815C134.724 23.9641 136.662 22.4553 140.537 22.4553H146.016V19.1202C146.016 17.8974 145.714 17.0001 145.103 16.4204C144.491 15.8407 143.531 15.5469 142.22 15.5469H140.87C139.6 15.5469 138.663 15.8169 138.059 16.3489C137.456 16.881 137.162 17.6989 137.162 18.7867C137.162 19.1838 136.964 19.3743 136.575 19.3743H135.788C135.407 19.3743 135.209 19.1758 135.209 18.7867C135.209 17.2304 135.685 16.0234 136.646 15.1658C137.607 14.3082 139.012 13.8794 140.87 13.8794H142.22C144.118 13.8794 145.548 14.3241 146.516 15.2055C147.477 16.0869 147.961 17.3971 147.961 19.1202V31.9762C147.961 32.3732 147.763 32.5638 147.374 32.5638H146.62C146.238 32.5638 146.048 32.3653 146.048 31.9762V30.7375L142.339 32.2859C141.474 32.6512 140.529 32.8338 139.521 32.8338C138.083 32.8338 136.932 32.4129 136.05 31.5712C135.169 30.7295 134.732 29.5702 134.732 28.0932V26.9895L134.724 26.9815ZM146.024 29.2049V24.0117H140.569C139.203 24.0117 138.218 24.2499 137.607 24.7264C136.995 25.2028 136.694 25.9492 136.694 26.9815V28.0853C136.694 29.0858 136.972 29.8481 137.527 30.3642C138.083 30.8883 138.861 31.1424 139.862 31.1424C140.616 31.1424 141.283 31.0233 141.863 30.793L146.032 29.2049H146.024Z" fill="#1D1A3F"/>
<path d="M152.234 34.9381C152.329 34.8349 152.456 34.7872 152.607 34.7872H153.544C153.695 34.7872 153.814 34.8349 153.909 34.9381C153.996 35.0413 154.044 35.1763 154.044 35.3431C154.044 37.1694 155.307 38.0826 157.832 38.0826H159.817C161.095 38.0826 162.048 37.8047 162.676 37.2409C163.295 36.6771 163.605 35.8116 163.605 34.6284V30.1578L160.23 31.6586C159.277 32.0794 158.253 32.2938 157.157 32.2938C155.561 32.2938 154.314 31.8571 153.425 30.9916C152.535 30.126 152.083 28.8793 152.083 27.2674V19.1202C152.083 17.4448 152.575 16.1504 153.568 15.2452C154.56 14.34 155.982 13.8794 157.84 13.8794H159.825C161.683 13.8794 163.104 14.332 164.089 15.2452C165.074 16.1584 165.566 17.4448 165.566 19.1202V34.5569C165.566 36.2245 165.066 37.5029 164.065 38.4002C163.065 39.2975 161.651 39.7501 159.825 39.7501H157.84C155.974 39.7501 154.544 39.361 153.568 38.5749C152.591 37.7888 152.099 36.7168 152.099 35.3431C152.099 35.1684 152.146 35.0334 152.242 34.9381H152.234ZM163.597 28.4108V19.1282C163.597 16.7777 162.334 15.6025 159.809 15.6025H157.824C155.291 15.6025 154.02 16.7777 154.02 19.1282V27.2753C154.02 28.3473 154.314 29.1573 154.902 29.6972C155.489 30.2451 156.323 30.5151 157.403 30.5151C158.253 30.5151 159.007 30.3722 159.658 30.0784L163.597 28.4108Z" fill="#1D1A3F"/>
<path d="M169.473 19.1281C169.473 17.4526 169.965 16.1582 170.958 15.253C171.95 14.3478 173.372 13.8872 175.23 13.8872H176.945C178.803 13.8872 180.225 14.3398 181.217 15.253C182.21 16.1582 182.702 17.4526 182.702 19.1281V22.5823C182.702 23.2572 182.345 23.5987 181.63 23.5987H171.434V27.6087C171.434 29.975 172.705 31.1502 175.238 31.1502H176.953C178.216 31.1502 179.161 30.8803 179.804 30.3482C180.439 29.8162 180.757 29.0221 180.757 27.9819V27.9184C180.757 27.5531 180.955 27.3705 181.344 27.3705H182.114C182.511 27.3705 182.702 27.5531 182.702 27.9184V27.9978C182.702 29.4906 182.202 30.6738 181.201 31.5314C180.201 32.3969 178.779 32.8257 176.945 32.8257H175.23C173.372 32.8257 171.95 32.3731 170.958 31.4679C169.965 30.5626 169.473 29.2762 169.473 27.6008V19.1201V19.1281ZM180.741 19.1281C180.741 16.7538 179.47 15.5706 176.937 15.5706H175.222C172.689 15.5706 171.418 16.7538 171.418 19.1281V22.0185H180.733V19.1281H180.741Z" fill="#1D1A3F"/>
<path d="M0.788898 13.506L12.017 2.26204C12.1838 2.09529 12.4061 2 12.6443 2H30.6617C31.027 2 31.3208 2.29381 31.3208 2.65908V20.6765C31.3208 20.9147 31.2255 21.137 31.0588 21.3038L19.8307 32.5557C19.6639 32.7225 19.4416 32.8178 19.2033 32.8178H1.18593C0.820661 32.8098 0.526855 32.516 0.526855 32.1587V14.1334C0.526855 13.8951 0.622144 13.6728 0.788898 13.506Z" fill="#FF6633"/>
<path d="M19.6877 17.3417V14.0225C19.6877 13.824 19.521 13.6572 19.3224 13.6572H15.9953C15.7968 13.6572 15.63 13.824 15.63 14.0225V16.8256C15.63 17.3099 15.2409 17.699 14.7565 17.699H12.4458C11.9614 17.699 11.5723 17.3099 11.5723 16.8256V14.0225C11.5723 13.824 11.4056 13.6572 11.2071 13.6572H7.87992C7.6814 13.6572 7.51465 13.824 7.51465 14.0225V17.3417C7.51465 17.5402 7.6814 17.707 7.87992 17.707H10.6909C11.1753 17.707 11.5644 18.0961 11.5644 18.5804V20.8912C11.5644 21.3756 11.1753 21.7647 10.6909 21.7647H7.87992C7.6814 21.7647 7.51465 21.9314 7.51465 22.1299V25.473C7.51465 25.6715 7.6814 25.8382 7.87992 25.8382H11.2071C11.4056 25.8382 11.5723 25.6715 11.5723 25.473V22.6461C11.5723 22.1617 11.9614 21.7726 12.4458 21.7726H14.7565C15.2409 21.7726 15.63 22.1617 15.63 22.6461V25.4571C15.63 25.6556 15.7968 25.8223 15.9953 25.8223H19.3224C19.521 25.8223 19.6877 25.6556 19.6877 25.4571V22.1299C19.6877 21.9314 19.521 21.7647 19.3224 21.7647H16.5114C16.0271 21.7647 15.638 21.3756 15.638 20.8912V18.5804C15.638 18.0961 16.0271 17.707 16.5114 17.707H19.3224C19.521 17.707 19.6877 17.5402 19.6877 17.3417Z" fill="white"/>
</svg>
