<svg width="32" height="32" viewBox="0 0 32 32" fill="none" xmlns="http://www.w3.org/2000/svg">
<path d="M2.20083 12.2774L12.2914 2.17251C12.4413 2.02265 12.6411 1.93701 12.8552 1.93701H29.0472C29.3755 1.93701 29.6395 2.20105 29.6395 2.52932V18.7214C29.6395 18.9355 29.5539 19.1353 29.404 19.2851L19.3135 29.3971C19.1636 29.547 18.9638 29.6326 18.7497 29.6326H2.55764C2.22937 29.6255 1.96533 29.3615 1.96533 29.0403V12.8411C1.96533 12.627 2.05097 12.4272 2.20083 12.2774Z" fill="#00B265"/>
<path d="M8.24561 12.7414V23.0175C8.24561 23.1959 8.39547 23.3458 8.57387 23.3458H18.85C19.0284 23.3458 19.1783 23.1959 19.1783 23.0175V12.7414C19.1783 12.5629 19.0284 12.4131 18.85 12.4131H8.57387C8.39547 12.4131 8.24561 12.5629 8.24561 12.7414ZM15.2034 19.6992H12.2133C12.0349 19.6992 11.8851 19.5493 11.8851 19.3709V16.3808C11.8851 16.2024 12.0349 16.0526 12.2133 16.0526H15.2034C15.3818 16.0526 15.5317 16.2024 15.5317 16.3808V19.3709C15.5317 19.5493 15.3818 19.6992 15.2034 19.6992Z" fill="white"/>
</svg>
