<svg width="170" height="70" viewBox="0 0 170 70" fill="none" xmlns="http://www.w3.org/2000/svg">
<path d="M84.8739 3.76851C76.288 3.76851 68.5126 7.25108 62.883 12.8849C57.2513 18.5059 53.7709 26.2856 53.7709 34.8757C53.7709 43.4594 57.2513 51.2338 62.883 56.8569C68.5126 62.4833 76.288 65.9723 84.8739 65.9723C93.4618 65.9723 101.242 62.4833 106.863 56.8569C112.492 51.2338 115.965 43.4594 115.965 34.8757C115.965 26.2856 112.492 18.5059 106.863 12.8849C101.242 7.25108 93.4618 3.76851 84.8739 3.76851ZM84.8739 -0.000244141C104.13 -0.000244141 119.743 15.615 119.743 34.8757C119.743 54.1301 104.13 69.7432 84.8739 69.7432C65.6195 69.7432 50 54.1301 50 34.8757C50 15.615 65.6195 -0.000244141 84.8739 -0.000244141Z" fill="#007DB8"/>
<path d="M68.3811 34.5917C68.3811 32.5594 67.0327 31.405 65.1237 31.405H63.9553V37.7806H65.0904C66.8655 37.7806 68.3811 36.8159 68.3811 34.5917ZM89.1639 36.8855L80.5567 43.6631L72.6901 37.4697C71.555 40.1966 68.812 42.0906 65.6532 42.0906H58.9207V27.0928H65.6532C69.1829 27.0928 71.7265 29.3373 72.688 31.7287L80.5567 25.5418L83.4712 27.8356L76.2595 33.5037L77.6455 34.5885L84.855 28.9236L87.7737 31.211L80.5631 36.8855L81.9469 37.9724L89.1639 32.2968V27.0928H94.3958V37.713H99.6148V42.1088H89.1639V36.8855ZM106.242 37.7152H111.459V42.1088H101.005V27.0928H106.242V37.7152Z" fill="#007DB8"/>
</svg>
