<svg width="32" height="32" viewBox="0 0 32 32" fill="none" xmlns="http://www.w3.org/2000/svg">
<path d="M16 4C10.5 4 6 8.5 6 14C6 18.4 8 20.3 9.5 21.6C10.5 22.5 11 23.1 11 24H13C13 22.2 11.9 21.1 10.8 20.1C9.4 18.9 8 17.5 8 14C8 9.6 11.6 6 16 6C20.4 6 24 9.6 24 14C24 17.5 22.6 18.9 21.2 20.1C20.1 21.1 19 22.1 19 24H21C21 23.1 21.5 22.5 22.5 21.6C24 20.3 26 18.4 26 14C26 8.5 21.5 4 16 4Z" fill="#1D1A3F"/>
<path d="M19 30H13V32H19V30Z" fill="#FF6633"/>
<path d="M21 26H11V28H21V26Z" fill="#FF6633"/>
<path d="M30 13H28V15H30V13Z" fill="#1D1A3F"/>
<path d="M25.192 3.383L23.778 4.797L25.192 6.211L26.606 4.797L25.192 3.383Z" fill="#1D1A3F"/>
<path d="M17 0H15V2H17V0Z" fill="#1D1A3F"/>
<path d="M5.393 4.818L6.808 6.233L8.222 4.818L6.808 3.404L5.393 4.818Z" fill="#1D1A3F"/>
<path d="M4 13H2V15H4V13Z" fill="#1D1A3F"/>
</svg>
