<svg width="32" height="32" viewBox="0 0 32 32" fill="none" xmlns="http://www.w3.org/2000/svg">
<path d="M22 27.1798L19.41 24.5898L18 25.9998L22 29.9998L30 21.9998L28.59 20.5898L22 27.1798Z" fill="#FF6633"/>
<path d="M15 27.9999H8V3.99985H16V9.99985C16.0016 10.5298 16.2128 11.0376 16.5875 11.4123C16.9623 11.787 17.4701 11.9983 18 11.9999H24V17.9999H26V9.99985C26.0035 9.86843 25.9785 9.7378 25.9268 9.61696C25.875 9.49612 25.7976 9.38793 25.7 9.29985L18.7 2.29985C18.612 2.2022 18.5038 2.1248 18.3829 2.07301C18.2621 2.02122 18.1314 1.99626 18 1.99985H8C7.47005 2.00143 6.96227 2.21266 6.58753 2.58739C6.2128 2.96212 6.00158 3.46991 6 3.99985V27.9999C6.00158 28.5298 6.2128 29.0376 6.58753 29.4123C6.96227 29.787 7.47005 29.9983 8 29.9999H15V27.9999ZM18 4.39985L23.6 9.99985H18V4.39985Z" fill="#1D1A3F"/>
</svg>
