<svg width="32" height="32" viewBox="0 0 32 32" fill="none" xmlns="http://www.w3.org/2000/svg">
<path d="M26 14H24V16H26C26.7954 16.0008 27.558 16.3171 28.1204 16.8796C28.6829 17.442 28.9992 18.2046 29 19V23H31V19C30.9984 17.6744 30.4711 16.4036 29.5338 15.4662C28.5964 14.5289 27.3256 14.0016 26 14ZM24 4C24.5933 4 25.1734 4.17595 25.6667 4.50559C26.1601 4.83524 26.5446 5.30377 26.7716 5.85195C26.9987 6.40013 27.0581 7.00333 26.9424 7.58527C26.8266 8.16721 26.5409 8.70176 26.1213 9.12132C25.7018 9.54088 25.1672 9.8266 24.5853 9.94236C24.0033 10.0581 23.4001 9.9987 22.8519 9.77164C22.3038 9.54458 21.8352 9.16006 21.5056 8.66671C21.1759 8.17336 21 7.59334 21 7C21 6.20435 21.3161 5.44129 21.8787 4.87868C22.4413 4.31607 23.2044 4 24 4ZM24 2C23.0111 2 22.0444 2.29324 21.2221 2.84265C20.3999 3.39206 19.759 4.17295 19.3806 5.08658C19.0022 6.00021 18.9031 7.00555 19.0961 7.97545C19.289 8.94536 19.7652 9.83627 20.4645 10.5355C21.1637 11.2348 23.0245 11.9039 23.0245 11.9039C23.0245 11.9039 24.9998 11.9978 25.9134 11.6194C26.827 11.241 27.6079 10.6001 28.1573 9.77785C28.7068 8.95561 29 7.98891 29 7C29 5.67392 28.4732 4.40215 27.5355 3.46447C26.5979 2.52678 25.3261 2 24 2ZM8 14H6C4.67441 14.0016 3.40356 14.5289 2.46622 15.4662C1.52888 16.4036 1.00159 17.6744 1 19V23H3V19C3.00079 18.2046 3.31712 17.442 3.87956 16.8796C4.44199 16.3171 5.20459 16.0008 6 16H8V14ZM8 4C8.59334 4 9.17336 4.17595 9.66671 4.50559C10.1601 4.83524 10.5446 5.30377 10.7716 5.85195C10.9987 6.40013 11.0581 7.00333 10.9424 7.58527C10.8266 8.16721 10.5409 8.70176 10.1213 9.12132C9.70176 9.54088 9.16721 9.8266 8.58527 9.94236C8.00333 10.0581 7.40013 9.9987 6.85195 9.77164C6.30377 9.54458 5.83524 9.16006 5.50559 8.66671C5.17595 8.17336 5 7.59334 5 7C5 6.20435 5.31607 5.44129 5.87868 4.87868C6.44129 4.31607 7.20435 4 8 4ZM8 2C7.01109 2 6.04439 2.29324 5.22215 2.84265C4.3999 3.39206 3.75904 4.17295 3.3806 5.08658C3.00216 6.00021 2.90315 7.00555 3.09607 7.97545C3.289 8.94536 3.7652 9.83627 4.46447 10.5355C5.16373 11.2348 6.05464 11.711 7.02455 11.9039C7.99445 12.0969 9.91342 11.6194 9.91342 11.6194C9.91342 11.6194 11.6079 10.6001 12.1573 9.77785C12.7068 8.95561 13 7.98891 13 7C13 5.67392 12.4732 4.40215 11.5355 3.46447C10.5979 2.52678 9.32608 2 8 2Z" fill="black"/>
<path d="M18 23C19.3256 23.0016 20.5968 23.5285 21.5342 24.4658C22.4715 25.4032 22.9984 26.6744 23 28V30H21V28C20.9992 27.2046 20.6826 26.4423 20.1201 25.8799C19.5577 25.3174 18.7954 25.0008 18 25H14C13.2046 25.0008 12.4423 25.3174 11.8799 25.8799C11.3174 26.4423 11.0008 27.2046 11 28V30H9V28C9.00159 26.6744 9.52848 25.4032 10.4658 24.4658C11.4032 23.5285 12.6744 23.0016 14 23H18ZM16 11C17.3261 11 18.5975 11.5272 19.5352 12.4648C20.4728 13.4025 21 14.6739 21 16C21 16.9889 20.7066 17.9561 20.1572 18.7783C19.6078 19.6004 18.8266 20.2408 17.9131 20.6191C16.9995 20.9975 15.9943 21.0972 15.0244 20.9043C14.0545 20.7114 13.1641 20.2344 12.4648 19.5352C11.7656 18.8359 11.2886 17.9455 11.0957 16.9756C10.9028 16.0057 11.0025 15.0005 11.3809 14.0869C11.7592 13.1734 12.3996 12.3922 13.2217 11.8428C14.0439 11.2934 15.0111 11 16 11ZM16 13C15.2044 13 14.4415 13.3163 13.8789 13.8789C13.3163 14.4415 13 15.2044 13 16C13 16.5933 13.1762 17.1736 13.5059 17.667C13.8354 18.1601 14.3037 18.5445 14.8516 18.7715C15.3996 18.9985 16.0031 19.0581 16.585 18.9424C17.1669 18.8266 17.7015 18.5407 18.1211 18.1211C18.5407 17.7015 18.8266 17.1669 18.9424 16.585C19.0581 16.0031 18.9985 15.3996 18.7715 14.8516C18.5444 14.3037 18.1601 13.8354 17.667 13.5059C17.1736 13.1762 16.5933 13 16 13Z" fill="#FF6633"/>
</svg>
