<svg width="371" height="41" viewBox="0 0 371 41" fill="none" xmlns="http://www.w3.org/2000/svg">
<path d="M43.7334 11.3122H38.7511C37.9657 11.3122 37.5769 10.9235 37.5769 10.1541V9.05947C37.5769 8.29004 37.9657 7.90137 38.7511 7.90137H52.8174C53.6028 7.90137 53.9915 8.29004 53.9915 9.05947V10.1541C53.9915 10.9235 53.6028 11.3122 52.8174 11.3122H47.8271V31.3172C47.8271 32.0866 47.4384 32.4753 46.6688 32.4753H44.9076C44.1221 32.4753 43.7334 32.0866 43.7334 31.3172V11.3122Z" fill="#1D1A3F"/>
<path d="M52.0557 19.0463C52.0557 17.2139 52.6031 15.8099 53.69 14.8422C54.7769 13.8745 56.3319 13.3906 58.347 13.3906H60.2114C62.2345 13.3906 63.7974 13.8745 64.8843 14.8422C65.9712 15.8099 66.5186 17.2139 66.5186 19.0463V21.9971C66.5186 22.6158 66.3362 23.1076 65.9633 23.4566C65.5904 23.8056 65.0588 23.9801 64.3686 23.9801H56.0383V27.3037C56.0383 28.0255 56.2367 28.5649 56.6334 28.9298C57.03 29.2947 57.5854 29.4692 58.3074 29.4692H60.259C60.9572 29.4692 61.5205 29.3185 61.9251 29.0171C62.3376 28.7156 62.5439 28.3032 62.5439 27.7717V27.7082C62.5439 27.391 62.6391 27.1451 62.8374 26.9705C63.0358 26.804 63.3055 26.7167 63.6546 26.7167H65.4C66.1458 26.7167 66.5107 27.0419 66.5107 27.6924V27.7796C66.5107 29.2471 65.9553 30.429 64.8446 31.3253C63.7339 32.2296 62.2107 32.6817 60.2749 32.6817H58.347C56.3319 32.6817 54.7769 32.1979 53.69 31.2301C52.6031 30.2624 52.0557 28.8584 52.0557 27.0102V19.0383V19.0463ZM62.536 18.7607C62.536 18.0468 62.3376 17.5074 61.933 17.1426C61.5284 16.7777 60.973 16.5952 60.2511 16.5952H58.2994C57.5854 16.5952 57.03 16.7777 56.6334 17.1426C56.2287 17.5074 56.0304 18.0468 56.0304 18.7607V21.1642H62.5439V18.7607H62.536Z" fill="#1D1A3F"/>
<path d="M69.2161 19.0463C69.2161 17.2139 69.7635 15.8099 70.8504 14.8422C71.9373 13.8745 73.4923 13.3906 75.5074 13.3906H77.3877C79.3949 13.3906 80.9419 13.8745 82.0368 14.8502C83.1316 15.8258 83.679 17.2219 83.679 19.0463V19.4667C83.679 19.8712 83.5918 20.1568 83.4093 20.3392C83.2268 20.5217 82.9412 20.6089 82.5366 20.6089H80.8547C80.093 20.6089 79.7122 20.2282 79.7122 19.4667V18.8163C79.7122 18.1024 79.5139 17.5709 79.1093 17.2139C78.7047 16.857 78.1493 16.6825 77.4432 16.6825H75.4757C74.7617 16.6825 74.2063 16.8649 73.8096 17.2219C73.405 17.5868 73.2067 18.1103 73.2067 18.8163V27.2561C73.2067 27.97 73.405 28.5015 73.8017 28.8584C74.1984 29.2154 74.7537 29.3899 75.4757 29.3899H77.4432C78.1572 29.3899 78.7126 29.2154 79.1093 28.8584C79.5139 28.5015 79.7122 27.97 79.7122 27.2561V26.5819C79.7122 25.8283 80.093 25.4555 80.8547 25.4555H82.5366C82.9412 25.4555 83.2268 25.5428 83.4093 25.7252C83.5918 25.9076 83.679 26.1932 83.679 26.5819V27.0181C83.679 28.8505 83.1316 30.2545 82.0368 31.2301C80.9419 32.2058 79.3949 32.6897 77.3877 32.6897H75.5074C73.4923 32.6897 71.9373 32.2058 70.8504 31.2381C69.7635 30.2703 69.2161 28.8664 69.2161 27.0181V19.0463Z" fill="#1D1A3F"/>
<path d="M86.6384 7.46524C86.6384 6.71168 87.0192 6.33887 87.7809 6.33887H89.4787C90.2403 6.33887 90.6211 6.71168 90.6211 7.46524V15.0484L92.7394 14.1124C93.8342 13.6286 94.9449 13.3906 96.0794 13.3906C97.7217 13.3906 98.9911 13.8586 99.8875 14.8025C100.776 15.7465 101.228 17.1584 101.228 19.0463V31.3491C101.228 32.1027 100.84 32.4755 100.07 32.4755H98.3722C97.6185 32.4755 97.2457 32.1027 97.2457 31.3491V19.1097C97.2457 18.3403 97.0791 17.785 96.7538 17.4519C96.4285 17.1187 95.9207 16.9522 95.2385 16.9522C94.7545 16.9522 94.223 17.0632 93.6438 17.2853L90.6211 18.4434V31.3491C90.6211 32.1027 90.2482 32.4755 89.4945 32.4755H87.7809C87.0192 32.4755 86.6384 32.1027 86.6384 31.3491V7.46524Z" fill="#1D1A3F"/>
<path d="M110.542 32.6817C108.519 32.6817 106.964 32.1978 105.877 31.2301C104.79 30.2624 104.251 28.8584 104.251 27.0102V7.46524C104.251 6.71168 104.632 6.33887 105.393 6.33887H107.091C107.853 6.33887 108.234 6.71168 108.234 7.46524V15.0484L110.352 14.1124C111.447 13.6286 112.557 13.3906 113.692 13.3906C115.334 13.3906 116.604 13.8586 117.5 14.8025C118.397 15.7465 118.841 17.1584 118.841 19.0463V27.0181C118.841 28.8505 118.293 30.2545 117.207 31.2301C116.12 32.2058 114.565 32.6896 112.55 32.6896H110.534L110.542 32.6817ZM108.242 27.2561C108.242 27.97 108.44 28.5014 108.837 28.8584C109.233 29.2153 109.789 29.3899 110.503 29.3899H112.605C113.319 29.3899 113.874 29.2153 114.271 28.8584C114.676 28.5014 114.874 27.97 114.874 27.2561V19.1018C114.874 18.3324 114.707 17.7771 114.374 17.444C114.041 17.1108 113.541 16.9442 112.859 16.9442C112.375 16.9442 111.843 17.0553 111.264 17.2774L108.242 18.4513V27.2482V27.2561Z" fill="#1D1A3F"/>
<path d="M121.562 19.0463C121.562 17.2139 122.109 15.8099 123.196 14.8422C124.283 13.8745 125.838 13.3906 127.853 13.3906H129.853C131.868 13.3906 133.423 13.8745 134.51 14.8422C135.597 15.8099 136.144 17.2139 136.144 19.0463V27.0181C136.144 28.8664 135.597 30.2703 134.51 31.2381C133.423 32.2058 131.868 32.6897 129.853 32.6897H127.853C125.83 32.6897 124.275 32.2058 123.188 31.2381C122.109 30.2703 121.562 28.8664 121.562 27.0181V19.0463ZM129.892 29.3899C130.614 29.3899 131.17 29.2154 131.566 28.8584C131.963 28.5015 132.161 27.97 132.161 27.2561V18.8163C132.161 18.1024 131.963 17.5709 131.566 17.2139C131.17 16.857 130.614 16.6825 129.892 16.6825H127.798C127.084 16.6825 126.528 16.8649 126.132 17.2219C125.727 17.5868 125.529 18.1103 125.529 18.8163V27.2561C125.529 27.97 125.727 28.5015 126.124 28.8584C126.521 29.2154 127.076 29.3899 127.798 29.3899H129.892Z" fill="#1D1A3F"/>
<path d="M139.056 32.4757C138.707 32.4757 138.445 32.3884 138.27 32.206C138.096 32.0236 138.009 31.8015 138.009 31.5318C138.009 31.381 138.056 31.2224 138.143 31.0638L142.555 22.8539L138.143 15.0169C138.056 14.8503 138.009 14.6838 138.009 14.533C138.009 14.2713 138.096 14.0492 138.27 13.8747C138.445 13.6922 138.707 13.605 139.056 13.605H140.785C141.309 13.605 141.737 13.8905 142.078 14.4617L145.466 20.268L148.854 14.4617C149.187 13.8905 149.607 13.605 150.115 13.605H151.877C152.218 13.605 152.472 13.6922 152.646 13.8747C152.821 14.0571 152.9 14.2792 152.9 14.533C152.9 14.6838 152.852 14.8503 152.749 15.0328L148.354 22.8539L152.773 31.0955C152.852 31.2462 152.892 31.389 152.892 31.5318C152.892 31.8094 152.805 32.0394 152.638 32.2139C152.472 32.3884 152.21 32.4757 151.869 32.4757H150.171C149.631 32.4757 149.195 32.1901 148.862 31.619L145.466 25.6302L142.055 31.619C141.737 32.1901 141.293 32.4757 140.73 32.4757H139.064H139.056Z" fill="#1D1A3F"/>
<path d="M154.955 32.4757C154.606 32.4757 154.344 32.3884 154.169 32.206C153.995 32.0236 153.907 31.8015 153.907 31.5318C153.907 31.381 153.955 31.2224 154.042 31.0638L158.453 22.8539L154.042 15.0169C153.955 14.8503 153.907 14.6838 153.907 14.533C153.907 14.2713 153.995 14.0492 154.169 13.8747C154.344 13.6922 154.606 13.605 154.955 13.605H156.684C157.208 13.605 157.636 13.8905 157.977 14.4617L161.365 20.268L164.753 14.4617C165.086 13.8905 165.506 13.605 166.014 13.605H167.775C168.117 13.605 168.37 13.6922 168.545 13.8747C168.72 14.0571 168.799 14.2792 168.799 14.533C168.799 14.6838 168.751 14.8503 168.648 15.0328L164.253 22.8539L168.672 31.0955C168.751 31.2462 168.791 31.389 168.791 31.5318C168.791 31.8094 168.704 32.0394 168.537 32.2139C168.37 32.3884 168.109 32.4757 167.767 32.4757H166.07C165.53 32.4757 165.094 32.1901 164.761 31.619L161.365 25.6302L157.954 31.619C157.636 32.1901 157.192 32.4757 156.629 32.4757H154.963H154.955Z" fill="#1D1A3F"/>
<path d="M0.788665 13.4938L12.0068 2.26176C12.1734 2.09519 12.3955 2 12.6335 2H30.6349C30.9998 2 31.2934 2.29349 31.2934 2.65837V20.6565C31.2934 20.8945 31.1982 21.1166 31.0316 21.2832L19.8135 32.5231C19.6469 32.6897 19.4247 32.7849 19.1867 32.7849H1.18534C0.820399 32.777 0.526855 32.4835 0.526855 32.1265V14.1204C0.526855 13.8824 0.622059 13.6603 0.788665 13.4938Z" fill="#3631FF"/>
<path d="M19.1628 25.5109H15.9418C15.7276 25.5109 15.553 25.3364 15.553 25.1222V18.1419C15.553 17.9277 15.3785 17.7532 15.1643 17.7532H8.18269C7.96848 17.7532 7.79395 17.5787 7.79395 17.3645V14.144C7.79395 13.9299 7.96848 13.7554 8.18269 13.7554H19.1628C19.377 13.7554 19.5516 13.9299 19.5516 14.144V25.1222C19.5516 25.3364 19.377 25.5109 19.1628 25.5109Z" fill="#FFFF00"/>
<path d="M10.7372 25.3997L18.6946 17.4437C18.8453 17.293 18.8453 17.0471 18.6946 16.8964L16.4177 14.6199C16.2669 14.4692 16.021 14.4692 15.8702 14.6199L7.91283 22.5759C7.84143 22.6473 7.80176 22.7504 7.80176 22.8535V25.13C7.80176 25.3442 7.9763 25.5187 8.1905 25.5187H10.4674C10.5706 25.5187 10.6737 25.4791 10.7451 25.4077L10.7372 25.3997Z" fill="#FFFF00"/>
<path d="M179.382 9.31355C179.382 8.91694 179.58 8.72656 179.985 8.72656H192.06C192.465 8.72656 192.663 8.92487 192.663 9.32941V9.86087C192.663 10.2654 192.465 10.4637 192.06 10.4637H181.405V20.5217H192.06C192.465 20.5217 192.663 20.7201 192.663 21.1246V21.6561C192.663 22.0685 192.465 22.2748 192.06 22.2748H181.405V32.8325C181.405 33.2371 181.199 33.4354 180.786 33.4354H179.985C179.58 33.4354 179.382 33.2371 179.382 32.8325V9.31355Z" fill="#1D1A3F"/>
<path d="M195.17 20.0063C195.17 18.3326 195.662 17.0396 196.654 16.1353C197.645 15.2311 199.065 14.771 200.922 14.771H202.905C204.762 14.771 206.182 15.2231 207.166 16.1353C208.149 17.0396 208.641 18.3326 208.641 20.0063V28.4778C208.641 30.1515 208.149 31.4445 207.166 32.3408C206.182 33.2451 204.762 33.6972 202.905 33.6972H200.922C199.065 33.6972 197.645 33.2451 196.654 32.3408C195.662 31.4366 195.17 30.1515 195.17 28.4778V20.0063ZM202.905 32.0077C205.428 32.0077 206.69 30.8337 206.69 28.4858V20.0142C206.69 17.6662 205.428 16.4923 202.905 16.4923H200.922C198.391 16.4923 197.122 17.6662 197.122 20.0142V28.4858C197.122 30.8337 198.391 32.0077 200.922 32.0077H202.905Z" fill="#1D1A3F"/>
<path d="M213.473 33.4434C213.068 33.4434 212.87 33.2451 212.87 32.8564V15.6356C212.87 15.2311 213.068 15.0328 213.473 15.0328H214.187C214.591 15.0328 214.79 15.2311 214.79 15.6356V16.9682L216.591 15.8022C217.662 15.1121 218.788 14.771 219.978 14.771H220.51C220.915 14.771 221.113 14.9693 221.113 15.3738V16.1433C221.113 16.5478 220.915 16.7461 220.51 16.7461H220.01C218.812 16.7461 217.749 16.992 216.837 17.4838L214.822 18.5864V32.8406C214.822 33.2372 214.623 33.4275 214.219 33.4275H213.481L213.473 33.4434Z" fill="#1D1A3F"/>
<path d="M230.252 9.31355C230.252 8.91694 230.451 8.72656 230.855 8.72656H242.914C243.327 8.72656 243.533 8.92487 243.533 9.32941V9.86087C243.533 10.2654 243.327 10.4637 242.914 10.4637H232.276V20.0141H242.914C243.327 20.0141 243.533 20.2124 243.533 20.6169V21.1484C243.533 21.5609 243.327 21.7671 242.914 21.7671H232.276V31.7062H242.914C243.327 31.7062 243.533 31.9045 243.533 32.309V32.8405C243.533 33.245 243.327 33.4433 242.914 33.4433H230.855C230.451 33.4433 230.252 33.245 230.252 32.8405V9.31355Z" fill="#1D1A3F"/>
<path d="M247.27 15.6039C247.27 15.2231 247.468 15.0248 247.857 15.0248H248.611C248.992 15.0248 249.182 15.2152 249.182 15.6039V17.0872L252.903 15.4373C253.91 14.9931 254.902 14.771 255.87 14.771C257.393 14.771 258.583 15.2073 259.432 16.0719C260.289 16.9365 260.71 18.1818 260.71 19.7921V32.8485C260.71 33.2451 260.511 33.4355 260.107 33.4355H259.337C258.956 33.4355 258.766 33.2372 258.766 32.8485V19.8C258.766 18.7292 258.488 17.928 257.933 17.3886C257.377 16.8492 256.592 16.5795 255.569 16.5795C254.831 16.5795 254.125 16.7223 253.434 17.0158L249.214 18.8006V32.8564C249.214 33.253 249.023 33.4434 248.643 33.4434H247.857C247.46 33.4434 247.27 33.2451 247.27 32.8564V15.6039Z" fill="#1D1A3F"/>
<path d="M266.414 16.7378H263.732C263.335 16.7378 263.145 16.5474 263.145 16.1587V15.5955C263.145 15.2148 263.343 15.0165 263.732 15.0165H266.414V9.46394C266.414 9.06733 266.612 8.87695 267.001 8.87695H267.77C268.175 8.87695 268.373 9.07526 268.373 9.46394V15.0165H273.094C273.498 15.0165 273.697 15.2069 273.697 15.5955V16.1587C273.697 16.5395 273.498 16.7378 273.094 16.7378H268.373V28.8106C268.373 29.7862 268.619 30.516 269.103 30.984C269.595 31.452 270.365 31.69 271.428 31.69H273.094C273.49 31.69 273.681 31.8883 273.681 32.277V32.8639C273.681 33.2447 273.483 33.4351 273.094 33.4351H271.412C268.072 33.4351 266.406 31.8883 266.406 28.8026V16.7298L266.414 16.7378Z" fill="#1D1A3F"/>
<path d="M276.49 20.0062C276.49 18.3326 276.981 17.0396 277.973 16.1353C278.965 15.2311 280.385 14.771 282.241 14.771H283.955C285.811 14.771 287.232 15.2231 288.223 16.1353C289.215 17.0475 289.707 18.3326 289.707 20.0062V23.4568C289.707 24.131 289.35 24.4721 288.636 24.4721H278.449V28.4778C278.449 30.8416 279.718 32.0156 282.249 32.0156H283.963C285.224 32.0156 286.176 31.7459 286.811 31.2145C287.446 30.683 287.763 29.8898 287.763 28.8507V28.7872C287.763 28.4223 287.962 28.2399 288.35 28.2399H289.12C289.516 28.2399 289.707 28.4223 289.707 28.7872V28.8665C289.707 30.3578 289.207 31.5397 288.207 32.3963C287.208 33.261 285.796 33.6893 283.955 33.6893H282.241C280.385 33.6893 278.965 33.2372 277.973 32.3329C276.981 31.4286 276.49 30.1436 276.49 28.4699V19.9983V20.0062ZM287.747 20.0062C287.747 17.6345 286.478 16.4526 283.947 16.4526H282.233C279.703 16.4526 278.433 17.6345 278.433 20.0062V22.8936H287.739V20.0062H287.747Z" fill="#1D1A3F"/>
<path d="M294.522 33.4434C294.118 33.4434 293.919 33.2451 293.919 32.8564V15.6356C293.919 15.2311 294.118 15.0328 294.522 15.0328H295.236C295.641 15.0328 295.839 15.2311 295.839 15.6356V16.9682L297.64 15.8022C298.711 15.1121 299.838 14.771 301.028 14.771H301.56C301.964 14.771 302.162 14.9693 302.162 15.3738V16.1433C302.162 16.5478 301.964 16.7461 301.56 16.7461H301.06C299.862 16.7461 298.799 16.992 297.878 17.4838L295.863 18.5864V32.8406C295.863 33.2372 295.665 33.4275 295.26 33.4275H294.522V33.4434Z" fill="#1D1A3F"/>
<path d="M306.494 17.0713L310.199 15.4214C311.135 14.9852 312.127 14.771 313.182 14.771C314.706 14.771 315.896 15.2073 316.752 16.0798C317.609 16.9524 318.038 18.1898 318.038 19.7921V28.4778C318.038 30.1515 317.546 31.4445 316.562 32.3408C315.578 33.2451 314.158 33.6972 312.302 33.6972H310.731C308.684 33.6972 307.28 33.1341 306.526 32.0156V39.7654C306.526 40.1699 306.336 40.3682 305.955 40.3682H305.185C304.781 40.3682 304.582 40.1699 304.582 39.7654V15.6039C304.582 15.2231 304.781 15.0248 305.185 15.0248H305.923C306.304 15.0248 306.494 15.2152 306.494 15.6039V17.0713ZM315.142 31.1272C315.761 30.5402 316.07 29.6597 316.07 28.4778V19.7921C316.07 18.7212 315.792 17.9201 315.237 17.3807C314.682 16.8413 313.896 16.5716 312.881 16.5716C312.167 16.5716 311.453 16.7144 310.747 17.0079L306.526 18.7926V28.3509C306.526 30.7782 307.875 31.9997 310.564 31.9997H312.302C313.571 31.9997 314.515 31.7063 315.142 31.1193V31.1272Z" fill="#1D1A3F"/>
<path d="M322.861 33.4434C322.457 33.4434 322.258 33.2451 322.258 32.8564V15.6356C322.258 15.2311 322.457 15.0328 322.861 15.0328H323.575C323.98 15.0328 324.178 15.2311 324.178 15.6356V16.9682L325.979 15.8022C327.05 15.1121 328.177 14.771 329.367 14.771H329.898C330.303 14.771 330.501 14.9693 330.501 15.3738V16.1433C330.501 16.5478 330.303 16.7461 329.898 16.7461H329.399C328.201 16.7461 327.137 16.992 326.225 17.4838L324.21 18.5864V32.8406C324.21 33.2372 324.012 33.4275 323.607 33.4275H322.869L322.861 33.4434Z" fill="#1D1A3F"/>
<path d="M333.183 7.73493C333.183 7.33832 333.373 7.14795 333.762 7.14795H334.547C334.944 7.14795 335.135 7.34625 335.135 7.73493V11.2886C335.135 11.6852 334.936 11.8755 334.547 11.8755H333.762C333.381 11.8755 333.183 11.6772 333.183 11.2886V7.73493ZM334.547 33.4432C334.944 33.4432 335.135 33.2449 335.135 32.8562V15.6037C335.135 15.2229 334.936 15.0246 334.547 15.0246H333.762C333.381 15.0246 333.183 15.215 333.183 15.6037V32.8483C333.183 33.2449 333.373 33.4353 333.762 33.4353H334.547V33.4432Z" fill="#1D1A3F"/>
<path d="M345.115 33.6972C343.298 33.6972 341.902 33.2689 340.926 32.4043C339.95 31.5397 339.458 30.3498 339.458 28.8269V28.4937C339.458 28.2795 339.506 28.1368 339.601 28.0495C339.697 27.9623 339.847 27.9226 340.061 27.9226H340.831C341.029 27.9226 341.18 27.9623 341.275 28.0495C341.371 28.1368 341.418 28.2875 341.418 28.4937V28.8269C341.418 30.9924 342.648 32.0791 345.107 32.0791H346.876C349.352 32.0791 350.581 31.0162 350.581 28.8903V28.4065C350.581 27.5577 350.335 26.9073 349.836 26.4472C349.336 25.9871 348.55 25.6223 347.464 25.3526L344.147 24.5197C342.545 24.1151 341.386 23.5599 340.664 22.838C339.942 22.1162 339.593 21.1247 339.593 19.8555V19.5858C339.593 18.1263 340.077 16.9524 341.037 16.0798C341.997 15.2073 343.33 14.771 345.028 14.771H346.829C348.654 14.771 350.058 15.1993 351.026 16.0639C352.002 16.9286 352.485 18.1184 352.485 19.6414V19.9269C352.485 20.1411 352.438 20.2839 352.351 20.3711C352.255 20.4584 352.113 20.498 351.914 20.498H351.145C350.74 20.498 350.542 20.3077 350.542 19.9269V19.6414C350.542 17.4759 349.304 16.3892 346.837 16.3892H345.052C343.909 16.3892 343.045 16.6747 342.449 17.2379C341.854 17.8011 341.553 18.5864 341.553 19.5858V19.8555C341.553 20.6726 341.791 21.2992 342.259 21.7434C342.727 22.1876 343.489 22.5366 344.536 22.7905L347.836 23.6075C349.518 24.0199 350.724 24.5831 351.446 25.305C352.168 26.0189 352.525 27.058 352.525 28.4065V28.8903C352.525 30.3895 352.041 31.5714 351.065 32.4201C350.09 33.2689 348.693 33.6972 346.884 33.6972H345.115Z" fill="#1D1A3F"/>
<path d="M356.317 20.0062C356.317 18.3326 356.809 17.0396 357.801 16.1353C358.793 15.2311 360.213 14.771 362.069 14.771H363.783C365.639 14.771 367.059 15.2231 368.051 16.1353C369.043 17.0475 369.535 18.3326 369.535 20.0062V23.4568C369.535 24.131 369.178 24.4721 368.464 24.4721H358.277V28.4778C358.277 30.8416 359.546 32.0156 362.077 32.0156H363.791C365.052 32.0156 366.004 31.7459 366.639 31.2145C367.274 30.683 367.591 29.8898 367.591 28.8507V28.7872C367.591 28.4223 367.789 28.2399 368.178 28.2399H368.948C369.344 28.2399 369.535 28.4223 369.535 28.7872V28.8665C369.535 30.3578 369.035 31.5397 368.035 32.3963C367.036 33.261 365.624 33.6893 363.783 33.6893H362.069C360.213 33.6893 358.793 33.2372 357.801 32.3329C356.809 31.4286 356.317 30.1436 356.317 28.4699V19.9983V20.0062ZM367.575 20.0062C367.575 17.6345 366.306 16.4526 363.775 16.4526H362.061C359.531 16.4526 358.261 17.6345 358.261 20.0062V22.8936H367.567V20.0062H367.575Z" fill="#1D1A3F"/>
</svg>
