<svg width="32" height="32" viewBox="0 0 32 32" fill="none" xmlns="http://www.w3.org/2000/svg">
<path d="M18 31H20V29C20 28.7348 20.1054 28.4804 20.2929 28.2929C20.4804 28.1054 20.7348 28 21 28H27C27.2652 28 27.5196 28.1054 27.7071 28.2929C27.8946 28.4804 28 28.7348 28 29V31H30V29C29.9992 28.2046 29.6829 27.442 29.1204 26.8796C28.558 26.3171 27.7954 26.0008 27 26H21C20.2046 26.0008 19.442 26.3171 18.8796 26.8796C18.3171 27.442 18.0008 28.2046 18 29V31ZM24 25C23.2089 25 22.4355 24.7654 21.7777 24.3259C21.1199 23.8864 20.6072 23.2616 20.3045 22.5307C20.0017 21.7998 19.9225 20.9956 20.0769 20.2196C20.2312 19.4437 20.6122 18.731 21.1716 18.1716C21.731 17.6122 22.4437 17.2312 23.2196 17.0769C23.9956 16.9225 24.7998 17.0017 25.5307 17.3045C26.2616 17.6072 26.8864 18.1199 27.3259 18.7777C27.7654 19.4355 28 20.2089 28 21C27.9989 22.0605 27.5772 23.0773 26.8273 23.8273C26.0773 24.5772 25.0605 24.9989 24 25ZM24 19C23.6044 19 23.2178 19.1173 22.8889 19.3371C22.56 19.5568 22.3036 19.8692 22.1522 20.2346C22.0009 20.6001 21.9613 21.0022 22.0384 21.3902C22.1156 21.7781 22.3061 22.1345 22.5858 22.4142C22.8655 22.6939 23.2219 22.8844 23.6098 22.9616C23.9978 23.0387 24.3999 22.9991 24.7654 22.8478C25.1308 22.6964 25.4432 22.44 25.6629 22.1111C25.8827 21.7822 26 21.3956 26 21C25.9992 20.4698 25.7882 19.9616 25.4133 19.5867C25.0384 19.2118 24.5302 19.0008 24 19ZM2 31H4V29C4 28.7348 4.10536 28.4804 4.29289 28.2929C4.48043 28.1054 4.73478 28 5 28H11C11.2652 28 11.5196 28.1054 11.7071 28.2929C11.8946 28.4804 12 28.7348 12 29V31H14V29C13.9992 28.2046 13.6829 27.442 13.1204 26.8796C12.558 26.3171 11.7954 26.0008 11 26H5C4.20459 26.0008 3.44199 26.3171 2.87956 26.8796C2.31712 27.442 2.00079 28.2046 2 29V31ZM8 25C7.20887 25 6.43552 24.7654 5.77772 24.3259C5.11992 23.8864 4.60723 23.2616 4.30448 22.5307C4.00173 21.7998 3.92252 20.9956 4.07686 20.2196C4.2312 19.4437 4.61216 18.731 5.17157 18.1716C5.73098 17.6122 6.44371 17.2312 7.21964 17.0769C7.99556 16.9225 8.79983 17.0017 9.53073 17.3045C10.2616 17.6072 10.8864 18.1199 11.3259 18.7777C11.7654 19.4355 12 20.2089 12 21C11.9989 22.0605 11.5772 23.0773 10.8273 23.8273C10.0773 24.5772 9.06054 24.9989 8 25ZM8 19C7.60444 19 7.21776 19.1173 6.88886 19.3371C6.55996 19.5568 6.30362 19.8692 6.15224 20.2346C6.00087 20.6001 5.96126 21.0022 6.03843 21.3902C6.1156 21.7781 6.30608 22.1345 6.58579 22.4142C6.86549 22.6939 7.22186 22.8844 7.60982 22.9616C7.99778 23.0387 8.39991 22.9991 8.76537 22.8478C9.13082 22.6964 9.44318 22.44 9.66294 22.1111C9.8827 21.7822 10 21.3956 10 21C10 20.4696 9.78929 19.9609 9.41421 19.5858C9.03914 19.2107 8.53043 19 8 19ZM18 16H20V14C20 13.7348 20.1054 13.4804 20.2929 13.2929C20.4804 13.1054 20.7348 13 21 13H27C27.2652 13 27.5196 13.1054 27.7071 13.2929C27.8946 13.4804 28 13.7348 28 14V16H30V14C29.9992 13.2046 29.6829 12.442 29.1204 11.8796C28.558 11.3171 27.7954 11.0008 27 11H21C20.2046 11.0008 19.442 11.3171 18.8796 11.8796C18.3171 12.442 18.0008 13.2046 18 14V16ZM24 10C23.2089 10 22.4355 9.76541 21.7777 9.32588C21.1199 8.88635 20.6072 8.26164 20.3045 7.53074C20.0017 6.79983 19.9225 5.99556 20.0769 5.21964C20.2312 4.44372 20.6122 3.73098 21.1716 3.17157C21.731 2.61216 22.4437 2.2312 23.2196 2.07686C23.9956 1.92252 24.7998 2.00173 25.5307 2.30448C26.2616 2.60723 26.8864 3.11992 27.3259 3.77772C27.7654 4.43552 28 5.20888 28 6C27.9989 7.06054 27.5772 8.07734 26.8273 8.82726C26.0773 9.57718 25.0605 9.99894 24 10ZM24 4C23.6044 4 23.2178 4.1173 22.8889 4.33706C22.56 4.55683 22.3036 4.86918 22.1522 5.23463C22.0009 5.60009 21.9613 6.00222 22.0384 6.39018C22.1156 6.77814 22.3061 7.13451 22.5858 7.41422C22.8655 7.69392 23.2219 7.8844 23.6098 7.96157C23.9978 8.03874 24.3999 7.99914 24.7654 7.84776C25.1308 7.69639 25.4432 7.44004 25.6629 7.11114C25.8827 6.78224 26 6.39556 26 6C26 5.46957 25.7893 4.96086 25.4142 4.58579C25.0391 4.21072 24.5304 4 24 4Z" fill="#1D1A3F"/>
<path d="M11 11.0006C11.7952 11.0014 12.5577 11.3173 13.1201 11.8795C13.6826 12.442 13.9992 13.2052 14 14.0006V16.0006H12V14.0006C12 13.7355 11.8945 13.4811 11.707 13.2936C11.5195 13.1061 11.2652 13.0006 11 13.0006H5C4.73478 13.0006 4.48051 13.1061 4.29297 13.2936C4.10553 13.4811 4 13.7355 4 14.0006V16.0006H2V14.0006C2.00079 13.2052 2.31745 12.442 2.87988 11.8795C3.44229 11.3173 4.20475 11.0014 5 11.0006H11ZM7.21973 2.0768C7.9954 1.92254 8.79957 2.0018 9.53027 2.30434C10.2612 2.60709 10.8866 3.12017 11.3262 3.77797C11.7657 4.43575 12 5.20954 12 6.00063C11.9986 7.06098 11.5769 8.07799 10.8271 8.82778C10.0773 9.57754 9.06039 9.9993 8 10.0006C7.20887 10.0006 6.43514 9.76535 5.77734 9.32582C5.11976 8.88631 4.60737 8.26164 4.30469 7.5309C4.002 6.80011 3.9229 5.99616 4.07715 5.22035C4.23149 4.44443 4.61246 3.73094 5.17188 3.17153C5.73123 2.6123 6.44396 2.23111 7.21973 2.0768ZM8 4.00063C7.60444 4.00063 7.21757 4.11778 6.88867 4.33754C6.55987 4.5573 6.30369 4.86963 6.15234 5.235C6.00101 5.60036 5.96099 6.0024 6.03809 6.39028C6.11526 6.77824 6.30623 7.13498 6.58594 7.41469C6.8655 7.69419 7.22167 7.88435 7.60938 7.96157C7.99734 8.03874 8.40017 7.99966 8.76562 7.84828C9.13101 7.6969 9.44335 7.43983 9.66309 7.11098C9.88262 6.78225 9.99994 6.39592 10 6.00063C10 5.47027 9.78904 4.96162 9.41406 4.58657C9.03899 4.21149 8.53043 4.00063 8 4.00063Z" fill="#FF6633"/>
</svg>
