<svg width="170" height="70" viewBox="0 0 170 70" fill="none" xmlns="http://www.w3.org/2000/svg">
<path d="M28.6206 44.1508C28.6206 44.1508 28.703 44.0865 28.6572 43.9855C23.5757 32.8557 16.6264 24.4165 16.6264 24.4165C16.6264 24.4165 12.8451 28.0162 13.1197 31.6252C13.2662 34.3525 15.308 35.9688 15.308 35.9688C18.6041 39.192 26.588 43.2601 28.4466 44.1876C28.4741 44.1967 28.5657 44.2243 28.6206 44.1508Z" fill="#CF0A2C"/>
<path d="M27.3845 46.906C27.3479 46.7866 27.2106 46.7866 27.2106 46.7866L13.9163 47.255C15.3537 49.8354 17.7892 51.8373 20.3162 51.222C22.065 50.7812 26.0111 48.0171 27.3204 47.0805C27.4211 46.9795 27.3845 46.906 27.3845 46.906Z" fill="#CF0A2C"/>
<path d="M27.5861 45.7115C27.6502 45.6105 27.5403 45.5095 27.5403 45.5095C21.6989 41.5608 10.3823 35.5 10.3823 35.5C9.35681 38.6957 10.7393 41.2669 10.7393 41.2669C12.1768 44.3249 14.9327 45.2524 14.9327 45.2524C16.2054 45.7758 17.4781 45.8125 17.4781 45.8125C17.6795 45.8493 25.3796 45.8125 27.4488 45.8034C27.5403 45.8034 27.5861 45.7115 27.5861 45.7115Z" fill="#CF0A2C"/>
<path d="M28.4741 18.6587C27.8973 18.7138 26.3316 19.0627 26.3316 19.0627C22.8158 19.9719 21.9826 23.1767 21.9826 23.1767C21.3417 25.197 22.0009 27.4009 22.0009 27.4009C23.1728 32.6261 28.9593 41.2214 30.1954 43.0213C30.2869 43.1131 30.351 43.0764 30.351 43.0764C30.4884 43.0396 30.4792 42.9111 30.4792 42.9111C32.3928 23.7461 28.4741 18.6587 28.4741 18.6587Z" fill="#CF0A2C"/>
<path d="M32.8689 43.0855C32.997 43.1315 33.0611 43.0121 33.0611 43.0121C34.3429 41.1571 40.0928 32.6169 41.2556 27.4101C41.2556 27.4101 41.8874 24.8848 41.2739 23.1859C41.2739 23.1859 40.4041 19.9351 36.8791 19.0719C36.8791 19.0719 35.8628 18.8148 34.7824 18.6587C34.7824 18.6587 30.8454 23.7461 32.759 42.9386C32.7865 43.058 32.8689 43.0855 32.8689 43.0855Z" fill="#CF0A2C"/>
<path d="M36.0186 46.7954C36.0186 46.7954 35.8995 46.8138 35.8721 46.8964C35.8721 46.8964 35.8446 47.0158 35.927 47.0801C37.1997 47.9984 41.0543 50.6982 42.9129 51.2216C42.9129 51.2216 46.3464 52.3971 49.3312 47.2546L36.0186 46.7954Z" fill="#CF0A2C"/>
<path d="M52.8653 35.4731C52.8653 35.4731 41.5669 41.5523 35.7255 45.5102C35.7255 45.5102 35.6156 45.5837 35.6522 45.703C35.6522 45.703 35.7072 45.804 35.7896 45.804C37.8771 45.804 45.7969 45.8132 45.9984 45.7765C45.9984 45.7765 47.0238 45.7398 48.2873 45.2531C48.2873 45.2531 51.1073 44.3531 52.5631 41.1483C52.5723 41.1391 53.8724 38.5219 52.8653 35.4731Z" fill="#CF0A2C"/>
<path d="M34.6543 44.1507C34.6543 44.1507 34.7458 44.215 34.8374 44.1599C36.7418 43.2141 44.6708 39.1643 47.9486 35.9595C47.9486 35.9595 50.027 34.2882 50.1368 31.5975C50.3749 27.86 46.6301 24.4072 46.6301 24.4072C46.6301 24.4072 39.6992 32.8189 34.6177 43.9303C34.6177 43.9395 34.5627 44.0681 34.6543 44.1507Z" fill="#CF0A2C"/>
<path d="M72.2575 36.0694H64.7314V29.4209H61.3987V45.9044H64.7314V39.21H72.2575V45.9044H75.5903V29.4209H72.2575V36.0694Z" fill="black"/>
<path d="M91.0361 38.8519C91.0361 41.5333 89.7085 42.9567 87.3005 42.9567C84.8742 42.9567 83.5466 41.4874 83.5466 38.7325V29.4393H80.2139V38.861C80.2139 43.4985 82.7775 46.1524 87.2547 46.1524C91.7777 46.1524 94.3688 43.4434 94.3688 38.7233V29.4209H91.0361V38.8519Z" fill="black"/>
<path d="M129.555 40.7528L125.819 29.4209H123.1L119.374 40.7528L115.748 29.4301H112.195L117.927 45.9044H120.683L124.418 35.0868L128.154 45.9044H130.937L136.651 29.4301H133.19L129.555 40.7528Z" fill="black"/>
<path d="M142.62 38.8066H148.681V35.813H142.62V32.4336H151.419V29.4399H139.333V45.8867H151.739V42.8931H142.62V38.8066Z" fill="black"/>
<path d="M159 29.4209H155.713V45.8769H159V29.4209Z" fill="black"/>
<path d="M108.469 42.4608L109.943 45.8861H113.441L106.272 29.5127L106.207 29.4209H103.296L96.0627 45.8861H99.4596L100.851 42.6996L100.952 42.4608H108.469ZM104.706 33.59L107.086 39.0998H107.077L107.233 39.4855H102.197L102.353 39.0998H102.344L104.706 33.59Z" fill="black"/>
</svg>
