<svg width="170" height="70" viewBox="0 0 170 70" fill="none" xmlns="http://www.w3.org/2000/svg">
<path d="M56.3616 14.9693H9.35993V6.33416H56.3616V14.9693ZM59.7199 3H6V18.295H59.7199V3Z" fill="#00B188"/>
<path d="M9.35998 43.584H6.00195V28.2848H9.35998V34.3285H15.3597V28.2848H18.7177V43.584H15.3597V37.2459H9.35998V43.584Z" fill="#040404"/>
<path d="M23.8352 36.8312H27.835C27.7605 35.7064 27.2922 34.9225 25.983 34.9225C24.9953 34.9225 24.1311 35.3393 23.8352 36.8312ZM26.3779 43.7812C22.9709 43.7812 20.6506 41.652 20.6506 38.1543C20.6506 34.7516 22.922 32.4029 25.9341 32.4029C29.2176 32.4029 30.8471 34.5806 30.8471 37.8357V39.0596H23.8352C24.2311 40.7467 25.5637 41.1867 26.8973 41.1867C28.0574 41.1867 28.8962 40.943 29.9328 40.3057H30.0574V42.8264C29.1686 43.4637 27.9084 43.7812 26.3779 43.7812Z" fill="#040404"/>
<path d="M39.5874 37.1687L37.8589 43.5796H34.9213L31.5632 32.8174V32.695H34.7733L36.5997 39.1312L38.3282 32.695H40.9455L42.6985 39.1312L44.5504 32.695H47.637V32.8174L44.279 43.5796H41.3404L39.5874 37.1687Z" fill="#040404"/>
<path d="M53.0407 43.7529C50.3745 43.7529 49.2878 42.701 49.2878 40.2299V28.2121H52.5469V40.0083C52.5469 40.7669 52.8428 41.036 53.4846 41.036C53.707 41.036 54.0285 40.9632 54.2254 40.8893H54.2754V43.5567C54.004 43.6537 53.5346 43.7519 53.0407 43.7519" fill="#040404"/>
<path d="M58.4052 36.8312H62.4051C62.3306 35.7064 61.8622 34.9225 60.5531 34.9225C59.5664 34.9225 58.7011 35.3393 58.4052 36.8312ZM60.948 43.7812C57.541 43.7812 55.2207 41.652 55.2207 38.1543C55.2207 34.7516 57.492 32.4029 60.5041 32.4029C63.7877 32.4029 65.4172 34.5806 65.4172 37.8357V39.0596H58.4052C58.8001 40.7467 60.1337 41.1867 61.4663 41.1867C62.6275 41.1867 63.4662 40.943 64.504 40.3057H64.6274V42.8264C63.7387 43.4637 62.4796 43.7812 60.948 43.7812Z" fill="#040404"/>
<path d="M78.8406 32.695H81.2598V35.2885H78.8406V39.7179C78.8406 40.6728 79.211 41.1138 80.1987 41.1138C80.4701 41.1138 80.816 41.0885 81.1864 40.9661H81.2598V43.511C80.8405 43.6587 80.1987 43.8286 79.261 43.8286C76.6182 43.8286 75.5815 42.63 75.5815 39.8645V35.2885H71.4093V39.7179C71.4093 40.6728 71.7797 41.1138 72.7663 41.1138C73.0388 41.1138 73.3847 41.0885 73.7551 40.9661H73.8286V43.511C73.4092 43.6587 72.7663 43.8286 71.8297 43.8286C69.1869 43.8286 68.1502 42.63 68.1502 39.8645V35.2885H66.4707V32.695H68.1502V29.7101H71.4093V32.695H75.5815V29.7101H78.8406V32.695Z" fill="#040404"/>
<path d="M92.209 35.7341C93.9141 35.7341 94.7273 34.7803 94.7273 33.4097C94.7273 31.9895 93.9141 31.0357 92.209 31.0357H90.0856V35.7341H92.209ZM98.1353 33.4097C98.1353 36.7386 95.8885 38.5481 92.4804 38.5481H90.0856V43.5156H86.7297V28.2164H92.4804C95.8885 28.2164 98.1353 30.027 98.1353 33.4044" fill="#040404"/>
<path d="M105.322 40.1234V39.1938C104.828 38.9258 104.187 38.8277 103.52 38.8277C102.459 38.8277 101.817 39.2181 101.817 40.0991C101.817 41.0055 102.459 41.3969 103.421 41.3969C104.334 41.3969 105.026 40.9316 105.322 40.1234ZM105.421 42.4731C104.704 43.3299 103.644 43.7456 102.507 43.7456C100.36 43.7456 98.6057 42.4499 98.6057 40.1477C98.6057 38.0195 100.36 36.6003 102.877 36.6003C103.667 36.6003 104.483 36.7227 105.322 36.9665V36.7723C105.322 35.5969 104.655 35.0841 102.904 35.0841C101.791 35.0841 100.73 35.4007 99.8159 35.9156H99.6935V33.321C100.532 32.8325 102.015 32.4158 103.47 32.4158C106.779 32.4158 108.581 33.9815 108.581 36.7227V43.5494H105.421V42.4731Z" fill="#040404"/>
<path d="M110.175 38.0974C110.175 34.5976 112.67 32.3955 115.929 32.3955C117.089 32.3955 118.175 32.6403 118.99 33.227V35.9924H118.865C118.149 35.4543 117.31 35.1357 116.348 35.1357C114.719 35.1357 113.484 36.2383 113.484 38.0974C113.484 39.9565 114.719 41.0338 116.348 41.0338C117.31 41.0338 118.149 40.7151 118.865 40.176H118.99V42.9414C118.175 43.5291 117.089 43.7739 115.929 43.7739C112.67 43.7739 110.175 41.5972 110.175 38.0974" fill="#040404"/>
<path d="M124.31 38.6037V43.5459H121.052V28.2467H124.31V36.9577L127.594 32.6508H131.297V32.7731L127.347 37.7164L131.297 43.4182V43.5406H127.569L124.31 38.5985" fill="#040404"/>
<path d="M138.615 40.1234V39.1938C138.122 38.9258 137.479 38.8277 136.813 38.8277C135.752 38.8277 135.11 39.2181 135.11 40.0991C135.11 41.0055 135.752 41.3969 136.713 41.3969C137.628 41.3969 138.319 40.9316 138.615 40.1234ZM138.714 42.4731C137.997 43.3299 136.935 43.7456 135.801 43.7456C133.652 43.7456 131.9 42.4499 131.9 40.1477C131.9 38.0195 133.652 36.6003 136.172 36.6003C136.962 36.6003 137.775 36.7227 138.615 36.9665V36.7723C138.615 35.5969 137.948 35.0841 136.195 35.0841C135.085 35.0841 134.022 35.4007 133.109 35.9156H132.985V33.321C133.825 32.8325 135.307 32.4158 136.763 32.4158C140.073 32.4158 141.875 33.9815 141.875 36.7227V43.5494H138.714V42.4731Z" fill="#040404"/>
<path d="M147.385 34.3834C147.977 33.1837 148.842 32.499 150.052 32.499C150.496 32.499 150.94 32.5971 151.111 32.6952V35.7783H150.989C150.618 35.6306 150.175 35.5335 149.557 35.5335C148.545 35.5335 147.755 36.1212 147.483 37.2459V43.5112H144.225V32.6224H147.385V34.3845" fill="#040404"/>
<path d="M159.731 39.8702V36.3704C159.188 35.5875 158.473 35.2457 157.657 35.2457C156.226 35.2457 155.263 36.2744 155.263 38.1335C155.263 39.9926 156.226 40.9961 157.657 40.9961C158.473 40.9961 159.188 40.6531 159.731 39.8702ZM159.829 42.4405C159.138 43.3215 158.052 43.8101 156.571 43.8101C153.756 43.8101 151.954 41.2662 151.954 38.1335C151.954 35.0009 153.756 32.4317 156.571 32.4317C158.003 32.4317 159.039 32.8727 159.731 33.6799V28.2724H162.99V43.5611H159.829V42.4363" fill="#040404"/>
<path d="M6.03906 48.5641H15.5693V50.4232H8.18692V55.0963H14.8774V56.9079H8.18692V61.9978H15.5693V63.8569H6.03906V48.5683" fill="#040404"/>
<path d="M23.4095 52.869C25.8532 52.869 27.2113 54.4601 27.2113 57.0768V63.856H25.1625V57.1264C25.1625 55.7315 24.4462 54.7281 22.8911 54.7281C21.6075 54.7281 20.5208 55.5364 20.1504 56.6854V63.856H18.1016V53.0938H20.1504V54.6595C20.7922 53.6561 21.8789 52.8732 23.4095 52.8732" fill="#040404"/>
<path d="M32.6905 53.038H35.4801V54.7757H32.6905V60.5747C32.6905 61.7975 33.3323 62.2143 34.4924 62.2143C34.8128 62.2143 35.1587 62.1658 35.4056 62.0677H35.4801V63.8044C35.1842 63.9268 34.7638 64.0249 34.1965 64.0249C31.6527 64.0249 30.6416 62.8738 30.6416 60.7709V54.7757H28.7651V53.038H30.6416V50.1765H32.6905V53.038Z" fill="#040404"/>
<path d="M38.9063 57.4272H44.3132C44.2398 55.8372 43.449 54.6143 41.7705 54.6143C40.2155 54.6143 39.2022 55.7644 38.9063 57.4272ZM42.1409 64.084C38.9553 64.084 36.783 61.979 36.783 58.6026C36.783 55.2252 38.8074 52.8765 41.746 52.8765C44.7337 52.8765 46.2887 55.0058 46.2887 58.1616V59.0922H38.8318C39.0543 61.27 40.4624 62.3219 42.4123 62.3219C43.6225 62.3219 44.4857 62.0529 45.4489 61.3428H45.5234V63.1302C44.6347 63.8149 43.4735 64.084 42.1409 64.084Z" fill="#040404"/>
<path d="M50.8269 54.7261C51.2963 53.576 52.3341 52.8913 53.5176 52.8913C53.9881 52.8913 54.4074 52.9641 54.5798 53.0622V55.068H54.5064C54.2095 54.9224 53.7156 54.8485 53.2217 54.8485C52.1116 54.8485 51.1729 55.5818 50.8269 56.8057V63.8286H48.7781V53.0664H50.8269V54.7303" fill="#040404"/>
<path d="M61.13 62.2383C63.1544 62.2383 64.3401 60.6482 64.3401 58.4694C64.3401 56.317 63.1544 54.7026 61.13 54.7026C60.0188 54.7026 58.9822 55.3631 58.4393 56.414V60.5512C58.9822 61.6021 60.0188 62.2383 61.13 62.2383ZM61.4759 52.8667C64.7094 52.8667 66.4379 55.4855 66.4379 58.4694C66.4379 61.4565 64.7094 64.0742 61.4759 64.0742C60.1423 64.0742 59.0066 63.3894 58.4393 62.654V67.9897H56.3894V53.0915H58.4393V54.3144C59.0066 53.5557 60.1423 52.871 61.4759 52.871" fill="#040404"/>
<path d="M70.9219 54.7261C71.3902 53.576 72.428 52.8913 73.6126 52.8913C74.082 52.8913 74.5013 52.9641 74.6738 53.0622V55.068H74.6003C74.3044 54.9224 73.8106 54.8485 73.3167 54.8485C72.2055 54.8485 71.2678 55.5818 70.9219 56.8057V63.8286H68.873V53.0664H70.9219V54.7303" fill="#040404"/>
<path d="M77.6485 48.7329C78.3648 48.7329 78.9566 49.2953 78.9566 50.0054C78.9566 50.7155 78.3648 51.2778 77.6485 51.2778C76.9577 51.2778 76.3394 50.7155 76.3394 50.0054C76.3394 49.2953 76.9577 48.7329 77.6485 48.7329Z" fill="#040404"/>
<path d="M76.627 63.8424H78.6773V53.0718H76.627V63.8424Z" fill="#040404"/>
<path d="M85.9932 57.5115C87.5483 58 89.2757 58.6362 89.2757 60.6916C89.2757 62.8947 87.4493 64.0205 85.1045 64.0205C83.6719 64.0205 82.2403 63.6776 81.425 63.0414V61.1084H81.524C82.4383 61.9398 83.7954 62.307 85.079 62.307C86.2391 62.307 87.2768 61.866 87.2768 60.9364C87.2768 59.9826 86.4137 59.7621 84.7086 59.1997C83.178 58.7101 81.4751 58.1467 81.4751 56.1166C81.4751 54.0359 83.2025 52.813 85.4004 52.813C86.684 52.813 87.8197 53.0821 88.7329 53.6941V55.6524H88.6594C87.7718 54.9423 86.733 54.5255 85.4494 54.5255C84.1657 54.5255 83.4494 55.0889 83.4494 55.8476C83.4494 56.7043 84.2392 56.9481 85.9932 57.5115Z" fill="#040404"/>
<path d="M93.1456 57.4272H98.5514C98.478 55.8372 97.6882 54.6143 96.0087 54.6143C94.4537 54.6143 93.4415 55.7644 93.1456 57.4272ZM96.3791 64.084C93.1946 64.084 91.0222 61.979 91.0222 58.6026C91.0222 55.2252 93.0466 52.8765 95.9842 52.8765C98.9729 52.8765 100.527 55.0058 100.527 58.1616V59.0922H93.0711C93.2935 61.27 94.7006 62.3219 96.6505 62.3219C97.8617 62.3219 98.7249 62.0529 99.6871 61.3428H99.7616V63.1302C98.8739 63.8149 97.7127 64.084 96.3791 64.084Z" fill="#040404"/>
</svg>
