<svg width="170" height="70" viewBox="0 0 170 70" fill="none" xmlns="http://www.w3.org/2000/svg">
<path d="M84.8792 26.3344C91.5145 24.9922 98.3638 25.0128 105.065 25.8192C107.834 26.1819 110.716 26.5487 113.157 28.0228C114.582 28.8553 115.685 30.3678 115.737 32.0672C111.168 32.162 106.6 32.1139 102.034 32.1002C100.67 30.4942 98.4892 29.9914 96.4819 29.8994C93.7917 29.8087 90.9953 30.0134 88.5314 31.1949C86.4491 32.1895 84.6625 34.0318 84.1119 36.3329C83.8435 37.3811 84.5153 38.465 85.4284 38.939C87.1932 39.8471 89.2169 39.9529 91.1602 40.0257C93.7032 40.1287 96.3524 39.6492 98.511 38.2274C98.725 38.1051 98.9117 37.8729 99.1842 37.9073C103.803 37.8908 108.423 37.8976 113.041 37.9183C111.451 39.7124 109.336 40.9447 107.133 41.8157C104.372 42.9093 101.44 43.4835 98.5097 43.8778C95.2581 44.268 91.9833 44.5084 88.7086 44.4603C84.2782 44.4356 79.7974 44.1457 75.5237 42.8955C73.5531 42.276 71.5648 41.3267 70.2797 39.6369C69.2086 38.2974 69.0587 36.3507 69.7605 34.8052C70.6709 32.772 72.452 31.302 74.3204 30.1947C77.5842 28.303 81.201 27.0954 84.8792 26.3344Z" fill="#006CB7"/>
<path d="M26.7594 25.9027C31.5605 25.8244 36.3629 25.9481 41.1653 25.9288C40.2822 27.9387 39.3855 29.9444 38.4997 31.9543C43.1727 31.9626 47.8456 31.9378 52.5186 31.9667C53.433 29.9637 54.2848 27.9291 55.2005 25.9261C60.1352 25.9206 65.0684 25.9082 70.003 25.9275C67.3252 31.8925 64.6582 37.8603 61.9926 43.8308C57.8593 43.9215 53.7247 43.8666 49.5914 43.8789C48.8091 43.8872 48.0242 43.905 47.2487 43.7951C48.3417 41.4514 49.3733 39.0789 50.424 36.7173C45.7374 36.7159 41.0495 36.7159 36.3629 36.7159C35.3463 39.0844 34.2969 41.439 33.313 43.8198C28.4561 43.9243 23.5991 43.8844 18.7422 43.8569C21.3751 37.8534 24.1102 31.8966 26.7594 25.9027Z" fill="#006CB7"/>
<path d="M122.659 25.873C127.621 25.873 132.584 25.873 137.546 25.873C135.536 30.4176 133.514 34.9553 131.483 39.4915C138.322 39.4957 145.161 39.5122 152 39.5108C151.35 40.9643 150.701 42.4177 150.05 43.8699C138.258 43.8795 126.466 43.8822 114.675 43.8685C117.304 37.8553 119.991 31.8683 122.659 25.873Z" fill="#006CB7"/>
</svg>
