<svg width="32" height="32" viewBox="0 0 32 32" fill="none" xmlns="http://www.w3.org/2000/svg">
<path d="M18 30V28C20.6514 27.9974 23.1934 26.9429 25.0681 25.0681C26.9429 23.1934 27.9974 20.6514 28 18H30C29.9966 21.1815 28.7312 24.2318 26.4815 26.4815C24.2318 28.7312 21.1815 29.9966 18 30Z" fill="#FF6633"/>
<path d="M18 26V24C19.5907 23.9981 21.1158 23.3654 22.2406 22.2406C23.3654 21.1158 23.9981 19.5907 24 18H26C25.9974 20.1209 25.1536 22.1542 23.6539 23.6539C22.1542 25.1536 20.1209 25.9974 18 26Z" fill="#FF6633"/>
<path d="M10 2C7.61386 2.00265 5.32622 2.95171 3.63896 4.63896C1.95171 6.32622 1.00265 8.61386 1 11H3C3 9.14348 3.7375 7.36301 5.05025 6.05025C6.36301 4.7375 8.14348 4 10 4C11.8565 4 13.637 4.7375 14.9497 6.05025C16.2625 7.36301 17 9.14348 17 11C17.0036 12.2394 16.6822 13.4581 16.0679 14.5345C15.4536 15.611 14.5679 16.5076 13.499 17.135L13 17.423V20.496C13.0047 20.8971 12.9273 21.295 12.7726 21.6651C12.6178 22.0352 12.3889 22.3697 12.1 22.648C11.5233 23.2692 10.7713 23.7004 9.94386 23.8843C9.11642 24.0683 8.2526 23.9963 7.467 23.678C6.74608 23.3665 6.13008 22.854 5.69261 22.2018C5.25513 21.5496 5.01469 20.7852 5 20H3C3.01852 21.174 3.37437 22.3179 4.0251 23.2952C4.67583 24.2726 5.59397 25.0421 6.67 25.512C7.39978 25.8312 8.18748 25.9966 8.984 25.998C10.6625 25.9611 12.2638 25.286 13.462 24.11C13.9518 23.6448 14.3411 23.084 14.6056 22.4624C14.8701 21.8408 15.0044 21.1715 15 20.496V18.554C16.2337 17.7181 17.2436 16.5923 17.941 15.2753C18.6383 13.9582 19.002 12.4903 19 11C18.9974 8.61386 18.0483 6.32622 16.361 4.63896C14.6738 2.95171 12.3861 2.00265 10 2Z" fill="#1D1A3F"/>
<path d="M18 20V22C19.0605 21.9989 20.0773 21.5772 20.8273 20.8273C21.5772 20.0773 21.9989 19.0605 22 18H20C20 18.5304 19.7893 19.0391 19.4142 19.4142C19.0391 19.7893 18.5304 20 18 20Z" fill="#FF6633"/>
<path d="M9.27978 8.08311C9.72201 7.97497 10.183 7.96869 10.628 8.06475C11.073 8.1608 11.4904 8.35668 11.8487 8.6376C12.2069 8.91851 12.4967 9.27713 12.6961 9.68639C12.8955 10.0956 12.9993 10.5449 12.9998 11.0001H14.9998C15.0013 10.2483 14.8327 9.50585 14.5064 8.82851C14.1801 8.15118 13.7047 7.55651 13.1158 7.08911C12.5205 6.61729 11.8262 6.28614 11.0849 6.12042C10.3435 5.9547 9.57435 5.9587 8.83478 6.13211C7.93305 6.34135 7.10806 6.79925 6.45349 7.45381C5.79893 8.10838 5.34103 8.93337 5.13178 9.83511C4.88881 10.8716 4.98096 11.9585 5.39499 12.9393C5.80902 13.9201 6.52357 14.7442 7.43578 15.2931C7.90318 15.5573 8.29339 15.9391 8.56773 16.4006C8.84208 16.8621 8.99102 17.3873 8.99978 17.9241V20.0001H10.9998V17.9231C10.9928 17.0403 10.7549 16.1748 10.3099 15.4124C9.86481 14.65 9.22803 14.0173 8.46279 13.5771C7.95121 13.2725 7.54177 12.8226 7.28652 12.2847C7.03128 11.7468 6.94175 11.1451 7.02933 10.5562C7.11691 9.96727 7.37763 9.41768 7.77836 8.97732C8.17908 8.53695 8.70171 8.22569 9.27978 8.08311Z" fill="#1D1A3F"/>
</svg>
