<svg width="170" height="70" viewBox="0 0 170 70" fill="none" xmlns="http://www.w3.org/2000/svg">
<path d="M39 51.1567H57.0823V53.7615H39V51.1567Z" fill="#1F70C1"/>
<path d="M39 46.1606H57.0823V48.7746H39V46.1606Z" fill="#1F70C1"/>
<path d="M44.1584 41.1738H51.9146V43.7878H44.1584V41.1738Z" fill="#1F70C1"/>
<path d="M44.1584 36.1865H51.9146V38.8005H44.1584V36.1865Z" fill="#1F70C1"/>
<path d="M44.1584 31.1997H51.9146V33.8137H44.1584V31.1997Z" fill="#1F70C1"/>
<path d="M44.1584 26.2036H51.9146V28.8176H44.1584V26.2036Z" fill="#1F70C1"/>
<path d="M57.0823 21.2163H39V23.8303H57.0823V21.2163Z" fill="#1F70C1"/>
<path d="M57.0823 16.2295H39V18.8435H57.0823V16.2295Z" fill="#1F70C1"/>
<path d="M59.6616 48.7742H87.4713C87.9411 47.9677 88.2911 47.0871 88.5031 46.1602H59.6616V48.7742Z" fill="#1F70C1"/>
<path d="M85.3066 36.1865H64.8293V38.8005H87.4714C86.8818 37.7994 86.1541 36.9188 85.3066 36.1865Z" fill="#1F70C1"/>
<path d="M64.8293 31.1997V33.8137H85.3066C86.1726 33.0814 86.9002 32.2008 87.4714 31.1997H64.8293Z" fill="#1F70C1"/>
<path d="M87.4714 21.2163H59.6616V23.8303H88.5031C88.2636 22.9034 87.9135 22.0228 87.4714 21.2163Z" fill="#1F70C1"/>
<path d="M78.923 16.2295H59.6616V18.8435H85.5645C83.8328 17.2306 81.4839 16.2295 78.923 16.2295Z" fill="#1F70C1"/>
<path d="M72.5762 26.2036H64.8293V28.8176H72.5762V26.2036Z" fill="#1F70C1"/>
<path d="M80.3325 28.8176H88.4387C88.6689 27.9834 88.7887 27.1028 88.7887 26.2036H80.3325V28.8176Z" fill="#1F70C1"/>
<path d="M64.8293 41.1738H72.5762V43.7878H64.8293V41.1738Z" fill="#1F70C1"/>
<path d="M80.3325 41.1738V43.7878H88.7887C88.7887 42.8887 88.6689 42.0081 88.4387 41.1738H80.3325Z" fill="#1F70C1"/>
<path d="M59.6616 53.7429L78.923 53.7707C81.5023 53.7707 83.8328 52.7697 85.5737 51.1567H59.6616V53.7429Z" fill="#1F70C1"/>
<path d="M90.6677 51.1567H103.582V53.7615H90.6677V51.1567Z" fill="#1F70C1"/>
<path d="M90.6677 46.1606H103.582V48.7746H90.6677V46.1606Z" fill="#1F70C1"/>
<path d="M95.8262 41.1738H103.582V43.7878H95.8262V41.1738Z" fill="#1F70C1"/>
<path d="M95.8262 36.1865H103.582V38.8005H95.8262V36.1865Z" fill="#1F70C1"/>
<path d="M107.175 21.2163H90.6677V23.8303H108.068L107.175 21.2163Z" fill="#1F70C1"/>
<path d="M105.461 16.2295H90.6677V18.8435H106.355L105.461 16.2295Z" fill="#1F70C1"/>
<path d="M119.076 51.1567H132V53.7615H119.076V51.1567Z" fill="#1F70C1"/>
<path d="M119.076 46.1606H132V48.7746H119.076V46.1606Z" fill="#1F70C1"/>
<path d="M119.076 41.1738H126.832V43.7878H119.076V41.1738Z" fill="#1F70C1"/>
<path d="M119.076 36.1865H126.832V38.8005H119.076V36.1865Z" fill="#1F70C1"/>
<path d="M119.076 33.8137H126.832V31.1997H119.076H112.057L111.329 33.3132L110.602 31.1997H103.582H95.8262V33.8137H103.582V31.4129L104.402 33.8137H118.256L119.076 31.4129V33.8137Z" fill="#1F70C1"/>
<path d="M126.832 26.2036H113.77L112.877 28.8176H126.832V26.2036Z" fill="#1F70C1"/>
<path d="M117.206 16.2295L116.313 18.8435H132V16.2295H117.206Z" fill="#1F70C1"/>
<path d="M111.329 53.7429L112.223 51.1567H110.436L111.329 53.7429Z" fill="#1F70C1"/>
<path d="M109.616 48.7746H113.042L113.964 46.1606H108.704L109.616 48.7746Z" fill="#1F70C1"/>
<path d="M107.875 43.7878H114.784L115.695 41.1738H106.963L107.875 43.7878Z" fill="#1F70C1"/>
<path d="M106.143 38.8005H116.524L117.409 36.1865H105.25L106.143 38.8005Z" fill="#1F70C1"/>
<path d="M95.8262 28.8176H109.782L108.888 26.2036H95.8262V28.8176Z" fill="#1F70C1"/>
<path d="M114.599 23.8303H132V21.2163H115.484L114.599 23.8303Z" fill="#1F70C1"/>
</svg>
