<svg width="52" height="46" viewBox="0 0 52 46" fill="none" xmlns="http://www.w3.org/2000/svg">
<path d="M39.9358 7.39989C39.5892 7.53856 39.2425 7.74656 39.0345 8.02389C38.7572 8.30123 38.5492 8.64789 38.4798 8.99456C38.3412 9.34123 38.2718 9.75723 38.3412 10.1039C38.3412 10.8666 38.6878 11.6292 39.2425 12.1839C39.7972 12.7386 40.5598 13.0159 41.3225 13.0852C41.6692 13.0852 42.0852 13.0159 42.4318 12.8772C42.7785 12.7386 43.1252 12.5306 43.3332 12.2532C43.6105 11.9759 43.8185 11.6292 43.8878 11.2826C44.0265 10.9359 44.0958 10.5199 44.0265 10.1732C44.0265 9.41056 43.6798 8.64789 43.1252 8.09322C42.5705 7.53856 41.8078 7.26123 41.0452 7.19189C40.6292 7.19189 40.2825 7.26122 39.9358 7.39989Z" fill="#1D1A3F"/>
<path d="M48.1176 23.416C47.7709 23.416 47.3549 23.4854 47.0082 23.624C46.6616 23.7627 46.3842 23.9707 46.1069 24.248C45.6216 24.8027 45.3442 25.5654 45.3442 26.328C45.3442 27.0907 45.6909 27.8534 46.2456 28.408C46.5229 28.6854 46.8696 28.8934 47.2162 29.032C47.5629 29.1707 47.9789 29.24 48.3256 29.24C48.6722 29.24 49.0882 29.1707 49.4349 29.032C49.7816 28.8934 50.0589 28.6854 50.3362 28.408C50.8216 27.8534 51.0989 27.0907 51.0989 26.328C51.0989 25.5654 50.7522 24.8027 50.1976 24.248C49.9202 23.9707 49.5736 23.7627 49.2269 23.624C48.8802 23.4854 48.4642 23.416 48.1176 23.416Z" fill="#1D1A3F"/>
<path d="M25.0292 0.466797C24.6825 0.466797 24.2665 0.536132 23.9199 0.674799C23.5732 0.813466 23.2959 1.02147 23.0185 1.2988C22.5332 1.85347 22.2559 2.61613 22.2559 3.3788C22.2559 4.14147 22.6025 4.90413 23.1572 5.4588C23.4345 5.73613 23.7812 5.94413 24.1279 6.0828C24.4745 6.22146 24.8905 6.2908 25.2372 6.2908C25.5839 6.2908 25.9999 6.22146 26.3465 6.0828C26.6932 5.94413 26.9705 5.73613 27.2479 5.4588C27.7332 4.90413 28.0105 4.14147 28.0105 3.3788C28.0105 2.61613 27.6639 1.85347 27.1092 1.2988C26.8319 1.02147 26.4852 0.813466 26.1385 0.674799C25.7919 0.536132 25.4452 0.466797 25.0292 0.466797Z" fill="#1D1A3F"/>
<path d="M2.56536 29.1014C2.91202 29.24 3.32802 29.3093 3.67469 29.3093C4.02136 29.3093 4.43736 29.24 4.78403 29.1014C5.13069 28.9627 5.40802 28.7547 5.68536 28.4773C6.17069 27.9227 6.44802 27.16 6.44802 26.3973C6.44802 25.6347 6.10136 24.872 5.54669 24.3173C5.26936 24.04 4.92269 23.832 4.57603 23.6933C4.22936 23.5547 3.81336 23.4854 3.46669 23.4854C3.12003 23.4854 2.70403 23.5547 2.35736 23.6933C2.01069 23.832 1.73336 24.04 1.45603 24.3173C0.970692 24.872 0.693359 25.6347 0.693359 26.3973C0.693359 27.16 1.04002 27.9227 1.59469 28.4773C1.87202 28.6853 2.21869 28.9627 2.56536 29.1014Z" fill="#1D1A3F"/>
<path d="M10.6775 45.5335C11.0241 45.5335 11.4401 45.4641 11.7868 45.3255C12.1335 45.1868 12.4801 44.9788 12.6881 44.7015C12.9655 44.4241 13.1735 44.0775 13.2428 43.7308C13.3815 43.3841 13.4508 42.9681 13.3815 42.6215C13.3815 41.8588 13.0348 41.0961 12.4801 40.5415C11.9255 39.9868 11.1628 39.7095 10.4001 39.6401C10.0535 39.6401 9.63748 39.7095 9.29081 39.8481C8.94415 39.9868 8.59748 40.1948 8.38948 40.4721C8.11215 40.7495 7.90414 41.0961 7.83481 41.4428C7.69614 41.7895 7.62681 42.2055 7.69615 42.5521C7.69615 43.3148 8.04281 44.0775 8.59748 44.6321C9.15215 45.1868 9.91481 45.4641 10.6775 45.5335Z" fill="#1D1A3F"/>
<path d="M10.7468 12.8772C11.0934 12.7386 11.4401 12.5306 11.6481 12.2532C11.9254 11.9759 12.1334 11.6292 12.2028 11.2826C12.3414 10.9359 12.4108 10.5199 12.3414 10.1732C12.3414 9.41056 11.9948 8.64789 11.4401 8.09322C10.8854 7.53856 10.1228 7.26123 9.36011 7.19189C9.01344 7.19189 8.59744 7.26122 8.25078 7.39989C7.90411 7.53856 7.55744 7.74656 7.34944 8.02389C7.07211 8.30123 6.8641 8.64789 6.79477 8.99456C6.6561 9.34123 6.58677 9.75723 6.65611 10.1039C6.65611 10.8666 7.00278 11.6292 7.55744 12.1839C8.11211 12.7386 8.87477 13.0159 9.63744 13.0852C10.0534 13.0852 10.4001 13.0159 10.7468 12.8772Z" fill="#1D1A3F"/>
<path opacity="0.45" d="M39.3814 25.704C39.5894 31.6667 36.2614 36.8667 31.3388 39.1547L28.4961 40.5414C26.6241 41.4427 24.6134 41.8587 22.6028 41.8587C14.6294 41.8587 7.97342 35.2027 7.69608 27.0907C7.55742 24.3174 8.25075 21.544 9.70675 19.1174C11.1628 16.6907 13.2428 14.8187 15.7388 13.5707L18.2347 12.392C20.1067 11.4214 22.2561 10.8667 24.4747 10.8667C32.4481 10.8667 39.1041 17.5227 39.3814 25.704Z" fill="black"/>
<path d="M40.0749 23.624C40.2829 31.0427 34.6669 37.0747 27.4563 37.0747C20.2456 37.0747 14.2136 31.0427 14.0056 23.624C13.7976 16.2053 19.4136 10.1733 26.6243 10.1733C33.8349 10.1733 39.8669 16.2053 40.0749 23.624Z" fill="url(#paint0_linear_4394_62901)"/>
<path d="M33.4188 37.0747L30.5762 38.4613C28.7042 39.3627 26.6935 39.7787 24.6828 39.7787C16.7095 39.7787 10.0535 33.1227 9.77616 25.0107C9.6375 22.2373 10.3308 19.464 11.7868 17.0373C13.2428 14.6107 15.3228 12.7387 17.8188 11.4907L20.6615 10.104C18.1655 11.352 16.0855 13.224 14.6295 15.6507C13.1735 18.0773 12.4802 20.7813 12.6188 23.624C12.8962 31.8053 19.5522 38.392 27.5255 38.392C29.5362 38.4613 31.5468 37.976 33.4188 37.0747Z" fill="#1D1A3F"/>
<path d="M26.5548 8.78662C34.4588 8.78662 41.1842 15.4426 41.3922 23.5546C41.6695 31.736 35.4295 38.3226 27.4562 38.3226C19.4828 38.3226 12.8268 31.6666 12.6188 23.5546C12.4108 15.4426 18.6508 8.78662 26.5548 8.78662ZM27.4562 37.0053C34.6668 37.0053 40.3522 30.9733 40.0748 23.5546C39.7975 16.136 33.7655 10.104 26.6242 10.104C19.4828 10.104 13.7282 16.136 14.0055 23.5546C14.2135 30.9733 20.2455 37.0053 27.4562 37.0053Z" fill="#1D1A3F"/>
<path d="M33.3494 16.5518L27.3867 18.2158C27.3867 18.2158 27.3174 18.2158 27.3174 18.2851C27.3174 18.3544 27.3174 18.3544 27.3174 18.3544V18.4238V18.4931L31.8934 22.9998C31.8934 22.9998 31.8934 22.9998 31.9627 22.9998C31.9627 22.9998 31.9627 22.9998 32.0321 22.9998H32.1014L32.1707 22.9304L33.5574 16.7598V16.6904V16.6211C33.4187 16.6211 33.4187 16.6211 33.3494 16.5518Z" fill="#1D1A3F"/>
<defs>
<linearGradient id="paint0_linear_4394_62901" x1="13.9716" y1="23.6032" x2="40.0959" y2="23.6032" gradientUnits="userSpaceOnUse">
<stop stop-color="#EBEBEB"/>
<stop offset="0.0922963" stop-color="#EEEEEE"/>
<stop offset="0.5538" stop-color="#FBFBFB"/>
<stop offset="1" stop-color="white"/>
</linearGradient>
</defs>
</svg>
