<svg width="170" height="70" viewBox="0 0 170 70" fill="none" xmlns="http://www.w3.org/2000/svg">
<path d="M21 27.3139V42.1958C21 43.0958 21.5405 43.5049 22.5809 43.5049H37.0769C38.0794 43.5049 38.657 43.0958 38.657 42.1958C38.657 41.3359 38.0794 40.8867 37.0769 40.8867H24.6238C24.123 40.8867 23.9299 40.6625 23.9299 40.2134V27.3139C23.9306 27.1321 23.8923 26.9522 23.8174 26.7856C23.7425 26.619 23.6326 26.4694 23.4949 26.3462C23.3571 26.2231 23.1944 26.1291 23.0172 26.0703C22.8399 26.0116 22.652 25.9892 22.4654 26.0048C22.2794 25.9925 22.0928 26.017 21.9169 26.077C21.7411 26.1369 21.5797 26.231 21.4425 26.3535C21.3054 26.476 21.1954 26.6244 21.1194 26.7895C21.0433 26.9546 21.0027 27.133 21 27.3139Z" fill="black"/>
<path d="M45.9055 36.9815V27.3139C45.8761 26.9564 45.7091 26.6227 45.4376 26.3794C45.1661 26.1361 44.8101 26.001 44.4405 26.001C44.071 26.001 43.715 26.1361 43.4435 26.3794C43.172 26.6227 43.0049 26.9564 42.9756 27.3139V37.2433C42.9756 43.2668 46.8304 43.9524 53.5005 43.9524C60.1705 43.9524 64.0254 43.2651 64.0254 37.2433V27.3139C63.996 26.9564 63.829 26.6227 63.5575 26.3794C63.286 26.1361 62.93 26.001 62.5604 26.001C62.1908 26.001 61.8348 26.1361 61.5633 26.3794C61.2918 26.6227 61.1248 26.9564 61.0954 27.3139V36.9815C61.0954 41.8824 58.3974 41.223 53.5005 41.223C48.6035 41.223 45.9055 41.8071 45.9055 36.9815Z" fill="black"/>
<path d="M92.5925 30.3822V42.4233C92.5918 42.6051 92.6302 42.785 92.7051 42.9516C92.78 43.1182 92.8898 43.2679 93.0276 43.391C93.1654 43.5142 93.328 43.6081 93.5053 43.6669C93.6825 43.7257 93.8704 43.748 94.0571 43.7324C94.2444 43.7513 94.4337 43.7312 94.6125 43.6736C94.7913 43.6161 94.9553 43.5223 95.0939 43.3985C95.2325 43.2747 95.3423 43.1238 95.4162 42.9556C95.4901 42.7875 95.5263 42.6061 95.5224 42.4233V27.9497C95.5368 27.7028 95.4997 27.4556 95.4134 27.2229C95.3272 26.9902 95.1935 26.7767 95.0204 26.5952C94.8473 26.4137 94.6383 26.2679 94.4059 26.1665C94.1734 26.065 93.9223 26.0101 93.6675 26.0049C92.6558 26.0049 92.2148 26.5604 91.2393 27.4261L83.7598 34.5868H83.7211L76.2416 27.4637C75.2829 26.5056 74.5553 26.0049 73.697 26.0049C73.1914 26.0485 72.72 26.2706 72.3719 26.6291C72.0238 26.9875 71.8233 27.4574 71.8084 27.9497V42.4233C71.8077 42.6051 71.846 42.785 71.9209 42.9516C71.9958 43.1182 72.1056 43.2679 72.2434 43.391C72.3812 43.5142 72.5439 43.6081 72.7211 43.6669C72.8984 43.7257 73.0863 43.748 73.2729 43.7324C73.4602 43.7513 73.6496 43.7312 73.8283 43.6736C74.0071 43.6161 74.1712 43.5223 74.3097 43.3985C74.4483 43.2747 74.5582 43.1238 74.6321 42.9556C74.7059 42.7875 74.7421 42.6061 74.7383 42.4233V30.3445H74.8926L82.0247 36.9063C82.6663 37.5167 83.1654 37.9912 83.6823 37.9912C84.3315 37.9912 84.6645 37.5003 85.3787 36.9063L92.4728 30.3822H92.5925Z" fill="black"/>
<path d="M121.198 27.5757C121.198 26.7158 120.659 26.229 119.618 26.229H104.967C103.927 26.229 103.387 26.7199 103.387 27.5757V28.8799L119.66 28.848C120.662 28.848 121.202 28.3988 121.202 27.5757" fill="#0C9ED9"/>
<path d="M103.385 33.6172V42.1958C103.385 43.0958 103.924 43.5049 104.965 43.5049H119.769C120.772 43.5049 121.311 43.0958 121.311 42.1958C121.311 41.3351 120.772 40.8867 119.769 40.8867H107.01C106.509 40.8867 106.316 40.6617 106.316 40.2134V36.2706H115.954C116.995 36.2706 117.535 35.8214 117.535 34.9615C117.535 34.1433 116.995 33.6524 115.954 33.6524L103.385 33.6172Z" fill="black"/>
<path d="M149.226 42.0462V27.314C149.223 27.1331 149.183 26.9547 149.107 26.7896C149.031 26.6245 148.921 26.4761 148.784 26.3536C148.647 26.2311 148.485 26.137 148.31 26.077C148.134 26.0171 147.947 25.9925 147.761 26.0049C147.575 25.9892 147.387 26.0114 147.209 26.0702C147.032 26.1289 146.869 26.2228 146.731 26.346C146.593 26.4691 146.484 26.6188 146.409 26.7855C146.334 26.9521 146.295 27.1321 146.296 27.314V39.2406L131.798 27.4261C130.801 26.6136 130.245 26.0049 129.292 26.0049C128.247 26.0049 127.558 26.6782 127.558 27.9497V42.4233C127.561 42.6042 127.601 42.7826 127.677 42.9477C127.753 43.1128 127.863 43.2612 128 43.3837C128.137 43.5062 128.299 43.6003 128.474 43.6603C128.65 43.7202 128.837 43.7448 129.023 43.7324C129.209 43.7481 129.397 43.7259 129.575 43.6672C129.752 43.6084 129.915 43.5145 130.053 43.3913C130.191 43.2682 130.3 43.1185 130.375 42.9518C130.45 42.7852 130.489 42.6052 130.488 42.4233V30.2324L144.83 42.1959C145.79 42.9879 146.456 43.73 147.451 43.73C147.683 43.7376 147.914 43.6996 148.13 43.6181C148.346 43.5366 148.542 43.4135 148.708 43.256C148.874 43.0986 149.004 42.9102 149.093 42.7022C149.181 42.4943 149.225 42.2711 149.222 42.0462" fill="black"/>
</svg>
