<svg width="32" height="32" viewBox="0 0 32 32" fill="none" xmlns="http://www.w3.org/2000/svg">
<path d="M11.9998 27.9998C11.9998 28.6665 12.5332 29.3332 13.3332 29.3332H18.6665C19.4665 29.3332 19.9998 28.6665 19.9998 27.9998V26.6665H11.9998V27.9998ZM15.9998 2.6665C10.7998 2.6665 6.6665 6.79984 6.6665 11.9998C6.6665 15.1998 8.2665 17.9998 10.6665 19.5998V22.6665C10.6665 23.3332 11.1998 23.9998 11.9998 23.9998H19.9998C20.7998 23.9998 21.3332 23.3332 21.3332 22.6665V19.5998C23.7332 17.8665 25.3332 15.0665 25.3332 11.9998C25.3332 6.79984 21.1998 2.6665 15.9998 2.6665Z" fill="#FF6633"/>
</svg>
