<svg width="32" height="32" viewBox="0 0 32 32" fill="none" xmlns="http://www.w3.org/2000/svg">
<path d="M15 2H17V7H15V2ZM21.688 8.9L25.194 5.394L26.608 6.808L23.102 10.314L21.688 8.9ZM25 15H30V17H25V15ZM21.688 23.1L23.102 21.687L26.608 25.193L25.194 26.607L21.688 23.1ZM15 25H17V30H15V25ZM5.394 25.192L8.9 21.686L10.314 23.1L6.809 26.606L5.394 25.192ZM2 15H7V17H2V15ZM5.395 6.808L6.809 5.394L10.315 8.9L8.9 10.314L5.395 6.808Z" fill="#1D1A3F"/>
<path d="M16 10C17.5913 10 19.117 10.6326 20.2422 11.7578C21.3674 12.883 22 14.4087 22 16C22 17.1865 21.6483 18.3464 20.9893 19.333C20.33 20.3197 19.3923 21.0888 18.2959 21.543C17.1995 21.9971 15.993 22.1163 14.8291 21.8848C13.6653 21.6532 12.5959 21.0812 11.7568 20.2422C10.9181 19.4032 10.3467 18.3344 10.1152 17.1709C9.88373 16.007 10.0029 14.8004 10.457 13.7041C10.9112 12.6077 11.6803 11.67 12.667 11.0107C13.6536 10.3517 14.8135 10 16 10ZM16 12C14.9396 12.0013 13.9227 12.423 13.1729 13.1729C12.423 13.9227 12.0013 14.9395 12 16C12 16.7911 12.2343 17.5649 12.6738 18.2227C13.1133 18.8802 13.7381 19.3926 14.4688 19.6953C15.1997 19.9981 16.0043 20.0772 16.7803 19.9229C17.5562 19.7685 18.2687 19.3875 18.8281 18.8281C19.3875 18.2687 19.7685 17.5562 19.9229 16.7803C20.0772 16.0045 19.9979 15.2005 19.6953 14.4697C19.3926 13.7389 18.8804 13.1133 18.2227 12.6738C17.5649 12.2343 16.7911 12 16 12Z" fill="#FF6633"/>
</svg>
