<svg width="208" height="39" viewBox="0 0 208 39" fill="none" xmlns="http://www.w3.org/2000/svg">
<path d="M0.256975 13.3941L11.268 2.25949C11.3484 2.17727 11.4442 2.11199 11.5498 2.06744C11.6554 2.0229 11.7687 1.99997 11.8831 2H29.5911C29.7625 2 29.9269 2.06876 30.0481 2.19116C30.1693 2.31356 30.2374 2.47957 30.2374 2.65267V20.4948C30.2374 20.6104 30.2147 20.7248 30.1706 20.8315C30.1265 20.9381 30.0618 21.0348 29.9804 21.116L18.9305 32.2585C18.8497 32.3397 18.7537 32.4038 18.648 32.447C18.5424 32.4902 18.4293 32.5117 18.3153 32.5102H0.646331C0.478885 32.5103 0.317932 32.4448 0.197371 32.3274C0.0768103 32.2101 0.00605222 32.0501 0 31.8811L0 14.0153C0.00165245 13.7823 0.0939423 13.5592 0.256975 13.3941Z" fill="#3631FF"/>
<path d="M10.8324 17.5537H10.824V17.5703H10.8324V17.5537Z" fill="white"/>
<path d="M14.7954 13.9048V17.1917C14.7965 17.2395 14.7879 17.287 14.7703 17.3314C14.7527 17.3758 14.7263 17.4161 14.6929 17.4499C14.6594 17.4837 14.6195 17.5103 14.5755 17.5281C14.5316 17.5459 14.4845 17.5545 14.4372 17.5534H11.1822C11.1351 17.5534 11.0886 17.5628 11.0451 17.5809C11.0016 17.5991 10.9622 17.6258 10.9289 17.6594C10.8956 17.6929 10.8692 17.7328 10.8512 17.7767C10.8332 17.8206 10.824 17.8676 10.824 17.9151V21.2099C10.824 21.3045 10.7873 21.3953 10.7218 21.4629C10.6563 21.5306 10.5672 21.5696 10.4736 21.5716H7.21075C7.11574 21.5716 7.02463 21.6097 6.95746 21.6776C6.89028 21.7454 6.85254 21.8374 6.85254 21.9334V25.2281C6.85254 25.3241 6.89028 25.4161 6.95746 25.4839C7.02463 25.5517 7.11574 25.5899 7.21075 25.5899H18.4242C18.5186 25.5878 18.6085 25.5491 18.6753 25.4817C18.742 25.4143 18.7804 25.3234 18.7824 25.2281V13.9048C18.7824 13.8088 18.7447 13.7168 18.6775 13.649C18.6103 13.5812 18.5192 13.5431 18.4242 13.5431H15.1614C15.1137 13.542 15.0663 13.5506 15.0219 13.5683C14.9776 13.586 14.9372 13.6125 14.9031 13.6462C14.869 13.6799 14.8419 13.7201 14.8234 13.7645C14.8049 13.8089 14.7954 13.8566 14.7954 13.9048Z" fill="white"/>
<path d="M38.157 32.2744C38.0774 32.2852 37.9964 32.2771 37.9205 32.2507C37.8445 32.2243 37.7758 32.1802 37.7198 32.1221C37.6637 32.064 37.622 31.9935 37.5978 31.9161C37.5737 31.8388 37.5678 31.7568 37.5807 31.6767V8.48742C37.5665 8.39083 37.5748 8.29223 37.6049 8.19943C37.635 8.10662 37.686 8.02216 37.754 7.95273C37.822 7.88331 37.9051 7.83082 37.9966 7.79942C38.0882 7.76802 38.1858 7.75858 38.2816 7.77185H39.3328C39.5139 7.75922 39.6942 7.80612 39.8468 7.90553C39.9907 8.02088 40.1055 8.16911 40.1816 8.33802L44.8539 17.2001L47.8208 22.9168L50.7955 17.2001L55.4677 8.29084C55.5376 8.12486 55.655 7.98377 55.8049 7.88569C55.9547 7.7876 56.1302 7.737 56.3088 7.74039H57.3834C57.835 7.74039 58.0609 7.9763 58.0609 8.45597V31.6767C58.0726 31.758 58.0655 31.8409 58.0399 31.9188C58.0143 31.9967 57.971 32.0675 57.9135 32.1256C57.8561 32.1837 57.7859 32.2273 57.7087 32.2532C57.6316 32.279 57.5495 32.2862 57.469 32.2744H56.7604C56.6797 32.2859 56.5974 32.2785 56.52 32.2527C56.4425 32.2269 56.3721 32.1833 56.314 32.1255C56.256 32.0677 56.212 31.9971 56.1854 31.9192C56.1588 31.8414 56.1504 31.7584 56.1608 31.6767V16.7991C56.1608 16.3745 56.1608 15.5016 56.1608 14.157C56.1608 12.8123 56.1608 11.7272 56.1608 10.8858C55.0239 13.2605 53.9856 15.2919 53.046 16.9799L48.6852 24.8984C48.605 25.0642 48.4796 25.2034 48.3237 25.2995C48.1677 25.3956 47.9879 25.4447 47.8052 25.441C47.6235 25.4452 47.4445 25.3961 47.2897 25.2999C47.135 25.2036 47.0111 25.0642 46.9331 24.8984L42.5878 16.9799C41.8714 15.6746 40.8357 13.6458 39.473 10.8858C39.5041 13.1976 39.5197 15.1687 39.5197 16.7991V31.6767C39.5315 31.758 39.5243 31.8409 39.4987 31.9188C39.4732 31.9967 39.4299 32.0675 39.3724 32.1256C39.3149 32.1837 39.2448 32.2273 39.1676 32.2532C39.0904 32.279 39.0083 32.2862 38.9279 32.2744H38.157Z" fill="#1D1A3F"/>
<path d="M61.7441 26.7389C61.7441 23.7508 63.6442 22.2567 67.4443 22.2567H72.8252V18.9619C72.8652 18.4763 72.8056 17.9875 72.6502 17.5262C72.4947 17.0648 72.2468 16.6408 71.9219 16.2805C71.1241 15.6374 70.1123 15.3278 69.0952 15.4155H67.748C66.7675 15.3317 65.7904 15.6112 64.9992 16.2018C64.6861 16.5164 64.4446 16.8959 64.2913 17.3141C64.138 17.7324 64.0766 18.1792 64.1114 18.6238C64.1216 18.7026 64.1138 18.7828 64.0884 18.8581C64.0631 18.9334 64.0209 19.0018 63.9652 19.0581C63.9095 19.1143 63.8418 19.1569 63.7672 19.1825C63.6927 19.208 63.6133 19.216 63.5352 19.2057H62.7565C62.6792 19.215 62.601 19.2062 62.5277 19.18C62.4544 19.1538 62.388 19.1109 62.3338 19.0546C62.2796 18.9983 62.2389 18.9302 62.215 18.8555C62.191 18.7808 62.1845 18.7015 62.1958 18.6238C62.1565 17.9584 62.2623 17.2923 62.5058 16.6727C62.7494 16.0531 63.1247 15.4951 63.6053 15.0381C64.787 14.1217 66.2626 13.6792 67.748 13.7956H69.0718C70.5885 13.6821 72.0921 14.148 73.2847 15.101C73.7869 15.6025 74.1779 16.206 74.4316 16.8717C74.6853 17.5373 74.7961 18.2498 74.7564 18.9619V31.6928C74.7666 31.7717 74.7588 31.8519 74.7334 31.9272C74.7081 32.0025 74.6659 32.0709 74.6102 32.1271C74.5545 32.1833 74.4868 32.2259 74.4122 32.2515C74.3377 32.2771 74.2583 32.285 74.1802 32.2747H73.4015C73.3243 32.284 73.246 32.2752 73.1727 32.249C73.0994 32.2228 73.033 32.1799 72.9788 32.1236C72.9246 32.0674 72.8839 31.9992 72.86 31.9245C72.836 31.8498 72.8295 31.7705 72.8408 31.6928V30.4583L69.1964 32.031C68.3232 32.3978 67.3855 32.5824 66.4398 32.5735C65.8219 32.5927 65.2065 32.4879 64.629 32.2652C64.0515 32.0425 63.5236 31.7063 63.0757 31.2761C62.6344 30.8263 62.2913 30.2882 62.0687 29.6963C61.846 29.1044 61.7487 28.472 61.7831 27.8398L61.7441 26.7389ZM72.8252 28.9485V23.8058H67.4755C66.4581 23.7194 65.44 23.9647 64.5709 24.5057C64.258 24.7804 64.0137 25.1258 63.8581 25.5139C63.7025 25.902 63.6399 26.3217 63.6753 26.7389V27.8398C63.642 28.25 63.694 28.6627 63.8281 29.0514C63.9623 29.4401 64.1755 29.7961 64.4541 30.0966C65.0881 30.6473 65.9084 30.929 66.7435 30.8829C67.4109 30.8949 68.0744 30.7774 68.698 30.5369L72.8252 28.9485Z" fill="#1D1A3F"/>
<path d="M84.1865 32.5337C82.7044 32.6294 81.2389 32.1734 80.0671 31.2519C79.5869 30.8026 79.2109 30.2518 78.9659 29.6387C78.7209 29.0257 78.613 28.3656 78.6499 27.7055V27.3753C78.6416 27.2948 78.6497 27.2135 78.6738 27.1364C78.6979 27.0593 78.7375 26.9881 78.7901 26.927C78.9237 26.8316 79.0864 26.7871 79.2495 26.8012H80.0282C80.184 26.7871 80.3394 26.832 80.4643 26.927C80.5168 26.9881 80.5564 27.0593 80.5805 27.1364C80.6046 27.2135 80.6128 27.2948 80.6045 27.3753V27.7055C80.6045 29.8549 81.814 30.9295 84.2332 30.9295H85.9698C88.3916 30.9295 89.6064 29.868 89.6064 27.7842V27.3045C89.6294 26.9467 89.5759 26.588 89.4496 26.2529C89.3233 25.9178 89.1272 25.614 88.8744 25.3622C88.1943 24.8146 87.3925 24.4422 86.5382 24.2771L83.291 23.4514C82.0263 23.2086 80.8472 22.6336 79.8725 21.7843C79.5071 21.3895 79.2248 20.9239 79.0428 20.4157C78.8607 19.9075 78.7827 19.3672 78.8134 18.8277V18.5132C78.7854 17.8714 78.8955 17.2312 79.1361 16.6366C79.3768 16.042 79.7422 15.5072 80.2073 15.069C81.2998 14.1641 82.6904 13.7091 84.1009 13.7951H85.8685C87.3515 13.6919 88.8196 14.1487 89.9879 15.0768C90.4718 15.524 90.8514 16.0741 91.0991 16.6874C91.3469 17.3007 91.4568 17.9619 91.4208 18.6232V18.9063C91.4305 18.985 91.4237 19.0648 91.4009 19.1407C91.3781 19.2166 91.3398 19.2867 91.2884 19.3467C91.167 19.4427 91.0136 19.4877 90.8601 19.4725H90.0814C89.6842 19.4725 89.4818 19.2838 89.4818 18.9063V18.6232C89.4818 16.4687 88.2748 15.3992 85.8452 15.3992H84.1009C83.1746 15.3314 82.2585 15.6304 81.5467 16.2328C81.2429 16.5406 81.0073 16.9101 80.8556 17.3168C80.7039 17.7235 80.6395 18.1581 80.6667 18.5918V18.8591C80.6461 19.2039 80.6971 19.5492 80.8165 19.8728C80.9359 20.1965 81.1209 20.4913 81.3598 20.7385C82.0053 21.2692 82.7748 21.6239 83.5947 21.7686L86.8341 22.555C88.1394 22.7925 89.3606 23.3699 90.3773 24.2299C90.7502 24.6436 91.0363 25.1294 91.2183 25.6578C91.4003 26.1862 91.4745 26.7463 91.4363 27.3045V27.7842C91.4709 28.4396 91.3602 29.0945 91.1123 29.7012C90.8645 30.3079 90.4857 30.8511 90.0035 31.2913C88.835 32.206 87.3749 32.6564 85.8997 32.5573L84.1865 32.5337Z" fill="#1D1A3F"/>
<path d="M96.716 15.7216H94.0917C94.0137 15.7329 93.9342 15.7261 93.8593 15.7015C93.7844 15.6769 93.7161 15.6353 93.6597 15.5798C93.6032 15.5243 93.5601 15.4565 93.5338 15.3816C93.5074 15.3066 93.4985 15.2265 93.5077 15.1475V14.5814C93.4968 14.502 93.5046 14.4212 93.5304 14.3455C93.5562 14.2698 93.5992 14.2012 93.6561 14.1453C93.7129 14.0895 93.7819 14.0479 93.8576 14.0239C93.9333 13.9999 94.0135 13.9943 94.0917 14.0073H96.716V8.50291C96.7055 8.42331 96.7134 8.34233 96.7392 8.26636C96.765 8.19038 96.8078 8.12148 96.8645 8.06508C96.9211 8.00868 96.9899 7.96631 97.0654 7.94131C97.141 7.91631 97.2213 7.90937 97.3 7.92102H98.0787C98.4758 7.92102 98.6705 8.10974 98.6705 8.50291V14.0073H103.304C103.701 14.0073 103.896 14.1961 103.896 14.5814V15.1318C103.896 15.5092 103.701 15.7058 103.304 15.7058H98.6705V27.6897C98.6386 28.0786 98.6865 28.4699 98.8111 28.8393C98.9357 29.2087 99.1344 29.5481 99.3947 29.8365C100.035 30.3566 100.85 30.6073 101.669 30.5363H103.304C103.383 30.5246 103.463 30.5316 103.538 30.5566C103.614 30.5816 103.683 30.624 103.739 30.6804C103.796 30.7368 103.839 30.8057 103.865 30.8816C103.89 30.9576 103.898 31.0386 103.888 31.1182V31.7079C103.888 32.0854 103.693 32.2741 103.304 32.2741H101.653C98.3824 32.2741 96.7445 30.746 96.7393 27.6897L96.716 15.7216Z" fill="#1D1A3F"/>
<path d="M106.606 18.9616C106.561 18.2526 106.668 17.5422 106.919 16.8787C107.17 16.2152 107.56 15.6141 108.062 15.1163C109.243 14.1579 110.74 13.686 112.251 13.7953H113.926C115.44 13.691 116.938 14.1716 118.115 15.1399C118.617 15.6377 119.007 16.2388 119.258 16.9023C119.509 17.5658 119.616 18.2762 119.571 18.9852V22.3979C119.571 23.0742 119.221 23.4044 118.52 23.4044H108.521V27.3833C108.521 29.7162 109.765 30.8852 112.251 30.8904H113.926C114.92 30.9655 115.909 30.6873 116.721 30.1041C117.044 29.8082 117.296 29.442 117.458 29.0333C117.62 28.6246 117.687 28.1841 117.656 27.745V27.69C117.656 27.3283 117.85 27.1474 118.24 27.1474H119.018C119.4 27.1474 119.595 27.3283 119.595 27.69V27.7608C119.625 28.4193 119.508 29.0763 119.254 29.6833C118.999 30.2903 118.613 30.8318 118.123 31.2679C116.93 32.1892 115.448 32.6443 113.949 32.5496H112.275C110.76 32.6523 109.263 32.1719 108.085 31.205C107.584 30.7102 107.194 30.1119 106.943 29.451C106.691 28.79 106.584 28.082 106.629 27.3755L106.606 18.9616ZM117.656 18.9616C117.656 16.6025 116.418 15.4309 113.926 15.4309H112.251C109.77 15.4309 108.527 16.6078 108.521 18.9616V21.8239H117.656V18.9616Z" fill="#1D1A3F"/>
<path d="M124.306 32.2744C124.227 32.2875 124.145 32.2815 124.069 32.2572C123.992 32.2328 123.922 32.1906 123.865 32.134C123.807 32.0775 123.764 32.0081 123.737 31.9314C123.711 31.8547 123.703 31.7729 123.714 31.6926V14.621C123.702 14.5398 123.709 14.4569 123.735 14.3789C123.761 14.301 123.804 14.2302 123.861 14.1721C123.919 14.1141 123.989 14.0704 124.066 14.0446C124.143 14.0187 124.225 14.0115 124.306 14.0234H125.007C125.087 14.0115 125.169 14.0187 125.246 14.0446C125.324 14.0704 125.394 14.1141 125.451 14.1721C125.509 14.2302 125.552 14.301 125.578 14.3789C125.603 14.4569 125.61 14.5398 125.598 14.621V15.9421L127.366 14.7861C128.358 14.1361 129.516 13.7918 130.699 13.7953H131.213C131.294 13.7838 131.376 13.7912 131.453 13.817C131.531 13.8428 131.601 13.8863 131.659 13.9442C131.717 14.002 131.761 14.0726 131.788 14.1505C131.815 14.2283 131.823 14.3113 131.813 14.393V15.1793C131.823 15.261 131.815 15.344 131.788 15.4218C131.761 15.4997 131.717 15.5702 131.659 15.6281C131.601 15.6859 131.531 15.7295 131.453 15.7553C131.376 15.7811 131.294 15.7885 131.213 15.7769H130.722C129.639 15.7575 128.569 16.0116 127.608 16.5161L125.63 17.6091V31.7633C125.64 31.8437 125.632 31.9255 125.606 32.0022C125.58 32.0788 125.536 32.1482 125.479 32.2048C125.421 32.2614 125.351 32.3036 125.275 32.3279C125.198 32.3523 125.117 32.3582 125.038 32.3452L124.306 32.2744Z" fill="#1D1A3F"/>
<path d="M134.172 13.7404C134.116 12.8956 134.236 12.0483 134.524 11.2532C134.813 10.4582 135.263 9.73301 135.846 9.1246C137.152 7.98169 138.848 7.40024 140.573 7.50473H143.688C145.409 7.38432 147.108 7.9488 148.423 9.07742C149.004 9.68825 149.453 10.4151 149.74 11.2114C150.027 12.0077 150.146 12.8557 150.089 13.7011V15.0222C150.089 15.4075 149.887 15.6041 149.482 15.6041H148.703C148.298 15.6041 148.095 15.4075 148.095 15.0222V13.7404C148.139 13.136 148.06 12.529 147.865 11.956C147.669 11.383 147.361 10.8558 146.959 10.4063C146.51 10.0092 145.988 9.70539 145.423 9.51243C144.857 9.31946 144.26 9.24111 143.665 9.28187H140.55C139.956 9.24042 139.359 9.31847 138.795 9.5115C138.231 9.70452 137.71 10.0087 137.264 10.4063C136.862 10.8565 136.556 11.3839 136.362 11.9569C136.168 12.5298 136.09 13.1365 136.134 13.7404V26.322C136.09 26.9259 136.168 27.5326 136.362 28.1055C136.556 28.6785 136.862 29.2059 137.264 29.6561C137.708 30.058 138.228 30.366 138.792 30.5618C139.357 30.7576 139.954 30.8374 140.55 30.7963H143.665C144.261 30.8366 144.86 30.7566 145.425 30.5609C145.991 30.3651 146.512 30.0575 146.959 29.6561C147.361 29.2066 147.669 28.6794 147.865 28.1064C148.06 27.5334 148.139 26.9264 148.095 26.322V24.9852C148.095 24.5999 148.298 24.4033 148.703 24.4033H149.482C149.887 24.4033 150.089 24.5999 150.089 24.9852V26.3062C150.146 27.1517 150.027 27.9997 149.74 28.796C149.453 29.5922 149.004 30.3191 148.423 30.9299C147.108 32.0586 145.409 32.623 143.688 32.5026H140.573C138.855 32.6201 137.159 32.0559 135.846 30.9299C135.264 30.321 134.814 29.5957 134.526 28.8008C134.238 28.0059 134.117 27.1588 134.172 26.3141V13.7404Z" fill="#1D1A3F"/>
<path d="M154.318 6.79708C154.306 6.71836 154.313 6.63807 154.337 6.56243C154.362 6.48678 154.403 6.41779 154.458 6.36079C154.513 6.3038 154.58 6.26031 154.654 6.2337C154.728 6.20709 154.808 6.19806 154.886 6.20732H155.665C155.744 6.19538 155.825 6.2024 155.901 6.22781C155.978 6.25323 156.047 6.29633 156.104 6.35367C156.161 6.41101 156.203 6.48098 156.228 6.55798C156.254 6.63499 156.261 6.71687 156.249 6.79708V31.6928C156.259 31.7724 156.251 31.8533 156.226 31.9293C156.2 32.0053 156.157 32.0742 156.1 32.1306C156.044 32.187 155.975 32.2294 155.899 32.2544C155.824 32.2794 155.743 32.2863 155.665 32.2747H154.886C154.808 32.2853 154.729 32.2775 154.655 32.2519C154.58 32.2263 154.513 32.1835 154.458 32.1271C154.403 32.0706 154.361 32.002 154.337 31.9266C154.313 31.8512 154.306 31.7712 154.318 31.6928V6.79708Z" fill="#1D1A3F"/>
<path d="M160.173 26.7389C160.173 23.7508 162.073 22.2567 165.874 22.2567H171.254V18.9619C171.294 18.4763 171.235 17.9875 171.079 17.5262C170.924 17.0648 170.676 16.6408 170.351 16.2805C169.553 15.6381 168.541 15.3286 167.524 15.4155H166.201C165.218 15.3333 164.239 15.6126 163.444 16.2018C163.134 16.518 162.894 16.898 162.742 17.3159C162.591 17.7339 162.53 18.18 162.564 18.6238C162.574 18.7026 162.566 18.7828 162.541 18.8581C162.516 18.9334 162.474 19.0018 162.418 19.0581C162.362 19.1143 162.294 19.1569 162.22 19.1825C162.145 19.208 162.066 19.216 161.988 19.2057H161.209C161.132 19.215 161.054 19.2062 160.98 19.18C160.907 19.1538 160.841 19.1109 160.786 19.0546C160.732 18.9983 160.691 18.9302 160.668 18.8555C160.644 18.7808 160.637 18.7015 160.648 18.6238C160.609 17.9584 160.715 17.2923 160.958 16.6727C161.202 16.0531 161.577 15.4951 162.058 15.0381C163.24 14.1217 164.715 13.6792 166.201 13.7956H167.524C169.041 13.6821 170.545 14.148 171.737 15.101C172.233 15.6099 172.615 16.2195 172.86 16.8893C173.104 17.559 173.205 18.2736 173.154 18.9855V31.6928C173.165 31.7724 173.157 31.8534 173.131 31.9294C173.105 32.0054 173.063 32.0743 173.006 32.1307C172.949 32.1871 172.881 32.2294 172.805 32.2544C172.729 32.2794 172.649 32.2864 172.57 32.2747H171.792C171.715 32.284 171.636 32.2752 171.563 32.249C171.49 32.2228 171.423 32.1799 171.369 32.1236C171.315 32.0674 171.274 31.9992 171.25 31.9245C171.226 31.8498 171.22 31.7705 171.231 31.6928V30.4583L167.587 32.031C166.713 32.3978 165.776 32.5824 164.83 32.5735C164.208 32.6032 163.587 32.5073 163.003 32.2912C162.418 32.0751 161.883 31.7434 161.427 31.3154C160.986 30.8657 160.643 30.3275 160.42 29.7356C160.197 29.1437 160.1 28.5113 160.134 27.8791L160.173 26.7389ZM171.254 28.9485V23.8058H165.905C164.887 23.7183 163.869 23.9637 163 24.5057C162.687 24.7804 162.443 25.1258 162.287 25.5139C162.132 25.902 162.069 26.3217 162.105 26.7389V27.8398C162.076 28.2528 162.135 28.6672 162.275 29.0561C162.416 29.4449 162.637 29.7994 162.922 30.0966C163.553 30.6475 164.371 30.9294 165.204 30.8829C165.874 30.8957 166.54 30.7783 167.166 30.5369L171.254 28.9485Z" fill="#1D1A3F"/>
<path d="M182.616 32.5336C181.134 32.6293 179.668 32.1733 178.496 31.2519C178.012 30.8047 177.632 30.2549 177.382 29.6417C177.133 29.0286 177.022 28.3673 177.056 27.7055V27.3752C177.047 27.2948 177.056 27.2135 177.08 27.1364C177.104 27.0593 177.143 26.988 177.196 26.927C177.327 26.8315 177.487 26.7868 177.648 26.8012H178.426C178.582 26.7871 178.737 26.8319 178.862 26.927C178.915 26.988 178.954 27.0593 178.979 27.1364C179.003 27.2135 179.011 27.2948 179.003 27.3752V27.7055C179.003 29.8548 180.212 30.9295 182.631 30.9295H184.368C186.79 30.9295 188.004 29.8679 188.004 27.7841V27.3044C188.027 26.9466 187.974 26.588 187.848 26.2529C187.721 25.9177 187.525 25.614 187.272 25.3622C186.592 24.8146 185.791 24.4421 184.936 24.277L181.681 23.4513C180.419 23.2072 179.243 22.6323 178.271 21.7843C177.902 21.3916 177.618 20.9263 177.436 20.4175C177.253 19.9088 177.177 19.3675 177.212 18.8276V18.5131C177.184 17.8658 177.297 17.2202 177.541 16.6214C177.786 16.0225 178.157 15.4846 178.629 15.0453C179.719 14.134 181.109 13.6708 182.522 13.7478H184.29C185.789 13.6414 187.273 14.1072 188.448 15.0532C188.932 15.5004 189.312 16.0504 189.56 16.6637C189.807 17.277 189.917 17.9382 189.881 18.5996V18.8827C189.891 18.9613 189.884 19.0412 189.861 19.117C189.838 19.1929 189.8 19.2631 189.749 19.323C189.627 19.419 189.474 19.4641 189.32 19.4488H188.542C188.145 19.4488 187.942 19.2601 187.942 18.8827V18.5996C187.942 16.445 186.727 15.3756 184.306 15.3756H182.553C181.627 15.3078 180.711 15.6067 179.999 16.2091C179.7 16.5092 179.465 16.8691 179.311 17.2658C179.157 17.6625 179.086 18.0873 179.104 18.5131V18.7804C179.083 19.1252 179.134 19.4705 179.254 19.7941C179.373 20.1178 179.558 20.4127 179.797 20.6598C180.442 21.1905 181.212 21.5452 182.032 21.6899L185.271 22.4763C186.576 22.7139 187.798 23.2912 188.814 24.1512C189.187 24.5649 189.473 25.0507 189.655 25.5791C189.837 26.1075 189.912 26.6677 189.873 27.2258V27.7055C189.917 28.3693 189.812 29.0345 189.565 29.6514C189.318 30.2683 188.936 30.8208 188.448 31.2676C187.279 32.1811 185.82 32.6313 184.345 32.5336H182.616Z" fill="#1D1A3F"/>
<path d="M199.023 32.5335C197.541 32.6292 196.076 32.1732 194.904 31.2518C194.42 30.8047 194.039 30.2548 193.79 29.6416C193.541 29.0285 193.43 28.3672 193.463 27.7054V27.3751C193.454 27.294 193.463 27.2119 193.488 27.1344C193.514 27.057 193.556 26.9862 193.611 26.9269C193.741 26.8301 193.902 26.7853 194.063 26.8011H194.842C194.998 26.787 195.153 26.8318 195.278 26.9269C195.33 26.9879 195.37 27.0592 195.394 27.1363C195.418 27.2134 195.426 27.2947 195.418 27.3751V27.7054C195.418 29.8521 196.633 30.9294 199.047 30.9294H200.783C203.205 30.9294 204.42 29.8678 204.42 27.784V27.3044C204.443 26.9465 204.39 26.5879 204.263 26.2528C204.137 25.9177 203.941 25.6139 203.688 25.3621C203.008 24.8145 202.206 24.4421 201.352 24.2769L198.105 23.4513C196.835 23.203 195.653 22.6197 194.678 21.7606C194.314 21.3651 194.033 20.8992 193.853 20.391C193.672 19.8828 193.595 19.343 193.627 18.804V18.513C193.598 17.8655 193.71 17.2195 193.955 16.6204C194.2 16.0212 194.571 15.4836 195.044 15.0452C196.133 14.1319 197.524 13.6684 198.938 13.7478H200.705C202.191 13.6464 203.661 14.1029 204.833 15.0295C205.315 15.478 205.693 16.0284 205.941 16.6413C206.188 17.2543 206.299 17.9148 206.266 18.5759V18.859C206.274 18.9382 206.266 19.0184 206.242 19.0943C206.218 19.1702 206.178 19.2401 206.125 19.2994C206.005 19.3969 205.851 19.4421 205.697 19.4252H204.918C204.521 19.4252 204.327 19.2365 204.327 18.859V18.5759C204.327 16.4213 203.112 15.3519 200.682 15.3519H198.961C198.035 15.2841 197.119 15.5831 196.407 16.1854C196.105 16.4939 195.87 16.8637 195.72 17.2704C195.57 17.6771 195.507 18.1113 195.535 18.5445V18.8118C195.513 19.156 195.562 19.5011 195.68 19.8248C195.798 20.1485 195.982 20.4436 196.22 20.6912C196.866 21.2219 197.635 21.5766 198.455 21.7213L201.694 22.5076C203 22.7452 204.221 23.3225 205.238 24.1826C205.611 24.5963 205.897 25.082 206.079 25.6105C206.261 26.1389 206.335 26.699 206.297 27.2572V27.7368C206.331 28.3922 206.221 29.0472 205.973 29.6539C205.725 30.2606 205.346 30.8038 204.864 31.2439C203.695 32.1587 202.235 32.6091 200.76 32.51L199.023 32.5335Z" fill="#1D1A3F"/>
</svg>
