<svg width="197" height="39" viewBox="0 0 197 39" fill="none" xmlns="http://www.w3.org/2000/svg">
<path d="M38.1389 32.5729C38.0593 32.5839 37.9784 32.5758 37.9025 32.5491C37.8266 32.5224 37.7579 32.4779 37.7019 32.4192C37.6459 32.3605 37.6041 32.2893 37.58 32.2112C37.5559 32.1331 37.55 32.0503 37.5629 31.9694V8.55096C37.5487 8.45341 37.557 8.35384 37.587 8.26012C37.6171 8.16639 37.6681 8.0811 37.7361 8.01099C37.8041 7.94087 37.8871 7.88786 37.9786 7.85616C38.0702 7.82445 38.1677 7.81492 38.2634 7.82831H39.3142C39.4952 7.81556 39.6754 7.86292 39.8279 7.96331C39.9718 8.0798 40.0865 8.2295 40.1626 8.40008L44.8327 17.3498L47.7982 23.123L50.7715 17.3498L55.4415 8.35243C55.5114 8.18482 55.6287 8.04233 55.7785 7.94328C55.9283 7.84422 56.1037 7.79313 56.2822 7.79655H57.3563C57.8077 7.79655 58.0334 8.03478 58.0334 8.51919V31.9694C58.0452 32.0515 58.038 32.1352 58.0125 32.2139C57.9869 32.2926 57.9437 32.3641 57.8862 32.4227C57.8287 32.4814 57.7586 32.5255 57.6815 32.5516C57.6044 32.5776 57.5223 32.585 57.4419 32.5729H56.7336C56.6529 32.5846 56.5707 32.5771 56.4933 32.5511C56.4159 32.525 56.3454 32.481 56.2874 32.4226C56.2294 32.3642 56.1854 32.2929 56.1589 32.2143C56.1323 32.1357 56.1239 32.0519 56.1343 31.9694V16.9448C56.1343 16.5212 56.1343 15.6318 56.1343 14.2765C56.1343 12.9265 56.1343 11.8227 56.1343 10.973C54.9979 13.3712 53.9601 15.4227 53.0209 17.1274L48.6621 25.1241C48.582 25.2915 48.4566 25.4321 48.3008 25.5292C48.145 25.6262 47.9652 25.6758 47.7826 25.6721C47.601 25.6763 47.422 25.6268 47.2674 25.5295C47.1127 25.4323 46.9889 25.2915 46.9109 25.1241L42.5677 17.1274C41.8516 15.8092 40.8164 13.7604 39.4543 10.973C39.4854 13.3077 39.501 15.2983 39.501 16.9448V31.9694C39.5128 32.0515 39.5056 32.1352 39.48 32.2139C39.4544 32.2926 39.4112 32.3641 39.3537 32.4227C39.2963 32.4814 39.2262 32.5255 39.149 32.5516C39.0719 32.5776 38.9898 32.585 38.9094 32.5729H38.1389Z" fill="#1D1A3F"/>
<path d="M62.1585 19.1285C62.1135 18.4126 62.2202 17.6951 62.4714 17.025C62.7226 16.355 63.1123 15.7479 63.614 15.2453C64.7948 14.2773 66.2906 13.8007 67.8015 13.9112H69.4827C70.9943 13.8071 72.4882 14.2924 73.6624 15.2691C74.1641 15.7718 74.5538 16.3788 74.805 17.0489C75.0561 17.719 75.1629 18.4364 75.1179 19.1523V22.5988C75.1179 23.2817 74.7677 23.6153 74.0672 23.6153H64.0732V27.6335C64.0732 29.9893 65.3159 31.1699 67.8015 31.1752H69.4827C70.4738 31.2498 71.4594 30.9689 72.2692 30.3811C72.5923 30.0827 72.8443 29.713 73.0062 29.3001C73.168 28.8873 73.2354 28.4422 73.2032 27.9988V27.9432C73.2032 27.5779 73.3978 27.3952 73.787 27.3952H74.5653C74.9545 27.3952 75.1413 27.5779 75.1413 27.9432V28.0146C75.1716 28.6797 75.0551 29.3432 74.8005 29.9562C74.5459 30.5692 74.1596 31.116 73.6702 31.5564C72.48 32.485 71.0015 32.9445 69.5061 32.8508H67.8015C66.2876 32.9546 64.7913 32.4694 63.614 31.4929C63.1126 30.9933 62.723 30.389 62.4718 29.7215C62.2206 29.0541 62.1137 28.3391 62.1585 27.6255V19.1285ZM73.2032 19.1285C73.2032 16.7515 71.963 15.5629 69.4827 15.5629H67.8015C65.3211 15.5629 64.0784 16.7515 64.0732 19.1285V22.0191H73.2032V19.1285Z" fill="#1D1A3F"/>
<path d="M79.2588 14.7055C79.248 14.6254 79.2558 14.5438 79.2816 14.4673C79.3073 14.3908 79.3504 14.3216 79.4072 14.2652C79.464 14.2088 79.533 14.1667 79.6086 14.1425C79.6842 14.1183 79.7644 14.1126 79.8426 14.1258H80.621C80.6977 14.115 80.7759 14.1227 80.8492 14.1481C80.9226 14.1736 80.9891 14.2161 81.0435 14.2724C81.0979 14.3287 81.1387 14.3971 81.1626 14.4723C81.1866 14.5475 81.193 14.6273 81.1814 14.7055V16.1826L84.8396 14.5387C85.7508 14.1112 86.74 13.8839 87.7428 13.8717C88.383 13.8317 89.0244 13.9268 89.627 14.1508C90.2296 14.3749 90.7805 14.7232 91.2454 15.174C91.6863 15.6788 92.0241 16.2681 92.2393 16.9076C92.4544 17.5471 92.5426 18.2238 92.4986 18.8984V31.9854C92.5079 32.067 92.4987 32.1497 92.4715 32.2271C92.4444 32.3044 92.4 32.3743 92.342 32.4312C92.2839 32.4881 92.2137 32.5305 92.1369 32.5552C92.0601 32.5798 91.9788 32.5859 91.8992 32.5731H91.1209C91.0437 32.5825 90.9654 32.5736 90.8922 32.5471C90.8189 32.5207 90.7526 32.4773 90.6984 32.4205C90.6442 32.3637 90.6036 32.2949 90.5796 32.2194C90.5557 32.144 90.5492 32.0639 90.5605 31.9854V18.9143C90.5962 18.4841 90.5457 18.0509 90.4118 17.6413C90.278 17.2317 90.0637 16.8542 89.7821 16.532C89.4638 16.2485 89.0935 16.0323 88.6927 15.896C88.2918 15.7597 87.8684 15.7059 87.4471 15.7378C86.7273 15.7362 86.0147 15.8849 85.3533 16.1746L81.1736 17.882V31.9854C81.1849 32.0639 81.1783 32.144 81.1544 32.2194C81.1305 32.2949 81.0898 32.3637 81.0356 32.4205C80.9814 32.4773 80.9151 32.5207 80.8419 32.5471C80.7686 32.5736 80.6904 32.5825 80.6132 32.5731H79.8348C79.7562 32.5849 79.6759 32.5778 79.6004 32.5526C79.5248 32.5274 79.4561 32.4846 79.3995 32.4276C79.3429 32.3706 79.3 32.3011 79.2743 32.2243C79.2485 32.1476 79.2406 32.0658 79.2511 31.9854L79.2588 14.7055Z" fill="#1D1A3F"/>
<path d="M98.0717 15.8571H95.4409C95.3633 15.8689 95.284 15.8621 95.2094 15.8373C95.1348 15.8124 95.0669 15.7702 95.011 15.714C94.9551 15.6578 94.9128 15.5891 94.8875 15.5133C94.8621 15.4375 94.8544 15.3567 94.8649 15.2774V14.7056C94.8544 14.6263 94.8621 14.5455 94.8875 14.4697C94.9128 14.3939 94.9551 14.3252 95.011 14.269C95.0669 14.2127 95.1348 14.1705 95.2094 14.1457C95.284 14.1209 95.3633 14.1141 95.4409 14.1259H98.0717V8.5671C98.0598 8.48714 98.0666 8.40546 98.0913 8.32864C98.1161 8.25181 98.1581 8.182 98.2142 8.12482C98.2702 8.06764 98.3387 8.02469 98.414 7.99944C98.4893 7.97419 98.5693 7.96734 98.6477 7.97945H99.426C99.823 7.97945 100.025 8.17004 100.025 8.5671V14.1259H104.657C105.046 14.1259 105.248 14.3165 105.248 14.7056V15.2615C105.258 15.342 105.249 15.4237 105.222 15.5001C105.195 15.5765 105.151 15.6455 105.094 15.7017C105.037 15.7579 104.967 15.7997 104.891 15.824C104.815 15.8482 104.735 15.8541 104.657 15.8412H100.025V27.9435C99.9925 28.3357 100.039 28.7305 100.162 29.1035C100.285 29.4765 100.483 29.8196 100.741 30.1115C101.383 30.6402 102.201 30.8937 103.022 30.8182H104.657C104.735 30.8078 104.814 30.8158 104.888 30.8417C104.963 30.8675 105.031 30.9105 105.086 30.9673C105.142 31.0241 105.184 31.0932 105.21 31.1692C105.235 31.2453 105.243 31.3262 105.233 31.4059V32.0014C105.242 32.0802 105.233 32.16 105.207 32.2348C105.181 32.3095 105.139 32.3772 105.083 32.4325C105.027 32.4878 104.96 32.5292 104.886 32.5536C104.812 32.578 104.733 32.5847 104.657 32.5732H103.006C99.727 32.5732 98.0899 31.03 98.0951 27.9435L98.0717 15.8571Z" fill="#1D1A3F"/>
<path d="M107.926 19.1285C107.881 18.4133 107.988 17.6967 108.237 17.0269C108.487 16.3571 108.875 15.7496 109.374 15.2453C110.554 14.2773 112.05 13.8007 113.561 13.9112H115.507C117.019 13.8055 118.513 14.291 119.687 15.2691C120.186 15.7734 120.573 16.3809 120.823 17.0507C121.073 17.7205 121.179 18.4371 121.134 19.1523V27.6097C121.179 28.3225 121.072 29.0366 120.822 29.7038C120.573 30.371 120.185 30.9757 119.687 31.477C118.513 32.4551 117.019 32.9407 115.507 32.8349H113.561C112.047 32.9387 110.551 32.4535 109.374 31.477C108.875 30.9757 108.488 30.371 108.238 29.7038C107.988 29.0366 107.882 28.3225 107.926 27.6097V19.1285ZM115.507 31.1355C117.982 31.1355 119.22 29.9602 119.22 27.6097V19.1285C119.22 16.7726 117.982 15.5947 115.507 15.5947H113.561C111.081 15.5947 109.841 16.7726 109.841 19.1285V27.6097C109.841 29.9602 111.081 31.1355 113.561 31.1355H115.507Z" fill="#1D1A3F"/>
<path d="M125.882 32.5736C125.803 32.5867 125.722 32.5807 125.646 32.5561C125.569 32.5315 125.499 32.4889 125.442 32.4318C125.384 32.3746 125.34 32.3046 125.314 32.2271C125.288 32.1497 125.28 32.0671 125.291 31.9859V14.7457C125.279 14.6636 125.286 14.5799 125.312 14.5012C125.337 14.4225 125.381 14.351 125.438 14.2924C125.496 14.2338 125.566 14.1896 125.643 14.1636C125.72 14.1375 125.802 14.1301 125.882 14.1422H126.583C126.663 14.1301 126.745 14.1375 126.823 14.1636C126.9 14.1896 126.97 14.2338 127.027 14.2924C127.085 14.351 127.128 14.4225 127.154 14.5012C127.179 14.5799 127.186 14.6636 127.174 14.7457V16.0798L128.941 14.9124C129.931 14.257 131.085 13.9093 132.265 13.9119H132.786C132.867 13.8999 132.949 13.9072 133.026 13.9333C133.103 13.9593 133.173 14.0035 133.231 14.0621C133.288 14.1207 133.331 14.1922 133.357 14.2709C133.383 14.3496 133.39 14.4334 133.378 14.5154V15.3095C133.39 15.3915 133.383 15.4753 133.357 15.554C133.331 15.6327 133.288 15.7042 133.231 15.7628C133.173 15.8214 133.103 15.8656 133.026 15.8916C132.949 15.9177 132.867 15.925 132.786 15.913H132.319C131.237 15.8924 130.166 16.149 129.206 16.6595L127.229 17.7633V32.0574C127.238 32.1382 127.229 32.2201 127.202 32.2967C127.175 32.3734 127.132 32.4427 127.075 32.4995C127.018 32.5563 126.948 32.5989 126.873 32.6241C126.797 32.6494 126.716 32.6565 126.637 32.6451L125.882 32.5736Z" fill="#1D1A3F"/>
<path d="M134.803 22.2729C134.793 22.1921 134.803 22.1102 134.829 22.0335C134.856 21.9569 134.9 21.8875 134.957 21.8308C135.014 21.774 135.083 21.7314 135.159 21.7062C135.235 21.6809 135.315 21.6738 135.394 21.6852H141.823C141.902 21.6735 141.982 21.6805 142.058 21.7057C142.133 21.731 142.202 21.7738 142.258 21.8307C142.315 21.8877 142.358 21.9573 142.384 22.034C142.409 22.1107 142.417 22.1925 142.407 22.2729V22.8685C142.418 22.9497 142.411 23.0326 142.386 23.1107C142.361 23.1887 142.318 23.2597 142.262 23.3181C142.205 23.3766 142.136 23.4209 142.06 23.4476C141.984 23.4743 141.903 23.4826 141.823 23.472H135.433C135.353 23.484 135.27 23.4767 135.193 23.4506C135.116 23.4245 135.046 23.3804 134.989 23.3218C134.931 23.2631 134.888 23.1916 134.862 23.1129C134.837 23.0342 134.83 22.9505 134.841 22.8685L134.803 22.2729Z" fill="#1D1A3F"/>
<path d="M145.45 13.8559C145.386 12.9961 145.5 12.1322 145.786 11.3207C146.072 10.5092 146.522 9.76839 147.108 9.14682C148.229 8.088 149.866 7.55859 152.019 7.55859H154.93C157.089 7.55859 158.729 8.088 159.849 9.14682C160.433 9.76423 160.883 10.4993 161.171 11.3049C161.459 12.1104 161.579 12.9686 161.523 13.8242V26.53C161.579 27.3856 161.459 28.2438 161.171 29.0493C160.883 29.8549 160.433 30.5899 159.849 31.2073C158.729 32.2662 157.089 32.7956 154.93 32.7956H152.019C149.861 32.7956 148.223 32.2662 147.108 31.2073C146.523 30.5908 146.072 29.8558 145.784 29.0501C145.496 28.2443 145.377 27.3857 145.434 26.53L145.45 13.8559ZM154.946 31.0644C158.059 31.0644 159.561 29.5556 159.561 26.5459V13.84C159.561 10.8383 158.005 9.33741 154.946 9.33741H152.035C148.968 9.33741 147.435 10.8383 147.435 13.84V26.5459C147.435 29.5582 148.968 31.0644 152.035 31.0644H154.946Z" fill="#1D1A3F"/>
<path d="M165.531 14.7061C165.521 14.6267 165.528 14.546 165.554 14.4702C165.579 14.3944 165.621 14.3257 165.677 14.2694C165.733 14.2132 165.801 14.171 165.876 14.1462C165.95 14.1213 166.03 14.1146 166.107 14.1264H166.885C166.962 14.1156 167.04 14.1232 167.114 14.1487C167.187 14.1741 167.254 14.2167 167.308 14.273C167.362 14.3293 167.403 14.3977 167.427 14.4729C167.451 14.5481 167.458 14.6279 167.446 14.7061V16.1831L171.096 14.5393C172.01 14.1118 173.002 13.8846 174.007 13.8723C174.641 13.841 175.274 13.9418 175.868 14.1684C176.462 14.3951 177.005 14.7428 177.463 15.1905C177.906 15.6943 178.244 16.2835 178.46 16.9232C178.675 17.5629 178.762 18.2401 178.716 18.9149V31.986C178.727 32.0672 178.719 32.1498 178.693 32.2272C178.667 32.3046 178.623 32.3747 178.566 32.4319C178.508 32.489 178.438 32.5316 178.362 32.5562C178.285 32.5808 178.204 32.5868 178.125 32.5737H177.347C177.269 32.5844 177.19 32.5765 177.115 32.5507C177.041 32.5248 176.974 32.4817 176.919 32.4247C176.863 32.3676 176.822 32.2983 176.798 32.2222C176.773 32.1461 176.767 32.0652 176.778 31.986V18.9149C176.81 18.485 176.758 18.0529 176.624 17.6439C176.49 17.2348 176.278 16.8571 176 16.5325C175.681 16.2494 175.311 16.0335 174.91 15.8972C174.51 15.7609 174.086 15.7069 173.665 15.7384C172.945 15.7368 172.233 15.8854 171.571 16.1752L167.446 17.8825V31.986C167.457 32.0652 167.451 32.1461 167.426 32.2222C167.402 32.2983 167.361 32.3676 167.306 32.4247C167.251 32.4817 167.183 32.5248 167.109 32.5507C167.035 32.5765 166.955 32.5844 166.878 32.5737H166.099C166.021 32.5841 165.942 32.5761 165.867 32.5502C165.793 32.5244 165.725 32.4814 165.669 32.4246C165.614 32.3678 165.572 32.2987 165.546 32.2227C165.521 32.1466 165.513 32.0657 165.523 31.986L165.531 14.7061Z" fill="#1D1A3F"/>
<path d="M182.764 19.1279C182.719 18.412 182.825 17.6946 183.077 17.0245C183.328 16.3544 183.717 15.7474 184.219 15.2447C185.399 14.2753 186.896 13.7986 188.407 13.9106H190.08C191.594 13.8069 193.09 14.2921 194.268 15.2685C194.769 15.7712 195.159 16.3782 195.41 17.0483C195.661 17.7184 195.768 18.4358 195.723 19.1518V22.5982C195.723 23.2812 195.373 23.6147 194.672 23.6147H184.678V27.6329C184.678 29.9888 185.921 31.1694 188.407 31.1747H190.08C191.074 31.2505 192.062 30.9696 192.874 30.3806C193.198 30.0821 193.45 29.7124 193.611 29.2996C193.773 28.8867 193.841 28.4416 193.808 27.9982V27.9426C193.808 27.5773 194.003 27.3947 194.384 27.3947H195.163C195.544 27.3947 195.739 27.5773 195.739 27.9426V28.0141C195.769 28.6791 195.653 29.3426 195.398 29.9556C195.143 30.5686 194.757 31.1155 194.268 31.5558C193.075 32.4862 191.594 32.9459 190.096 32.8503H188.422C186.908 32.9556 185.411 32.4702 184.235 31.4923C183.733 30.9927 183.344 30.3885 183.093 29.721C182.841 29.0535 182.735 28.3385 182.779 27.625L182.764 19.1279ZM193.808 19.1279C193.808 16.7509 192.566 15.5624 190.08 15.5624H188.407C185.926 15.5624 184.684 16.7509 184.678 19.1279V22.0185H193.808V19.1279Z" fill="#1D1A3F"/>
<path d="M0.256855 13.5067L11.2627 2.26206C11.3431 2.17902 11.4388 2.1131 11.5444 2.06811C11.6499 2.02312 11.7632 1.99997 11.8776 2H29.5772C29.7485 2 29.9129 2.06944 30.034 2.19305C30.1552 2.31666 30.2232 2.48431 30.2232 2.65912V20.6776C30.2233 20.7943 30.2006 20.9099 30.1565 21.0175C30.1124 21.1252 30.0478 21.2229 29.9664 21.3049L18.9216 32.5576C18.8409 32.6395 18.7449 32.7042 18.6393 32.7478C18.5337 32.7915 18.4206 32.8132 18.3067 32.8117H0.646029C0.478661 32.8118 0.317783 32.7456 0.197279 32.6271C0.0767743 32.5086 0.00604939 32.347 0 32.1764L0 14.1341C0.00165167 13.8987 0.0938984 13.6734 0.256855 13.5067Z" fill="#DB0049"/>
<path d="M10.8268 17.707H10.8186V17.7232H10.8268V17.707Z" fill="white"/>
<path d="M6.84921 14.0226V17.342C6.84815 17.3903 6.85668 17.4383 6.8743 17.4831C6.89191 17.5279 6.91825 17.5686 6.95171 17.6027C6.98517 17.6369 7.02507 17.6637 7.06899 17.6817C7.11291 17.6997 7.15994 17.7084 7.20725 17.7073H10.4685C10.5621 17.7094 10.6512 17.7488 10.7167 17.8171C10.7822 17.8853 10.8188 17.9771 10.8188 18.0726V21.3999C10.8188 21.4955 10.7822 21.5872 10.7167 21.6555C10.6512 21.7238 10.5621 21.7632 10.4685 21.7652H7.20725C7.11229 21.7652 7.02122 21.8037 6.95408 21.8722C6.88693 21.9407 6.84921 22.0336 6.84921 22.1305V25.4579C6.84921 25.5548 6.88693 25.6477 6.95408 25.7162C7.02122 25.7847 7.11229 25.8232 7.20725 25.8232H18.4155C18.5098 25.8211 18.5997 25.782 18.6664 25.7139C18.7332 25.6459 18.7715 25.5541 18.7735 25.4579V22.1305C18.7715 22.0343 18.7332 21.9425 18.6664 21.8745C18.5997 21.8064 18.5098 21.7673 18.4155 21.7652H15.1542C15.0598 21.7632 14.9699 21.7241 14.9032 21.656C14.8365 21.5879 14.7981 21.4962 14.7961 21.3999V14.0226C14.7972 13.9743 14.7887 13.9264 14.7711 13.8815C14.7534 13.8367 14.7271 13.796 14.6936 13.7619C14.6602 13.7278 14.6203 13.7009 14.5764 13.6829C14.5324 13.6649 14.4854 13.6562 14.4381 13.6573H7.20725C7.15994 13.6562 7.11291 13.6649 7.06899 13.6829C7.02507 13.7009 6.98517 13.7278 6.95171 13.7619C6.91825 13.796 6.89191 13.8367 6.8743 13.8815C6.85668 13.9264 6.84815 13.9743 6.84921 14.0226Z" fill="white"/>
</svg>
