<svg width="32" height="32" viewBox="0 0 32 32" fill="none" xmlns="http://www.w3.org/2000/svg">
<path d="M2.2007 12.2935L12.286 2.19387C12.3597 2.11929 12.4474 2.06007 12.5442 2.01967C12.6409 1.97927 12.7447 1.95847 12.8495 1.9585H29.0687C29.2257 1.9585 29.3763 2.02087 29.4873 2.13189C29.5984 2.24291 29.6607 2.39348 29.6607 2.55049V18.7341C29.6608 18.8389 29.64 18.9427 29.5996 19.0394C29.5592 19.1361 29.4999 19.2239 29.4254 19.2975L19.3044 29.4043C19.2304 29.4779 19.1424 29.536 19.0457 29.5752C18.9489 29.6144 18.8453 29.6339 18.7409 29.6325H2.55733C2.40396 29.6326 2.25654 29.5732 2.14611 29.4667C2.03569 29.3603 1.97088 29.2152 1.96533 29.0619V12.8569C1.96685 12.6455 2.05138 12.4431 2.2007 12.2935Z" fill="#DB0049"/>
<path d="M11.8865 16.0664H11.8794V16.0807H11.8865V16.0664Z" fill="white"/>
<path d="M8.24178 12.7569V15.7383C8.24081 15.7816 8.24863 15.8247 8.26477 15.865C8.28091 15.9052 8.30504 15.9418 8.33571 15.9724C8.36637 16.0031 8.40293 16.0272 8.44317 16.0434C8.48342 16.0595 8.52652 16.0673 8.56987 16.0664H11.5584C11.6442 16.0682 11.7258 16.1036 11.7858 16.1649C11.8458 16.2263 11.8794 16.3087 11.8793 16.3944V19.383C11.8794 19.4688 11.8458 19.5511 11.7858 19.6125C11.7258 19.6738 11.6442 19.7092 11.5584 19.7111H8.56987C8.48286 19.7111 8.39941 19.7456 8.33788 19.8071C8.27635 19.8687 8.24178 19.9521 8.24178 20.0391V23.0277C8.24178 23.1147 8.27635 23.1981 8.33788 23.2596C8.39941 23.3212 8.48286 23.3557 8.56987 23.3557H18.8406C18.9271 23.3539 19.0095 23.3188 19.0706 23.2576C19.1318 23.1965 19.1669 23.1141 19.1687 23.0277V20.0391C19.1669 19.9527 19.1318 19.8703 19.0706 19.8092C19.0095 19.748 18.9271 19.7129 18.8406 19.7111H15.8521C15.7657 19.7092 15.6833 19.6741 15.6222 19.6129C15.561 19.5518 15.5259 19.4694 15.524 19.383V12.7569C15.525 12.7135 15.5172 12.6704 15.501 12.6302C15.4849 12.5899 15.4608 12.5534 15.4301 12.5227C15.3994 12.4921 15.3629 12.4679 15.3226 12.4518C15.2824 12.4356 15.2393 12.4278 15.1959 12.4288H8.56987C8.52652 12.4278 8.48342 12.4356 8.44317 12.4518C8.40293 12.4679 8.36637 12.4921 8.33571 12.5227C8.30504 12.5534 8.28091 12.5899 8.26477 12.6302C8.24863 12.6704 8.24081 12.7135 8.24178 12.7569Z" fill="white"/>
</svg>
