<svg width="32" height="32" viewBox="0 0 32 32" fill="none" xmlns="http://www.w3.org/2000/svg">
<path d="M2.20068 12.2924L12.285 2.19384C12.3586 2.11927 12.4464 2.06006 12.5431 2.01966C12.6398 1.97926 12.7436 1.95847 12.8484 1.9585H29.066C29.223 1.9585 29.3736 2.02086 29.4846 2.13187C29.5956 2.24288 29.658 2.39344 29.658 2.55043V18.7324C29.658 18.8372 29.6372 18.941 29.5968 19.0377C29.5564 19.1344 29.4972 19.2222 29.4226 19.2958L19.3026 29.4015C19.2286 29.4751 19.1407 29.5332 19.0439 29.5724C18.9472 29.6116 18.8436 29.6311 18.7392 29.6297H2.55727C2.40391 29.6298 2.25651 29.5704 2.14609 29.464C2.03568 29.3576 1.97087 29.2124 1.96533 29.0592V12.8558C1.96685 12.6444 2.05137 12.4421 2.20068 12.2924Z" fill="#3631FF"/>
<path d="M11.8861 16.0654H11.8789V16.0798H11.8861V16.0654Z" fill="white"/>
<path d="M15.5151 12.7559V15.7369C15.5161 15.7803 15.5083 15.8234 15.4921 15.8636C15.476 15.9039 15.4519 15.9404 15.4212 15.9711C15.3905 16.0018 15.354 16.0259 15.3137 16.042C15.2735 16.0582 15.2304 16.066 15.1871 16.065H12.206C12.1629 16.065 12.1202 16.0735 12.0804 16.09C12.0406 16.1065 12.0045 16.1306 11.974 16.1611C11.9435 16.1916 11.9194 16.2277 11.9029 16.2675C11.8864 16.3073 11.8779 16.35 11.8779 16.3931V19.3813C11.8779 19.4671 11.8444 19.5494 11.7844 19.6108C11.7244 19.6721 11.6428 19.7075 11.557 19.7093H8.56878C8.48178 19.7093 8.39833 19.7439 8.33681 19.8054C8.27529 19.8669 8.24072 19.9504 8.24072 20.0374V23.0256C8.24072 23.1126 8.27529 23.1961 8.33681 23.2576C8.39833 23.3191 8.48178 23.3537 8.56878 23.3537H18.8385C18.925 23.3518 19.0073 23.3167 19.0685 23.2556C19.1296 23.1944 19.1648 23.112 19.1666 23.0256V12.7559C19.1666 12.6689 19.132 12.5854 19.0705 12.5239C19.009 12.4624 18.9255 12.4278 18.8385 12.4278H15.8503C15.8066 12.4269 15.7632 12.4346 15.7226 12.4507C15.6819 12.4668 15.6449 12.4908 15.6137 12.5213C15.5825 12.5519 15.5577 12.5884 15.5408 12.6287C15.5238 12.6689 15.5151 12.7122 15.5151 12.7559Z" fill="white"/>
</svg>
