<svg width="154" height="39" viewBox="0 0 154 39" fill="none" xmlns="http://www.w3.org/2000/svg">
<path d="M0.259462 13.3455L11.377 2.25839C11.4582 2.17651 11.5549 2.11151 11.6616 2.06716C11.7682 2.0228 11.8826 1.99997 11.9981 2H29.8774C30.0505 2 30.2165 2.06847 30.3389 2.19035C30.4612 2.31222 30.53 2.47752 30.53 2.64988V20.4159C30.53 20.531 30.5071 20.6449 30.4626 20.7511C30.418 20.8573 30.3528 20.9536 30.2705 21.0344L19.1137 32.1294C19.0321 32.2102 18.9351 32.274 18.8285 32.317C18.7218 32.36 18.6076 32.3814 18.4925 32.3799H0.652586C0.483519 32.38 0.321009 32.3148 0.199281 32.198C0.0775536 32.0811 0.00611079 31.9218 0 31.7535L0 13.9641C0.00166844 13.732 0.0948514 13.5098 0.259462 13.3455Z" fill="#08A394"/>
<path d="M18.6026 13.3418H15.3082C15.1085 13.3418 14.9465 13.5009 14.9465 13.6972V24.8226C14.9465 25.0189 15.1085 25.178 15.3082 25.178H18.6026C18.8023 25.178 18.9643 25.0189 18.9643 24.8226V13.6972C18.9643 13.5009 18.8023 13.3418 18.6026 13.3418Z" fill="white"/>
<path d="M10.575 13.3418H7.28062C7.08087 13.3418 6.91895 13.5009 6.91895 13.6972V24.8226C6.91895 25.0189 7.08087 25.178 7.28062 25.178H10.575C10.7747 25.178 10.9367 25.0189 10.9367 24.8226V13.6972C10.9367 13.5009 10.7747 13.3418 10.575 13.3418Z" fill="white"/>
<path d="M39.2225 8.181C39.2201 8.11586 39.2326 8.05101 39.2593 7.99096C39.2859 7.93092 39.326 7.87712 39.3768 7.83334C39.43 7.78027 39.4944 7.73841 39.5658 7.71047C39.6371 7.68253 39.7138 7.66911 39.7909 7.67109H46.7421C51.2193 7.67109 53.4551 9.63091 53.4497 13.5506V16.4092C53.4497 20.3134 51.2139 22.2629 46.7421 22.2577H41.2851V31.2431C41.2873 31.3096 41.2752 31.3759 41.2495 31.4378C41.2238 31.4997 41.185 31.5559 41.1355 31.6029C41.086 31.65 41.0269 31.6869 40.9619 31.7114C40.8968 31.7359 40.8272 31.7474 40.7572 31.7453H39.7909C39.6469 31.7491 39.507 31.6991 39.4011 31.6062C39.3495 31.5597 39.3091 31.5033 39.2824 31.4406C39.2558 31.3779 39.2437 31.3106 39.2468 31.2431L39.2225 8.181ZM46.7178 20.5426C47.9881 20.6497 49.2538 20.2934 50.2583 19.5459C50.6565 19.1312 50.9602 18.6425 51.1503 18.1106C51.3404 17.5788 51.4127 17.0153 51.3627 16.4555V13.5892C51.4175 13.015 51.3478 12.4361 51.1578 11.8886C50.9678 11.341 50.6617 10.8364 50.2583 10.4061C49.2569 9.65229 47.9896 9.29279 46.7178 9.40171H41.2851V20.5426H46.7178Z" fill="#1D1A3F"/>
<path d="M56.1051 18.665C56.0623 17.9662 56.1788 17.2668 56.4465 16.6147C56.7142 15.9626 57.1268 15.3733 57.6561 14.887C58.8788 13.9514 60.427 13.488 61.9925 13.5891H64.0145C65.5918 13.4862 67.151 13.9586 68.3753 14.9102C68.896 15.4008 69.3002 15.9919 69.5607 16.6435C69.8212 17.2952 69.932 17.9924 69.8857 18.6882V26.9164C69.9318 27.6099 69.8208 28.3047 69.5602 28.9538C69.2997 29.6029 68.8955 30.1913 68.3753 30.6789C67.151 31.6305 65.5918 32.1029 64.0145 32.0001H61.9925C60.4238 32.0946 58.8753 31.6229 57.6561 30.6789C57.1331 30.1929 56.7266 29.605 56.4645 28.9556C56.2024 28.3062 56.0909 27.6106 56.1375 26.9164L56.1051 18.665ZM64.0145 30.3467C66.5969 30.3467 67.888 29.2033 67.888 26.9164V18.665C67.888 16.373 66.5969 15.227 64.0145 15.227H61.9925C59.3939 15.227 58.1027 16.3704 58.1027 18.665V26.9164C58.1027 29.2342 59.3939 30.3467 61.9925 30.3467H64.0145Z" fill="#1D1A3F"/>
<path d="M73.8974 18.665C73.8511 17.9692 73.9619 17.272 74.2224 16.6204C74.483 15.9687 74.8872 15.3777 75.4078 14.887C76.6357 13.9437 78.1946 13.4797 79.7686 13.5891H81.3927C83.4716 13.5891 84.9089 14.1376 85.6966 15.2502V6.71294C85.6843 6.63414 85.6915 6.55368 85.7178 6.47802C85.744 6.40237 85.7885 6.33362 85.8477 6.27728C85.9069 6.22094 85.9792 6.17859 86.0587 6.15362C86.1383 6.12865 86.2228 6.12176 86.3056 6.13349H87.1177C87.2005 6.12176 87.2851 6.12865 87.3646 6.15362C87.4441 6.17859 87.5164 6.22094 87.5756 6.27728C87.6348 6.33362 87.6793 6.40237 87.7056 6.47802C87.7318 6.55368 87.7391 6.63414 87.7267 6.71294V31.1889C87.7267 31.5597 87.5237 31.7451 87.1177 31.7451H86.3625C85.9565 31.7451 85.7534 31.5597 85.7534 31.1889V29.6437L81.7744 31.382C80.8558 31.7751 79.8581 31.9728 78.851 31.9615C78.1865 32.0065 77.5194 31.9213 76.8909 31.7114C76.2623 31.5014 75.6857 31.1711 75.1967 30.7408C74.7408 30.2568 74.3911 29.6911 74.1679 29.0768C73.9448 28.4626 73.8529 27.8121 73.8974 27.1636V18.665ZM85.6804 28.0212V18.75C85.6804 16.3936 84.308 15.2115 81.547 15.2115H79.7686C78.7162 15.1329 77.6716 15.4366 76.8452 16.0614C76.5062 16.4061 76.2466 16.8144 76.083 17.2601C75.9194 17.7058 75.8554 18.179 75.8951 18.6496V27.1482C75.8327 27.9926 76.1247 28.826 76.7071 29.466C77.0224 29.7376 77.392 29.9459 77.7938 30.0787C78.1957 30.2114 78.6215 30.2658 79.0458 30.2386C79.8164 30.2521 80.5809 30.1072 81.2871 29.8136L85.6804 28.0212Z" fill="#1D1A3F"/>
<path d="M91.9981 18.6649C91.9534 17.9686 92.0657 17.2712 92.3276 16.6196C92.5895 15.9679 92.995 15.3772 93.5167 14.8869C94.7486 13.9452 96.3093 13.4815 97.8855 13.589H99.6558C101.233 13.4861 102.792 13.9585 104.017 14.9101C104.543 15.3938 104.953 15.9793 105.221 16.6272C105.489 17.275 105.607 17.9699 105.568 18.6649V19.2058C105.58 19.2838 105.572 19.3635 105.547 19.4385C105.521 19.5134 105.477 19.5817 105.419 19.6379C105.361 19.694 105.289 19.7366 105.211 19.7621C105.133 19.7877 105.049 19.7956 104.967 19.7852H104.155C104.073 19.7959 103.989 19.7882 103.911 19.7626C103.833 19.7371 103.762 19.6944 103.704 19.638C103.647 19.5816 103.604 19.5131 103.579 19.438C103.554 19.3629 103.548 19.2834 103.562 19.2058V18.6649C103.562 16.3729 102.268 15.2269 99.6802 15.2269H97.9099C95.3275 15.2269 94.0364 16.3729 94.0364 18.6649V26.9163C94.0364 29.2032 95.3275 30.3466 97.9099 30.3466H99.6802C102.268 30.3466 103.562 29.2032 103.562 26.9163V26.3523C103.551 26.2761 103.559 26.1985 103.585 26.1257C103.611 26.0529 103.654 25.9869 103.712 25.9329C103.769 25.8788 103.839 25.8384 103.916 25.8146C103.993 25.7909 104.075 25.7845 104.155 25.796H104.967C105.047 25.7831 105.13 25.7885 105.208 25.8116C105.286 25.8348 105.357 25.8751 105.415 25.9292C105.474 25.9834 105.518 26.05 105.545 26.1235C105.571 26.197 105.579 26.2754 105.568 26.3523V26.9163C105.614 27.6105 105.503 28.3061 105.241 28.9555C104.979 29.6049 104.572 30.1928 104.049 30.6788C102.825 31.6304 101.266 32.1028 99.6883 32H97.918C96.3385 32.1009 94.7775 31.6289 93.5491 30.6788C93.0274 30.1918 92.6218 29.6038 92.3598 28.9547C92.0978 28.3055 91.9855 27.6103 92.0306 26.9163L91.9981 18.6649Z" fill="#1D1A3F"/>
<path d="M109.068 26.3057C109.068 23.3699 111.049 21.9019 115.012 21.9019H120.623V18.6647C120.665 18.1876 120.603 17.7074 120.441 17.2541C120.279 16.8008 120.02 16.3842 119.681 16.0302C118.849 15.399 117.794 15.0949 116.733 15.1803H115.353C114.328 15.0996 113.307 15.374 112.478 15.9529C112.155 16.2636 111.905 16.6369 111.747 17.0475C111.588 17.4582 111.525 17.8965 111.561 18.3325C111.571 18.41 111.563 18.4888 111.537 18.5628C111.51 18.6367 111.466 18.704 111.408 18.7592C111.35 18.8145 111.279 18.8563 111.202 18.8814C111.124 18.9066 111.041 18.9144 110.96 18.9043H110.148C110.067 18.9134 109.986 18.9047 109.909 18.879C109.833 18.8532 109.763 18.8111 109.707 18.7558C109.65 18.7005 109.608 18.6336 109.583 18.5601C109.558 18.4867 109.551 18.4089 109.563 18.3325C109.522 17.6787 109.632 17.0243 109.886 16.4156C110.14 15.8068 110.532 15.2585 111.033 14.8095C112.265 13.9092 113.804 13.4744 115.353 13.5888H116.733C118.315 13.4772 119.883 13.9349 121.127 14.8713C121.643 15.3674 122.043 15.9619 122.301 16.6157C122.558 17.2696 122.667 17.9679 122.621 18.6647V31.1731C122.632 31.2513 122.624 31.3309 122.597 31.4055C122.57 31.4802 122.525 31.5479 122.466 31.6033C122.407 31.6587 122.335 31.7003 122.256 31.7249C122.178 31.7495 122.094 31.7563 122.012 31.7448H121.24C121.16 31.754 121.078 31.7453 121.002 31.7196C120.925 31.6938 120.856 31.6517 120.8 31.5964C120.743 31.5411 120.701 31.4741 120.676 31.4007C120.651 31.3273 120.644 31.2494 120.656 31.1731V29.9679L116.855 31.4667C115.945 31.8271 114.967 32.0085 113.981 31.9998C113.332 32.029 112.685 31.9347 112.075 31.7224C111.466 31.5101 110.907 31.1841 110.432 30.7636C109.972 30.3218 109.614 29.793 109.382 29.2115C109.15 28.6299 109.048 28.0085 109.084 27.3874L109.068 26.3057ZM120.623 28.4767V23.424H115.044C113.984 23.3418 112.923 23.5826 112.015 24.1116C111.689 24.3815 111.434 24.7209 111.272 25.1022C111.11 25.4835 111.045 25.8959 111.082 26.3057V27.3874C111.052 27.7932 111.113 28.2004 111.26 28.5825C111.407 28.9645 111.636 29.3128 111.934 29.6047C112.593 30.1446 113.445 30.4214 114.314 30.3773C115.012 30.3899 115.707 30.2745 116.36 30.0374L120.623 28.4767Z" fill="#1D1A3F"/>
<path d="M132.471 31.9998C130.926 32.0938 129.397 31.6458 128.175 30.7405C127.672 30.3004 127.276 29.7598 127.018 29.1574C126.76 28.555 126.645 27.9057 126.681 27.256V26.9316C126.672 26.8525 126.681 26.7727 126.706 26.6969C126.731 26.6211 126.773 26.5511 126.827 26.4912C126.966 26.3962 127.136 26.3523 127.306 26.3676H128.118C128.281 26.3537 128.443 26.3977 128.573 26.4912C128.628 26.5511 128.669 26.6211 128.694 26.6969C128.72 26.7727 128.728 26.8525 128.719 26.9316V27.256C128.719 29.3678 129.981 30.4237 132.504 30.4237H134.314C136.84 30.4237 138.107 29.3807 138.107 27.3333V26.862C138.131 26.5105 138.075 26.1581 137.943 25.8288C137.812 25.4996 137.607 25.2011 137.343 24.9537C136.634 24.4157 135.798 24.0498 134.907 23.8875L131.513 23.0763C130.197 22.8365 128.97 22.2716 127.956 21.4384C127.572 21.0525 127.275 20.5953 127.085 20.0955C126.895 19.5956 126.816 19.0639 126.852 18.5334V18.2244C126.824 17.594 126.939 16.9653 127.19 16.3812C127.441 15.7972 127.821 15.2716 128.305 14.8404C129.446 13.9533 130.895 13.5066 132.366 13.5888H134.209C135.755 13.4874 137.286 13.9362 138.505 14.8481C139.009 15.2875 139.405 15.8279 139.664 16.4305C139.922 17.0331 140.036 17.6827 139.999 18.3325V18.6107C140.009 18.688 140.002 18.7664 139.978 18.8409C139.954 18.9155 139.914 18.9844 139.861 19.0433C139.735 19.1404 139.575 19.1875 139.414 19.1747H138.602C138.188 19.1747 137.977 18.9815 137.977 18.6107V18.3325C137.977 16.2156 136.718 15.1649 134.185 15.1649H132.357C131.391 15.0983 130.436 15.392 129.694 15.9838C129.377 16.2863 129.131 16.6493 128.973 17.0489C128.815 17.4485 128.748 17.8755 128.776 18.3016V18.5643C128.754 18.9031 128.806 19.2426 128.931 19.5608C129.056 19.8789 129.249 20.1685 129.499 20.4108C130.172 20.9323 130.975 21.2807 131.83 21.4229L135.208 22.1955C136.569 22.429 137.842 22.9962 138.903 23.8412C139.292 24.2477 139.59 24.7249 139.78 25.2441C139.969 25.7633 140.047 26.3136 140.007 26.862V27.3333C140.043 27.9772 139.928 28.6207 139.669 29.2168C139.411 29.8129 139.016 30.3467 138.513 30.7791C137.294 31.6766 135.772 32.119 134.233 32.023L132.471 31.9998Z" fill="#1D1A3F"/>
<path d="M145.537 15.4819H142.792C142.711 15.4933 142.629 15.4867 142.551 15.4626C142.473 15.4384 142.402 15.3974 142.344 15.3427C142.286 15.288 142.242 15.2211 142.215 15.1474C142.189 15.0736 142.181 14.9951 142.192 14.9179V14.3616C142.181 14.2844 142.189 14.2058 142.215 14.1321C142.242 14.0583 142.286 13.9915 142.344 13.9368C142.402 13.8821 142.473 13.841 142.551 13.8168C142.629 13.7927 142.711 13.7861 142.792 13.7976H145.537V8.3894C145.525 8.31161 145.532 8.23214 145.558 8.1574C145.583 8.08266 145.627 8.01473 145.686 7.9591C145.744 7.90347 145.816 7.86168 145.894 7.83712C145.973 7.81255 146.056 7.80589 146.138 7.81767H146.95C147.364 7.81767 147.567 8.0031 147.567 8.3894V13.7976H152.44C152.854 13.7976 153.057 13.983 153.057 14.3616V14.9024C153.057 15.2732 152.854 15.4664 152.44 15.4664H147.567V27.2408C147.535 27.6222 147.584 28.0059 147.713 28.3685C147.841 28.7311 148.046 29.065 148.314 29.35C148.986 29.8601 149.837 30.1061 150.694 30.0376H152.399C152.481 30.0258 152.564 30.0325 152.643 30.0571C152.721 30.0816 152.793 30.1234 152.851 30.179C152.91 30.2347 152.954 30.3026 152.98 30.3773C153.005 30.4521 153.012 30.5315 153 30.6093V31.1888C153.011 31.2657 153.003 31.3441 152.977 31.4176C152.951 31.4911 152.906 31.5577 152.848 31.6118C152.789 31.666 152.718 31.7063 152.64 31.7295C152.562 31.7526 152.48 31.7579 152.399 31.745H150.678C147.256 31.745 145.548 30.2436 145.553 27.2408L145.537 15.4819Z" fill="#1D1A3F"/>
</svg>
