<svg width="32" height="32" viewBox="0 0 32 32" fill="none" xmlns="http://www.w3.org/2000/svg">
<path d="M2.01957 12.4138L12.3777 2.02006C12.4533 1.9433 12.5434 1.88237 12.6428 1.84079C12.7421 1.79921 12.8487 1.77781 12.9564 1.77783H29.6143C29.7755 1.77783 29.9302 1.84202 30.0442 1.95627C30.1582 2.07053 30.2223 2.22549 30.2223 2.38707V19.042C30.2223 19.1498 30.2009 19.2566 30.1594 19.3562C30.1179 19.4557 30.0571 19.546 29.9805 19.6218L19.5858 30.0229C19.5098 30.0986 19.4195 30.1584 19.3201 30.1988C19.2207 30.2391 19.1143 30.2592 19.0071 30.2578H2.38584C2.22832 30.2579 2.07691 30.1967 1.9635 30.0872C1.85009 29.9776 1.78353 29.8283 1.77783 29.6705V12.9936C1.77939 12.7761 1.8662 12.5678 2.01957 12.4138Z" fill="#08A394"/>
<path d="M19.1094 12.5527H16.0401C15.854 12.5527 15.7031 12.7039 15.7031 12.8904V23.4603C15.7031 23.6467 15.854 23.7979 16.0401 23.7979H19.1094C19.2955 23.7979 19.4464 23.6467 19.4464 23.4603V12.8904C19.4464 12.7039 19.2955 12.5527 19.1094 12.5527Z" fill="white"/>
<path d="M11.6304 12.5527H8.56109C8.37499 12.5527 8.22412 12.7039 8.22412 12.8904V23.4603C8.22412 23.6467 8.37499 23.7979 8.56109 23.7979H11.6304C11.8165 23.7979 11.9674 23.6467 11.9674 23.4603V12.8904C11.9674 12.7039 11.8165 12.5527 11.6304 12.5527Z" fill="white"/>
</svg>
