<svg width="88" height="67" viewBox="0 0 88 67" fill="none" xmlns="http://www.w3.org/2000/svg">
<g filter="url(#filter0_i_4394_64164)">
<path d="M80.8999 59.2002C82.3999 60.3002 85.4999 60.6002 86.4999 62.5002C87.4999 64.4002 86.3999 65.6002 85.2999 65.8002C84.0999 66.0002 82.6999 64.5002 82.0999 62.8002C81.3999 61.2002 80.8999 59.2002 80.8999 59.2002Z" fill="#F0B78E"/>
</g>
<g filter="url(#filter1_i_4394_64164)">
<path d="M80.7998 10.4C81.8998 8.80002 82.0998 6.00002 83.8998 4.60002C85.6998 3.20002 86.7998 3.80002 86.9998 4.80002C87.1998 5.80002 85.7998 7.40002 84.1998 8.40002C82.6998 9.40002 80.7998 10.4 80.7998 10.4Z" fill="#F0B78E"/>
</g>
<g filter="url(#filter2_i_4394_64164)">
<path d="M8.90017 13.6C8.60017 12.6 9.20017 10.8 8.30017 10C8.20017 9.8 8.00017 9.7 7.80017 9.6C7.60017 9.5 7.40017 9.5 7.20017 9.5C7.00017 9.5 6.80017 9.6 6.60017 9.7C6.40017 9.8 6.30017 10 6.20017 10.2C5.80017 10.8 6.40017 11.8 7.10017 12.4C7.70017 12.9 8.30017 13.3 8.90017 13.6Z" fill="#F0B78E"/>
</g>
<g filter="url(#filter3_i_4394_64164)">
<path d="M52.3 7.39987C51.9 7.49987 51.4 6.29987 51 6.29987C50.6 6.29987 49.9 7.39987 49.6 7.19987C49.3 6.99987 49.7 5.79987 49.5 5.49987C49.3 5.19987 48 5.49987 47.9 5.09987C47.8 4.79987 49 4.29987 49 3.89987C49 3.49987 47.9 2.79987 48.1 2.49987C48.3 2.19987 49.5 2.59987 49.8 2.39987C50.1 2.19987 49.8 0.899865 50.2 0.799865C50.6 0.699865 51.1 1.89987 51.4 1.89987C51.8 1.89987 52.5 0.899865 52.8 0.999865C53.1 1.09987 52.7 2.39987 52.9 2.69987C53.1 2.99987 54.4 2.69987 54.5 3.09987C54.6 3.49987 53.4 3.99987 53.4 4.39987C53.4 4.79987 54.5 5.49987 54.3 5.79987C54.2 5.99987 53 5.49987 52.7 5.79987C52.4 5.99987 52.7 7.29987 52.3 7.39987Z" fill="#F0B78E"/>
</g>
<g filter="url(#filter4_i_4394_64164)">
<path d="M9.00023 66.3998C8.80023 66.3998 8.50023 65.6998 8.30023 65.5998C8.10023 65.4998 7.60023 66.1998 7.40023 65.9998C7.20023 65.8998 7.60023 65.1998 7.40023 64.9998C7.20023 64.7998 6.50023 64.8998 6.40023 64.5998C6.30023 64.3998 7.10023 64.0998 7.20023 63.8998C7.30023 63.6998 6.60023 63.1998 6.80023 62.9998C6.90023 62.7998 7.60023 63.1998 7.80023 62.9998C8.00023 62.7998 7.90023 62.0998 8.20023 61.9998C8.40023 61.8998 8.70023 62.6998 8.90023 62.7998C9.10023 62.7998 9.70023 62.1998 9.80023 62.3998C10.0002 62.4998 9.60023 63.1998 9.70023 63.3998C9.80023 63.5998 10.6002 63.4998 10.7002 63.6998C10.8002 63.8998 10.0002 64.1998 9.90023 64.3998C9.90023 64.5998 10.5002 65.1998 10.3002 65.2998C10.1002 65.3998 9.50023 65.0998 9.30023 65.1998C9.10023 65.4998 9.20023 66.3998 9.00023 66.3998Z" fill="#F0B78E"/>
</g>
<g filter="url(#filter5_i_4394_64164)">
<path d="M42.1 59.6001C41.9 61.2001 42.7 63.4001 41.7 64.9001C40.7 66.4001 39.6 66.2001 39.1 65.5001C38.6 64.8001 39.1 63.1001 40 62.0001C40.9 60.9001 42.1 59.6001 42.1 59.6001Z" fill="#F0B78E"/>
</g>
<path opacity="0.45" d="M71.1999 28.6H58.9999L66.9999 11H51.9999L42.9999 15.3L36.9999 28.6H24.6999L32.6999 11H17.6999L8.6999 15.3L0.399902 33.6L1.2999 61.2H28.8999L35.3999 58.1L35.4999 61.2H63.0999L71.9999 57H72.0999L71.1999 28.6Z" fill="black"/>
<path d="M68.0001 24.6H80.2001L81.1001 53H53.5001L52.6001 25.4L61.0001 7H76.0001L68.0001 24.6ZM79.1001 51L78.3001 26.6H64.9001L72.9001 9H62.2001L54.6001 25.8L55.4001 51H79.1001Z" fill="#1D1A3F"/>
<path d="M64.9001 26.6H78.3001L79.1001 51H55.4001L54.6001 25.9L62.2001 9H72.9001L64.9001 26.6Z" fill="url(#paint0_linear_4394_64164)"/>
<path d="M53.5001 53L52.6001 25.4L61.0001 7L52.0001 11.3L43.6001 29.6L44.5001 57.2H72.1001L81.1001 53H53.5001Z" fill="#1D1A3F"/>
<path d="M41.6999 7L33.6999 24.6H45.9999L46.8999 53H19.2999L18.3999 25.4L26.6999 7H41.6999ZM44.0999 26.6H30.6999L38.6999 9H27.9999L20.2999 25.8L21.0999 51H44.7999L44.0999 26.6Z" fill="#1D1A3F"/>
<path d="M38.6998 9L30.6998 26.6H44.0998L44.8998 51H21.0998L20.2998 25.9L27.9998 9H38.6998Z" fill="url(#paint1_linear_4394_64164)"/>
<path d="M46.8999 53L37.8999 57.2H10.2999L9.3999 29.6L17.6999 11.3L26.6999 7L18.3999 25.4L19.2999 53H46.8999Z" fill="#1D1A3F"/>
<defs>
<filter id="filter0_i_4394_64164" x="78.8999" y="59.2002" width="7.99219" height="7.61816" filterUnits="userSpaceOnUse" color-interpolation-filters="sRGB">
<feFlood flood-opacity="0" result="BackgroundImageFix"/>
<feBlend mode="normal" in="SourceGraphic" in2="BackgroundImageFix" result="shape"/>
<feColorMatrix in="SourceAlpha" type="matrix" values="0 0 0 0 0 0 0 0 0 0 0 0 0 0 0 0 0 0 127 0" result="hardAlpha"/>
<feOffset dx="-2" dy="1"/>
<feGaussianBlur stdDeviation="2.25"/>
<feComposite in2="hardAlpha" operator="arithmetic" k2="-1" k3="1"/>
<feColorMatrix type="matrix" values="0 0 0 0 0 0 0 0 0 0 0 0 0 0 0 0 0 0 0.25 0"/>
<feBlend mode="normal" in2="shape" result="effect1_innerShadow_4394_64164"/>
</filter>
<filter id="filter1_i_4394_64164" x="78.7998" y="3.77588" width="8.21924" height="7.62402" filterUnits="userSpaceOnUse" color-interpolation-filters="sRGB">
<feFlood flood-opacity="0" result="BackgroundImageFix"/>
<feBlend mode="normal" in="SourceGraphic" in2="BackgroundImageFix" result="shape"/>
<feColorMatrix in="SourceAlpha" type="matrix" values="0 0 0 0 0 0 0 0 0 0 0 0 0 0 0 0 0 0 127 0" result="hardAlpha"/>
<feOffset dx="-2" dy="1"/>
<feGaussianBlur stdDeviation="2.25"/>
<feComposite in2="hardAlpha" operator="arithmetic" k2="-1" k3="1"/>
<feColorMatrix type="matrix" values="0 0 0 0 0 0 0 0 0 0 0 0 0 0 0 0 0 0 0.25 0"/>
<feBlend mode="normal" in2="shape" result="effect1_innerShadow_4394_64164"/>
</filter>
<filter id="filter2_i_4394_64164" x="4.07178" y="9.5" width="4.82861" height="5.1001" filterUnits="userSpaceOnUse" color-interpolation-filters="sRGB">
<feFlood flood-opacity="0" result="BackgroundImageFix"/>
<feBlend mode="normal" in="SourceGraphic" in2="BackgroundImageFix" result="shape"/>
<feColorMatrix in="SourceAlpha" type="matrix" values="0 0 0 0 0 0 0 0 0 0 0 0 0 0 0 0 0 0 127 0" result="hardAlpha"/>
<feOffset dx="-2" dy="1"/>
<feGaussianBlur stdDeviation="2.25"/>
<feComposite in2="hardAlpha" operator="arithmetic" k2="-1" k3="1"/>
<feColorMatrix type="matrix" values="0 0 0 0 0 0 0 0 0 0 0 0 0 0 0 0 0 0 0.25 0"/>
<feBlend mode="normal" in2="shape" result="effect1_innerShadow_4394_64164"/>
</filter>
<filter id="filter3_i_4394_64164" x="45.894" y="0.793945" width="8.61182" height="7.61182" filterUnits="userSpaceOnUse" color-interpolation-filters="sRGB">
<feFlood flood-opacity="0" result="BackgroundImageFix"/>
<feBlend mode="normal" in="SourceGraphic" in2="BackgroundImageFix" result="shape"/>
<feColorMatrix in="SourceAlpha" type="matrix" values="0 0 0 0 0 0 0 0 0 0 0 0 0 0 0 0 0 0 127 0" result="hardAlpha"/>
<feOffset dx="-2" dy="1"/>
<feGaussianBlur stdDeviation="2.25"/>
<feComposite in2="hardAlpha" operator="arithmetic" k2="-1" k3="1"/>
<feColorMatrix type="matrix" values="0 0 0 0 0 0 0 0 0 0 0 0 0 0 0 0 0 0 0.25 0"/>
<feBlend mode="normal" in2="shape" result="effect1_innerShadow_4394_64164"/>
</filter>
<filter id="filter4_i_4394_64164" x="4.3916" y="61.9912" width="6.31738" height="5.40869" filterUnits="userSpaceOnUse" color-interpolation-filters="sRGB">
<feFlood flood-opacity="0" result="BackgroundImageFix"/>
<feBlend mode="normal" in="SourceGraphic" in2="BackgroundImageFix" result="shape"/>
<feColorMatrix in="SourceAlpha" type="matrix" values="0 0 0 0 0 0 0 0 0 0 0 0 0 0 0 0 0 0 127 0" result="hardAlpha"/>
<feOffset dx="-2" dy="1"/>
<feGaussianBlur stdDeviation="2.25"/>
<feComposite in2="hardAlpha" operator="arithmetic" k2="-1" k3="1"/>
<feColorMatrix type="matrix" values="0 0 0 0 0 0 0 0 0 0 0 0 0 0 0 0 0 0 0.25 0"/>
<feBlend mode="normal" in2="shape" result="effect1_innerShadow_4394_64164"/>
</filter>
<filter id="filter5_i_4394_64164" x="36.9019" y="59.6001" width="5.31348" height="7.43213" filterUnits="userSpaceOnUse" color-interpolation-filters="sRGB">
<feFlood flood-opacity="0" result="BackgroundImageFix"/>
<feBlend mode="normal" in="SourceGraphic" in2="BackgroundImageFix" result="shape"/>
<feColorMatrix in="SourceAlpha" type="matrix" values="0 0 0 0 0 0 0 0 0 0 0 0 0 0 0 0 0 0 127 0" result="hardAlpha"/>
<feOffset dx="-2" dy="1"/>
<feGaussianBlur stdDeviation="2.25"/>
<feComposite in2="hardAlpha" operator="arithmetic" k2="-1" k3="1"/>
<feColorMatrix type="matrix" values="0 0 0 0 0 0 0 0 0 0 0 0 0 0 0 0 0 0 0.25 0"/>
<feBlend mode="normal" in2="shape" result="effect1_innerShadow_4394_64164"/>
</filter>
<linearGradient id="paint0_linear_4394_64164" x1="54.5699" y1="30" x2="79.0999" y2="30" gradientUnits="userSpaceOnUse">
<stop stop-color="#FFFF00"/>
<stop offset="0.1594" stop-color="#FFFF04"/>
<stop offset="0.3245" stop-color="#FFFF11"/>
<stop offset="0.4924" stop-color="#FFFF25"/>
<stop offset="0.6622" stop-color="#FFFF42"/>
<stop offset="0.8315" stop-color="#FFFF67"/>
<stop offset="1" stop-color="#FFFF94"/>
</linearGradient>
<linearGradient id="paint1_linear_4394_64164" x1="20.3396" y1="30" x2="44.8696" y2="30" gradientUnits="userSpaceOnUse">
<stop stop-color="#FFFF00"/>
<stop offset="0.1594" stop-color="#FFFF04"/>
<stop offset="0.3245" stop-color="#FFFF11"/>
<stop offset="0.4924" stop-color="#FFFF25"/>
<stop offset="0.6622" stop-color="#FFFF42"/>
<stop offset="0.8315" stop-color="#FFFF67"/>
<stop offset="1" stop-color="#FFFF94"/>
</linearGradient>
</defs>
</svg>
