<svg width="170" height="70" viewBox="0 0 170 70" fill="none" xmlns="http://www.w3.org/2000/svg">
<path d="M35.7809 25.5376C38.1993 25.5376 40.2437 26.3604 41.8892 27.9809C43.5348 29.6015 44.3575 31.5961 44.3575 33.9646C44.3575 36.3082 43.5347 38.3028 41.9142 39.9483C40.2936 41.5938 38.299 42.3916 35.9305 42.3916C33.562 42.3916 31.5425 41.5689 29.8969 39.9483C28.2514 38.3277 27.4536 36.3581 27.4536 34.0394C27.4536 32.4936 27.8276 31.0725 28.5756 29.7511C29.3235 28.4297 30.3457 27.4075 31.6173 26.6595C32.8888 25.9116 34.285 25.5376 35.7809 25.5376ZM35.8557 27.1083C34.659 27.1083 33.537 27.4075 32.4899 28.0308C31.4178 28.6541 30.595 29.4769 29.9967 30.524C29.3983 31.5711 29.0991 32.7429 29.0991 34.0394C29.0991 35.9342 29.7474 37.5548 31.0937 38.8762C32.4151 40.1976 34.0107 40.8458 35.8806 40.8458C37.1272 40.8458 38.2741 40.5467 39.3462 39.9483C40.3933 39.3499 41.241 38.5272 41.8144 37.48C42.4128 36.4329 42.712 35.2611 42.712 33.9895C42.712 32.718 42.4128 31.5711 41.8144 30.524C41.2161 29.5018 40.3933 28.679 39.2963 28.0557C38.1993 27.4075 37.0524 27.1083 35.8557 27.1083Z" fill="#65656A"/>
<path d="M48.6702 42.5164V25.4878H49.0441L60.3882 38.5522V25.4878H62.0836V42.5164H61.6847L50.4403 29.6265V42.5164H48.6702Z" fill="#65656A"/>
<path d="M68.2922 25.4878H66.6965V42.4914H68.2922V25.4878Z" fill="#65656A"/>
<path d="M124.314 25.4878H121.048L116.461 37.7793L125.71 37.8291L127.481 42.4416H130.822L124.314 25.4878ZM120.45 35.7847L122.719 29.9756L124.963 35.7847H120.45Z" fill="#65656A"/>
<path d="M134.312 25.4878H137.529V39.3251H143.936V42.3917H134.312V25.4878Z" fill="#65656A"/>
<path d="M147.376 25.4878H150.592V39.3251H157V42.3917H147.376V25.4878Z" fill="#65656A"/>
<path d="M121.472 49.5721C121.472 49.5721 113.594 46.7298 111.848 42.0177C109.904 36.7321 117.109 35.5354 124.489 35.7348C128.453 35.8595 133.315 36.4579 133.315 36.4579C133.315 36.4579 121.846 37.9289 117.707 41.2697C113.668 44.5109 121.472 49.5721 121.472 49.5721Z" fill="#FF6C0C"/>
<path d="M87.2655 38.4025C85.7695 40.0979 83.8996 40.9456 81.7056 40.9456C79.6612 40.9456 77.9409 40.2973 76.5946 38.9759C75.2482 37.6545 74.5751 36.009 74.5751 34.0643C74.5751 32.7679 74.8743 31.5961 75.4726 30.5489C76.071 29.5018 76.9187 28.679 78.0157 28.0557C79.1127 27.4324 80.3094 27.1332 81.581 27.1332C82.7528 27.1332 83.8248 27.3576 84.8221 27.8313C85.7695 28.2801 86.5674 28.9284 87.2655 29.801V27.607C86.7668 27.208 86.2432 26.7094 85.6449 26.4352C84.4232 25.8368 83.0769 25.5376 81.556 25.5376C79.0628 25.5376 76.9935 26.3354 75.323 27.956C73.6775 29.5766 72.8298 31.5462 72.8298 33.9148C72.8298 36.1586 73.503 38.0784 74.8743 39.6491C76.4948 41.519 78.7387 42.4664 81.556 42.4664C83.027 42.4664 84.3734 42.1922 85.595 41.6187C86.1934 41.3445 86.7419 40.8708 87.2405 40.4719V38.4025H87.2655Z" fill="#65656A"/>
<path d="M18.7522 33.1918C14.9126 32.394 14.1896 31.3967 14.1896 29.826V29.7761C14.1896 28.1057 15.7853 26.9089 17.9543 26.9089C19.7744 26.9089 21.2454 27.4574 22.6665 28.6791L22.7912 28.8038L22.8161 28.7539V26.884C21.3451 25.9116 19.8741 25.4878 17.9793 25.4878C14.9126 25.4878 12.6189 27.3826 12.6189 29.9008V29.9506C12.6189 32.4937 14.2395 33.8649 18.2037 34.6628C21.9185 35.4107 22.6416 36.3831 22.6416 37.9289V37.9787C22.6416 39.7738 21.021 41.0204 18.7272 41.0204C16.4834 41.0204 14.8877 40.3722 13.0677 38.6768L12.943 38.5522L12.9181 38.5771V40.5218C14.6883 41.8432 16.4834 42.4416 18.6774 42.4416C21.9185 42.4416 24.1873 40.5717 24.1873 37.879V37.8291C24.1873 35.3609 22.5668 33.9647 18.7522 33.1918Z" fill="#65656A"/>
<path d="M111.599 25.4878L107.734 37.0064L107.659 37.2558L107.585 37.0064L103.77 25.438H100.678L96.8639 37.0064L96.7891 37.2558L96.6893 37.0064L92.8249 25.4878H88.9854L95.0937 42.4915H98.2601L102.075 31.3967L102.174 31.1723L102.249 31.3967L106.089 42.4915H109.23L115.338 25.4878H111.599Z" fill="#65656A"/>
</svg>
