<svg width="130" height="100" viewBox="0 0 130 100" fill="none" xmlns="http://www.w3.org/2000/svg">
<path opacity="0.45" d="M101.501 86.594L96.2886 89.0791C90.8858 91.6278 85.038 92.9659 79.0631 92.9659C55.8626 92.9659 36.4123 73.5316 35.6496 49.6369C35.0775 32.1778 44.7391 17.0126 59.1043 10.1947L64.3165 7.70963C64.1893 7.77335 64.1258 7.83706 63.9987 7.83706C69.2744 5.2883 75.2493 3.82275 81.542 3.82275C104.742 3.82275 124.193 23.2571 124.955 47.1518C125.464 64.6746 115.802 79.7761 101.501 86.594Z" fill="black"/>
<path d="M106.586 82.7711L101.374 85.2561C95.9707 87.8049 90.1229 89.143 84.148 89.143C60.9476 89.143 41.4973 69.7087 40.7346 45.814C40.1625 28.3549 49.824 13.1897 64.1893 6.37177L69.4014 3.88672C55.0998 10.7047 45.3746 25.8061 45.9467 43.3289C46.7095 67.2236 66.1597 86.658 89.3602 86.658C95.2715 86.658 101.183 85.3199 106.586 82.7711Z" fill="#1D1A3F"/>
<path d="M86.563 0C109.764 0 129.214 19.4344 129.977 43.3291C130.739 67.2238 112.497 86.6581 89.2962 86.6581C66.0958 86.6581 46.6455 67.2238 45.8828 43.3291C45.1836 19.3706 63.3626 0 86.563 0ZM89.2962 85.3837C111.798 85.3837 129.532 66.5229 128.832 43.3291C128.133 20.1353 109.191 1.27438 86.6266 1.27438C64.0618 1.27438 46.3913 20.1353 47.1541 43.3291C47.9168 66.5229 66.795 85.3837 89.2962 85.3837Z" fill="#1D1A3F"/>
<path d="M89.2965 85.3198C66.7953 85.3198 47.8535 66.4589 47.1543 43.2651C46.4551 20.0713 64.1256 1.21045 86.6269 1.21045C109.128 1.21045 128.07 20.0713 128.769 43.2651C129.532 66.5227 111.798 85.3198 89.2965 85.3198Z" fill="url(#paint0_linear_4394_63795)"/>
<path d="M61.5196 43.2651H59.6763C60.1848 59.3224 73.2787 72.3848 88.8516 72.3848C104.425 72.3848 116.692 59.3224 116.184 43.2651H114.34C114.785 58.3029 103.344 70.4732 88.7881 70.4732C74.2322 70.4732 62.0281 58.3029 61.5196 43.2651Z" fill="#1D1A3F"/>
<path opacity="0.45" d="M49.6837 82.9475C49.6837 82.4112 49.4831 81.942 49.0819 81.6068C48.7475 81.2717 48.2795 81.0706 47.7445 81.0035H36.5774C36.4436 81.0035 36.243 80.9365 36.1762 80.8024C36.0424 80.6684 35.9756 80.5343 35.9756 80.4002L35.1731 54.8605C35.1731 54.3242 34.9725 53.855 34.5713 53.5198C34.2369 53.1846 33.7689 52.9835 33.2339 52.9165H8.42549C8.22488 52.9165 7.62307 53.1176 7.5562 53.1176C7.5562 53.1176 7.62307 53.1176 7.62307 53.0506L1.06989 56.1341C0.735543 56.2682 0.468079 56.5363 0.267472 56.8715C0.066865 57.2066 0 57.5418 0 57.877L0.401198 69.3397C0.401198 69.876 0.601822 70.3452 1.00304 70.6804C1.33738 71.0155 1.80546 71.2167 2.34042 71.2837H13.5075C13.6413 71.2837 13.8419 71.3507 13.9088 71.4848C14.0425 71.6189 14.1094 71.7529 14.1094 71.887L14.3769 80.8695H9.2948C9.02732 80.8695 8.82671 80.9365 8.55923 81.0035C8.49236 81.0706 8.4255 81.0706 8.35863 81.1376C8.4255 81.0706 8.42549 81.0706 8.49236 81.0035L1.9392 84.0871C1.60485 84.2211 1.33737 84.4893 1.13676 84.8244C0.936155 85.1596 0.86929 85.4948 0.86929 85.83L1.20364 97.2927C1.20364 97.829 1.40424 98.2982 1.80545 98.6334C2.1398 98.9685 2.60788 99.1696 3.14283 99.2367H41.5257C41.7263 99.2367 41.9938 99.1696 42.1944 99.1026L42.3281 99.0355L48.8144 95.952H48.8813C49.0819 95.8179 49.2825 95.7509 49.4162 95.5498C49.55 95.3487 49.7506 95.1476 49.8175 94.9465C49.8843 94.7454 49.9512 94.4773 49.9512 94.2091L49.6837 82.9475Z" fill="black"/>
<path d="M54.2303 93.5389C54.0297 93.606 53.7622 93.673 53.5616 93.673H15.2457C14.7107 93.673 14.2426 93.4719 13.9083 93.0697C13.5739 92.7345 13.3733 92.1983 13.3065 91.729L12.9721 80.2663C12.9721 79.9311 13.039 79.5289 13.2396 79.2608C13.4402 78.9256 13.7077 78.7245 14.042 78.5234L7.48885 81.607C7.15451 81.741 6.88705 82.0092 6.68644 82.3443C6.48583 82.6795 6.41895 83.0147 6.41895 83.3498L6.75329 94.8126C6.75329 95.3488 6.95391 95.8181 7.35513 96.1532C7.68947 96.4884 8.15756 96.6895 8.69251 96.7565H47.0753C47.276 96.7565 47.4766 96.6895 47.744 96.6225L54.2303 93.5389Z" fill="#1D1A3F"/>
<path d="M26.5467 77.719C26.5467 77.8531 26.5467 77.9201 26.4798 78.0542C26.4129 78.1212 26.3461 78.2553 26.2123 78.2553L19.6592 81.3388C19.7929 81.2718 19.8598 81.2048 19.9267 81.1377C19.9935 81.0707 19.9935 80.9366 19.9935 80.8026L19.6592 69.3398C19.6592 69.2058 19.5923 69.0047 19.4586 68.9376C19.3917 68.8706 19.3248 68.8036 19.3248 68.8036C19.258 68.8036 19.1911 68.7365 19.0574 68.7365H7.89022C7.35527 68.7365 6.88719 68.5354 6.55284 68.1332C6.2185 67.7981 5.95102 67.3288 5.95102 66.7926L5.5498 55.3298C5.5498 54.9947 5.61667 54.5925 5.81728 54.3243C6.01788 53.9892 6.28537 53.7881 6.61971 53.587L13.2397 50.5034C12.9054 50.6375 12.6379 50.9056 12.4373 51.2408C12.2367 51.576 12.1698 51.9111 12.1698 52.2463H12.103L12.4373 63.709C12.4373 64.2453 12.6379 64.7145 12.9723 65.0497C13.3066 65.3849 13.7747 65.586 14.3097 65.653H24.875L25.3431 65.4519L25.6105 65.586V65.72C25.6774 65.72 25.7443 65.7871 25.8111 65.8541C25.9449 65.9882 25.9449 66.1222 26.0117 66.2563L26.5467 77.719Z" fill="#1D1A3F"/>
<path d="M38.6501 51.6426C38.7838 51.6426 38.9844 51.7096 39.0513 51.8437C39.185 51.9777 39.2519 52.1118 39.2519 52.2459L40.0543 77.7856C40.0543 78.3219 40.2549 78.7911 40.5893 79.1263C40.9236 79.4615 41.3917 79.7296 41.9267 79.7296H53.0938C53.2275 79.7296 53.4282 79.7966 53.495 79.9307C53.6288 80.0648 53.6956 80.1988 53.6956 80.3329L54.03 91.7956C54.03 91.8627 54.03 91.9297 54.03 91.9967C54.03 92.0638 53.9631 92.1308 53.8962 92.1978C53.8293 92.2649 53.7625 92.3319 53.6956 92.3319C53.6287 92.3319 53.5619 92.3989 53.495 92.3989H15.1122C14.9784 92.3989 14.7778 92.3319 14.711 92.1978C14.5772 92.0638 14.5103 91.9297 14.5103 91.7956L14.176 80.3329C14.176 80.2659 14.176 80.1988 14.2429 80.1318C14.2429 80.0648 14.3097 79.9977 14.3766 79.9307C14.4435 79.8637 14.5103 79.7966 14.5772 79.7966C14.6441 79.7966 14.7109 79.7296 14.7778 79.7296H25.945C26.2124 79.7296 26.413 79.6626 26.6805 79.5955C26.8811 79.5285 27.0817 79.3274 27.2823 79.1933C27.4829 78.9922 27.5498 78.7911 27.6836 78.59C27.7504 78.3889 27.8173 78.1208 27.8173 77.8527L27.4829 66.3899C27.4829 65.8537 27.2823 65.3844 26.8811 65.0493C26.5468 64.7141 26.0118 64.513 25.5437 64.446H14.3766C14.2429 64.446 14.0423 64.3789 13.9754 64.2449C13.8417 64.1108 13.7748 63.9767 13.7748 63.8427L13.4404 52.38C13.4404 52.3129 13.4404 52.2459 13.5073 52.1788C13.5073 52.1118 13.5742 52.0448 13.641 51.9777C13.7079 51.9107 13.7748 51.9107 13.8416 51.8437C13.9085 51.8437 13.9754 51.7766 14.0423 51.7766L38.6501 51.6426Z" fill="url(#paint1_linear_4394_63795)"/>
<path d="M53.1611 78.3221C53.696 78.3221 54.1641 78.5232 54.4985 78.9254C54.8328 79.2606 55.0334 79.7968 55.1003 80.2661L55.4346 91.7288C55.4346 91.9969 55.4346 92.198 55.3009 92.4662C55.234 92.6673 55.1003 92.9354 54.8997 93.0695C54.6991 93.2706 54.4985 93.4046 54.2979 93.4717C54.0972 93.5387 53.8298 93.6057 53.5623 93.6057H15.2463C14.7114 93.6057 14.2433 93.4046 13.9089 93.0024C13.5746 92.6673 13.374 92.131 13.3071 91.6618L12.9728 80.199C12.9728 79.9309 12.9728 79.7298 13.1065 79.4617C13.1734 79.2606 13.3071 78.9924 13.5077 78.8584C13.7083 78.6573 13.9089 78.5232 14.1095 78.4562C14.3102 78.3891 14.5776 78.3221 14.8451 78.3221H25.9454C26.0122 78.3221 26.0791 78.3221 26.146 78.2551C26.2128 78.2551 26.2797 78.188 26.3466 78.121C26.4135 78.054 26.4135 77.9869 26.4803 77.9199C26.4803 77.8529 26.5472 77.7858 26.5472 77.7188L26.146 66.2561C26.146 66.122 26.0791 65.9209 25.9454 65.8539C25.8116 65.7198 25.6779 65.6528 25.5442 65.6528H14.377C13.8421 65.6528 13.374 65.4517 13.0397 65.0495C12.7053 64.7143 12.5047 64.2451 12.4378 63.7088L12.0366 52.2461C12.0366 51.9779 12.0366 51.7768 12.1703 51.5087C12.2372 51.3076 12.371 51.0395 12.5716 50.9054C12.7722 50.7043 12.9728 50.5702 13.1734 50.5032C13.374 50.4362 13.6415 50.3691 13.9089 50.3691H38.6505C39.1855 50.3691 39.6535 50.5702 39.9879 50.9724C40.3222 51.3076 40.5228 51.7768 40.5897 52.3131L41.3921 77.8529C41.3921 77.9869 41.459 78.188 41.5927 78.2551C41.7265 78.3891 41.8602 78.4562 41.994 78.4562L53.1611 78.3221ZM54.0973 91.7288L53.7629 80.2661C53.7629 80.132 53.696 79.9309 53.5623 79.8639C53.4286 79.7298 53.2948 79.6628 53.1611 79.6628H41.994C41.459 79.6628 40.9909 79.4617 40.6566 79.0595C40.3222 78.7243 40.1216 78.188 40.0548 77.7188L39.2523 52.179C39.2523 52.045 39.1855 51.8439 39.0517 51.7768C38.918 51.6428 38.7842 51.5757 38.6505 51.5757H13.9089C13.8421 51.5757 13.7752 51.5757 13.7083 51.6428C13.6415 51.6428 13.5746 51.7098 13.5077 51.7768C13.4409 51.8439 13.4409 51.9109 13.374 51.9779C13.374 52.045 13.3071 52.112 13.3071 52.179L13.6415 63.6418C13.6415 63.7758 13.7083 63.9769 13.8421 64.044C13.9758 64.178 14.1096 64.2451 14.2433 64.2451H25.4104C25.9454 64.2451 26.4135 64.4462 26.7478 64.8484C27.0822 65.1835 27.2828 65.7198 27.2828 66.189L27.684 77.7188C27.684 77.9869 27.684 78.188 27.5502 78.4562C27.4834 78.6573 27.3496 78.9254 27.149 79.0595C26.9484 79.1935 26.7478 79.3946 26.5472 79.4617C26.3466 79.5287 26.0791 79.5957 25.8116 79.5957H14.6445C14.5776 79.5957 14.5108 79.5957 14.4439 79.6628C14.377 79.6628 14.3102 79.7298 14.2433 79.7968C14.1764 79.8639 14.1764 79.9309 14.1095 79.9979C14.1095 80.065 14.0427 80.132 14.0427 80.199L14.377 91.6618C14.377 91.7958 14.4439 91.9969 14.5776 92.064C14.7114 92.198 14.8451 92.2651 14.9789 92.2651H53.3617C53.4286 92.2651 53.4954 92.2651 53.5623 92.198C53.6292 92.198 53.696 92.131 53.7629 92.064C53.8298 91.9969 53.8298 91.9299 53.8966 91.8629C54.0972 91.9299 54.0973 91.8629 54.0973 91.7288Z" fill="#1D1A3F"/>
<defs>
<linearGradient id="paint0_linear_4394_63795" x1="47.1342" y1="43.2651" x2="128.793" y2="43.2651" gradientUnits="userSpaceOnUse">
<stop stop-color="#FFFF00"/>
<stop offset="0.1594" stop-color="#FFFF04"/>
<stop offset="0.3245" stop-color="#FFFF11"/>
<stop offset="0.4924" stop-color="#FFFF25"/>
<stop offset="0.6622" stop-color="#FFFF42"/>
<stop offset="0.8315" stop-color="#FFFF67"/>
<stop offset="1" stop-color="#FFFF94"/>
</linearGradient>
<linearGradient id="paint1_linear_4394_63795" x1="13.4404" y1="72.0208" x2="54.03" y2="72.0208" gradientUnits="userSpaceOnUse">
<stop stop-color="#EBEBEB"/>
<stop offset="0.0922963" stop-color="#EEEEEE"/>
<stop offset="0.5538" stop-color="#FBFBFB"/>
<stop offset="1" stop-color="white"/>
</linearGradient>
</defs>
</svg>
