<svg width="32" height="32" viewBox="0 0 32 32" fill="none" xmlns="http://www.w3.org/2000/svg">
<path d="M1.99776 12.4203L12.4078 1.99802C12.5545 1.85123 12.7744 1.77783 12.9943 1.77783H29.6358C30.0023 1.77783 30.2223 2.07142 30.2223 2.36501V19.0261C30.2223 19.2462 30.149 19.4664 30.0023 19.6132L19.5923 30.0356C19.4456 30.1823 19.2257 30.2557 19.0058 30.2557H2.36432C2.07107 30.2557 1.77783 29.9622 1.77783 29.6686V13.0075C1.77783 12.7873 1.85114 12.5671 1.99776 12.4203Z" fill="#3631FF"/>
<path d="M19.0064 23.503H16.0006C15.7807 23.503 15.6341 23.3562 15.6341 23.136V16.6771C15.6341 16.4569 15.4874 16.3101 15.2675 16.3101H8.8895C8.66957 16.3101 8.52295 16.1633 8.52295 15.9431V12.9339C8.52295 12.7137 8.66957 12.5669 8.8895 12.5669H19.0064C19.2263 12.5669 19.3729 12.7137 19.3729 12.9339V23.0626C19.3729 23.3562 19.2263 23.503 19.0064 23.503Z" fill="#FFFF00"/>
<path d="M11.2359 23.4295L18.567 16.0898C18.7136 15.943 18.7136 15.7228 18.567 15.576L16.441 13.4475C16.2944 13.3007 16.0744 13.3007 15.9278 13.4475L8.59675 20.7872C8.52344 20.8606 8.52344 20.934 8.52344 21.0074V23.1359C8.52344 23.3561 8.67006 23.5029 8.88999 23.5029H11.016C11.0893 23.5029 11.1626 23.5029 11.2359 23.4295Z" fill="#FFFF00"/>
</svg>
