<svg width="169" height="39" viewBox="0 0 169 39" fill="none" xmlns="http://www.w3.org/2000/svg">
<path d="M43.263 11.2335H38.262C37.4682 11.2335 37.0713 10.8361 37.0713 10.0415V9.0084C37.0713 8.21374 37.4682 7.81641 38.262 7.81641H52.3125C53.1063 7.81641 53.5033 8.21374 53.5033 9.0084V10.1209C53.5033 10.9156 53.1063 11.3129 52.3125 11.3129H47.3115V31.3384C47.3115 32.1331 46.9146 32.5304 46.1208 32.5304H44.3744C43.5806 32.5304 43.1837 32.1331 43.1837 31.3384V11.2335H43.263Z" fill="#1D1A3F"/>
<path d="M51.5188 19.0215C51.5188 17.1938 52.0745 15.7634 53.1858 14.8098C54.2971 13.8562 55.8054 13.3794 57.8693 13.3794H59.7745C61.8384 13.3794 63.3466 13.8562 64.458 14.8098C65.5693 15.7634 66.125 17.1938 66.125 19.0215V21.9618C66.125 22.5975 65.9662 23.0743 65.5693 23.3921C65.1724 23.71 64.6961 23.9484 63.9817 23.9484H55.5673V27.286C55.5673 28.0012 55.726 28.5575 56.1229 28.8753C56.5198 29.2727 57.0755 29.4316 57.7899 29.4316H59.7745C60.4889 29.4316 61.0446 29.2727 61.4415 28.9548C61.8384 28.6369 62.0765 28.2396 62.0765 27.6833V27.6039C62.0765 27.286 62.1559 27.0476 62.3941 26.8887C62.5528 26.7297 62.8703 26.6503 63.1879 26.6503H64.9343C65.6487 26.6503 66.0456 26.9681 66.0456 27.6039V27.6833C66.0456 29.1137 65.4899 30.3057 64.3786 31.2593C63.2673 32.1334 61.759 32.6102 59.7745 32.6102H57.8693C55.8848 32.6102 54.2971 32.1334 53.1858 31.1798C52.0745 30.2263 51.5188 28.7959 51.5188 26.9681V19.0215ZM62.0765 18.7036C62.0765 17.9884 61.8384 17.4322 61.4415 17.1143C61.0446 16.717 60.4889 16.558 59.7745 16.558H57.7899C57.0755 16.558 56.5198 16.717 56.1229 17.1143C55.726 17.5116 55.4879 17.9884 55.4879 18.7036V21.0876H61.9972V18.7036H62.0765Z" fill="#1D1A3F"/>
<path d="M68.7447 19.0215C68.7447 17.1938 69.3003 15.7634 70.4117 14.8098C71.523 13.8562 73.0313 13.3794 75.0952 13.3794H77.0003C78.9849 13.3794 80.5725 13.8562 81.6838 14.8098C82.7952 15.7634 83.3509 17.1938 83.3509 19.0215V19.4188C83.3509 19.8162 83.2715 20.134 83.1127 20.293C82.9539 20.4519 82.6364 20.5314 82.2395 20.5314H80.5725C79.7787 20.5314 79.4612 20.134 79.4612 19.4188V18.7831C79.4612 18.0679 79.223 17.5116 78.8261 17.1938C78.4292 16.8759 77.8735 16.6375 77.1591 16.6375H75.1746C74.4601 16.6375 73.9045 16.7964 73.5076 17.1938C73.1106 17.5911 72.8725 18.0679 72.8725 18.7831V27.2065C72.8725 27.9217 73.0313 28.478 73.4282 28.7959C73.8251 29.1137 74.3807 29.3521 75.0952 29.3521H77.0797C77.7941 29.3521 78.3498 29.1932 78.7467 28.7959C79.1436 28.478 79.3818 27.9217 79.3818 27.2065V26.5708C79.3818 25.8556 79.7787 25.4583 80.4931 25.4583H82.1601C82.557 25.4583 82.8746 25.5377 83.0333 25.6967C83.1921 25.8556 83.2715 26.1735 83.2715 26.5708V26.9681C83.2715 28.7959 82.7158 30.2263 81.6045 31.1798C80.4931 32.1334 78.9849 32.6102 76.921 32.6102H75.0158C73.0313 32.6102 71.4436 32.1334 70.3323 31.1798C69.221 30.2263 68.6653 28.7959 68.6653 26.9681V19.0215H68.7447Z" fill="#1D1A3F"/>
<path d="M86.1292 7.41917C86.1292 6.70397 86.5261 6.30664 87.2405 6.30664H88.9075C89.7013 6.30664 90.0188 6.70397 90.0188 7.41917V15.0479L92.1621 14.0943C93.2735 13.6175 94.3848 13.3791 95.4962 13.3791C97.1632 13.3791 98.4333 13.8559 99.3065 14.8095C100.18 15.7631 100.656 17.1935 100.656 19.0212V31.3385C100.656 32.0537 100.259 32.451 99.4652 32.451H97.7982C97.0838 32.451 96.6869 32.0537 96.6869 31.3385V19.1007C96.6869 18.306 96.5281 17.7498 96.2106 17.4319C95.8931 17.1141 95.4168 16.9551 94.7024 16.9551C94.2261 16.9551 93.6704 17.0346 93.1147 17.273L90.0982 18.465V31.3385C90.0982 32.0537 89.7013 32.451 88.9869 32.451H87.3199C86.5261 32.451 86.2085 32.0537 86.2085 31.3385V7.41917H86.1292Z" fill="#1D1A3F"/>
<path d="M110.102 32.6895C108.038 32.6895 106.53 32.2127 105.419 31.2591C104.307 30.3055 103.831 28.8751 103.831 27.0473V7.41917C103.831 6.70397 104.228 6.30664 104.942 6.30664H106.609C107.403 6.30664 107.721 6.70397 107.721 7.41917V15.0479L109.864 14.0943C110.975 13.6175 112.087 13.3791 113.198 13.3791C114.865 13.3791 116.135 13.8559 117.008 14.8095C117.882 15.7631 118.358 17.1935 118.358 19.0212V26.9679C118.358 28.7956 117.802 30.226 116.691 31.1796C115.58 32.1332 114.071 32.61 112.007 32.61H110.102V32.6895ZM107.8 27.2063C107.8 27.9215 107.959 28.4777 108.356 28.7956C108.753 29.1135 109.308 29.3519 110.023 29.3519H112.166C112.881 29.3519 113.436 29.1929 113.833 28.7956C114.23 28.4777 114.468 27.9215 114.468 27.2063V19.1007C114.468 18.3061 114.309 17.7498 113.992 17.4319C113.674 17.1141 113.119 16.9551 112.484 16.9551C112.007 16.9551 111.452 17.0346 110.896 17.273L107.88 18.465V27.2063H107.8Z" fill="#1D1A3F"/>
<path d="M121.136 19.0215C121.136 17.1938 121.692 15.7634 122.803 14.8098C123.915 13.8562 125.423 13.3794 127.487 13.3794H129.471C131.456 13.3794 133.043 13.8562 134.155 14.8098C135.266 15.7634 135.822 17.1938 135.822 19.0215V26.9681C135.822 28.7959 135.266 30.2263 134.155 31.1798C133.043 32.1334 131.535 32.6102 129.471 32.6102H127.487C125.423 32.6102 123.915 32.1334 122.803 31.1798C121.692 30.2263 121.216 28.7959 121.216 26.9681V19.0215H121.136ZM129.471 29.3521C130.186 29.3521 130.741 29.1932 131.138 28.7959C131.535 28.478 131.694 27.9217 131.694 27.2065V18.7831C131.694 18.0679 131.535 17.5116 131.138 17.1938C130.741 16.8759 130.186 16.6375 129.471 16.6375H127.407C126.693 16.6375 126.137 16.7964 125.74 17.1938C125.343 17.5911 125.105 18.0679 125.105 18.7831V27.2065C125.105 27.9217 125.264 28.478 125.661 28.7959C126.058 29.1137 126.614 29.3521 127.328 29.3521H129.471Z" fill="#1D1A3F"/>
<path d="M138.6 32.4516C138.283 32.4516 137.965 32.3721 137.807 32.2132C137.648 32.0542 137.568 31.8158 137.568 31.498C137.568 31.339 137.648 31.1801 137.727 31.0212L142.172 22.7567L137.727 14.8895C137.648 14.7306 137.568 14.5716 137.568 14.4127C137.568 14.1743 137.648 13.9359 137.807 13.777C137.965 13.618 138.283 13.5386 138.6 13.5386H140.347C140.902 13.5386 141.299 13.8564 141.617 14.4127L145.03 20.2137L148.444 14.4127C148.761 13.8564 149.158 13.5386 149.714 13.5386H151.46C151.778 13.5386 152.095 13.618 152.254 13.777C152.413 13.9359 152.492 14.1743 152.492 14.4127C152.492 14.5716 152.413 14.7306 152.333 14.8895L147.967 22.7567L152.413 31.0212C152.492 31.1801 152.571 31.339 152.571 31.498C152.571 31.8158 152.492 31.9748 152.333 32.2132C152.175 32.3721 151.936 32.4516 151.539 32.4516H149.872C149.317 32.4516 148.92 32.1337 148.602 31.5774L145.189 25.6175L141.776 31.5774C141.458 32.1337 140.982 32.4516 140.426 32.4516H138.6Z" fill="#1D1A3F"/>
<path d="M154.556 32.4516C154.238 32.4516 153.921 32.3721 153.762 32.2132C153.603 32.0542 153.524 31.8158 153.524 31.498C153.524 31.339 153.603 31.1801 153.683 31.0212L158.128 22.7567L153.683 14.8895C153.603 14.7306 153.524 14.5716 153.524 14.4127C153.524 14.1743 153.603 13.9359 153.762 13.777C153.921 13.618 154.238 13.5386 154.556 13.5386H156.302C156.858 13.5386 157.255 13.8564 157.572 14.4127L160.986 20.2137L164.399 14.4127C164.717 13.8564 165.114 13.5386 165.669 13.5386H167.416C167.733 13.5386 168.051 13.618 168.209 13.777C168.368 13.9359 168.448 14.1743 168.448 14.4127C168.448 14.5716 168.368 14.7306 168.289 14.8895L163.923 22.7567L168.368 31.0212C168.448 31.1801 168.527 31.339 168.527 31.498C168.527 31.8158 168.448 31.9748 168.289 32.2132C168.13 32.3721 167.892 32.4516 167.495 32.4516H165.828C165.272 32.4516 164.875 32.1337 164.558 31.5774L161.145 25.6175L157.731 31.5774C157.414 32.1337 156.937 32.4516 156.382 32.4516H154.556Z" fill="#1D1A3F"/>
<path d="M0.238144 13.469L11.5103 2.23729C11.6691 2.0791 11.9072 2 12.1454 2H30.1649C30.5619 2 30.8 2.31639 30.8 2.63277V20.5877C30.8 20.825 30.7206 21.0623 30.5619 21.2205L19.2897 32.4522C19.1309 32.6104 18.8928 32.6895 18.6546 32.6895H0.635052C0.317526 32.6895 0 32.3731 0 32.0567V14.1018C0 13.8645 0.0793815 13.6272 0.238144 13.469Z" fill="#3631FF"/>
<path d="M18.6545 25.4123H15.3999C15.1617 25.4123 15.003 25.2541 15.003 25.0169V18.0564C15.003 17.8191 14.8442 17.6609 14.6061 17.6609H7.69989C7.46174 17.6609 7.30298 17.5027 7.30298 17.2654V14.0224C7.30298 13.7851 7.46174 13.627 7.69989 13.627H18.6545C18.8927 13.627 19.0514 13.7851 19.0514 14.0224V24.9378C19.0514 25.2541 18.8927 25.4123 18.6545 25.4123Z" fill="#FFFF00"/>
<path d="M10.2401 25.3333L18.1782 17.4236C18.337 17.2654 18.337 17.0282 18.1782 16.87L15.8762 14.5762C15.7174 14.418 15.4793 14.418 15.3205 14.5762L7.38236 22.4858C7.30298 22.5649 7.30298 22.644 7.30298 22.7231V25.0169C7.30298 25.2542 7.46174 25.4124 7.69989 25.4124H10.0019C10.0813 25.4124 10.1607 25.4124 10.2401 25.3333Z" fill="#FFFF00"/>
</svg>
