<svg width="170" height="70" viewBox="0 0 170 70" fill="none" xmlns="http://www.w3.org/2000/svg">
<path fill-rule="evenodd" clip-rule="evenodd" d="M36.6276 17.7805L20.9714 17.7794V21.4559L26.6777 21.4572V33.5205H30.9129L30.9116 21.4559L36.6276 21.4566V17.7805Z" fill="#656262"/>
<path fill-rule="evenodd" clip-rule="evenodd" d="M79.2115 44.4587C79.2115 43.0818 78.0927 41.9751 76.7185 41.9751H76.6899H71.209C70.7276 41.9751 70.4869 42.2166 70.2317 42.5998C70.2175 42.6135 68.5889 44.9702 68.5889 44.9702H73.8999C74.5233 44.9987 75.0189 45.5093 75.0189 46.148V53.5151H79.2115V44.4869V44.4587Z" fill="#E51635"/>
<path fill-rule="evenodd" clip-rule="evenodd" d="M64.3965 37.7738H68.5888V53.5151H64.3965V37.7738Z" fill="#E51635"/>
<path fill-rule="evenodd" clip-rule="evenodd" d="M100.824 41.9754H88.9133V53.5151H93.1337V44.9705H97.9207C98.5728 44.9705 99.1113 45.4954 99.1113 46.1483V53.5151H103.318V44.459C103.318 43.0821 102.198 41.9754 100.824 41.9754Z" fill="#E51635"/>
<path fill-rule="evenodd" clip-rule="evenodd" d="M41.1116 37.7738H20.9714V53.5151H25.1495V41.45H29.6251C30.0501 41.45 30.3901 41.805 30.3901 42.2309V53.5151H34.5824V42.2309C34.5824 41.7902 34.9367 41.45 35.3614 41.45H35.3756H38.6614C39.2987 41.45 39.8228 41.9609 39.8228 42.5998V53.5151H44.0011V40.6691C44.0011 39.0654 42.7121 37.7738 41.1116 37.7738Z" fill="#E51635"/>
<path fill-rule="evenodd" clip-rule="evenodd" d="M81.9734 45.7224V53.5151H86.1659V46.5457V42.1034C86.1659 42.1034 84.2251 43.3096 82.8514 44.1754C82.3271 44.5156 81.9734 45.0837 81.9734 45.7224Z" fill="#E51635"/>
<path fill-rule="evenodd" clip-rule="evenodd" d="M81.9734 37.7602H86.1659V40.6694L81.9734 43.4512V37.7602Z" fill="#E51635"/>
<path fill-rule="evenodd" clip-rule="evenodd" d="M125.738 41.9754C124.69 41.9754 124.01 42.7845 124.01 43.6504V53.5151H128.23V46.1623C128.23 45.5096 128.698 44.9557 129.364 44.9557H132.494C132.947 44.9281 133.33 44.6581 133.57 44.3031C133.584 44.2889 135.213 41.9754 135.213 41.9754H125.738Z" fill="#E51635"/>
<path fill-rule="evenodd" clip-rule="evenodd" d="M117.042 37.7738V41.9751V50.6338H110.966C110.541 50.6338 110.243 50.2643 110.243 49.9522V46.148H110.258C110.258 45.4951 110.781 44.9702 111.433 44.9702H114.506C114.959 44.9702 115.427 44.7005 115.625 44.3884L117.042 41.9751H108.516C107.155 41.9751 106.037 43.0818 106.037 44.4587V44.4869V51.4426C106.037 52.7769 107.099 53.5151 108.076 53.5151H121.248V37.7738H117.042Z" fill="#E51635"/>
<path fill-rule="evenodd" clip-rule="evenodd" d="M147.521 41.9754H137.833C137.352 41.9754 136.913 42.2022 136.644 42.5719L135.015 44.9705H144.774C145.383 44.9987 145.878 45.5241 145.878 46.1483L145.864 50.7328H138.556V49.4128C138.556 49.1579 138.768 48.9443 139.023 48.9443H144.137V47.2416C144.137 46.8299 143.881 46.6023 143.527 46.6023H136.445C135.567 46.6023 134.874 47.2977 134.874 48.1639V52.3513C134.874 52.3795 134.874 52.3942 134.888 52.4227C134.987 53.0463 135.525 53.5151 136.177 53.5151H150V44.459C150 43.0821 148.895 41.9754 147.521 41.9754Z" fill="#E51635"/>
<path fill-rule="evenodd" clip-rule="evenodd" d="M59.3116 41.9754H49.6238C49.1565 41.9754 48.7034 42.2022 48.4485 42.5719L46.8052 44.9705H56.564C57.1732 44.9987 57.6688 45.5241 57.6688 46.1483V50.7328H50.3462V49.4128C50.3462 49.1579 50.5586 48.9443 50.8135 48.9443H55.9264V47.2416C55.9264 46.8299 55.6717 46.6023 55.3175 46.6023H48.2356C47.3576 46.6023 46.6641 47.2977 46.6641 48.1639V52.3513C46.6641 52.3795 46.6641 52.3942 46.678 52.4227C46.7771 53.0463 47.315 53.5151 47.9668 53.5151H61.7904V44.459C61.7904 43.0821 60.6858 41.9754 59.3116 41.9754Z" fill="#E51635"/>
<path fill-rule="evenodd" clip-rule="evenodd" d="M86.1658 24.6619C86.1658 23.2853 85.0465 22.178 83.6728 22.178H83.6442H78.0188C77.5368 22.178 77.2961 22.4193 77.0412 22.8022C77.0272 22.8164 75.3981 25.1729 75.3981 25.1729H80.854C81.4773 25.2016 81.973 25.7125 81.973 26.3509V33.7178H86.1658V24.6904V24.6619ZM71.2058 17.9767H75.3981V33.7178H71.2058V17.9767Z" fill="#656262"/>
<path fill-rule="evenodd" clip-rule="evenodd" d="M59.5705 29.5449H59.5847C59.5847 30.1978 60.1114 30.7229 60.7663 30.7229L68.5992 30.7224V33.7178H57.8336C56.4673 33.7178 55.3428 32.6105 55.3428 31.2339V31.2054V22.6934V24.4652C55.3428 23.0885 56.4673 21.981 57.8336 21.981H68.574L67.9131 23.6274C67.7732 23.9745 67.7007 24.2695 67.3827 24.4936C67.1556 24.654 66.9635 24.7657 66.6713 24.7657H60.7663C60.1114 24.7657 59.5847 25.2908 59.5847 25.944H59.5705V29.5449Z" fill="#656262"/>
<path fill-rule="evenodd" clip-rule="evenodd" d="M40.759 33.5732H49.7284C50.1956 33.5732 50.6487 33.346 50.9039 32.9772L52.5469 30.5781H43.5067C42.898 30.55 42.4018 30.0245 42.4018 29.4001V24.8155H49.0059V26.1355C49.0059 26.391 48.7936 26.6038 48.5384 26.6038H44.1445V28.3073C44.1445 28.7187 44.3994 28.9458 44.7534 28.9458H51.1162C51.9943 28.9458 52.6883 28.2507 52.6883 27.3847V23.1971C52.6883 23.1689 52.6883 23.1549 52.6741 23.1265C52.5751 22.5018 52.0368 22.0335 51.3856 22.0335H39.8156H38.2805V23.5073V31.0891C38.2805 32.466 39.3854 33.5732 40.759 33.5732Z" fill="#656262"/>
</svg>
