<svg width="39" height="39" viewBox="0 0 39 39" fill="none" xmlns="http://www.w3.org/2000/svg">
<path d="M0.238144 13.469L11.5103 2.23729C11.6691 2.0791 11.9072 2 12.1454 2H30.1649C30.5619 2 30.8 2.31639 30.8 2.63277V20.5877C30.8 20.825 30.7206 21.0623 30.5619 21.2205L19.2897 32.4522C19.1309 32.6104 18.8928 32.6895 18.6546 32.6895H0.635052C0.317526 32.6895 0 32.3731 0 32.0567V14.1018C0 13.8645 0.0793815 13.6272 0.238144 13.469Z" fill="#3631FF"/>
<path d="M18.6545 25.4123H15.3999C15.1617 25.4123 15.003 25.2541 15.003 25.0169V18.0564C15.003 17.8191 14.8442 17.6609 14.6061 17.6609H7.69989C7.46174 17.6609 7.30298 17.5027 7.30298 17.2654V14.0224C7.30298 13.7851 7.46174 13.627 7.69989 13.627H18.6545C18.8927 13.627 19.0514 13.7851 19.0514 14.0224V24.9378C19.0514 25.2541 18.8927 25.4123 18.6545 25.4123Z" fill="#FFFF00"/>
<path d="M10.2401 25.3333L18.1782 17.4236C18.337 17.2654 18.337 17.0282 18.1782 16.87L15.8762 14.5762C15.7174 14.418 15.4793 14.418 15.3205 14.5762L7.38236 22.4858C7.30298 22.5649 7.30298 22.644 7.30298 22.7231V25.0169C7.30298 25.2542 7.46174 25.4124 7.69989 25.4124H10.0019C10.0813 25.4124 10.1607 25.4124 10.2401 25.3333Z" fill="#FFFF00"/>
</svg>
