<svg width="32" height="32" viewBox="0 0 32 32" fill="none" xmlns="http://www.w3.org/2000/svg">
<path d="M22 30H20V25C19.9984 23.6744 19.4711 22.4036 18.5338 21.4662C17.5964 20.5289 16.3256 20.0016 15 20H9C7.67441 20.0016 6.40356 20.5289 5.46622 21.4662C4.52888 22.4036 4.00159 23.6744 4 25V30H2V25C2.00265 23.1443 2.74099 21.3654 4.05317 20.0532C5.36536 18.741 7.1443 18.0026 9 18H15C16.8557 18.0026 18.6346 18.741 19.9468 20.0532C21.259 21.3654 21.9974 23.1443 22 25V30ZM12 4C12.9889 4 13.9556 4.29324 14.7779 4.84265C15.6001 5.39206 16.241 6.17295 16.6194 7.08658C16.9978 8.00021 17.0969 9.00555 16.9039 9.97545C16.711 10.9454 16.2348 11.8363 15.5355 12.5355C14.8363 13.2348 13.9454 13.711 12.9755 13.9039C12.0055 14.0969 11.0002 13.9978 10.0866 13.6194C9.17295 13.241 8.39206 12.6001 7.84265 11.7779C7.29324 10.9556 7 9.98891 7 9C7 7.67392 7.52678 6.40215 8.46447 5.46447C9.40215 4.52678 10.6739 4 12 4ZM12 2C10.6155 2 9.26215 2.41054 8.11101 3.17971C6.95986 3.94888 6.06266 5.04213 5.53284 6.32122C5.00303 7.6003 4.86441 9.00776 5.1345 10.3656C5.4046 11.7235 6.07128 12.9708 7.05025 13.9497C8.02922 14.9287 9.2765 15.5954 10.6344 15.8655C11.9922 16.1356 13.3997 15.997 14.6788 15.4672C15.9579 14.9373 17.0511 14.0401 17.8203 12.889C18.5895 11.7378 19 10.3845 19 9C19 7.14348 18.2625 5.36301 16.9497 4.05025C15.637 2.7375 13.8565 2 12 2Z" fill="#1D1A3F"/>
<path d="M26.593 13L25 10L23.5 13L20 13.414L22.5 15.667L22 19L25 17.125L28 19L27.5 15.667L30 13.414L26.593 13Z" fill="#FF6633"/>
</svg>
