<svg width="32" height="32" viewBox="0 0 32 32" fill="none" xmlns="http://www.w3.org/2000/svg">
<path d="M17.3998 17.9998L22.9332 14.4665C23.3554 14.2221 23.5665 13.8443 23.5665 13.3332C23.5665 12.8221 23.3554 12.4443 22.9332 12.1998L17.3998 8.6665C16.9554 8.37761 16.4998 8.35539 16.0332 8.59984C15.5665 8.84428 15.3332 9.23317 15.3332 9.7665V16.8998C15.3332 17.4332 15.5665 17.8221 16.0332 18.0665C16.4998 18.3109 16.9554 18.2887 17.3998 17.9998ZM10.6665 23.9998C9.93317 23.9998 9.30561 23.7389 8.78384 23.2172C8.26117 22.6945 7.99984 22.0665 7.99984 21.3332V5.33317C7.99984 4.59984 8.26117 3.97184 8.78384 3.44917C9.30561 2.92739 9.93317 2.6665 10.6665 2.6665H26.6665C27.3998 2.6665 28.0278 2.92739 28.5505 3.44917C29.0723 3.97184 29.3332 4.59984 29.3332 5.33317V21.3332C29.3332 22.0665 29.0723 22.6945 28.5505 23.2172C28.0278 23.7389 27.3998 23.9998 26.6665 23.9998H10.6665ZM10.6665 21.3332H26.6665V5.33317H10.6665V21.3332ZM5.33317 29.3332C4.59984 29.3332 3.97228 29.0723 3.4505 28.5505C2.92784 28.0278 2.6665 27.3998 2.6665 26.6665V9.33317C2.6665 8.95539 2.7945 8.6385 3.0505 8.3825C3.30562 8.12739 3.62206 7.99984 3.99984 7.99984C4.37762 7.99984 4.6945 8.12739 4.9505 8.3825C5.20562 8.6385 5.33317 8.95539 5.33317 9.33317V26.6665H22.6665C23.0443 26.6665 23.3607 26.7945 23.6158 27.0505C23.8718 27.3056 23.9998 27.6221 23.9998 27.9998C23.9998 28.3776 23.8718 28.6941 23.6158 28.9492C23.3607 29.2052 23.0443 29.3332 22.6665 29.3332H5.33317ZM10.6665 5.33317V21.3332V5.33317Z" fill="#5551FF"/>
</svg>
