<svg width="170" height="70" viewBox="0 0 170 70" fill="none" xmlns="http://www.w3.org/2000/svg">
<path d="M120.877 27.4804C121.375 29.3691 123.32 30.5023 125.24 29.983C127.137 29.4872 128.275 27.5512 127.753 25.6389C127.255 23.7502 125.311 22.617 123.391 23.1364C121.517 23.6558 120.379 25.5917 120.877 27.4804Z" fill="#2A4C87"/>
<path d="M116.064 31.258C117.345 30.9039 118.127 29.5818 117.771 28.3069C117.416 27.0321 116.088 26.253 114.808 26.6071C113.527 26.9612 112.745 28.2833 113.1 29.5582C113.432 30.8331 114.76 31.5885 116.064 31.258Z" fill="#2A4C87"/>
<path d="M108.951 32.4854C109.899 32.2257 110.468 31.2577 110.207 30.3134C109.947 29.369 108.975 28.8024 108.026 29.0621C107.078 29.3218 106.509 30.2898 106.769 31.2341C107.03 32.1785 108.002 32.7451 108.951 32.4854Z" fill="#2A4C87"/>
<path d="M103.426 33.3121C104.019 33.1468 104.375 32.533 104.232 31.9427C104.09 31.3525 103.45 30.9984 102.857 31.14C102.264 31.3053 101.909 31.9191 102.051 32.5094C102.193 33.0996 102.81 33.4537 103.426 33.3121Z" fill="#2E4E88"/>
<path d="M118.245 20.3035C119.146 21.8381 121.114 22.3811 122.656 21.484C124.197 20.5869 124.742 18.6273 123.841 17.0928C122.94 15.5582 120.972 15.0152 119.431 15.9123C117.89 16.8095 117.344 18.769 118.245 20.3035Z" fill="#1F3D70"/>
<path d="M111.109 24.3876C111.725 25.4736 113.1 25.8278 114.191 25.2139C115.282 24.6001 115.637 23.2308 115.021 22.1448C114.404 21.0588 113.029 20.7047 111.938 21.3185C110.871 21.9323 110.492 23.3016 111.109 24.3876Z" fill="#1F3D70"/>
<path d="M106.034 25.4504C105.252 25.899 104.991 26.867 105.442 27.6461C105.892 28.4252 106.864 28.6848 107.647 28.2363C108.429 27.7877 108.69 26.8198 108.239 26.0407C107.813 25.2852 106.817 25.0255 106.034 25.4504Z" fill="#1F3D70"/>
<path d="M101.505 28.7085C101.008 28.9918 100.818 29.6293 101.102 30.125C101.387 30.6208 102.027 30.8097 102.525 30.5264C103.023 30.2431 103.213 29.6056 102.928 29.1099C102.644 28.6141 102.003 28.4252 101.505 28.7085Z" fill="#1F3D70"/>
<path d="M117.89 14.0002C119.028 12.8669 119.028 11.0491 117.89 9.91583C116.752 8.78261 114.926 8.78261 113.788 9.91583C112.65 11.0491 112.65 12.8669 113.788 14.0002C114.902 15.1334 116.752 15.1334 117.89 14.0002Z" fill="#194C88"/>
<path d="M110.8 16.9513C109.97 16.125 108.643 16.125 107.837 16.9513C107.007 17.7776 107.007 19.0997 107.837 19.9024C108.666 20.7287 109.994 20.7287 110.8 19.9024C111.63 19.0761 111.63 17.754 110.8 16.9513Z" fill="#194C88"/>
<path d="M103.213 22.4518C102.644 23.0184 102.644 23.9392 103.213 24.5058C103.782 25.0724 104.707 25.0724 105.276 24.5058C105.845 23.9392 105.845 23.0184 105.276 22.4754C104.707 21.8852 103.782 21.8852 103.213 22.4518Z" fill="#194C88"/>
<path d="M99.6327 28.0706C100.012 28.4483 100.629 28.4483 101.008 28.0706C101.387 27.6928 101.387 27.079 101.008 26.7013C100.629 26.3235 100.012 26.3235 99.6327 26.7013C99.2533 27.079 99.2533 27.6928 99.6327 28.0706Z" fill="#194C88"/>
<path d="M107.671 9.13641C108.975 9.89189 110.658 9.44332 111.417 8.14484C112.176 6.84636 111.725 5.17013 110.421 4.41465C109.117 3.65917 107.433 4.10774 106.675 5.40622C105.892 6.7047 106.343 8.38093 107.671 9.13641C107.671 9.13641 107.647 9.13641 107.671 9.13641Z" fill="#3468A3"/>
<path d="M102.763 13.7402C102.217 14.6609 102.549 15.8414 103.474 16.3844C104.399 16.9274 105.584 16.5968 106.129 15.6761C106.675 14.7554 106.343 13.5749 105.418 13.0319C104.47 12.4889 103.284 12.8194 102.763 13.7402Z" fill="#3468A3"/>
<path d="M101.482 19.7842C100.865 19.4301 100.083 19.6426 99.7273 20.2564C99.3717 20.8702 99.5851 21.6493 100.202 22.0034C100.818 22.3576 101.6 22.1451 101.956 21.5313C102.312 20.9174 102.098 20.1383 101.482 19.7842Z" fill="#3468A3"/>
<path d="M98.4944 24.9311C98.0676 24.695 97.5222 24.8367 97.2851 25.2616C97.048 25.6866 97.1903 26.2296 97.6171 26.4657C98.0439 26.7018 98.5892 26.5601 98.8263 26.1352C99.0634 25.7102 98.9212 25.1672 98.4944 24.9311Z" fill="#3468A3"/>
<path d="M100.462 5.99648C101.838 6.37422 103.26 5.54791 103.616 4.1786C103.995 2.80929 103.165 1.39277 101.79 1.03863C100.415 0.684503 98.9923 1.4872 98.6367 2.85651C98.2573 4.22582 99.0872 5.64235 100.462 5.99648Z" fill="#4C8DCB"/>
<path d="M98.281 14.0708C99.2294 14.3305 100.202 13.7639 100.462 12.8196C100.723 11.8752 100.154 10.9072 99.2057 10.6475C98.2572 10.3879 97.2851 10.9545 97.0243 11.8988C96.7872 12.8432 97.3325 13.8111 98.281 14.0708Z" fill="#4C8DCB"/>
<path d="M96.5739 20.4452C97.2141 20.6105 97.878 20.2327 98.044 19.5953C98.21 18.9579 97.8306 18.2968 97.1904 18.1316C96.5502 17.9663 95.8863 18.344 95.7203 18.9815C95.5544 19.5953 95.9337 20.2563 96.5739 20.4452Z" fill="#4C8DCB"/>
<path d="M94.6771 24.4116C94.5585 24.8365 94.8194 25.2851 95.2462 25.4031C95.6729 25.5212 96.1235 25.2615 96.242 24.8365C96.3606 24.4116 96.0997 23.963 95.6729 23.8449C95.2224 23.7269 94.7719 23.9866 94.6771 24.4116Z" fill="#4C8DCB"/>
<path d="M92.638 4.81619C93.9658 4.81619 95.0565 3.73019 95.0565 2.40809C95.0565 1.086 93.9658 0 92.638 0C91.3102 0 90.2195 1.086 90.2195 2.40809C90.2195 3.75379 91.3102 4.81619 92.638 4.81619Z" fill="#3498B3"/>
<path d="M92.638 9.96289C91.737 9.96289 91.0256 10.6712 91.0256 11.5683C91.0256 12.4654 91.737 13.1737 92.638 13.1737C93.539 13.1737 94.2503 12.4654 94.2503 11.5683C94.2503 10.6948 93.539 9.96289 92.638 9.96289Z" fill="#3498B3"/>
<path d="M93.776 18.7216C93.776 18.1078 93.2781 17.5884 92.6379 17.5884C91.9977 17.5884 91.4998 18.0842 91.4998 18.7216C91.4998 19.359 91.9977 19.8548 92.6379 19.8548C93.2781 19.8548 93.776 19.3354 93.776 18.7216Z" fill="#3498B3"/>
<path d="M92.6379 23.5381C92.2348 23.5381 91.9028 23.8686 91.9028 24.27C91.9028 24.6713 92.2348 25.0018 92.6379 25.0018C93.0409 25.0018 93.3729 24.6713 93.3729 24.27C93.3729 23.8686 93.0409 23.5381 92.6379 23.5381Z" fill="#3498B3"/>
<path d="M84.7422 5.71331C85.9514 5.38279 86.6628 4.15513 86.3308 2.95108C85.9989 1.74704 84.7659 1.03877 83.5567 1.3693C82.3474 1.69982 81.6361 2.92748 81.968 4.13152C82.3 5.31196 83.5567 6.02023 84.7422 5.71331Z" fill="#0AA496"/>
<path d="M85.1453 12.7486C85.3587 13.5277 86.1411 13.9763 86.9236 13.7638C87.706 13.5513 88.1565 12.7722 87.9432 11.9932C87.7298 11.2141 86.9473 10.7655 86.1648 10.978C85.4061 11.1905 84.9319 11.9932 85.1453 12.7486Z" fill="#0AA496"/>
<path d="M87.3978 19.5719C87.54 20.1385 88.1328 20.469 88.6781 20.3037C89.2472 20.1621 89.5792 19.5719 89.4132 19.0289C89.2709 18.4623 88.6781 18.1317 88.1328 18.297C87.5637 18.4387 87.2555 19.0053 87.3978 19.5719Z" fill="#0AA496"/>
<path d="M89.2236 24.8126C89.3184 25.1667 89.6741 25.3556 90.006 25.2611C90.3617 25.1667 90.5514 24.8126 90.4565 24.482C90.3617 24.1279 90.006 23.939 89.6741 24.0335C89.3421 24.1279 89.1287 24.4584 89.2236 24.8126Z" fill="#0AA496"/>
<path d="M77.3208 8.6171C78.3166 8.05049 78.6723 6.75201 78.1032 5.76044C77.5342 4.76887 76.2301 4.41474 75.2342 4.98135C74.2384 5.54796 73.8827 6.84644 74.4518 7.83801C75.0445 8.85319 76.3249 9.18371 77.3208 8.6171Z" fill="#00AA75"/>
<path d="M81.5176 15.8413C82.1341 15.4872 82.3475 14.7081 81.9918 14.0943C81.6361 13.4805 80.8537 13.268 80.2372 13.6221C79.6207 13.9762 79.4073 14.7553 79.763 15.3692C80.0949 15.983 80.9011 16.1955 81.5176 15.8413Z" fill="#00AA75"/>
<path d="M84.932 21.7672C85.4062 21.5075 85.5485 20.9172 85.2877 20.4451C85.0268 19.9729 84.4341 19.8312 83.9599 20.0909C83.4856 20.3506 83.3434 20.9409 83.6042 21.413C83.8887 21.8616 84.4815 22.0269 84.932 21.7672Z" fill="#00AA75"/>
<path d="M87.7299 25.4502C87.5639 25.1905 87.232 25.096 86.9474 25.2377C86.6866 25.4029 86.5918 25.7335 86.7341 26.0168C86.9 26.2765 87.232 26.3709 87.4928 26.2292C87.801 26.064 87.8959 25.7098 87.7299 25.4502Z" fill="#00AA75"/>
<path d="M70.8476 13.3628C71.6063 12.6074 71.6063 11.3797 70.8476 10.6242C70.0888 9.86875 68.8559 9.86875 68.0971 10.6242C67.3384 11.3797 67.3384 12.6074 68.0971 13.3628C68.8796 14.1183 70.1125 14.1183 70.8476 13.3628Z" fill="#4FBA6A"/>
<path d="M76.7991 17.6831C76.3486 17.2345 75.6372 17.2345 75.2104 17.6831C74.7599 18.1317 74.7599 18.8399 75.2104 19.2649C75.6609 19.7135 76.3723 19.7135 76.7991 19.2649C77.2258 18.8163 77.2258 18.1081 76.7991 17.6831Z" fill="#4FBA6A"/>
<path d="M81.7073 22.9004C81.3516 22.5462 80.8062 22.5462 80.4506 22.9004C80.0949 23.2545 80.0949 23.7975 80.4506 24.1516C80.8062 24.5058 81.3516 24.5058 81.7073 24.1516C82.0392 23.7975 82.0392 23.2545 81.7073 22.9004Z" fill="#4FBA6A"/>
<path d="M85.3586 27.1031C85.1689 26.9142 84.8607 26.9378 84.6947 27.1267C84.505 27.3155 84.5287 27.6224 84.7184 27.7877C84.9081 27.953 85.1926 27.953 85.3823 27.7877C85.5483 27.5988 85.5483 27.2919 85.3586 27.1031Z" fill="#4FBA6A"/>
<path d="M63.3552 20.2325C64.2088 20.7283 65.2995 20.4214 65.7737 19.5951C66.2716 18.7452 65.9634 17.6592 65.1335 17.187C64.2799 16.6912 63.1892 16.9981 62.715 17.8245C62.2171 18.6508 62.5016 19.7368 63.3552 20.2325Z" fill="#7EC45F"/>
<path d="M72.7447 22.4994C72.2705 22.2397 71.7014 22.405 71.4169 22.8535C71.1561 23.3257 71.3221 23.8923 71.7726 24.1756C72.2468 24.4353 72.8159 24.2937 73.1004 23.8215C73.3612 23.3493 73.1952 22.7591 72.7447 22.4994Z" fill="#7EC45F"/>
<path d="M78.8856 26.2056C78.5063 25.9932 78.0083 26.1112 77.7949 26.5125C77.5816 26.8903 77.7001 27.3861 78.1032 27.5985C78.4826 27.811 78.9805 27.693 79.1939 27.3152C79.4073 26.9375 79.265 26.4417 78.8856 26.2056Z" fill="#7EC45F"/>
<path d="M125.454 31.1401C123.32 31.1401 121.565 32.8636 121.565 35.012C121.565 37.1368 123.296 38.8838 125.454 38.8838C127.587 38.8838 129.318 37.1604 129.342 35.0356C129.318 32.8872 127.587 31.1401 125.454 31.1401Z" fill="#4C609B"/>
<path d="M119.028 35.0117C119.028 33.4772 117.795 32.2495 116.254 32.2495C114.712 32.2495 113.479 33.4772 113.479 35.0117C113.479 36.5463 114.712 37.774 116.254 37.774C117.771 37.774 119.028 36.5463 119.028 35.0117Z" fill="#4C609B"/>
<path d="M109.069 33.123C108.026 33.123 107.173 33.973 107.173 35.0117C107.173 36.0505 108.026 36.9005 109.069 36.9005C110.113 36.9005 110.966 36.0505 110.966 35.0117C110.966 33.973 110.113 33.123 109.069 33.123Z" fill="#4C609B"/>
<path d="M104.73 35.0118C104.73 34.3272 104.185 33.7842 103.497 33.7842C102.81 33.7842 102.264 34.3272 102.264 35.0118C102.264 35.6965 102.81 36.2395 103.497 36.2395C104.185 36.2395 104.73 35.6965 104.73 35.0118Z" fill="#54669F"/>
<path d="M125.24 40.0168C123.343 39.4974 121.399 40.6306 120.877 42.5193C120.356 44.408 121.494 46.3439 123.391 46.8633C125.288 47.3827 127.232 46.2495 127.754 44.3608V44.3372C128.251 42.4721 127.113 40.5362 125.24 40.0168Z" fill="#746FA7"/>
<path d="M114.807 43.3928C116.088 43.7469 117.415 42.9678 117.771 41.693C118.127 40.4181 117.344 39.096 116.064 38.7419C114.784 38.3877 113.456 39.1668 113.1 40.4417C112.744 41.7166 113.503 43.0387 114.807 43.3928Z" fill="#746FA7"/>
<path d="M108.026 40.9375C108.975 41.1972 109.947 40.6306 110.208 39.6863C110.469 38.7419 109.899 37.7739 108.951 37.5142C108.003 37.2546 107.03 37.8212 106.77 38.7655C106.533 39.7099 107.078 40.6778 108.026 40.9375Z" fill="#746FA7"/>
<path d="M102.833 38.8835C103.426 39.0487 104.043 38.6946 104.209 38.0808C104.375 37.4905 104.019 36.8767 103.403 36.7114C102.81 36.5462 102.193 36.9003 102.027 37.5141C101.861 38.0808 102.217 38.7182 102.833 38.8835Z" fill="#746FA7"/>
<path d="M122.656 48.5158C121.114 47.6187 119.146 48.1617 118.245 49.6963C117.344 51.2308 117.89 53.1904 119.431 54.0875C120.972 54.9846 122.94 54.4416 123.841 52.9071C124.719 51.3725 124.197 49.413 122.656 48.5158Z" fill="#99558E"/>
<path d="M115.045 47.8549C115.661 46.7689 115.305 45.3996 114.215 44.7858C113.124 44.172 111.749 44.5261 111.132 45.6121C110.516 46.6981 110.871 48.0674 111.962 48.6812C113.029 49.2951 114.404 48.9173 115.045 47.8549Z" fill="#99558E"/>
<path d="M108.239 43.9595C108.69 43.1804 108.429 42.2125 107.647 41.7639C106.864 41.3153 105.892 41.575 105.442 42.3541C104.991 43.1332 105.252 44.1012 106.034 44.5498C106.817 44.9747 107.789 44.715 108.239 43.9595Z" fill="#99558E"/>
<path d="M102.952 40.8903C103.237 40.3945 103.071 39.7571 102.573 39.4502C102.075 39.1669 101.435 39.3321 101.126 39.8279C100.818 40.3237 101.008 40.9611 101.506 41.2681H101.529C102.027 41.5514 102.668 41.3861 102.952 40.8903Z" fill="#99558E"/>
<path d="M113.764 56.0002C112.626 57.1334 112.626 58.9513 113.764 60.0845C114.902 61.2177 116.728 61.2177 117.866 60.0845C119.004 58.9513 119.004 57.1334 117.866 56.0002C116.752 54.8906 114.902 54.8906 113.764 56.0002Z" fill="#AF3379"/>
<path d="M110.8 53.0489C111.63 52.2225 111.63 50.9005 110.8 50.0978C109.97 49.2715 108.643 49.2715 107.837 50.0978C107.007 50.9241 107.007 52.2462 107.837 53.0489C108.643 53.8752 109.97 53.8752 110.8 53.0489Z" fill="#AF3379"/>
<path d="M105.276 47.5478C105.845 46.9812 105.845 46.0604 105.276 45.4938C104.707 44.9272 103.782 44.9272 103.213 45.4938C102.644 46.0604 102.644 46.9812 103.213 47.5242C103.782 48.1144 104.707 48.1144 105.276 47.5478Z" fill="#AF3379"/>
<path d="M99.6327 43.2747C100.012 43.6524 100.629 43.6524 101.008 43.2747C101.387 42.8969 101.387 42.2831 101.008 41.9054C100.629 41.5276 100.012 41.5276 99.6327 41.9054C99.2533 42.2831 99.2533 42.8969 99.6327 43.2747Z" fill="#AF3379"/>
<path d="M107.67 60.8634C106.366 61.6189 105.916 63.2951 106.675 64.5936C107.433 65.8921 109.117 66.3406 110.421 65.5851C111.725 64.8297 112.175 63.1534 111.417 61.855C110.658 60.5565 108.974 60.1079 107.67 60.8634Z" fill="#BE266A"/>
<path d="M106.106 54.3476C105.56 53.4269 104.398 53.0963 103.45 53.6393C102.525 54.1823 102.193 55.3392 102.739 56.2835C103.284 57.2043 104.446 57.5348 105.394 56.9918C106.319 56.4488 106.651 55.2683 106.106 54.3476Z" fill="#BE266A"/>
<path d="M101.482 50.2158C102.098 49.8617 102.312 49.0826 101.956 48.4688C101.6 47.855 100.818 47.6425 100.202 47.9966C99.5851 48.3507 99.3717 49.1298 99.7273 49.7437C100.083 50.3575 100.865 50.57 101.482 50.2158Z" fill="#BE266A"/>
<path d="M97.6171 43.5346C97.1903 43.7707 97.048 44.3137 97.2851 44.7387C97.5222 45.1636 98.0676 45.3053 98.4944 45.0692C98.9212 44.8331 99.0634 44.2901 98.8263 43.8652C98.5892 43.4402 98.0439 43.2985 97.6171 43.5346Z" fill="#BE266A"/>
<path d="M100.462 64.0032C99.0872 64.381 98.2573 65.7739 98.6367 67.1432C99.0161 68.5125 100.415 69.3388 101.79 68.9611C103.165 68.5833 103.995 67.1904 103.616 65.8211C103.26 64.4518 101.838 63.6255 100.462 64.0032Z" fill="#D4525C"/>
<path d="M99.2057 59.3286C100.154 59.0689 100.723 58.101 100.462 57.1566C100.202 56.2123 99.2294 55.6457 98.281 55.9054C97.3325 56.1651 96.7872 57.133 97.0243 58.0774C97.2851 59.0453 98.2572 59.5883 99.2057 59.3286Z" fill="#D4525C"/>
<path d="M98.044 50.4048C97.878 49.7674 97.2141 49.3896 96.5739 49.5549C95.9337 49.7202 95.5544 50.3812 95.7203 51.0186C95.8863 51.6561 96.5502 52.0338 97.1904 51.8686C97.8543 51.7269 98.2337 51.0659 98.044 50.4048Z" fill="#D4525C"/>
<path d="M96.2181 45.1635C96.0995 44.7385 95.649 44.4789 95.2222 44.5969C94.7954 44.7149 94.5346 45.1635 94.6532 45.5885C94.7717 46.0134 95.1985 46.2731 95.649 46.1551C96.0758 46.037 96.3366 45.5885 96.2181 45.1635Z" fill="#D4525C"/>
<path d="M92.638 65.1836C91.3102 65.1836 90.2195 66.2696 90.2195 67.5917C90.2195 68.9138 91.3102 69.9998 92.638 69.9998C93.9658 69.9998 95.0565 68.9374 95.0565 67.5917C95.0565 66.2696 93.9895 65.1836 92.638 65.1836Z" fill="#E0654F"/>
<path d="M91.0256 58.4316C91.0256 59.3287 91.737 60.037 92.638 60.037C93.539 60.037 94.2503 59.3287 94.2503 58.4316C94.2503 57.5344 93.539 56.8262 92.638 56.8262C91.7607 56.8262 91.0256 57.5344 91.0256 58.4316Z" fill="#E0654F"/>
<path d="M92.6379 52.388C93.2544 52.388 93.776 51.8922 93.776 51.2548C93.776 50.6174 93.2781 50.1216 92.6379 50.1216C92.0214 50.1216 91.4998 50.6174 91.4998 51.2548C91.5235 51.8922 92.0214 52.388 92.6379 52.388Z" fill="#E0654F"/>
<path d="M92.6379 44.998C92.2348 44.998 91.9028 45.3286 91.9028 45.7299C91.9028 46.1313 92.2348 46.4618 92.6379 46.4618C93.0409 46.4618 93.3729 46.1313 93.3729 45.7299C93.3729 45.3286 93.0409 44.998 92.6379 44.998Z" fill="#E0654F"/>
<path d="M84.7423 64.2866C83.533 63.9561 82.3001 64.688 81.9681 65.8684C81.6362 67.0725 82.3712 68.3001 83.5568 68.6307C84.766 68.9612 85.999 68.2293 86.3309 67.0489C86.6629 65.8448 85.9515 64.6172 84.7423 64.2866Z" fill="#F57F2A"/>
<path d="M86.9236 56.2127C86.1411 56.0002 85.3587 56.4724 85.1453 57.2279C84.9319 58.007 85.4061 58.786 86.1648 58.9985C86.9473 59.211 87.7298 58.7388 87.9432 57.9833C88.1565 57.2279 87.706 56.4252 86.9236 56.2127Z" fill="#F57F2A"/>
<path d="M88.6783 49.6964C88.1093 49.5547 87.5402 49.8853 87.3979 50.4283C87.2557 50.9949 87.5876 51.5615 88.133 51.7031C88.702 51.8448 89.2711 51.5143 89.4134 50.9713C89.5793 50.4283 89.2474 49.8616 88.6783 49.6964Z" fill="#F57F2A"/>
<path d="M90.4802 45.518C90.5751 45.1639 90.3617 44.8097 90.0297 44.7389C89.6978 44.6681 89.3184 44.857 89.2473 45.1875C89.1762 45.518 89.3658 45.8958 89.6978 45.9666C90.0297 46.061 90.3854 45.8721 90.4802 45.518Z" fill="#F57F2A"/>
<path d="M77.3208 61.3828C76.325 60.8162 75.0446 61.1467 74.4518 62.1383C73.8828 63.1298 74.2147 64.4047 75.2106 64.9949C76.2064 65.5615 77.4868 65.231 78.0796 64.2394C78.6724 63.2479 78.3167 61.973 77.3208 61.3828Z" fill="#F89828"/>
<path d="M81.5176 54.1582C80.9011 53.8041 80.1186 54.0166 79.763 54.6304C79.4073 55.2442 79.6207 56.0233 80.2372 56.3775C80.8537 56.7316 81.6361 56.5191 81.9918 55.9053C82.3475 55.2915 82.1341 54.5124 81.5176 54.1582Z" fill="#F89828"/>
<path d="M83.9833 49.9088C84.4575 50.1685 85.0503 50.0268 85.3111 49.5546C85.5719 49.0825 85.4296 48.4922 84.9554 48.2325C84.4812 47.9728 83.8884 48.1145 83.6276 48.5867C83.3668 49.0588 83.5091 49.6491 83.9833 49.9088Z" fill="#F89828"/>
<path d="M87.5399 43.7708C87.2791 43.6055 86.9234 43.6999 86.7811 43.9833C86.6152 44.2429 86.71 44.5971 86.9945 44.7387C87.2553 44.904 87.611 44.8096 87.7533 44.5263C87.8955 44.2902 87.8007 43.936 87.5399 43.7708Z" fill="#F89828"/>
<path d="M68.1211 56.6374C67.3623 57.3929 67.3623 58.6205 68.1211 59.376C68.8798 60.1315 70.1128 60.1315 70.8715 59.376C71.6303 58.6205 71.6303 57.3929 70.8715 56.6374C70.1128 55.8819 68.8798 55.8819 68.1211 56.6374Z" fill="#FEC127"/>
<path d="M75.2104 50.7354C74.7599 51.1839 74.7599 51.8922 75.2104 52.3171C75.6609 52.7657 76.3723 52.7657 76.7991 52.3171C77.2259 51.8686 77.2496 51.1603 76.7991 50.7354C76.3723 50.2868 75.6372 50.2868 75.2104 50.7354Z" fill="#FEC127"/>
<path d="M80.4506 45.8481C80.0949 46.2022 80.0949 46.7453 80.4506 47.0994C80.8062 47.4535 81.3516 47.4535 81.7073 47.0994C82.0629 46.7453 82.0629 46.2022 81.7073 45.8481C81.3516 45.494 80.7825 45.494 80.4506 45.8481Z" fill="#FEC127"/>
<path d="M85.3586 42.2124C85.1689 42.0236 84.8607 42.0472 84.6947 42.236C84.505 42.4249 84.5287 42.7318 84.7184 42.8971C84.9081 43.0623 85.1926 43.0623 85.3823 42.8971C85.5483 42.7082 85.5483 42.4013 85.3586 42.2124Z" fill="#FEC127"/>
<path d="M63.4025 49.72C62.5489 50.2158 62.2644 51.2782 62.7623 52.1281C63.2603 52.978 64.3273 53.2613 65.1808 52.7656C66.0344 52.2698 66.319 51.2074 65.821 50.3575C65.3468 49.5076 64.2561 49.2242 63.4025 49.72Z" fill="#FED627"/>
<path d="M71.7726 45.8246C71.3221 46.0843 71.1561 46.6745 71.4169 47.1467C71.6777 47.5952 72.2705 47.7605 72.7447 47.5008C73.1952 47.2411 73.3612 46.6509 73.1004 46.1787C72.8396 45.7301 72.2468 45.5649 71.7726 45.8246Z" fill="#FED627"/>
<path d="M78.0794 42.4016C77.7 42.614 77.5578 43.1098 77.7949 43.4876C78.0083 43.8653 78.5062 44.0069 78.8856 43.7709C79.2649 43.5584 79.4072 43.0626 79.1701 42.6849C78.9567 42.3071 78.4588 42.1655 78.0794 42.4016Z" fill="#FED627"/>
<path d="M59.7985 29.393H62.6438V40.3003H59.7985V29.393ZM61.5294 24.5296C60.6521 24.2935 59.7511 24.8129 59.5139 25.6865C59.2768 26.56 59.7985 27.4571 60.6758 27.6932C61.5531 27.9293 62.4541 27.4099 62.6912 26.5364C62.9283 25.6628 62.4067 24.7421 61.5294 24.5296ZM71.4405 40.5364C70.7528 40.5364 70.0652 40.4183 69.425 40.135C68.856 39.8753 68.3581 39.474 67.9787 38.9782V45.7539H65.2045V29.393H67.955V30.904C68.3106 30.361 68.8086 29.936 69.4013 29.6291C70.0178 29.3222 70.7054 29.1569 71.4167 29.1569C72.1044 29.1569 72.7683 29.2986 73.4084 29.5583C74.0486 29.818 74.6177 30.2193 75.0919 30.6915C75.5898 31.2109 75.9929 31.8247 76.2537 32.4858C76.562 33.2413 76.7042 34.0203 76.6805 34.823C76.7042 35.6257 76.5383 36.4284 76.23 37.1839C75.9455 37.845 75.5424 38.4588 75.0445 38.9782C74.1198 39.9698 72.792 40.5364 71.4405 40.5364ZM70.8714 37.8922C71.2745 37.8922 71.6776 37.8214 72.0569 37.6561C72.4126 37.4908 72.7445 37.2784 73.0291 36.9951C73.3136 36.7117 73.527 36.3812 73.6693 36.0271C73.9775 35.248 73.9775 34.3981 73.6693 33.619C73.527 33.2649 73.2899 32.9343 73.0291 32.651C72.7445 32.3677 72.4126 32.1553 72.0569 31.99C71.6776 31.8247 71.2745 31.7539 70.8714 31.7539C70.0652 31.7539 69.2828 32.0844 68.69 32.651C68.4055 32.9343 68.1921 33.2649 68.0498 33.619C67.7416 34.3981 67.7416 35.248 68.0498 36.0035C68.1921 36.3576 68.4055 36.6881 68.69 36.9714C69.2828 37.5853 70.0652 37.9158 70.8714 37.8922ZM78.7197 29.393H81.4701V31.0693C81.7072 30.479 82.1103 29.9832 82.6556 29.6527C83.2247 29.3458 83.8412 29.1806 84.5051 29.2042C84.8607 29.2042 85.1927 29.2514 85.5246 29.3222C85.8092 29.393 86.0937 29.4875 86.3545 29.6291L85.335 32.3677C85.1453 32.2497 84.9319 32.1553 84.7185 32.0844C84.4339 32.0136 84.1494 31.9664 83.8649 31.9664C83.2247 31.9428 82.6082 32.1553 82.134 32.5566C81.7072 32.958 81.4938 33.619 81.4938 34.5161V40.2767H78.7197V29.393ZM92.543 40.5364C91.7606 40.5364 90.9781 40.3947 90.2431 40.0878C89.5555 39.8045 88.939 39.3795 88.3936 38.8601C87.3267 37.7978 86.7339 36.3576 86.7339 34.8467C86.7339 34.0912 86.8762 33.3357 87.1607 32.6274C87.4452 31.9428 87.8483 31.3289 88.3699 30.8096C90.6699 28.5903 94.3213 28.5903 96.6213 30.8096C97.6883 31.872 98.3047 33.3121 98.3047 34.823C98.3047 35.5785 98.1625 36.334 97.8542 37.0187C97.5697 37.7033 97.1429 38.3171 96.645 38.8365C96.1233 39.3559 95.5069 39.7809 94.7955 40.0642C94.1079 40.3711 93.3255 40.5364 92.543 40.5364ZM92.5667 37.8922C92.9698 37.8922 93.3729 37.8214 93.7523 37.6561C94.1079 37.4908 94.4162 37.2784 94.7007 37.0187C94.9852 36.7354 95.1986 36.4048 95.3409 36.0507C95.6491 35.2716 95.6491 34.4217 95.3409 33.6662C95.1986 33.3121 94.9852 32.9816 94.7007 32.6983C94.4162 32.415 94.1079 32.2025 93.7523 32.0608C92.9935 31.7303 92.1399 31.7303 91.4049 32.0608C91.0492 32.2261 90.741 32.4386 90.4565 32.6983C90.1719 32.9816 89.9586 33.3121 89.8163 33.6662C89.508 34.4453 89.508 35.2952 89.8163 36.0507C89.9586 36.4048 90.1719 36.7354 90.4565 37.0187C90.741 37.302 91.0492 37.5144 91.4049 37.6561C91.7606 37.7978 92.1637 37.8922 92.5667 37.8922ZM40 29.393H42.8453L45.0504 36.3576L47.6586 29.393H50.1245L52.6853 36.3576L54.9852 29.393H57.8305L54.1079 40.3003H51.476L48.8678 33.194L46.2359 40.3003H43.5566L40 29.393Z" fill="#351A55"/>
</svg>
