<svg width="47" height="47" fill="none" xmlns="http://www.w3.org/2000/svg"><path d="m23.5 14.5 1.912 3.667 4.088.506-3 2.753.6 4.074-3.6-2.292-3.6 2.292.6-4.074-3-2.753 4.2-.506 1.8-3.667Z" fill="#F63"/><path d="m23.5 37.5-8.436-9.949c-.117-.15-.233-.3-.348-.451a10.89 10.89 0 0 1-2.216-6.6 11 11 0 1 1 22 0c.004 2.382-.775 4.7-2.215 6.597l-.001.003s-.3.394-.345.447L23.5 37.5Zm-7.188-11.605c.002 0 .234.308.287.374l6.901 8.139 6.91-8.15c.044-.055.278-.365.279-.366A8.9 8.9 0 0 0 32.5 20.5a9 9 0 0 0-18 0 8.904 8.904 0 0 0 1.812 5.395Z" fill="#1D1A3F"/><rect x="1" y="1" width="45" height="45" rx="7.5" stroke="#CFCFCF"/></svg>