<svg width="53" height="45" fill="none" xmlns="http://www.w3.org/2000/svg"><g style="mix-blend-mode:multiply" opacity=".45" fill="#000"><path d="m44.545 40.058-7.286 3.456-1.135-35.586 7.293-3.456 1.128 35.586Z" style="mix-blend-mode:multiply" opacity=".45"/><path d="m36.692 13.176-7.286 3.456-1.583-1.575 7.294-3.456 1.575 1.575ZM40.29 23.24l-7.293 3.463-.067-2.232 7.286-3.456.074 2.224Z" style="mix-blend-mode:multiply" opacity=".45"/><path d="m33.376 16.692-7.286 3.456 3.314-3.516 7.286-3.456-3.314 3.516Zm6.839 4.323-7.286 3.456h-4.845l7.293-3.456h4.838Z" style="mix-blend-mode:multiply" opacity=".45"/><path d="m33.375 16.692-7.285 3.456-1.583-1.567 7.293-3.457 1.575 1.568Z" style="mix-blend-mode:multiply" opacity=".45"/><path d="m31.8 15.124-7.293 3.457 3.314-3.524 7.294-3.456-3.315 3.523Zm3.645 8.116-7.286 3.463-.075-2.232 7.293-3.456.068 2.224Z" style="mix-blend-mode:multiply" opacity=".45"/><path d="m40.288 23.239-7.293 3.464h-4.838l7.286-3.464h4.845ZM27.302 8.428l-7.286 3.464h-2.158l7.286-3.464h2.158Zm.165 4.987-7.294 3.456-.156-4.979 7.286-3.464.164 4.987Zm9.985 17.752-7.286 3.456-3.538-3.523 7.286-3.456 3.538 3.523Zm-1.47 1.56-7.286 3.464 1.47-1.568 7.287-3.456-1.47 1.56Z" style="mix-blend-mode:multiply" opacity=".45"/><path d="m25.301 13.415-7.286 3.456-.157-4.979 7.286-3.464.157 4.987Z" style="mix-blend-mode:multiply" opacity=".45"/><path d="M27.464 13.415 20.17 16.87h-2.157l7.286-3.456h2.165Zm8.519 19.312-7.286 3.464-3.546-3.523 7.294-3.457 3.538 3.516Z" style="mix-blend-mode:multiply" opacity=".45"/><path d="m32.445 29.211-7.294 3.457L26.63 31.1l7.286-3.456-1.471 1.567Zm-13.283-10.13a6.137 6.137 0 0 0-2.65.597l7.286-3.464a6.294 6.294 0 0 1 2.65-.59l-7.286 3.457 7.286-3.456a6.556 6.556 0 0 1 4.628 1.948l-7.286 3.456a6.569 6.569 0 0 0-4.628-1.948Zm4.63 1.949 7.293-3.457a6.957 6.957 0 0 1 2.038 4.696 6.398 6.398 0 0 1-3.598 6.039l-7.286 3.456a6.391 6.391 0 0 0 3.598-6.039 6.927 6.927 0 0 0-2.045-4.696Zm-2.635-5.711-7.287 3.456-3.538-3.516 7.286-3.464 3.539 3.524Z" style="mix-blend-mode:multiply" opacity=".45"/><path d="m19.67 16.886-7.286 3.457 1.485-1.568 7.286-3.456-1.485 1.567Zm8.622 14.229-7.286 3.456H18.84l7.286-3.456h2.165Zm.165 4.987-7.286 3.456-.164-4.987 7.286-3.456.164 4.987ZM16.141 13.37l-7.293 3.457 1.485-1.568 7.286-3.464-1.478 1.575Z" style="mix-blend-mode:multiply" opacity=".45"/><path d="m19.672 16.886-7.286 3.457-3.538-3.517 7.293-3.456 3.531 3.516Zm8.788 19.216-7.287 3.456h-2.172l7.286-3.456h2.172Zm-2.176 0-7.286 3.456-.157-4.987 7.286-3.456.157 4.987Zm3.24-7.794-7.286 3.456a6.168 6.168 0 0 1-2.658.598 6.808 6.808 0 0 1-6.666-6.615 6.406 6.406 0 0 1 3.598-6.046l7.286-3.464A6.42 6.42 0 0 0 20.2 22.29a6.808 6.808 0 0 0 6.666 6.636 6.167 6.167 0 0 0 2.658-.62Z" style="mix-blend-mode:multiply" opacity=".45"/><path d="m18.224 23.515-7.286 3.457-.067-2.218 7.286-3.463.067 2.224Zm3.566 5.898-7.285 3.456-1.583-1.575 7.286-3.456 1.583 1.575ZM43.417 4.472l-7.293 3.456H1.494l7.285-3.456h34.638Z" style="mix-blend-mode:multiply" opacity=".45"/><path d="m18.155 21.29-7.286 3.465H6.017l7.286-3.464h4.852Zm.319 11.639-7.286 3.456 3.315-3.516 7.286-3.456-3.315 3.516Z" style="mix-blend-mode:multiply" opacity=".45"/><path d="m18.224 23.515-7.286 3.457H6.086l7.293-3.457h4.845Zm-4.847 0-7.293 3.457-.067-2.218 7.286-3.463.074 2.224Zm5.098 9.414-7.286 3.456-1.583-1.567 7.286-3.464 1.583 1.575Zm-1.583-1.575-7.286 3.464 3.315-3.524 7.286-3.456-3.315 3.516Zm27.652 8.704-7.286 3.456H2.618l7.286-3.456h34.639Z" style="mix-blend-mode:multiply" opacity=".45"/><path d="M9.906 40.058 2.62 43.514 1.493 7.928 8.78 4.472l1.127 35.586Z" style="mix-blend-mode:multiply" opacity=".45"/><path d="M7.293 2.986h37.512l1.225 38.558H8.517L7.293 2.986Zm37.251 37.072L43.417 4.472H8.779l1.134 35.586h34.631Z" style="mix-blend-mode:multiply" opacity=".45"/><path d="m35.114 11.6 1.576 1.576-3.315 3.516-1.575-1.568 3.314-3.523Zm5.101 9.415.075 2.224h-4.845l-.067-2.224h4.837ZM27.301 8.428l.164 4.987H25.3l-.156-4.987H27.3Zm6.615 19.216 3.539 3.523-1.471 1.56-3.539-3.516 1.47-1.567ZM17.619 11.795l3.538 3.524-1.485 1.567-3.531-3.516 1.478-1.575Zm10.671 19.32.165 4.987h-2.172l-.157-4.987h2.165Zm-1.84-15.49a6.816 6.816 0 0 1 6.674 6.644 6.3 6.3 0 0 1-6.256 6.636 6.808 6.808 0 0 1-6.666-6.636 6.317 6.317 0 0 1 6.248-6.644Zm-8.297 5.665.067 2.225h-4.845l-.074-2.224h4.852Zm2.057 6.548 1.583 1.575-3.315 3.516-1.583-1.575 3.315-3.516Z" style="mix-blend-mode:multiply" opacity=".45"/><path d="M8.778 4.472h34.639l1.127 35.586H9.913L8.778 4.472Zm18.088 24.433a6.3 6.3 0 0 0 6.256-6.636 6.815 6.815 0 0 0-6.674-6.644 6.315 6.315 0 0 0-6.248 6.644 6.808 6.808 0 0 0 6.666 6.636Zm8.25-17.304L31.8 15.124l1.582 1.568 3.315-3.524-1.583-1.567Zm-16.64 21.328 3.314-3.516-1.582-1.575-3.315 3.516 1.583 1.575Zm-.859-21.134-1.493 1.575 3.539 3.516 1.492-1.567-3.538-3.524Zm18.364 20.94 1.493-1.568-3.538-3.524-1.493 1.568 3.538 3.524Zm-7.525 3.367-.156-4.987h-2.173l.157 4.987h2.172ZM40.29 23.239l-.075-2.24h-4.837l.067 2.24h4.845Zm-26.987-1.97.075 2.239h4.845l-.067-2.24h-4.853Zm11.84-12.87.157 4.986h2.165L27.3 8.398h-2.157ZM46.03 41.544 38.744 45H1.23l7.286-3.456H46.03Z" style="mix-blend-mode:multiply" opacity=".45"/><path d="M8.518 41.544 1.232 45 0 6.45l7.293-3.464 1.225 38.558Z" style="mix-blend-mode:multiply" opacity=".45"/></g><path d="m50.516 37.072-7.286 3.456-1.134-35.586 7.293-3.456 1.127 35.586Z" fill="#3631FF"/><path d="m42.663 10.19-7.285 3.456-1.583-1.575 7.293-3.456 1.575 1.575Zm3.599 10.063-7.293 3.464-.068-2.232 7.286-3.457.075 2.225Z" fill="#FF0"/><path d="m39.346 13.706-7.285 3.457 3.314-3.517 7.286-3.456-3.315 3.516Zm6.841 4.322L38.9 21.485h-4.845l7.293-3.457h4.838Z" fill="#FF0"/><path d="m39.347 13.706-7.286 3.456-1.582-1.567 7.293-3.457 1.575 1.568Z" fill="#3631FF"/><path d="m37.772 12.138-7.293 3.457 3.314-3.524 7.294-3.456-3.315 3.523Zm3.644 8.115-7.286 3.464-.074-2.232 7.293-3.457.067 2.225Zm4.844 0-7.294 3.464H34.13l7.286-3.464h4.845Z" fill="#3631FF"/><path d="m33.273 5.442-7.286 3.464H23.83l7.286-3.464h2.157Zm.165 4.987-7.293 3.456-.157-4.979 7.286-3.464.164 4.987Zm9.986 17.752-7.286 3.456-3.538-3.523 7.286-3.457 3.538 3.524Z" fill="#FF0"/><path d="m41.954 29.741-7.286 3.464 1.47-1.568 7.287-3.456-1.471 1.56Z" fill="#FF0"/><path d="m31.273 10.429-7.286 3.456-.157-4.979 7.286-3.464.157 4.987Z" fill="#3631FF"/><path d="m33.435 10.429-7.293 3.456h-2.158l7.286-3.456h2.165Zm8.52 19.312-7.286 3.464-3.546-3.523 7.293-3.457 3.539 3.516Z" fill="#3631FF"/><path d="m38.416 26.225-7.293 3.456 1.478-1.567 7.286-3.457-1.47 1.568Z" fill="#3631FF"/><path d="M25.134 16.095a6.136 6.136 0 0 0-2.65.597l7.285-3.464a6.292 6.292 0 0 1 2.65-.59l-7.285 3.457 7.285-3.456a6.553 6.553 0 0 1 4.629 1.948l-7.286 3.456a6.57 6.57 0 0 0-4.628-1.948Zm4.63 1.948 7.293-3.456a6.957 6.957 0 0 1 2.038 4.695 6.397 6.397 0 0 1-3.598 6.04l-7.286 3.456a6.39 6.39 0 0 0 3.598-6.04 6.928 6.928 0 0 0-2.045-4.695Zm-2.636-5.711-7.286 3.457-3.538-3.516 7.286-3.464 3.538 3.524Z" fill="#FF0"/><path d="m25.642 13.9-7.287 3.457 1.486-1.568 7.286-3.457-1.485 1.568Zm8.621 14.229-7.286 3.456h-2.165L32.1 28.13h2.164Z" fill="#FF0"/><path d="m34.429 33.115-7.286 3.457-.165-4.987 7.286-3.456.165 4.986Z" fill="#FF0"/><path d="m22.113 10.384-7.294 3.457 1.486-1.568 7.286-3.464-1.478 1.575Z" fill="#3631FF"/><path d="m25.644 13.9-7.286 3.457-3.539-3.516 7.294-3.457 3.53 3.516Zm8.787 19.215-7.286 3.457h-2.172l7.286-3.457h2.172Zm-2.176 0-7.286 3.457-.157-4.987L32.1 28.13l.156 4.986Zm3.24-7.793-7.286 3.456a6.167 6.167 0 0 1-2.657.597 6.808 6.808 0 0 1-6.667-6.614 6.405 6.405 0 0 1 3.598-6.046l7.287-3.464a6.42 6.42 0 0 0-3.599 6.054 6.808 6.808 0 0 0 6.667 6.636 6.164 6.164 0 0 0 2.657-.62Z" fill="#3631FF"/><path d="m24.196 20.53-7.286 3.456-.067-2.218 7.286-3.463.067 2.224Zm3.567 5.897-7.286 3.456-1.582-1.575 7.285-3.456 1.583 1.575Z" fill="#FF0"/><path d="m49.39 1.486-7.294 3.456H7.465l7.286-3.456h34.638Z" fill="#3631FF"/><path d="m24.127 18.305-7.286 3.463h-4.853l7.286-3.463h4.853Zm.319 11.638-7.286 3.456 3.315-3.516 7.286-3.456-3.315 3.516Z" fill="#FF0"/><path d="m24.196 20.53-7.286 3.456h-4.852l7.293-3.457h4.845Z" fill="#3631FF"/><path d="m19.349 20.53-7.293 3.456-.068-2.218 7.286-3.463.075 2.224Zm5.098 9.413-7.286 3.456-1.583-1.568 7.286-3.463 1.583 1.575Z" fill="#3631FF"/><path d="m22.864 28.368-7.286 3.463 3.315-3.523 7.286-3.456-3.315 3.516Z" fill="#3631FF"/><path d="m50.516 37.072-7.286 3.456H8.592l7.286-3.456h34.638Z" fill="#FF0"/><path d="m15.878 37.072-7.286 3.456L7.465 4.942l7.286-3.456 1.127 35.586Z" fill="#FF0"/><path d="M13.265 0h37.512l1.224 38.558H14.49L13.265 0Zm37.25 37.072L49.39 1.486H14.75l1.135 35.586h34.63Z" fill="#3631FF"/><path d="m41.086 8.615 1.575 1.575-3.314 3.516-1.575-1.568 3.314-3.523Zm5.101 9.413.075 2.225h-4.845l-.067-2.225h4.837ZM33.273 5.442l.164 4.987h-2.165l-.157-4.987h2.158Zm6.614 19.215 3.538 3.524-1.47 1.56-3.539-3.516 1.47-1.568ZM23.59 8.809l3.539 3.524-1.486 1.567-3.53-3.516L23.59 8.81Zm10.677 19.32.164 4.986h-2.173l-.156-4.986h2.165Zm-1.844-15.49a6.816 6.816 0 0 1 6.674 6.644 6.302 6.302 0 0 1-6.256 6.636 6.808 6.808 0 0 1-6.666-6.636 6.314 6.314 0 0 1 6.248-6.644Zm-8.298 5.666.067 2.224h-4.845l-.075-2.224h4.853Zm2.057 6.547 1.582 1.575-3.314 3.516-1.583-1.575 3.315-3.516Z" fill="#3631FF"/><path d="M14.749 1.486h34.638l1.128 35.586H15.884L14.749 1.486Zm18.088 24.433a6.3 6.3 0 0 0 6.256-6.637 6.816 6.816 0 0 0-6.674-6.643 6.317 6.317 0 0 0-6.248 6.643 6.809 6.809 0 0 0 6.666 6.637Zm8.25-17.304-3.315 3.523 1.582 1.568 3.315-3.524-1.583-1.567Zm-16.64 21.328 3.314-3.516-1.583-1.575-3.314 3.516 1.582 1.575Zm-.86-21.134-1.492 1.575 3.538 3.516 1.493-1.568-3.538-3.523Zm18.365 20.94 1.493-1.568-3.538-3.524-1.493 1.568 3.538 3.524Zm-7.525 3.366-.157-4.986h-2.172l.157 4.986h2.172ZM46.26 20.253l-.074-2.24h-4.838l.068 2.24h4.844Zm-26.986-1.97.075 2.239h4.844l-.067-2.24h-4.852Zm11.84-12.87.156 4.986h2.165l-.164-4.987h-2.157Z" fill="#FF0"/><path d="m52.002 38.558-7.286 3.456H7.203l7.286-3.456h37.513Z" fill="#3631FF"/><path d="m14.49 38.558-7.287 3.456-1.231-38.55L13.265 0l1.224 38.558Z" fill="#3631FF"/></svg>