<svg width="51" height="45" fill="none" xmlns="http://www.w3.org/2000/svg"><path d="M40.298 6.715a3.014 3.014 0 0 1 2.96 2.938 2.77 2.77 0 0 1-2.773 2.945 3.014 3.014 0 0 1-2.959-2.945 2.773 2.773 0 0 1 2.772-2.938Zm7.068 16.194a2.895 2.895 0 0 1 2.078.866 3.008 3.008 0 0 1 .132 4.158 2.772 2.772 0 0 1-2.002.859 2.896 2.896 0 0 1-2.08-.86 3.008 3.008 0 0 1-.138-4.157 2.721 2.721 0 0 1 2.01-.866ZM8.796 6.715a3.014 3.014 0 0 1 2.953 2.938 2.772 2.772 0 0 1-2.772 2.945A3.02 3.02 0 0 1 6.01 9.653a2.772 2.772 0 0 1 2.785-2.938Zm-6.02 16.194a2.897 2.897 0 0 1 2.079.866 3.007 3.007 0 0 1 .131 4.158 2.732 2.732 0 0 1-2.002.859 2.896 2.896 0 0 1-2.08-.86 3 3 0 0 1-.13-4.157 2.696 2.696 0 0 1 2.002-.866ZM24.363 0a2.904 2.904 0 0 1 2.079.86 3.007 3.007 0 0 1 .132 4.157 2.723 2.723 0 0 1-1.996.86 2.924 2.924 0 0 1-2.079-.86 3.014 3.014 0 0 1-.132-4.158A2.73 2.73 0 0 1 24.363 0ZM9.81 39.11a3.021 3.021 0 0 1 2.958 2.945A2.77 2.77 0 0 1 9.997 45a3.02 3.02 0 0 1-2.96-2.945A2.772 2.772 0 0 1 9.81 39.11Z" fill="#F9F9F9"/><g style="mix-blend-mode:multiply" opacity=".45" fill="#000"><path d="m27.83 19.59.13-.063.146-.069.146-.07.145-.069.153-.069.145-.07.139-.068.139-.063.194-.097.214-.097.215-.104.229-.11.222-.104.221-.104.208-.098.201-.097a.167.167 0 0 1 0 .105l-2.848 1.35a.166.166 0 0 0 0-.103Z" style="mix-blend-mode:multiply" opacity=".45"/><path d="M27.71 19.548h-.035l2.848-1.351h.035a.153.153 0 0 1 .124.076l-2.848 1.386a.152.152 0 0 0-.125-.11Zm1.572 4.969-2.84 1.344 1.406-6.167 2.848-1.352-1.414 6.175Z" style="mix-blend-mode:multiply" opacity=".45"/><path d="m29.214 24.6-2.848 1.351a.117.117 0 0 0 .07-.09l2.848-1.344a.117.117 0 0 1-.07.083Z" style="mix-blend-mode:multiply" opacity=".45"/><path d="m29.213 24.6-2.848 1.351h-.062a.124.124 0 0 1-.09-.041l2.848-1.386c.023.025.056.04.09.041l.062.035Zm1.31-6.43-2.848 1.35-5.952 1.65 2.848-1.352 5.952-1.649Z" style="mix-blend-mode:multiply" opacity=".45"/><path d="m21.71 21.177 2.848-1.352-2.848 1.386v-.034Zm7.353 3.395-2.848 1.351-4.546-4.518 2.848-1.351 4.546 4.518Z" style="mix-blend-mode:multiply" opacity=".45"/><path d="m21.708 21.177 2.848-1.352a.145.145 0 0 0-.041.23l-2.848 1.385a.146.146 0 0 1-.03-.22.145.145 0 0 1 .071-.043Z" style="mix-blend-mode:multiply" opacity=".45"/><path d="M30.557 18.162a.146.146 0 0 1 .138.18l-1.386 6.175a.125.125 0 0 1-.131.097.132.132 0 0 1-.09-.042l-4.546-4.518a.146.146 0 0 1 .055-.236l5.953-1.649.007-.007Z" style="mix-blend-mode:multiply" opacity=".45"/><path d="m30.018 37.398-2.848 1.386a12.951 12.951 0 0 0 7.276-12.216c-.236-7.4-6.279-13.416-13.478-13.416a12.413 12.413 0 0 0-5.35 1.2l2.848-1.387a12.413 12.413 0 0 1 5.35-1.199c7.2 0 13.242 6.015 13.478 13.416a12.951 12.951 0 0 1-7.276 12.216Z" style="mix-blend-mode:multiply" opacity=".45"/><path d="M27.169 38.75a12.41 12.41 0 0 1-5.35 1.199l.333-.16.353-.166.368-.173.367-.18.374-.174.367-.173.354-.166.332-.16c1.85.004 3.678-.405 5.35-1.199l-2.848 1.352ZM8.335 26.533a12.952 12.952 0 0 1 7.276-12.217l2.848-1.386a12.951 12.951 0 0 0-7.262 12.252l-2.862 1.351Z" style="mix-blend-mode:multiply" opacity=".45"/><path d="M21.819 39.949c-7.2 0-13.25-6.022-13.485-13.416l.333-.16.353-.166.36-.173.375-.18.374-.173.367-.173.353-.167.333-.16c.236 7.395 6.285 13.416 13.485 13.416l-.333.16-.353.166-.368.173-.374.174-.554.263-.534.256a2.077 2.077 0 0 1-.332.16Z" style="mix-blend-mode:multiply" opacity=".45"/><path d="M23.814 11.766c7.2 0 13.242 6.015 13.478 13.416.236 7.4-5.426 13.415-12.625 13.415-7.2 0-13.25-6.021-13.471-13.415-.222-7.394 5.419-13.416 12.618-13.416Zm6.881 6.577a.146.146 0 0 0-.138-.18h-.035L24.57 19.81a.145.145 0 0 0-.056.236l4.546 4.518a.125.125 0 0 0 .09.042.125.125 0 0 0 .132-.097l1.386-6.174" style="mix-blend-mode:multiply" opacity=".45"/><path d="m30.6 38.653-2.849 1.386a13.75 13.75 0 0 1-5.897 1.316c-7.941 0-14.607-6.638-14.864-14.787a14.289 14.289 0 0 1 8.025-13.478l2.848-1.351a14.29 14.29 0 0 0-8.025 13.477c.257 8.15 6.93 14.788 14.864 14.788a13.72 13.72 0 0 0 5.897-1.351Z" style="mix-blend-mode:multiply" opacity=".45"/><path d="M23.774 10.387c7.934 0 14.6 6.639 14.856 14.795.257 8.156-5.952 14.787-13.92 14.787-7.97 0-14.608-6.638-14.864-14.787-.257-8.15 5.987-14.795 13.928-14.795Zm.894 28.21c7.2 0 12.86-6.021 12.625-13.415-.236-7.394-6.278-13.416-13.478-13.416s-12.868 6.015-12.632 13.416c.236 7.4 6.285 13.415 13.485 13.415Z" style="mix-blend-mode:multiply" opacity=".45"/></g><path d="m29.905 17.51.132-.062.145-.069.146-.07.146-.068.152-.07.145-.069.139-.07.139-.062.194-.097.215-.097.214-.104.229-.11.222-.105.221-.103.208-.097.201-.097a.166.166 0 0 1 0 .104l-2.848 1.35a.167.167 0 0 0 0-.103Z" fill="#F9F9F9"/><path d="M29.788 17.47h-.035l2.848-1.352h.035a.151.151 0 0 1 .124.076l-2.848 1.386a.153.153 0 0 0-.124-.11Zm1.572 4.968-2.84 1.344 1.406-6.167 2.848-1.351-1.413 6.174Z" fill="#F9F9F9"/><path d="m31.292 22.52-2.848 1.352a.119.119 0 0 0 .07-.09l2.848-1.344a.117.117 0 0 1-.07.083Z" fill="#F9F9F9"/><path d="m31.29 22.52-2.848 1.352h-.062a.124.124 0 0 1-.09-.041l2.848-1.386c.023.025.056.04.09.041l.063.035Z" fill="#3631FF"/><path d="m32.6 16.09-2.849 1.352L23.8 19.09l2.848-1.352 5.952-1.649Z" fill="#F9F9F9"/><path d="m23.788 19.098 2.848-1.352-2.848 1.386v-.034Z" fill="#F9F9F9"/><path d="m31.14 22.493-2.847 1.351-4.546-4.518 2.848-1.35 4.546 4.517Z" fill="#3631FF"/><path d="m23.785 19.098 2.848-1.352a.146.146 0 0 0-.041.23l-2.848 1.385a.146.146 0 0 1 .041-.263Z" fill="#3631FF"/><path d="M32.635 16.083a.147.147 0 0 1 .14.116.146.146 0 0 1-.001.064l-1.386 6.175a.126.126 0 0 1-.132.097.132.132 0 0 1-.09-.042l-4.546-4.518a.147.147 0 0 1-.035-.133.146.146 0 0 1 .09-.102l5.953-1.65.007-.007Z" fill="#3631FF"/><path d="m32.094 35.32-2.848 1.386a12.952 12.952 0 0 0 7.276-12.217c-.236-7.4-6.278-13.416-13.478-13.416a12.41 12.41 0 0 0-5.35 1.2l2.848-1.387a12.41 12.41 0 0 1 5.35-1.198c7.2 0 13.242 6.014 13.478 13.415a12.951 12.951 0 0 1-7.276 12.217Z" fill="#3631FF"/><path d="M29.246 36.67a12.413 12.413 0 0 1-5.35 1.2l.333-.16.354-.166.367-.173.367-.18.374-.174.367-.173.354-.166.332-.16a12.41 12.41 0 0 0 5.35-1.198l-2.848 1.35ZM10.41 24.454a12.951 12.951 0 0 1 7.277-12.216l2.848-1.386a12.95 12.95 0 0 0-7.262 12.251l-2.862 1.351Z" fill="#F9F9F9"/><path d="M23.897 37.87c-7.2 0-13.25-6.022-13.485-13.416l.333-.16.353-.166.36-.173.375-.18.374-.173.367-.173.354-.167.332-.16c.236 7.395 6.285 13.416 13.485 13.416l-.333.16-.353.166-.367.173-.375.173-.554.264-.534.256a2.074 2.074 0 0 1-.332.16Z" fill="#F9F9F9"/><path d="M25.893 9.688c7.2 0 13.243 6.014 13.478 13.415.236 7.4-5.425 13.415-12.625 13.415s-13.25-6.021-13.471-13.415c-.222-7.394 5.419-13.415 12.618-13.415Zm6.881 6.576a.145.145 0 0 0-.138-.18H32.6l-5.952 1.649a.144.144 0 0 0-.091.103.145.145 0 0 0 .035.132l4.546 4.518a.125.125 0 0 0 .09.042.124.124 0 0 0 .132-.097l1.386-6.174" fill="#F9F9F9"/><path d="M32.677 36.574 29.83 37.96a13.748 13.748 0 0 1-5.897 1.316c-7.94 0-14.607-6.638-14.863-14.787a14.289 14.289 0 0 1 8.024-13.478L19.94 9.66a14.288 14.288 0 0 0-8.024 13.478c.256 8.149 6.929 14.787 14.863 14.787a13.72 13.72 0 0 0 5.897-1.351Z" fill="#3631FF"/><path d="M25.852 8.309c7.934 0 14.6 6.638 14.857 14.794.256 8.156-5.953 14.787-13.922 14.787-7.968 0-14.607-6.638-14.863-14.787-.257-8.15 5.987-14.794 13.928-14.794Zm.894 28.21c7.2 0 12.86-6.022 12.625-13.416-.235-7.394-6.278-13.415-13.478-13.415s-12.868 6.014-12.632 13.415c.236 7.4 6.285 13.415 13.485 13.415Z" fill="#3631FF"/></svg>