<svg width="88" height="67" fill="none" xmlns="http://www.w3.org/2000/svg"><g clip-path="url(#quote-artwork__a)"><path d="M80.89 59.2c1.52 1.13 4.61 1.39 5.56 3.29.95 1.9-.08 3.11-1.25 3.34-1.17.23-2.57-1.33-3.19-3-.62-1.67-1.12-3.63-1.12-3.63Zm-38.82.44c-.24 1.56.6 3.8-.35 5.32-.95 1.52-2.11 1.34-2.65.64-.54-.7 0-2.37.93-3.53.93-1.16 2.07-2.43 2.07-2.43Zm38.77-49.26c1.06-1.65 1.3-4.42 3.08-5.78 1.78-1.36 2.91-.78 3.12.19.21.97-1.25 2.61-2.78 3.6-1.53.99-3.42 1.99-3.42 1.99ZM10.59 16.3c-.28-1 .29-2.81-.56-3.65a1.33 1.33 0 0 0-2.16.18c-.39.62.16 1.65.93 2.25.576.437 1.173.844 1.79 1.22Zm41.72-8.89c-.37.13-.9-1.06-1.26-1.09-.36-.03-1.08 1.06-1.41.89-.33-.17.13-1.38-.12-1.67-.25-.29-1.51 0-1.63-.36-.12-.36 1.11-.9 1.11-1.26s-1.06-1.08-.9-1.42c.16-.34 1.38.13 1.67-.11.29-.24 0-1.51.37-1.63.37-.12.86 1.07 1.25 1.09.39.02 1.08-1 1.41-.89.33.11-.13 1.38.12 1.67.25.29 1.5 0 1.62.37.12.37-1.06.89-1.09 1.26-.03.37 1.06 1.08.89 1.41-.17.33-1.38-.13-1.66.12s0 1.5-.37 1.62ZM9 66.45c-.24 0-.47-.72-.69-.77-.22-.05-.74.57-.93.44-.19-.13.18-.84 0-1-.18-.16-.92-.12-1-.35-.08-.23.73-.47.77-.69.04-.22-.56-.74-.43-.93.13-.19.83.18 1 0 .17-.18.12-.92.36-1 .24-.08.46.73.68.77.22.04.75-.56.94-.43.19.13-.19.83-.06 1 .13.17.92.11 1 .35.08.24-.72.46-.77.68-.05.22.57.75.44.94-.13.19-.84-.19-1-.06-.16.13-.08 1-.31 1.05Z" fill="#505050"/><g style="mix-blend-mode:multiply" opacity=".45" fill="#000"><path d="m63.89 13.02-8.99 4.26H44.22l8.99-4.26h10.68Zm6.21 41.96-8.99 4.27-.78-24.39 9-4.26.77 24.38Z" style="mix-blend-mode:multiply" opacity=".45"/><path d="m69.33 30.6-9 4.26H46.9l8.99-4.26h13.44Z" style="mix-blend-mode:multiply" opacity=".45"/><path d="m55.89 30.6-8.99 4.26 8-17.58 8.99-4.26-8 17.58Zm-10.32-.76-8.99 4.26 7.64-16.82 8.99-4.26-7.64 16.82Z" style="mix-blend-mode:multiply" opacity=".45"/><path d="m43.61 29.37-8.99 4.27 8.35-18.35 8.99-4.27-8.35 18.35ZM70.1 54.98l-8.99 4.27H37.38l8.99-4.27H70.1Zm-23.73 0-8.99 4.27-.8-25.15 8.99-4.26.8 25.14Z" style="mix-blend-mode:multiply" opacity=".45"/><path d="M59 28.61h12.19l.9 28.39h-27.6l-.88-27.6L52 11h15l-8 17.61ZM70.1 55l-.78-24.4H55.89l8-17.58H53.21l-7.64 16.82.8 25.16H70.1Z" style="mix-blend-mode:multiply" opacity=".45"/><path d="M55.89 30.6h13.44l.77 24.38H46.37l-.8-25.14 7.64-16.82h10.68l-8 17.58Zm-11.4 26.37-8.99 4.26-.88-27.59 8.99-4.27.88 27.6Z" style="mix-blend-mode:multiply" opacity=".45"/><path d="m72.09 56.97-8.99 4.26H35.5l8.99-4.26h27.6ZM29.67 13.02l-8.99 4.26H10.01L19 13.02h10.67Zm6.2 41.96-8.99 4.27-.77-24.39 8.99-4.26.77 24.38ZM21.67 30.6l-8.99 4.26 8-17.58 8.99-4.26-8 17.58Z" style="mix-blend-mode:multiply" opacity=".45"/><path d="m35.1 30.6-8.99 4.26H12.68l8.99-4.26H35.1Zm-23.76-.76L2.35 34.1l7.66-16.82L19 13.02l-7.66 16.82Z" style="mix-blend-mode:multiply" opacity=".45"/><path d="M9.4 29.37.41 33.64l8.33-18.35 8.99-4.27L9.4 29.37Zm26.47 25.61-8.99 4.27H3.15l8.99-4.27h23.73Z" style="mix-blend-mode:multiply" opacity=".45"/><path d="m12.14 54.98-8.99 4.27-.8-25.15 8.99-4.26.8 25.14Z" style="mix-blend-mode:multiply" opacity=".45"/><path d="m32.73 11-8 17.59H37L37.87 57h-27.6L9.4 29.37 17.73 11h15Zm2.37 19.6H21.67l8-17.58H19l-7.66 16.82.8 25.16h23.73l-.77-24.4Z" style="mix-blend-mode:multiply" opacity=".45"/><path d="m29.67 13.02-8 17.58H35.1l.77 24.38H12.14l-.8-25.14L19 13.02h10.67Zm-19.4 43.95-8.99 4.26-.87-27.59 8.99-4.27.87 27.6Z" style="mix-blend-mode:multiply" opacity=".45"/><path d="m37.87 56.97-8.99 4.26H1.28l8.99-4.26h27.6Z" style="mix-blend-mode:multiply" opacity=".45"/></g><path d="m72.89 9.02-8.99 4.26H53.22l8.99-4.26h10.68Zm6.21 41.96-8.99 4.27-.78-24.39 9-4.26.77 24.38Z" fill="#505050"/><path d="m78.33 26.6-9 4.26H55.9l8.99-4.26h13.44Z" fill="#505050"/><path d="m64.89 26.6-8.99 4.26 8-17.58 8.99-4.26-8 17.58Z" fill="#505050"/><path d="m54.57 25.84-8.99 4.26 7.64-16.82 8.99-4.26-7.64 16.82Z" fill="#FF0"/><path d="m52.61 25.37-8.99 4.27 8.35-18.35 8.99-4.27-8.35 18.35Z" fill="#505050"/><path d="m79.1 50.98-8.99 4.27H46.38l8.99-4.27H79.1Zm-23.73 0-8.99 4.27-.8-25.15 8.99-4.26.8 25.14Z" fill="#FF0"/><path d="M68 24.61h12.19l.9 28.39h-27.6l-.88-27.6L61 7h15l-8 17.61ZM79.1 51l-.78-24.4H64.89l8-17.58H62.21l-7.64 16.82.8 25.16H79.1Z" fill="#505050"/><path d="M64.89 26.6h13.44l.77 24.38H55.37l-.8-25.14 7.64-16.82h10.68l-8 17.58Z" fill="#FF0"/><path d="m53.49 52.97-8.99 4.26-.88-27.59 8.99-4.27.88 27.6Z" fill="#505050"/><path d="m81.09 52.97-8.99 4.26H44.5l8.99-4.26h27.6ZM38.67 9.02l-8.99 4.26H19l9-4.26h10.67Zm6.2 41.96-8.99 4.27-.77-24.39 8.99-4.26.77 24.38ZM30.67 26.6l-8.99 4.26 8-17.58 8.99-4.26-8 17.58Z" fill="#505050"/><path d="m44.1 26.6-8.99 4.26H21.68l8.99-4.26H44.1Z" fill="#505050"/><path d="m20.34 25.84-8.99 4.26L19 13.28l9-4.26-7.66 16.82Z" fill="#FF0"/><path d="m18.4 25.37-8.99 4.27 8.33-18.35 8.99-4.27-8.33 18.35Z" fill="#505050"/><path d="m44.87 50.98-8.99 4.27H12.15l8.99-4.27h23.73Z" fill="#FF0"/><path d="m21.14 50.98-8.99 4.27-.8-25.15 8.99-4.26.8 25.14Z" fill="#FF0"/><path d="m41.73 7-8 17.59H46L46.87 53h-27.6l-.87-27.6L26.73 7h15Zm2.37 19.6H30.67l8-17.58H28l-7.66 16.82.8 25.16h23.73l-.77-24.4Z" fill="#505050"/><path d="m38.67 9.02-8 17.58H44.1l.77 24.38H21.14l-.8-25.14L28 9.02h10.67Z" fill="#FF0"/><path d="m19.27 52.97-8.99 4.26-.87-27.59 8.99-4.27.87 27.6Z" fill="#505050"/><path d="m46.87 52.97-8.99 4.26h-27.6l8.99-4.26h27.6Z" fill="#505050"/></g><defs><clipPath id="quote-artwork__a"><path fill="#fff" d="M0 0h88v67H0z"/></clipPath></defs></svg>