<svg width="32" height="32" viewBox="0 0 32 32" fill="none" xmlns="http://www.w3.org/2000/svg">
<path d="M0.28 12L11.94 0.27C12.1168 0.104204 12.3478 0.00825665 12.59 3.81078e-09H31.31C31.4913 -1.90352e-05 31.6653 0.0713029 31.7944 0.198548C31.9235 0.325793 31.9974 0.498739 32 0.68V19.4C31.9917 19.6422 31.8958 19.8732 31.73 20.05L20.06 31.73C19.8832 31.8958 19.6522 31.9917 19.41 32H0.69C0.50872 32 0.334715 31.9287 0.205598 31.8015C0.0764817 31.6742 0.00262724 31.5013 0 31.32L0 12.6C0.0224927 12.374 0.121242 12.1624 0.28 12Z" fill="#3631FF"/>
<path d="M19.38 24.45H16C15.893 24.4474 15.7913 24.403 15.7166 24.3264C15.6418 24.2498 15.6 24.147 15.6 24.04V16.79C15.6 16.6813 15.5568 16.577 15.4799 16.5001C15.4031 16.4232 15.2988 16.38 15.19 16.38H8.00003C7.893 16.38 7.7902 16.3382 7.71359 16.2635C7.63698 16.1887 7.59264 16.087 7.59003 15.98V12.63C7.59003 12.5213 7.63322 12.417 7.71011 12.3401C7.787 12.2632 7.89129 12.22 8.00003 12.22H19.38C19.4888 12.22 19.5931 12.2632 19.6699 12.3401C19.7468 12.417 19.79 12.5213 19.79 12.63V24C19.7956 24.0571 19.7892 24.1148 19.7711 24.1692C19.753 24.2237 19.7237 24.2737 19.6851 24.3161C19.6464 24.3586 19.5993 24.3924 19.5467 24.4154C19.4942 24.4385 19.4374 24.4503 19.38 24.45Z" fill="#FFFF00"/>
<path d="M10.62 24.33L18.89 16.06C18.9278 16.0228 18.9578 15.9784 18.9783 15.9295C18.9988 15.8806 19.0093 15.828 19.0093 15.775C19.0093 15.722 18.9988 15.6694 18.9783 15.6205C18.9578 15.5716 18.9278 15.5272 18.89 15.49L16.52 13.12C16.4828 13.0822 16.4384 13.0522 16.3895 13.0317C16.3406 13.0112 16.288 13.0007 16.235 13.0007C16.182 13.0007 16.1294 13.0112 16.0805 13.0317C16.0316 13.0522 15.9872 13.0822 15.95 13.12L7.68 21.39C7.60637 21.465 7.56355 21.5649 7.56 21.67V24C7.56254 24.1079 7.60655 24.2108 7.6829 24.2871C7.75924 24.3635 7.86206 24.4075 7.97 24.41H10.34C10.4399 24.4176 10.5392 24.3892 10.62 24.33Z" fill="#FFFF00"/>
</svg>
