<svg width="311" height="178" fill="none" xmlns="http://www.w3.org/2000/svg"><g style="mix-blend-mode:multiply" opacity=".45" fill="#000"><path d="m298.579 94.049-8.229 3.897a4.656 4.656 0 0 0-4.576-4.538l8.229-3.905a4.667 4.667 0 0 1 4.576 4.576m-30.041-6.093-8.229 3.904h-1.487l8.229-3.904h1.487Zm-1.488 0-8.229 3.904c-1.99-11.836-12.202-20.972-24.16-20.972-3.362-.01-6.683.73-9.723 2.166l8.228-3.905a22.609 22.609 0 0 1 9.724-2.196c11.958 0 22.17 9.151 24.16 20.972" style="mix-blend-mode:multiply" opacity=".45"/><path d="m267.051 87.986-8.228 3.905h-3.829l8.229-3.905h3.828Zm33.875 80.054-8.228 3.897-2.349-73.991 8.229-3.897 2.348 73.991Zm-37.734-80.054-8.228 3.904c-1.907-9.693-10.349-17.09-20.21-17.09a19.006 19.006 0 0 0-8.176 1.83l8.229-3.905a19.005 19.005 0 0 1 8.175-1.83c9.861 0 18.304 7.398 20.21 17.09Z" style="mix-blend-mode:multiply" opacity=".45"/><path d="m263.222 87.986-8.229 3.904h-1.495l8.229-3.904h1.495Zm35.241 84.18-8.229 3.874a4.368 4.368 0 0 0 2.464-4.133l8.229-3.898a4.365 4.365 0 0 1-2.464 4.126m-29.353-60.126-8.229 3.905-.397-12.332 8.229-3.905.397 12.332Zm-.398-12.332-8.229 3.905h-5.887l8.229-3.905h5.887Z" style="mix-blend-mode:multiply" opacity=".45"/><path d="m298.465 172.166-8.229 3.874a4.222 4.222 0 0 1-1.815.404l8.229-3.905a4.222 4.222 0 0 0 1.815-.404m.655 1.419-8.229 3.904a5.692 5.692 0 0 1-2.417.542l8.229-3.905a5.706 5.706 0 0 0 2.417-.541Zm-35.906-61.545-8.229 3.905-.389-12.332 8.229-3.905.389 12.332Zm5.499-12.332.396 12.332h-5.895l-.389-12.332h5.888Z" style="mix-blend-mode:multiply" opacity=".45"/><path d="m269.108 112.009-8.228 3.905h-5.896l8.229-3.905h5.895Zm-5.916-24.023-8.228 3.904c-1.907-9.693-10.349-17.09-20.21-17.09a19.006 19.006 0 0 0-8.176 1.83l8.229-3.905a19.005 19.005 0 0 1 8.175-1.83c9.861 0 18.304 7.398 20.21 17.09Z" style="mix-blend-mode:multiply" opacity=".45"/><path d="m261.727 87.986-8.229 3.905c-1.861-8.855-9.617-15.581-18.669-15.581a17.691 17.691 0 0 0-7.573 1.693l8.229-3.905a17.691 17.691 0 0 1 7.573-1.693c9.045 0 16.778 6.727 18.669 15.58Z" style="mix-blend-mode:multiply" opacity=".45"/><path d="m223.877 87.986-8.221 3.904a19.634 19.634 0 0 1 10.952-15.252l8.229-3.905a19.655 19.655 0 0 0-10.96 15.253Z" style="mix-blend-mode:multiply" opacity=".45"/><path d="M243.014 70.895c9.861 0 18.303 7.398 20.21 17.09h-1.525c-1.861-8.853-9.625-15.58-18.67-15.58a17.938 17.938 0 0 0-17.685 15.58h-1.526a19.374 19.374 0 0 1 19.196-17.09Zm-17.633 17.091-8.229 3.904h-1.495l8.221-3.904h1.503Z" style="mix-blend-mode:multiply" opacity=".45"/><path d="m220.065 87.986-8.229 3.904a23.385 23.385 0 0 1 13.102-18.807l8.229-3.904a23.377 23.377 0 0 0-13.102 18.8" style="mix-blend-mode:multiply" opacity=".45"/><path d="M242.891 66.983c11.958 0 22.169 9.151 24.16 20.972h-3.813c-1.907-9.693-10.349-17.09-20.21-17.09a19.37 19.37 0 0 0-19.135 17.09h-3.813c1.22-11.82 10.852-20.972 22.811-20.972Zm-19.013 21.003-8.221 3.904h-3.821l8.221-3.904h3.821Z" style="mix-blend-mode:multiply" opacity=".45"/><path d="m218.578 87.986-8.229 3.904a24.884 24.884 0 0 1 13.948-20.187l8.229-3.904a24.876 24.876 0 0 0-13.948 20.187Z" style="mix-blend-mode:multiply" opacity=".45"/><path d="M242.844 65.496c12.767 0 23.642 9.815 25.694 22.49h-1.488c-1.99-11.836-12.202-20.973-24.16-20.973s-21.59 9.152-22.826 20.973h-1.487c1.243-12.69 11.501-22.49 24.267-22.49Zm-22.787 22.49-8.221 3.904h-1.487l8.229-3.904h1.479Zm5.369 24.023-8.229 3.905-.396-12.332 8.229-3.905.396 12.332Zm-.397-12.332-8.229 3.905h-5.888l8.229-3.905h5.888Z" style="mix-blend-mode:multiply" opacity=".45"/><path d="m225.426 112.009-8.229 3.905h-5.887l8.228-3.905h5.888Zm-5.888 0-8.229 3.905-.397-12.332 8.229-3.905.397 12.332Zm74.472-22.506-8.229 3.905H184.968l8.229-3.905H294.01Z" style="mix-blend-mode:multiply" opacity=".45"/><path d="m193.197 89.504-8.229 3.904a4.25 4.25 0 0 0-1.815.404l8.229-3.904a4.25 4.25 0 0 1 1.815-.404Z" style="mix-blend-mode:multiply" opacity=".45"/><path d="m188.92 94.049-8.228 3.897a4.382 4.382 0 0 1 2.463-4.134l8.229-3.904a4.388 4.388 0 0 0-2.464 4.14Z" style="mix-blend-mode:multiply" opacity=".45"/><path d="M294.01 89.503a4.666 4.666 0 0 1 4.576 4.576l2.349 73.976a4.329 4.329 0 0 1-2.588 4.171 4.301 4.301 0 0 1-1.691.359H195.835a4.666 4.666 0 0 1-4.575-4.53l-2.349-73.976a4.328 4.328 0 0 1 2.577-4.21 4.327 4.327 0 0 1 1.701-.366H294.01Zm-24.9 22.475-.397-12.332h-5.887l.366 12.332h5.918Zm-43.707 0-.343-12.301h-5.888l.397 12.332h5.887" style="mix-blend-mode:multiply" opacity=".45"/><path d="m225.028 99.677.397 12.332h-5.888l-.396-12.332h5.887Zm-37.582-5.628-8.229 3.897a5.859 5.859 0 0 1 3.287-5.514l8.237-3.905a5.856 5.856 0 0 0-3.287 5.522m109.194 78.521-8.228 3.905H187.606l8.229-3.905h100.813Z" style="mix-blend-mode:multiply" opacity=".45"/><path d="M296.702 174.095 288.473 178H187.66l8.229-3.905h100.813Zm-105.434-6.055-8.229 3.897-2.349-73.991 8.229-3.897 2.349 73.991Z" style="mix-blend-mode:multiply" opacity=".45"/><path d="m195.836 172.57-8.229 3.905a4.655 4.655 0 0 1-4.576-4.538l8.221-3.897a4.67 4.67 0 0 0 4.576 4.53m-6.033-4.53-8.222 3.897-2.356-73.991 8.229-3.897 2.349 73.991Z" style="mix-blend-mode:multiply" opacity=".45"/><path d="M293.966 87.986a6.221 6.221 0 0 1 6.101 6.101l2.349 73.976a5.755 5.755 0 0 1-3.442 5.572 5.743 5.743 0 0 1-2.255.483H195.89a6.23 6.23 0 0 1-6.101-6.055l-2.349-73.976a5.765 5.765 0 0 1 5.705-6.101h100.821Zm6.963 80.077-2.349-73.976a4.667 4.667 0 0 0-4.576-4.576H193.198a4.322 4.322 0 0 0-4.278 4.576l2.349 73.976a4.666 4.666 0 0 0 4.576 4.53H296.65a4.337 4.337 0 0 0 1.691-.359 4.301 4.301 0 0 0 2.326-2.463 4.34 4.34 0 0 0 .262-1.708Z" style="mix-blend-mode:multiply" opacity=".45"/><path d="M195.89 174.095 187.692 178a6.223 6.223 0 0 1-6.101-6.063l8.221-3.897a6.23 6.23 0 0 0 6.101 6.055" style="mix-blend-mode:multiply" opacity=".45"/></g><path d="m306.967 89.473-8.229 3.897a4.66 4.66 0 0 0-4.576-4.538l8.229-3.904a4.668 4.668 0 0 1 4.576 4.575m-30.04-6.093-8.229 3.905h-1.487l8.229-3.905h1.487Zm-1.491 0-8.229 3.905c-1.99-11.836-12.202-20.973-24.16-20.973a22.61 22.61 0 0 0-9.724 2.166l8.229-3.905a22.602 22.602 0 0 1 9.724-2.196c11.958 0 22.17 9.152 24.16 20.972" fill="#505050"/><path d="m275.441 83.41-8.229 3.905h-3.828l8.229-3.905h3.828Z" fill="#F9F9F9"/><path d="m309.316 163.464-8.229 3.897-2.349-73.991 8.229-3.897 2.349 73.991Z" fill="#505050"/><path d="m271.582 83.41-8.229 3.905c-1.906-9.693-10.349-17.09-20.21-17.09a18.993 18.993 0 0 0-8.175 1.83l8.229-3.905a19.003 19.003 0 0 1 8.175-1.83c9.861 0 18.303 7.397 20.21 17.09Z" fill="#F9F9F9"/><path d="m271.611 83.41-8.229 3.905h-1.494l8.229-3.905h1.494Zm35.243 84.179-8.229 3.875a4.37 4.37 0 0 0 2.463-4.134l8.229-3.897a4.36 4.36 0 0 1-2.463 4.126" fill="#505050"/><path d="m277.499 107.433-8.228 3.905-.397-12.332 8.229-3.905.396 12.332Z" fill="#F9F9F9"/><path d="m277.103 95.101-8.229 3.905h-5.888l8.229-3.905h5.888Zm29.75 72.489-8.229 3.874a4.222 4.222 0 0 1-1.815.404l8.228-3.905a4.223 4.223 0 0 0 1.816-.404" fill="#F9F9F9"/><path d="m307.511 168.978-8.229 3.904a5.696 5.696 0 0 1-2.418.542l8.229-3.905a5.71 5.71 0 0 0 2.418-.541Zm-35.907-61.545-8.229 3.905-.389-12.332 8.229-3.905.389 12.332Zm5.499-12.332.397 12.332h-5.895l-.389-12.332h5.887Zm.396 12.332-8.229 3.905h-5.895l8.229-3.905h5.895Z" fill="#505050"/><path d="m271.582 83.41-8.229 3.905c-1.906-9.693-10.349-17.09-20.21-17.09a18.993 18.993 0 0 0-8.175 1.83l8.229-3.905a19.003 19.003 0 0 1 8.175-1.83c9.861 0 18.303 7.397 20.21 17.09Z" fill="#F9F9F9"/><path d="m270.118 83.41-8.229 3.905c-1.861-8.855-9.617-15.581-18.67-15.581a17.696 17.696 0 0 0-7.573 1.693l8.229-3.905a17.695 17.695 0 0 1 7.573-1.693c9.045 0 16.778 6.727 18.67 15.58Z" fill="#505050"/><path d="m232.266 83.41-8.221 3.905a19.634 19.634 0 0 1 10.951-15.253l8.229-3.905a19.66 19.66 0 0 0-10.959 15.253Z" fill="#505050"/><path d="M251.402 66.32c9.861 0 18.303 7.397 20.21 17.09h-1.526c-1.861-8.854-9.624-15.58-18.669-15.58a17.937 17.937 0 0 0-17.686 15.58h-1.525a19.373 19.373 0 0 1 19.196-17.09ZM233.77 83.41l-8.229 3.905h-1.495l8.221-3.905h1.503Z" fill="#505050"/><path d="m228.454 83.41-8.228 3.904a23.38 23.38 0 0 1 13.102-18.806l8.229-3.905a23.379 23.379 0 0 0-13.103 18.799" fill="#F9F9F9"/><path d="M251.28 62.407c11.958 0 22.17 9.151 24.161 20.972h-3.814c-1.906-9.693-10.349-17.09-20.21-17.09a19.37 19.37 0 0 0-19.134 17.09h-3.813c1.22-11.82 10.852-20.972 22.81-20.972ZM232.268 83.41l-8.222 3.905h-3.82l8.221-3.905h3.821Z" fill="#F9F9F9"/><path d="m226.967 83.41-8.229 3.904a24.895 24.895 0 0 1 13.949-20.187l8.229-3.904a24.878 24.878 0 0 0-13.949 20.187Z" fill="#505050"/><path d="M251.235 60.92c12.766 0 23.642 9.815 25.693 22.49h-1.487c-1.99-11.836-12.202-20.973-24.16-20.973S229.69 71.59 228.455 83.41h-1.487c1.243-12.69 11.5-22.49 24.267-22.49Zm-22.788 22.49-8.222 3.905h-1.487l8.229-3.905h1.48Z" fill="#505050"/><path d="m233.816 107.433-8.229 3.905-.397-12.332 8.229-3.905.397 12.332Zm-.399-12.332-8.229 3.905h-5.887l8.229-3.905h5.887Z" fill="#F9F9F9"/><path d="m233.816 107.433-8.229 3.905h-5.888l8.229-3.905h5.888Zm-5.89 0-8.229 3.905-.396-12.332 8.229-3.905.396 12.332Zm74.473-22.506-8.228 3.905H193.357l8.229-3.905h100.813Z" fill="#505050"/><path d="m201.588 84.927-8.229 3.905a4.25 4.25 0 0 0-1.815.404l8.229-3.905a4.247 4.247 0 0 1 1.815-.404Z" fill="#505050"/><path d="m197.307 89.473-8.229 3.897a4.39 4.39 0 0 1 2.464-4.133l8.229-3.905a4.383 4.383 0 0 0-2.464 4.141Z" fill="#F9F9F9"/><path d="M302.398 84.927a4.666 4.666 0 0 1 4.576 4.576l2.349 73.976a4.309 4.309 0 0 1-1.173 3.178 4.32 4.32 0 0 1-3.105 1.352H204.224a4.67 4.67 0 0 1-4.576-4.53l-2.349-73.976a4.328 4.328 0 0 1 2.578-4.21 4.323 4.323 0 0 1 1.701-.366h100.82Zm-24.9 22.475-.396-12.332h-5.888l.366 12.332h5.918Zm-43.706 0-.344-12.301h-5.887l.396 12.332h5.888" fill="#F9F9F9"/><path d="m233.419 95.101.396 12.332h-5.887l-.397-12.332h5.888Zm-37.583-5.628-8.229 3.897a5.85 5.85 0 0 1 3.287-5.514l8.236-3.905a5.859 5.859 0 0 0-3.287 5.522" fill="#505050"/><path d="m305.038 167.994-8.229 3.905H195.996l8.229-3.905h100.813Z" fill="#F9F9F9"/><path d="m305.092 169.519-8.229 3.905H196.05l8.229-3.905h100.813Z" fill="#505050"/><path d="m199.657 163.464-8.229 3.897-2.349-73.991 8.229-3.897 2.349 73.991Z" fill="#F9F9F9"/><path d="m204.227 167.994-8.229 3.905a4.655 4.655 0 0 1-4.576-4.538l8.221-3.897a4.666 4.666 0 0 0 4.576 4.53" fill="#F9F9F9"/><path d="m198.184 163.464-8.221 3.897-2.357-73.991 8.229-3.897 2.349 73.991Z" fill="#505050"/><path d="M302.353 83.41a6.224 6.224 0 0 1 6.101 6.101l2.349 73.976a5.754 5.754 0 0 1-5.697 6.055H204.278a6.23 6.23 0 0 1-6.101-6.055l-2.349-73.976a5.765 5.765 0 0 1 5.705-6.101h100.82Zm6.963 80.077-2.349-73.976a4.666 4.666 0 0 0-4.575-4.576H201.586a4.327 4.327 0 0 0-4.028 2.855 4.328 4.328 0 0 0-.25 1.721l2.349 73.976a4.665 4.665 0 0 0 4.575 4.53h100.806a4.319 4.319 0 0 0 4.278-4.53Z" fill="#505050"/><path d="m204.279 169.519-8.198 3.905a6.22 6.22 0 0 1-6.102-6.063l8.222-3.897a6.225 6.225 0 0 0 1.839 4.248 6.225 6.225 0 0 0 4.262 1.807" fill="#505050"/><g style="mix-blend-mode:multiply" opacity=".45" fill="#000"><path d="m118.371 11.35-10.81 5.122a5.493 5.493 0 0 0-5.374-5.357l10.809-5.122a5.499 5.499 0 0 1 5.375 5.357Zm-11.813 71.57L95.76 88.043l-.054-1.784 10.797-5.128.055 1.79Zm1.801 17.914-10.803 5.123-6.546-6.522 10.803-5.123 6.546 6.522Z" style="mix-blend-mode:multiply" opacity=".45"/><path d="M105.897 100.834 95.1 105.956l-.9-.894 10.797-5.129.9.901Z" style="mix-blend-mode:multiply" opacity=".45"/><path d="m105.056 101.729-10.803 5.122.847-.895 10.797-5.122-.841.895Zm-4.438-6.149-10.798 5.122 1.19-1.267 10.803-5.123-1.195 1.267Z" style="mix-blend-mode:multiply" opacity=".45"/><path d="m104.996 99.933-10.798 5.129-4.378-4.36 10.798-5.123 4.378 4.354Zm-2.769 7.417-10.803 5.122 6.131-6.516 10.804-5.122-6.132 6.516Zm20.605 44.276-10.804 5.123-4.456-140.277 10.798-5.122 4.462 140.276Z" style="mix-blend-mode:multiply" opacity=".45"/><path d="m100.954 106.083-10.798 5.122 4.096-4.354 10.803-5.122-4.101 4.354Zm1.273 1.267-10.804 5.122-1.267-1.267 10.798-5.122 1.273 1.267Z" style="mix-blend-mode:multiply" opacity=".45"/><path d="m101.812 94.312 6.546 6.522-6.131 6.516-1.274-1.267 4.102-4.354.841-.895-.901-.9-4.378-4.355 1.195-1.267Zm5.94 26.159-10.797 5.123-.06-1.784 10.803-5.128.054 1.789Zm-52.96-77.654 3.987-1.891 6.81-3.231-10.797 5.122Z" style="mix-blend-mode:multiply" opacity=".45"/><path d="M54.793 42.817a2.517 2.517 0 0 0-1.802-.75l5.405-2.565 5.405-2.558a2.514 2.514 0 0 1 1.801.745l-10.81 5.122v.006Z" style="mix-blend-mode:multiply" opacity=".45"/><path d="m53.014 42.067 1.261-.6 1.34-.601 1.386-.66 1.412-.674 1.41-.666 1.394-.66 1.333-.637 1.261-.6-10.809 5.122.012-.024Zm-6.101-14.041a2.295 2.295 0 0 0-1.02.229l10.809-5.123a2.314 2.314 0 0 1 1.02-.228c-3.254 1.52-7.314 4.342-10.809 5.122Z" style="mix-blend-mode:multiply" opacity=".45"/><path d="m46.913 28.026 10.81-5.122a2.612 2.612 0 0 1 2.564 2.546 2.462 2.462 0 0 1-1.387 2.324l-10.81 5.123a2.467 2.467 0 0 0 1.387-2.324 2.624 2.624 0 0 0-2.564-2.547Zm73.012 128.471-10.81 5.122a5.154 5.154 0 0 0 2.901-4.87l10.809-5.123a5.167 5.167 0 0 1-2.9 4.871Z" style="mix-blend-mode:multiply" opacity=".45"/><path d="m109.127 161.619-.12.06 1.261-.6 1.339-.637 1.387-.654 1.412-.673 1.417-.673 1.387-.654 1.333-.637 1.261-.6a.813.813 0 0 0 .12-.054l-10.797 5.122Z" style="mix-blend-mode:multiply" opacity=".45"/><path d="m108.857 161.739.103-.048.108-.048.108-.054.114-.054.114-.054.108-.054.108-.048.102-.048 1.159-.553 1.231-.6 1.279-.601 1.298-.6 1.303-.601 1.273-.6 1.231-.601 1.165-.552.144-.066-10.809 5.128-.139.054ZM53.014 42.067a2.4 2.4 0 0 0-1.02.228l10.809-5.123a2.4 2.4 0 0 1 1.02-.228l-10.809 5.123Zm1.892 4.359a2.6 2.6 0 0 0-.114-3.603l2.6-1.237 1.388-.654 1.417-.673 1.411-.667 1.387-.66 1.34-.637 1.26-.6a2.612 2.612 0 0 1 .115 3.603c-.204.215-.447.39-.715.516l-10.81 5.123c.271-.123.516-.296.721-.51Z" style="mix-blend-mode:multiply" opacity=".45"/><path d="M108.858 161.739a4.891 4.891 0 0 1-1.862.361l10.81-5.123c.64.002 1.274-.12 1.867-.36l-9.951 4.726c-.288.126-.57.27-.864.396Zm11.577-4.155-10.809 5.122a6.082 6.082 0 0 1-2.606.601l10.809-5.123a6.074 6.074 0 0 0 2.606-.6ZM58.887 27.78l-10.81 5.123a2.31 2.31 0 0 1-1.015.228 2.618 2.618 0 0 1-2.57-2.552 2.474 2.474 0 0 1 1.381-2.318l10.81-5.123a2.438 2.438 0 0 0-1.381 2.318 2.613 2.613 0 0 0 2.564 2.552c.353.004.703-.074 1.02-.228Z" style="mix-blend-mode:multiply" opacity=".45"/><path d="M57.687 22.91a2.612 2.612 0 0 1 2.564 2.546 2.402 2.402 0 0 1-2.402 2.552 2.612 2.612 0 0 1-2.564-2.552 2.4 2.4 0 0 1 2.402-2.546Zm7.308 18.928-10.81 5.123c-.318.152-.667.23-1.02.228a2.535 2.535 0 0 1-1.802-.745 2.606 2.606 0 0 1-.114-3.603c.203-.217.446-.394.714-.522l10.81-5.123c-.27.126-.513.304-.715.523a2.606 2.606 0 0 0 .12 3.603 2.512 2.512 0 0 0 1.802.745c.351.002.698-.076 1.015-.229Z" style="mix-blend-mode:multiply" opacity=".45"/><path d="M63.81 36.944a2.51 2.51 0 0 1 1.802.75 2.607 2.607 0 0 1 .114 3.604 2.403 2.403 0 0 1-1.735.745 2.51 2.51 0 0 1-1.802-.745 2.606 2.606 0 0 1-.12-3.603 2.361 2.361 0 0 1 1.742-.75Zm45.755 101.879-10.803 5.123-6.546-6.516 10.803-5.129 6.546 6.522Z" style="mix-blend-mode:multiply" opacity=".45"/><path d="m107.104 138.823-10.797 5.123-.9-.895 10.797-5.123.9.895Z" style="mix-blend-mode:multiply" opacity=".45"/><path d="m106.263 139.718-10.797 5.122.84-.894 10.798-5.123-.841.895Zm-.06-1.79-10.798 5.123-4.378-4.36 10.798-5.122 4.378 4.359Z" style="mix-blend-mode:multiply" opacity=".45"/><path d="m101.825 133.569-10.798 5.122 1.19-1.261 10.803-5.129-1.195 1.268ZM45.64 17.817l-8.197 3.886 8.198-3.886Zm-9.982 3.165 8.215-3.891-8.215 3.891Z" style="mix-blend-mode:multiply" opacity=".45"/><path d="M33.065 22.213c-.353 0-.702.078-1.021.229l10.81-5.123a2.4 2.4 0 0 1 1.02-.228l-.937.444-.486.235-2.558 1.2-6.828 3.243 10.81-5.122a2.516 2.516 0 0 1 1.8.745l-10.809 5.122.307-.144.312-.144.318-.156.319-.15.33-.157.33-.156.336-.162.343-.162 1.033-.492 1.056-.499 1.063-.504 1.057-.499 1.045-.498 1.021-.487.985-.462.937-.444a2.6 2.6 0 0 1 .114 3.603c-.201.215-.442.39-.709.516l-10.81 5.123c.27-.125.513-.3.715-.517a2.606 2.606 0 0 0-.114-3.603 2.511 2.511 0 0 0-1.79-.75Zm70.369 123.126-10.803 5.122 6.131-6.515 10.804-5.123-6.132 6.516Z" style="mix-blend-mode:multiply" opacity=".45"/><path d="m102.161 144.072-10.798 5.122 4.102-4.354 10.797-5.122-4.101 4.354Z" style="mix-blend-mode:multiply" opacity=".45"/><path d="m103.02 132.301 6.546 6.522-6.131 6.516-1.274-1.267 4.102-4.354.841-.895-.901-.895-4.378-4.359 1.195-1.268Zm.414 13.038-10.804 5.122-1.267-1.267 10.798-5.122 1.273 1.267ZM45.075 21.967l-10.81 5.123a2.306 2.306 0 0 1-1.02.228 2.517 2.517 0 0 1-1.802-.745 2.6 2.6 0 0 1-.114-3.603c.2-.219.44-.396.709-.522l10.81-5.123c-.27.124-.513.3-.715.517a2.613 2.613 0 0 0 .114 3.603 2.534 2.534 0 0 0 1.801.744c.355.005.706-.07 1.027-.222ZM19.59 28.026a2.343 2.343 0 0 0-1.027.229l10.809-5.123a2.314 2.314 0 0 1 1.02-.228c-3.248 1.52-7.308 4.336-10.803 5.122Z" style="mix-blend-mode:multiply" opacity=".45"/><path d="m19.589 28.026 10.81-5.122a2.613 2.613 0 0 1 2.558 2.546 2.45 2.45 0 0 1-1.382 2.324l-10.81 5.123a2.468 2.468 0 0 0 1.382-2.324 2.618 2.618 0 0 0-2.558-2.547Z" style="mix-blend-mode:multiply" opacity=".45"/><path d="m31.563 27.78-10.81 5.123c-.316.151-.663.23-1.015.228a2.619 2.619 0 0 1-2.57-2.552 2.463 2.463 0 0 1 1.381-2.318l10.81-5.123a2.456 2.456 0 0 0-1.387 2.318 2.618 2.618 0 0 0 2.57 2.552c.353.004.702-.075 1.02-.228Z" style="mix-blend-mode:multiply" opacity=".45"/><path d="M30.387 22.91a2.612 2.612 0 0 1 2.558 2.546 2.4 2.4 0 0 1-2.402 2.552 2.618 2.618 0 0 1-2.57-2.552 2.401 2.401 0 0 1 2.414-2.546Zm82.608-16.917-10.798 5.123H1.201L12 5.993h100.996ZM16.153 42.817l1.267-.6 1.334-.637 1.393-.66 1.411-.667 1.411-.672 1.387-.655 1.34-.637 1.26-.6-10.803 5.128Zm-.006 0a2.517 2.517 0 0 0-1.801-.75l1.267-.6 1.333-.637 1.393-.655 1.411-.672 1.412-.667 1.387-.66 1.339-.637 1.255-.6a2.535 2.535 0 0 1 1.802.744l-10.798 5.134Z" style="mix-blend-mode:multiply" opacity=".45"/><path d="m14.37 42.067 1.262-.6 1.339-.601 1.387-.66 1.411-.674 1.417-.666 1.388-.66 1.333-.637 1.26-.6-10.809 5.122.012-.024Z" style="mix-blend-mode:multiply" opacity=".45"/><path d="M14.371 42.067a2.4 2.4 0 0 0-1.02.228l10.809-5.123c.32-.15.668-.228 1.02-.228l-10.809 5.123Zm1.879 4.359a2.612 2.612 0 0 0-.115-3.603l1.261-.6.66-.312 1.364-.649 1.405-.667 1.43-.678.702-.33 1.387-.661.679-.324 1.303-.6c.186-.09.414-.295.6-.295a2.606 2.606 0 0 1 .115 3.603 2.288 2.288 0 0 1-.715.517l-10.81 5.122a2.36 2.36 0 0 0 .733-.523Zm4.204 9.681a2.4 2.4 0 0 0-1.02.228l10.809-5.122c.32-.15.668-.228 1.02-.229-3.224 1.538-7.283 4.336-10.809 5.123Z" style="mix-blend-mode:multiply" opacity=".45"/><path d="m20.454 56.107 10.81-5.123a2.619 2.619 0 0 1 2.564 2.553 2.475 2.475 0 0 1-1.381 2.324l-10.81 5.122a2.469 2.469 0 0 0 1.387-2.324 2.618 2.618 0 0 0-2.57-2.552Zm5.898-14.269-10.81 5.123a2.306 2.306 0 0 1-1.02.228 2.51 2.51 0 0 1-1.802-.745 2.606 2.606 0 0 1-.12-3.603c.203-.217.446-.394.714-.522l10.81-5.123a2.256 2.256 0 0 0-.71.523 2.6 2.6 0 0 0 .115 3.603 2.512 2.512 0 0 0 1.802.745c.353.003.702-.075 1.02-.229Z" style="mix-blend-mode:multiply" opacity=".45"/><path d="M25.168 36.944a2.51 2.51 0 0 1 1.802.75 2.607 2.607 0 0 1 .114 3.604 2.367 2.367 0 0 1-1.736.745 2.51 2.51 0 0 1-1.801-.745 2.6 2.6 0 0 1-.114-3.603 2.336 2.336 0 0 1 1.735-.75Zm7.296 18.916-10.81 5.123a2.4 2.4 0 0 1-1.014.229 2.619 2.619 0 0 1-2.588-2.559 2.456 2.456 0 0 1 1.38-2.324l10.81-5.122a2.463 2.463 0 0 0-1.381 2.324 2.619 2.619 0 0 0 2.564 2.552c.359.004.714-.072 1.04-.222Zm74.039 25.27-10.797 5.13H16.917l10.797-5.13h78.789Z" style="mix-blend-mode:multiply" opacity=".45"/><path d="m27.774 82.92-10.803 5.123-.054-1.784 10.797-5.128.06 1.79Z" style="mix-blend-mode:multiply" opacity=".45"/><path d="M106.558 82.92 95.76 88.043H16.972l10.803-5.123h78.783Zm-1.562 17.013-10.797 5.123H17.512l10.797-5.123h76.687Z" style="mix-blend-mode:multiply" opacity=".45"/><path d="m105.056 101.729-10.804 5.122h-76.68l10.797-5.122h76.687Z" style="mix-blend-mode:multiply" opacity=".45"/><path d="m28.37 101.729-10.798 5.122-.06-1.789 10.797-5.129.06 1.796Zm79.328 16.953-10.804 5.128H18.105l10.804-5.128h78.789Z" style="mix-blend-mode:multiply" opacity=".45"/><path d="m28.963 120.471-10.797 5.123-.06-1.784 10.803-5.128.054 1.789Z" style="mix-blend-mode:multiply" opacity=".45"/><path d="m107.752 120.471-10.797 5.123H18.166l10.797-5.123h78.789Zm-1.549 17.457-10.797 5.123H18.719l10.803-5.123h76.681Z" style="mix-blend-mode:multiply" opacity=".45"/><path d="M29.576 139.718 18.78 144.84l-.06-1.789 10.803-5.123.054 1.79Z" style="mix-blend-mode:multiply" opacity=".45"/><path d="m106.203 137.928.9.895-.84.895H29.575l-.053-1.79h76.681Z" style="mix-blend-mode:multiply" opacity=".45"/><path d="m106.263 139.718-10.798 5.122H18.778l10.798-5.122h76.687Zm11.531 17.259-10.798 5.123H6l10.797-5.123h100.997Zm-100.997 0-10.798 5.122L1.201 11.116 12 5.992l4.798 150.984Z" style="mix-blend-mode:multiply" opacity=".45"/><path d="M112.934 4.804a6.716 6.716 0 0 1 6.606 6.546l4.456 140.276a6.233 6.233 0 0 1-1.681 4.585 6.223 6.223 0 0 1-4.475 1.955H15.649L10.803 4.804h102.131Zm9.873 146.822L118.369 11.35a5.498 5.498 0 0 0-5.375-5.357H11.998l4.804 150.984h100.99a5.071 5.071 0 0 0 1.994-.427 5.077 5.077 0 0 0 2.738-2.908c.237-.644.341-1.33.307-2.016" style="mix-blend-mode:multiply" opacity=".45"/><path d="M43.875 17.091a2.517 2.517 0 0 1 1.802.745 2.606 2.606 0 0 1 .114 3.603 2.36 2.36 0 0 1-1.73.744 2.533 2.533 0 0 1-1.801-.744 2.612 2.612 0 0 1-.114-3.603 2.365 2.365 0 0 1 1.73-.745ZM31.263 50.984a2.619 2.619 0 0 1 2.564 2.553 2.403 2.403 0 0 1-2.402 2.552 2.618 2.618 0 0 1-2.564-2.552 2.402 2.402 0 0 1 2.402-2.553Zm73.734 48.949.9.901-.84.895H28.37l-.06-1.796h76.687Z" style="mix-blend-mode:multiply" opacity=".45"/><path d="M112.994 5.993a5.496 5.496 0 0 1 5.375 5.357l4.456 140.276a5.081 5.081 0 0 1-1.374 3.75 5.103 5.103 0 0 1-3.658 1.601H16.796L11.992 5.993h101.002ZM102.227 107.35l6.131-6.516-6.545-6.522-1.201 1.267 4.377 4.354H28.314l.055 1.802h76.687l-4.102 4.36 1.273 1.267v-.012Zm1.201 38.001 6.131-6.516-6.545-6.516-1.201 1.262 4.378 4.359h-76.67l.055 1.802h76.687l-4.102 4.354 1.273 1.267-.006-.012Zm-74.519-26.645.054 1.801h78.789l-.054-1.801H28.909Zm77.594-37.551h-78.79l.055 1.801h78.789l-.054-1.801Zm-82.95-39.851a2.51 2.51 0 0 0 1.8.745 2.366 2.366 0 0 0 1.736-.745 2.612 2.612 0 0 0-.114-3.603 2.535 2.535 0 0 0-1.801-.745 2.352 2.352 0 0 0-1.73.745 2.606 2.606 0 0 0 .114 3.603h-.006ZM62.081 37.7a2.612 2.612 0 0 0 .12 3.603 2.51 2.51 0 0 0 1.802.745 2.404 2.404 0 0 0 1.735-.745 2.612 2.612 0 0 0-.12-3.603 2.51 2.51 0 0 0-1.801-.745 2.401 2.401 0 0 0-1.736.745ZM42.126 17.817a2.612 2.612 0 0 0 .115 3.604 2.535 2.535 0 0 0 1.801.744 2.36 2.36 0 0 0 1.73-.744 2.607 2.607 0 0 0-.114-3.604 2.518 2.518 0 0 0-1.802-.744 2.367 2.367 0 0 0-1.73.744Zm15.56 5.093a2.403 2.403 0 0 0-2.402 2.546 2.612 2.612 0 0 0 2.564 2.552 2.403 2.403 0 0 0 2.402-2.552 2.612 2.612 0 0 0-2.564-2.546Zm-27.324 0a2.403 2.403 0 0 0-2.402 2.546 2.619 2.619 0 0 0 2.57 2.552 2.403 2.403 0 0 0 2.402-2.552 2.612 2.612 0 0 0-2.558-2.546h-.012Zm.901 28.074a2.401 2.401 0 0 0-2.402 2.553 2.618 2.618 0 0 0 2.564 2.552 2.401 2.401 0 0 0 2.402-2.552 2.618 2.618 0 0 0-2.564-2.553Z" style="mix-blend-mode:multiply" opacity=".45"/><path d="m106.504 81.13.054 1.79H27.775l-.06-1.79h78.789Zm1.194 37.552.054 1.789H28.963l-.054-1.789h78.789Zm10.131 39.484-10.798 5.123H4.876l10.797-5.123H117.83Z" style="mix-blend-mode:multiply" opacity=".45"/><path d="m15.674 158.166-10.798 5.123L0 9.927l10.803-5.123 4.87 153.362Z" style="mix-blend-mode:multiply" opacity=".45"/></g><path d="m128.578 6.546-10.81 5.122a5.493 5.493 0 0 0-5.374-5.357l10.809-5.122a5.499 5.499 0 0 1 5.375 5.357Zm-11.813 71.57-10.798 5.123-.054-1.784 10.798-5.128.054 1.79Zm1.802 17.914-10.804 5.123-6.545-6.522 10.803-5.123 6.546 6.522Z" fill="#505050"/><path d="m116.105 96.03-10.797 5.122-.901-.894 10.798-5.129.9.9Z" fill="#FF0"/><path d="m115.264 96.925-10.803 5.122.847-.895 10.797-5.122-.841.895Zm-4.438-6.15-10.798 5.123 1.189-1.267 10.804-5.123-1.195 1.267Z" fill="#FF0"/><path d="m115.204 95.13-10.798 5.128-4.378-4.36 10.798-5.123 4.378 4.354Z" fill="#FF0"/><path d="m112.435 102.545-10.803 5.123 6.131-6.516 10.804-5.122-6.132 6.515Zm20.604 44.277-10.804 5.123-4.456-140.277 10.798-5.122 4.462 140.276Z" fill="#505050"/><path d="m111.162 101.278-10.798 5.123 4.096-4.354 10.803-5.122-4.101 4.353Zm1.273 1.268-10.804 5.122-1.267-1.267 10.798-5.122 1.273 1.267Z" fill="#FF0"/><path d="m112.02 89.508 6.546 6.522-6.131 6.516-1.274-1.267 4.102-4.354.841-.895-.901-.9-4.378-4.355 1.195-1.267Z" fill="#1D1A3F"/><path d="m117.96 115.667-10.797 5.122-.06-1.783 10.803-5.129.054 1.79ZM65 38.013l3.987-1.891 6.81-3.231L65 38.013Z" fill="#505050"/><path d="M65 38.013a2.517 2.517 0 0 0-1.8-.75l5.404-2.565 5.405-2.558a2.51 2.51 0 0 1 1.801.745L65 38.007v.006Z" fill="#505050"/><path d="m63.222 37.263 1.261-.601 1.34-.6 1.387-.661 1.41-.673 1.412-.666 1.393-.66 1.333-.637 1.261-.6-10.809 5.122.012-.024Zm-6.101-14.041a2.293 2.293 0 0 0-1.02.229l10.809-5.123a2.312 2.312 0 0 1 1.02-.228c-3.254 1.52-7.314 4.342-10.809 5.122Z" fill="#505050"/><path d="m57.121 23.222 10.81-5.122a2.613 2.613 0 0 1 2.564 2.546 2.463 2.463 0 0 1-1.387 2.324l-10.81 5.122a2.467 2.467 0 0 0 1.387-2.324 2.624 2.624 0 0 0-2.564-2.546Zm73.012 128.471-10.81 5.122a5.16 5.16 0 0 0 2.901-4.87l10.809-5.123a5.169 5.169 0 0 1-2.9 4.871Z" fill="#505050"/><path d="m119.335 156.815-.12.06 1.261-.6 1.339-.637 1.387-.654 1.412-.673 1.417-.673 1.387-.654 1.333-.637 1.261-.6a.813.813 0 0 0 .12-.054l-10.797 5.122Z" fill="#505050"/><path d="m119.065 156.935.103-.048.108-.048.108-.054.114-.054.114-.054.108-.054.108-.048.102-.048 1.159-.553 1.231-.6 1.279-.601 1.298-.6 1.303-.601 1.273-.6 1.231-.601 1.165-.552.144-.066-10.809 5.128-.139.054ZM63.222 37.263c-.353 0-.701.078-1.02.228l10.809-5.123a2.4 2.4 0 0 1 1.02-.228l-10.809 5.123Zm1.892 4.359A2.6 2.6 0 0 0 65 38.02l2.6-1.237 1.388-.654 1.417-.673 1.411-.667 1.387-.66 1.34-.637 1.26-.6a2.612 2.612 0 0 1 .115 3.603 2.36 2.36 0 0 1-.715.516l-10.81 5.123c.271-.123.516-.296.721-.51Z" fill="#505050"/><path d="M119.065 156.935a4.891 4.891 0 0 1-1.862.361l10.81-5.123a4.954 4.954 0 0 0 1.867-.36l-9.95 4.726c-.289.126-.571.27-.865.396Zm11.578-4.156-10.809 5.123a6.08 6.08 0 0 1-2.606.6l10.809-5.122a6.06 6.06 0 0 0 2.606-.601ZM69.095 22.976 58.285 28.1a2.31 2.31 0 0 1-1.015.228 2.618 2.618 0 0 1-2.57-2.552 2.474 2.474 0 0 1 1.381-2.318l10.81-5.123a2.439 2.439 0 0 0-1.381 2.318 2.612 2.612 0 0 0 2.564 2.552c.353.004.703-.074 1.02-.228Z" fill="#505050"/><path d="M67.895 18.106a2.612 2.612 0 0 1 2.564 2.546 2.403 2.403 0 0 1-2.402 2.552 2.612 2.612 0 0 1-2.564-2.552 2.401 2.401 0 0 1 2.402-2.546Zm7.308 18.928-10.81 5.123a2.34 2.34 0 0 1-1.02.228 2.533 2.533 0 0 1-1.802-.745 2.606 2.606 0 0 1-.114-3.603c.203-.217.446-.394.714-.522l10.81-5.123a2.28 2.28 0 0 0-.715.523 2.606 2.606 0 0 0 .12 3.603 2.512 2.512 0 0 0 1.802.745c.351.002.698-.076 1.015-.229Z" fill="#505050"/><path d="M74.019 32.14a2.509 2.509 0 0 1 1.801.75 2.606 2.606 0 0 1 .114 3.604 2.402 2.402 0 0 1-1.735.745 2.514 2.514 0 0 1-1.802-.745 2.606 2.606 0 0 1-.12-3.603 2.36 2.36 0 0 1 1.742-.75Zm45.754 101.879-10.803 5.123-6.546-6.516 10.803-5.129 6.546 6.522Z" fill="#505050"/><path d="m117.312 134.019-10.797 5.123-.901-.895 10.798-5.123.9.895Z" fill="#FF0"/><path d="m116.47 134.914-10.797 5.122.841-.894 10.797-5.123-.841.895Zm-.059-1.79-10.798 5.123-4.378-4.36 10.798-5.123 4.378 4.36Z" fill="#FF0"/><path d="m112.033 128.765-10.798 5.122 1.189-1.261 10.804-5.129-1.195 1.268Z" fill="#FF0"/><path d="M55.849 13.013 47.65 16.9l8.197-3.886Zm-9.983 3.165 8.215-3.891-8.215 3.891Z" fill="#505050"/><path d="M43.273 17.41a2.4 2.4 0 0 0-1.021.227l10.81-5.122c.319-.15.667-.228 1.02-.228l-.937.444-.486.234-2.558 1.201-6.828 3.243 10.81-5.122a2.516 2.516 0 0 1 1.8.744l-10.809 5.123.307-.144.312-.144.318-.156.319-.15.33-.157.33-.156.336-.162.343-.162 1.033-.493 1.056-.498 1.063-.504 1.057-.499 1.045-.498 1.021-.487.985-.462.937-.444a2.6 2.6 0 0 1 .114 3.603c-.201.215-.442.39-.709.516l-10.81 5.122c.27-.124.513-.299.715-.516a2.607 2.607 0 0 0-.114-3.603 2.51 2.51 0 0 0-1.79-.75Zm70.369 123.125-10.803 5.122 6.131-6.515 10.804-5.123-6.132 6.516Z" fill="#505050"/><path d="m112.369 139.268-10.798 5.122 4.102-4.354 10.797-5.122-4.101 4.354Z" fill="#FF0"/><path d="m113.228 127.497 6.546 6.522-6.131 6.516-1.274-1.267 4.102-4.354.841-.895-.901-.895-4.378-4.359 1.195-1.268Z" fill="#1D1A3F"/><path d="m113.642 140.535-10.804 5.122-1.267-1.267 10.798-5.122 1.273 1.267Z" fill="#FF0"/><path d="m55.283 17.163-10.81 5.122a2.305 2.305 0 0 1-1.02.229 2.517 2.517 0 0 1-1.802-.745 2.6 2.6 0 0 1-.114-3.603c.2-.219.44-.397.709-.523l10.81-5.122c-.27.124-.513.3-.715.516a2.613 2.613 0 0 0 .114 3.604 2.535 2.535 0 0 0 1.801.744c.355.005.706-.071 1.027-.222Zm-25.486 6.059a2.341 2.341 0 0 0-1.027.229l10.81-5.123a2.312 2.312 0 0 1 1.02-.228c-3.248 1.52-7.308 4.336-10.803 5.122Z" fill="#505050"/><path d="m29.797 23.222 10.81-5.122a2.612 2.612 0 0 1 2.558 2.546 2.45 2.45 0 0 1-1.382 2.324l-10.81 5.122a2.468 2.468 0 0 0 1.382-2.324 2.618 2.618 0 0 0-2.558-2.546Z" fill="#505050"/><path d="M41.77 22.976 30.962 28.1c-.316.151-.663.23-1.014.228a2.618 2.618 0 0 1-2.57-2.552 2.463 2.463 0 0 1 1.38-2.318l10.81-5.123a2.456 2.456 0 0 0-1.387 2.318 2.618 2.618 0 0 0 2.57 2.552c.353.003.703-.075 1.02-.228Z" fill="#505050"/><path d="M40.595 18.106a2.612 2.612 0 0 1 2.558 2.546 2.4 2.4 0 0 1-2.402 2.552 2.618 2.618 0 0 1-2.57-2.552 2.4 2.4 0 0 1 2.414-2.546Zm82.608-16.917-10.798 5.122H11.409L22.207 1.19h100.996ZM26.361 38.013l1.267-.6 1.334-.637 1.393-.66 1.411-.667 1.411-.673 1.388-.654 1.339-.637 1.26-.6-10.803 5.128Zm-.006 0a2.516 2.516 0 0 0-1.801-.75l1.267-.6 1.333-.637 1.393-.655 1.411-.673 1.412-.666 1.387-.66 1.34-.637 1.254-.6a2.534 2.534 0 0 1 1.802.744l-10.798 5.134Z" fill="#505050"/><path d="m24.578 37.263 1.262-.601 1.339-.6 1.387-.661 1.411-.673 1.417-.666 1.388-.66 1.333-.637 1.26-.6-10.809 5.121.012-.023Z" fill="#505050"/><path d="M24.578 37.263a2.4 2.4 0 0 0-1.02.228l10.81-5.123c.319-.15.667-.228 1.02-.228l-10.81 5.123Zm1.879 4.359a2.612 2.612 0 0 0-.114-3.603l1.261-.6.66-.313 1.364-.648 1.405-.667 1.43-.678.702-.33 1.387-.661.679-.325 1.303-.6c.186-.09.414-.294.6-.294a2.607 2.607 0 0 1 .115 3.603 2.29 2.29 0 0 1-.715.516l-10.81 5.123a2.36 2.36 0 0 0 .733-.523Zm4.206 9.681a2.4 2.4 0 0 0-1.021.228l10.809-5.123a2.4 2.4 0 0 1 1.02-.228c-3.224 1.538-7.283 4.336-10.808 5.123Z" fill="#505050"/><path d="m30.662 51.303 10.81-5.123a2.618 2.618 0 0 1 2.564 2.553 2.475 2.475 0 0 1-1.381 2.324l-10.81 5.122a2.467 2.467 0 0 0 1.387-2.324 2.619 2.619 0 0 0-2.57-2.552Zm5.898-14.269-10.81 5.123a2.305 2.305 0 0 1-1.02.228 2.51 2.51 0 0 1-1.802-.745 2.606 2.606 0 0 1-.12-3.603c.203-.217.446-.394.714-.522l10.81-5.123a2.257 2.257 0 0 0-.71.523 2.6 2.6 0 0 0 .115 3.603 2.512 2.512 0 0 0 1.802.745c.353.003.702-.075 1.02-.229Z" fill="#505050"/><path d="M35.376 32.14a2.51 2.51 0 0 1 1.802.75 2.607 2.607 0 0 1 .114 3.604 2.367 2.367 0 0 1-1.736.744 2.51 2.51 0 0 1-1.801-.744 2.6 2.6 0 0 1-.114-3.603 2.336 2.336 0 0 1 1.735-.751Zm7.296 18.917-10.81 5.122a2.4 2.4 0 0 1-1.014.228 2.618 2.618 0 0 1-2.588-2.558 2.456 2.456 0 0 1 1.38-2.324l10.81-5.122a2.462 2.462 0 0 0-1.381 2.324 2.618 2.618 0 0 0 2.564 2.552c.359.004.714-.072 1.04-.222Zm74.039 25.27-10.797 5.128H27.125l10.797-5.128h78.789Z" fill="#505050"/><path d="M37.983 78.116 27.178 83.24l-.054-1.784 10.797-5.128.06 1.79Z" fill="#FF0"/><path d="m116.766 78.116-10.797 5.123h-78.79l10.804-5.123h78.783Z" fill="#FF0"/><path d="m115.204 95.129-10.797 5.123H27.72l10.803-5.123h76.681Z" fill="#505050"/><path d="m115.264 96.925-10.804 5.122H27.78l10.797-5.122h76.687Zm-76.687 0-10.797 5.122-.06-1.789 10.803-5.129.054 1.796Z" fill="#FF0"/><path d="m117.906 113.877-10.804 5.129H28.314l10.803-5.129h78.789Z" fill="#505050"/><path d="m39.171 115.667-10.797 5.122-.06-1.783 10.803-5.129.054 1.79Zm78.789 0-10.797 5.123H28.374l10.798-5.123h78.788Z" fill="#FF0"/><path d="m116.411 133.124-10.797 5.123H28.927l10.803-5.123h76.681Z" fill="#505050"/><path d="m39.784 134.914-10.797 5.122-.06-1.789 10.803-5.123.054 1.79Z" fill="#FF0"/><path d="m116.411 133.124.9.895-.84.895H39.783l-.053-1.79h76.681Z" fill="#1D1A3F"/><path d="m116.47 134.914-10.798 5.122H28.985l10.798-5.122h76.687Z" fill="#FF0"/><path d="m128.002 152.173-10.798 5.122H16.208l10.797-5.122h100.997Z" fill="#505050"/><path d="m27.005 152.173-10.798 5.122L11.41 6.312l10.798-5.123 4.798 150.984Z" fill="#505050"/><path d="M123.142 0a6.716 6.716 0 0 1 6.606 6.546l4.456 140.276a6.233 6.233 0 0 1-1.681 4.585 6.212 6.212 0 0 1-4.475 1.955H25.857L21.011 0h102.131Zm9.873 146.822L128.577 6.546a5.498 5.498 0 0 0-5.375-5.357H22.206l4.804 150.984H128a5.089 5.089 0 0 0 4.732-3.335c.237-.644.342-1.33.307-2.016" fill="#505050"/><path d="M54.083 12.287a2.514 2.514 0 0 1 1.802.744 2.606 2.606 0 0 1 .114 3.604 2.36 2.36 0 0 1-1.73.744 2.533 2.533 0 0 1-1.801-.744 2.612 2.612 0 0 1-.114-3.604 2.364 2.364 0 0 1 1.73-.744ZM41.471 46.18a2.618 2.618 0 0 1 2.565 2.553 2.403 2.403 0 0 1-2.403 2.552 2.618 2.618 0 0 1-2.564-2.552 2.403 2.403 0 0 1 2.402-2.553Z" fill="#505050"/><path d="m115.204 95.13.901.9-.84.895H38.577l-.054-1.796h76.681Z" fill="#1D1A3F"/><path d="M123.202 1.189a5.496 5.496 0 0 1 5.375 5.357l4.456 140.276a5.081 5.081 0 0 1-1.374 3.75 5.092 5.092 0 0 1-3.658 1.601H27.004L22.2 1.189h101.002Zm-10.767 101.357 6.131-6.516-6.545-6.522-1.201 1.267 4.377 4.354H38.523l.053 1.802h76.688l-4.102 4.36 1.273 1.267v-.012Zm1.201 38.001 6.131-6.516-6.545-6.516-1.201 1.262 4.378 4.359h-76.67l.055 1.802h76.687l-4.102 4.354 1.273 1.267-.006-.012Zm-74.519-26.645.054 1.801h78.789l-.054-1.801H39.117Zm77.594-37.551h-78.79l.055 1.801h78.789l-.054-1.801ZM33.761 36.5a2.51 2.51 0 0 0 1.8.745 2.365 2.365 0 0 0 1.736-.745 2.612 2.612 0 0 0-.114-3.603 2.534 2.534 0 0 0-1.801-.745 2.352 2.352 0 0 0-1.73.745 2.607 2.607 0 0 0 .114 3.603h-.006Zm38.529-3.603a2.613 2.613 0 0 0 .12 3.603 2.508 2.508 0 0 0 2.746.55c.298-.128.567-.315.791-.55a2.612 2.612 0 0 0-.12-3.603 2.512 2.512 0 0 0-1.802-.745 2.401 2.401 0 0 0-1.735.745ZM52.334 13.013a2.612 2.612 0 0 0 .115 3.603 2.534 2.534 0 0 0 1.801.745 2.36 2.36 0 0 0 1.73-.745 2.606 2.606 0 0 0-.114-3.603 2.514 2.514 0 0 0-1.802-.744 2.365 2.365 0 0 0-1.73.744Zm15.56 5.093a2.403 2.403 0 0 0-2.402 2.546 2.612 2.612 0 0 0 2.564 2.552 2.403 2.403 0 0 0 2.402-2.552 2.613 2.613 0 0 0-2.564-2.546Zm-27.324 0a2.402 2.402 0 0 0-2.402 2.546 2.619 2.619 0 0 0 2.57 2.552 2.403 2.403 0 0 0 2.403-2.552 2.612 2.612 0 0 0-2.559-2.546h-.012Zm.901 28.074a2.401 2.401 0 0 0-2.402 2.553 2.618 2.618 0 0 0 2.564 2.552 2.401 2.401 0 0 0 2.402-2.552 2.618 2.618 0 0 0-2.564-2.553Z" fill="#F9F9F9"/><path d="m116.712 76.327.054 1.79H37.983l-.06-1.79h78.789Zm1.194 37.55.054 1.79H39.171l-.054-1.79h78.789Z" fill="#1D1A3F"/><path d="m128.037 153.362-10.798 5.122H15.084l10.797-5.122h102.156Z" fill="#505050"/><path d="m25.882 153.362-10.798 5.123L10.208 5.122 21.011 0l4.87 153.362Z" fill="#505050"/><g style="mix-blend-mode:multiply" opacity=".45" fill="#000"><path d="m57.087 29.264.114-.054.126-.06.126-.06.126-.06.133-.06.126-.06.12-.06.12-.055.168-.084.186-.084.186-.09.198-.096.193-.09.192-.09.18-.084.174-.084c.01.029.01.06 0 .09l-2.468 1.17a.139.139 0 0 0 0-.09Z" style="mix-blend-mode:multiply" opacity=".45"/><path d="M56.984 29.227h-.03l2.468-1.17h.03a.133.133 0 0 1 .108.066l-2.468 1.2a.132.132 0 0 0-.108-.096Zm1.363 4.306-2.462 1.165 1.219-5.345 2.468-1.17-1.225 5.35Z" style="mix-blend-mode:multiply" opacity=".45"/><path d="m58.288 33.605-2.469 1.171a.102.102 0 0 0 .06-.078l2.468-1.165a.103.103 0 0 1-.06.072Z" style="mix-blend-mode:multiply" opacity=".45"/><path d="m58.288 33.605-2.468 1.171h-.054a.109.109 0 0 1-.078-.036l2.468-1.2c.02.021.048.034.078.035l.054.03Zm1.135-5.573-2.469 1.171-5.158 1.43 2.468-1.171 5.159-1.43Z" style="mix-blend-mode:multiply" opacity=".45"/><path d="m51.783 30.639 2.468-1.171-2.468 1.2v-.03Zm6.372 2.942-2.468 1.171-3.94-3.915 2.468-1.171 3.94 3.915Z" style="mix-blend-mode:multiply" opacity=".45"/><path d="m51.784 30.639 2.468-1.171a.127.127 0 0 0-.036.198l-2.468 1.201a.126.126 0 0 1 .036-.228Z" style="mix-blend-mode:multiply" opacity=".45"/><path d="M59.453 28.027a.124.124 0 0 1 .098.049.127.127 0 0 1 .023.107l-1.201 5.35a.108.108 0 0 1-.114.084.114.114 0 0 1-.079-.036l-3.94-3.915a.126.126 0 0 1 .049-.204l5.158-1.43.006-.005Z" style="mix-blend-mode:multiply" opacity=".45"/><path d="m58.984 44.697-2.468 1.201a11.225 11.225 0 0 0 6.305-10.587c-.204-6.414-5.44-11.626-11.68-11.626a10.754 10.754 0 0 0-4.636 1.039l2.468-1.201a10.757 10.757 0 0 1 4.636-1.04c6.24 0 11.476 5.213 11.68 11.627a11.223 11.223 0 0 1-6.305 10.587Z" style="mix-blend-mode:multiply" opacity=".45"/><path d="M56.516 45.868a10.756 10.756 0 0 1-4.636 1.039l.288-.138.306-.144.319-.15.318-.157.324-.15.319-.15.306-.144.288-.138a10.757 10.757 0 0 0 4.636-1.039l-2.468 1.171ZM40.194 35.28a11.223 11.223 0 0 1 6.305-10.586l2.468-1.201a11.225 11.225 0 0 0-6.293 10.617l-2.48 1.17Z" style="mix-blend-mode:multiply" opacity=".45"/><path d="M51.88 46.907c-6.24 0-11.483-5.219-11.687-11.626l.289-.138.306-.145.312-.15.324-.156.325-.15.318-.15.306-.144.288-.138c.205 6.407 5.447 11.626 11.687 11.626l-.288.138-.307.144-.318.15-.324.15-.48.229-.463.222c-.092.054-.188.1-.288.138Z" style="mix-blend-mode:multiply" opacity=".45"/><path d="M53.61 22.484c6.24 0 11.476 5.212 11.68 11.626.204 6.413-4.702 11.626-10.941 11.626-6.24 0-11.482-5.219-11.675-11.626-.192-6.408 4.697-11.626 10.936-11.626Zm5.963 5.699a.126.126 0 0 0-.12-.157h-.03l-5.158 1.43a.125.125 0 0 0-.078.15c.005.02.015.039.03.054l3.939 3.915a.108.108 0 0 0 .078.036.108.108 0 0 0 .114-.084l1.201-5.35" style="mix-blend-mode:multiply" opacity=".45"/><path d="m59.489 45.784-2.469 1.201a11.915 11.915 0 0 1-5.11 1.141c-6.882 0-12.66-5.753-12.881-12.815a12.383 12.383 0 0 1 6.954-11.68l2.468-1.172a12.383 12.383 0 0 0-6.954 11.68c.222 7.063 6.005 12.816 12.881 12.816a11.89 11.89 0 0 0 5.11-1.171Z" style="mix-blend-mode:multiply" opacity=".45"/><path d="M53.572 21.288c6.876 0 12.653 5.754 12.876 12.822.222 7.068-5.159 12.815-12.065 12.815s-12.66-5.753-12.881-12.815c-.223-7.062 5.188-12.822 12.07-12.822Zm.775 24.448c6.24 0 11.146-5.219 10.941-11.626-.204-6.408-5.44-11.626-11.68-11.626-6.24 0-11.151 5.212-10.947 11.626.204 6.413 5.447 11.626 11.686 11.626Z" style="mix-blend-mode:multiply" opacity=".45"/></g><path d="m58.889 27.462.114-.054.126-.06.126-.06.126-.06.132-.06.126-.06.12-.06.12-.054.169-.085.186-.084.186-.09.198-.096.192-.09.192-.09.18-.084.175-.084c.01.03.01.06 0 .09l-2.468 1.171c.01-.03.01-.06 0-.09Z" fill="#F9F9F9"/><path d="M58.787 27.426h-.03l2.468-1.171h.03a.13.13 0 0 1 .108.066l-2.468 1.2a.133.133 0 0 0-.108-.095Zm1.362 4.306-2.462 1.165 1.219-5.345 2.468-1.171-1.225 5.35Z" fill="#F9F9F9"/><path d="m60.09 31.804-2.469 1.17a.102.102 0 0 0 .06-.077l2.468-1.165a.102.102 0 0 1-.06.072Z" fill="#F9F9F9"/><path d="m60.09 31.804-2.469 1.17h-.054a.109.109 0 0 1-.078-.035l2.468-1.201c.02.021.049.034.078.036l.055.03Z" fill="#505050"/><path d="m61.225 26.23-2.468 1.172L53.6 28.83l2.468-1.171 5.158-1.43Z" fill="#F9F9F9"/><path d="m53.585 28.837 2.468-1.17-2.468 1.2v-.03Z" fill="#F9F9F9"/><path d="m59.957 31.78-2.468 1.17-3.94-3.915 2.469-1.17 3.94 3.915Z" fill="#505050"/><path d="m53.586 28.837 2.468-1.17a.126.126 0 0 0-.035.197l-2.469 1.201a.126.126 0 0 1-.025-.19.126.126 0 0 1 .061-.038Z" fill="#505050"/><path d="M61.254 26.225a.126.126 0 0 1 .12.156l-1.2 5.35a.108.108 0 0 1-.115.085.114.114 0 0 1-.078-.036l-3.94-3.916a.128.128 0 0 1-.03-.115.125.125 0 0 1 .079-.089l5.158-1.43.006-.005Z" fill="#505050"/><path d="m60.786 42.895-2.468 1.201a11.224 11.224 0 0 0 6.306-10.587c-.204-6.413-5.44-11.626-11.68-11.626a10.755 10.755 0 0 0-4.636 1.039l2.468-1.201a10.756 10.756 0 0 1 4.636-1.039c6.24 0 11.476 5.213 11.68 11.626a11.225 11.225 0 0 1-6.306 10.587Z" fill="#505050"/><path d="M58.318 44.066a10.757 10.757 0 0 1-4.636 1.04l.288-.139.306-.144.318-.15.319-.156.324-.15.318-.15.306-.145.289-.138a10.757 10.757 0 0 0 4.636-1.039l-2.468 1.171ZM41.995 33.48a11.224 11.224 0 0 1 6.306-10.588l2.468-1.201a11.224 11.224 0 0 0-6.294 10.617l-2.48 1.171Z" fill="#F9F9F9"/><path d="M53.681 45.105c-6.24 0-11.482-5.218-11.686-11.626l.288-.138.307-.144.312-.15.324-.156.325-.15.318-.15.306-.145.288-.138c.204 6.408 5.447 11.626 11.687 11.626l-.289.139-.306.144-.318.15-.325.15-.48.228-.462.222c-.092.055-.189.1-.289.138Z" fill="#F9F9F9"/><path d="M55.412 20.682c6.24 0 11.476 5.213 11.68 11.626.204 6.414-4.702 11.626-10.942 11.626s-11.482-5.218-11.674-11.626c-.192-6.407 4.696-11.626 10.936-11.626Zm5.963 5.699a.125.125 0 0 0-.023-.107.126.126 0 0 0-.097-.05h-.03l-5.159 1.43a.126.126 0 0 0-.048.204l3.94 3.916a.11.11 0 0 0 .078.036.108.108 0 0 0 .114-.084l1.2-5.351" fill="#F9F9F9"/><path d="m61.29 43.982-2.468 1.201a11.915 11.915 0 0 1-5.11 1.141c-6.882 0-12.66-5.753-12.882-12.815a12.383 12.383 0 0 1 6.954-11.68l2.469-1.171a12.382 12.382 0 0 0-6.955 11.68c.223 7.062 6.006 12.815 12.882 12.815a11.89 11.89 0 0 0 5.11-1.17Z" fill="#505050"/><path d="M55.374 19.487c6.876 0 12.653 5.753 12.875 12.821.223 7.068-5.158 12.815-12.064 12.815s-12.66-5.753-12.882-12.815c-.222-7.062 5.189-12.821 12.071-12.821Zm.775 24.447c6.24 0 11.145-5.218 10.941-11.626-.204-6.407-5.44-11.626-11.68-11.626-6.24 0-11.152 5.213-10.947 11.626.204 6.414 5.446 11.626 11.686 11.626Z" fill="#505050"/></svg>