<svg width="237" height="178" fill="none" xmlns="http://www.w3.org/2000/svg"><g filter="url(#mentor-page-artwork__a)"><g style="mix-blend-mode:multiply" opacity=".45" fill="#505050"><path d="m225.65 153.391-9.744 4.623a.917.917 0 0 0-.888-.899l9.744-4.622c.235.005.46.102.626.269a.916.916 0 0 1 .262.629Zm-21.634-41.749-9.743 4.622a.922.922 0 0 0-.889-.888l9.744-4.623a.922.922 0 0 1 .888.889Zm22.173 58.861-9.744 4.622-.539-17.111 9.744-4.623.539 17.112Z" style="mix-blend-mode:multiply" opacity=".45"/><path d="m225.71 171.311-9.744 4.623a.848.848 0 0 0 .48-.809l9.743-4.622a.844.844 0 0 1-.479.808Z" style="mix-blend-mode:multiply" opacity=".45"/><g style="mix-blend-mode:multiply" opacity=".45"><path d="m225.71 171.311-9.744 4.622h-.06l9.754-4.622h.05Z" style="mix-blend-mode:multiply" opacity=".45"/><path d="m225.66 171.341-9.754 4.622a.92.92 0 0 1-.289.05l9.743-4.622a.988.988 0 0 0 .3-.05Z" style="mix-blend-mode:multiply" opacity=".45"/></g><path d="m226.568 173.118-9.743 4.622-.19.08 9.744-4.622.189-.08Zm-.189.08-9.744 4.622a2.767 2.767 0 0 1-.998.18l9.743-4.632c.341.006.679-.051.999-.17Zm-1.618-20.705-9.743 4.622h-16.662l9.743-4.622h16.662Zm-19.537-2.855-9.753 4.622-1.198-37.996 9.743-4.622 1.208 37.996Z" style="mix-blend-mode:multiply" opacity=".45"/><path d="m208.07 152.523-9.744 4.622a2.994 2.994 0 0 1-2.885-2.855l9.753-4.622a2.94 2.94 0 0 0 2.876 2.855Zm-21.784-19.966-9.743 4.622a2.938 2.938 0 0 0-2.876-2.855l9.744-4.623a2.932 2.932 0 0 1 2.875 2.856Z" style="mix-blend-mode:multiply" opacity=".45"/><path d="m184.359 132.557-9.743 4.622a.91.91 0 0 0-.889-.879l9.744-4.622a.91.91 0 0 1 .888.879Zm2.476 17.081-9.753 4.622-.539-17.131 9.743-4.622.549 17.131Z" style="mix-blend-mode:multiply" opacity=".45"/><path d="m184.908 149.638-9.753 4.622-.539-17.131 9.743-4.622.549 17.131Zm18.22-38.885-9.744 4.623h-36.988l9.754-4.623h36.978Z" style="mix-blend-mode:multiply" opacity=".45"/><g style="mix-blend-mode:multiply" opacity=".45"><path d="m166.14 110.753-9.753 4.623a.94.94 0 0 0-.29 0l9.754-4.623a.876.876 0 0 1 .289 0Z" style="mix-blend-mode:multiply" opacity=".45"/><path d="m165.861 110.803-9.704 4.623h-.05l9.744-4.623h.06" style="mix-blend-mode:multiply" opacity=".45"/></g><path d="m184.419 150.436-9.743 4.623a.824.824 0 0 0 .479-.799l9.754-4.622a.845.845 0 0 1-.49.798Zm.859 1.807-9.744 4.623a2.756 2.756 0 0 0 1.548-2.606l9.753-4.622a2.78 2.78 0 0 1-1.557 2.605Zm-19.966-40.601-9.744 4.622a.863.863 0 0 1 .489-.809l9.744-4.622a.855.855 0 0 0-.489.809Z" style="mix-blend-mode:multiply" opacity=".45"/><g style="mix-blend-mode:multiply" opacity=".45"><path d="m185.278 152.243-9.744 4.623-.189.079 9.763-4.622.19-.08" style="mix-blend-mode:multiply" opacity=".45"/><path d="m185.108 152.323-9.743 4.623c-.32.118-.658.176-.999.169l9.744-4.592c.34.007.679-.051.998-.17" style="mix-blend-mode:multiply" opacity=".45"/></g><path d="m163.385 111.642-9.744 4.622a2.781 2.781 0 0 1 1.518-2.616l9.743-4.622a2.786 2.786 0 0 0-1.557 2.616m20.066 18.009-9.743 4.623h-16.662l9.743-4.623h16.662Zm-17.55-.898-9.744 4.622-.549-17.111 9.744-4.622.549 17.111Z" style="mix-blend-mode:multiply" opacity=".45"/><path d="m166.749 129.651-9.743 4.623a.91.91 0 0 1-.889-.899l9.744-4.622a.919.919 0 0 0 .888.898Z" style="mix-blend-mode:multiply" opacity=".45"/><path d="m166.749 129.651-9.743 4.623a.91.91 0 0 1-.889-.899l9.744-4.622a.919.919 0 0 0 .888.898Zm16.722 1.977-9.744 4.622h-16.661l9.743-4.622h16.662Zm-19.537-2.875-9.744 4.622-.549-17.111 9.744-4.622.549 17.111Z" style="mix-blend-mode:multiply" opacity=".45"/><path d="m166.809 131.628-9.744 4.622a2.992 2.992 0 0 1-2.875-2.875l9.744-4.622a2.992 2.992 0 0 0 2.875 2.875Zm17.331 20.865-9.754 4.622h-16.662l9.744-4.622h16.672Z" style="mix-blend-mode:multiply" opacity=".45"/><path d="m167.468 152.523-9.744 4.622a.72.72 0 0 0-.289.06l9.753-4.622a.674.674 0 0 1 .28-.06Zm-.28 0-9.753 4.622 9.743-4.622h.06" style="mix-blend-mode:multiply" opacity=".45"/><path d="m166.639 153.391-9.743 4.623a.856.856 0 0 1 .489-.819l9.743-4.622a.857.857 0 0 0-.489.818Zm-1.926 0-9.744 4.623a2.767 2.767 0 0 1 1.557-2.616l9.744-4.632a2.8 2.8 0 0 0-1.557 2.625Zm60.648 18-9.744 4.622h-57.284l9.744-4.622h57.284Zm-58.173-.888-9.743 4.622-.549-17.111 9.743-4.623.549 17.112Z" style="mix-blend-mode:multiply" opacity=".45"/><path d="M203.128 110.753a.922.922 0 0 1 .888.889l1.208 37.996a2.936 2.936 0 0 0 2.846 2.885h16.662c.235.005.46.102.626.269a.916.916 0 0 1 .262.629l.539 17.112a.823.823 0 0 1-.224.621.824.824 0 0 1-.604.267h-57.254a.908.908 0 0 1-.889-.888l-.549-17.112a.865.865 0 0 1 .5-.821.87.87 0 0 1 .329-.077h16.642a2.73 2.73 0 0 0 2.529-1.779c.127-.344.184-.71.166-1.076l-.519-17.111a2.932 2.932 0 0 0-2.875-2.856h-16.662a.915.915 0 0 1-.888-.898l-.549-17.111a.857.857 0 0 1 .838-.889l36.978-.05Z" style="mix-blend-mode:multiply" opacity=".45"/><path d="m168.077 171.391-9.754 4.622a.906.906 0 0 1-.878-.888l9.743-4.622a.908.908 0 0 0 .889.888Zm57.343 1.977L215.677 178h-57.284l9.744-4.632h57.283Zm-60.158-2.865-9.744 4.622-.549-17.111 9.744-4.623.549 17.112Z" style="mix-blend-mode:multiply" opacity=".45"/><path d="M224.702 150.526a2.996 2.996 0 0 1 2.885 2.875l.539 17.112a2.73 2.73 0 0 1-1.635 2.639 2.739 2.739 0 0 1-1.071.226h-57.283a2.94 2.94 0 0 1-2.875-2.865l-.549-17.112a2.731 2.731 0 0 1 .733-2.014 2.727 2.727 0 0 1 1.962-.861h16.702a.848.848 0 0 0 .839-.878l-.589-17.091a.91.91 0 0 0-.889-.879h-16.662a2.996 2.996 0 0 1-2.875-2.875l-.549-17.111a2.729 2.729 0 0 1 1.626-2.646 2.715 2.715 0 0 1 1.069-.229h36.998a2.99 2.99 0 0 1 2.875 2.875l1.208 37.996a.898.898 0 0 0 .889.878l16.652-.04Zm1.487 19.967-.539-17.112a.916.916 0 0 0-.262-.629.912.912 0 0 0-.626-.269H208.07a2.935 2.935 0 0 1-2.875-2.855l-1.208-37.996a.922.922 0 0 0-.889-.889H166.14a.871.871 0 0 0-.605.269.857.857 0 0 0-.233.62l.549 17.111a.919.919 0 0 0 .888.898h16.672a2.935 2.935 0 0 1 2.875 2.856l.549 17.131a2.72 2.72 0 0 1-1.641 2.672 2.711 2.711 0 0 1-1.084.223h-16.672a.865.865 0 0 0-.828.898l.549 17.111a.908.908 0 0 0 .888.889h57.284a.832.832 0 0 0 .604-.267.823.823 0 0 0 .224-.622" style="mix-blend-mode:multiply" opacity=".45"/><path d="M168.137 173.368 158.393 178a2.996 2.996 0 0 1-2.875-2.875l9.744-4.622a2.935 2.935 0 0 0 2.875 2.865Z" style="mix-blend-mode:multiply" opacity=".45"/></g><path d="m233.637 149.398-9.744 4.622a.919.919 0 0 0-.888-.898l9.743-4.622a.906.906 0 0 1 .889.898Zm-21.634-41.749-9.744 4.622a.914.914 0 0 0-.888-.889l9.743-4.622a.92.92 0 0 1 .889.889Z" fill="#505050"/><path d="m234.175 166.509-9.743 4.623-.539-17.112 9.743-4.622.539 17.111Zm-.479.809-9.743 4.622a.853.853 0 0 0 .479-.808l9.744-4.623a.848.848 0 0 1-.48.809Z" fill="#505050"/><path d="m233.696 167.318-9.743 4.622h-.06l9.753-4.622h.05Z" fill="#ECECEC"/><path d="m233.646 167.348-9.753 4.622a.92.92 0 0 1-.29.05l9.744-4.622a.976.976 0 0 0 .299-.05Z" fill="#ECECEC"/><path d="m234.555 169.125-9.744 4.622-.189.08 9.743-4.622.19-.08Zm-.19.08-9.743 4.622a2.772 2.772 0 0 1-.999.18l9.744-4.632c.34.006.679-.052.998-.17Zm-1.617-20.705-9.744 4.622h-16.662l9.744-4.622h16.662Zm-19.537-2.856-9.754 4.623-1.198-37.996 9.744-4.623 1.208 37.996Z" fill="#505050"/><path d="m216.056 148.53-9.744 4.622a2.998 2.998 0 0 1-2.885-2.855l9.754-4.623a2.932 2.932 0 0 0 2.875 2.856Z" fill="#505050"/><path d="m194.273 128.563-9.744 4.623a2.932 2.932 0 0 0-2.875-2.856l9.744-4.622a2.932 2.932 0 0 1 2.875 2.855Z" fill="#ECECEC"/><path d="m192.346 128.563-9.744 4.623a.904.904 0 0 0-.888-.879l9.744-4.622a.91.91 0 0 1 .888.878Z" fill="#505050"/><path d="m194.822 145.644-9.754 4.623-.539-17.131 9.744-4.623.549 17.131Z" fill="#ECECEC"/><path d="m192.895 145.644-9.754 4.623-.539-17.131 9.744-4.623.549 17.131Zm18.219-38.884-9.743 4.622h-36.988l9.754-4.622h36.977Zm-36.987 0-9.754 4.622a1 1 0 0 0-.289 0l9.753-4.622a.882.882 0 0 1 .29 0Z" fill="#505050"/><path d="m173.847 106.81-9.703 4.622h-.05l9.743-4.622h.06m18.509 39.633-9.744 4.622a.813.813 0 0 0 .48-.798l9.753-4.622a.845.845 0 0 1-.489.798Z" fill="#505050"/><path d="m193.265 148.25-9.744 4.622a2.754 2.754 0 0 0 1.547-2.605l9.754-4.622a2.78 2.78 0 0 1-1.557 2.605Zm-19.967-40.601-9.744 4.622a.864.864 0 0 1 .49-.809l9.743-4.622a.86.86 0 0 0-.489.809Z" fill="#ECECEC"/><path d="m193.264 148.25-9.743 4.622-.19.08 9.764-4.622.189-.08" fill="#505050"/><path d="m193.095 148.33-9.744 4.622a2.72 2.72 0 0 1-.998.17l9.743-4.592a2.7 2.7 0 0 0 .999-.17m-21.724-40.711-9.743 4.622a2.78 2.78 0 0 1 1.517-2.616l9.744-4.622a2.789 2.789 0 0 0-1.558 2.616" fill="#505050"/><path d="m191.398 125.658-9.744 4.622h-16.662l9.744-4.622h16.662Zm-17.551-.898-9.743 4.622-.549-17.111 9.743-4.623.549 17.112Z" fill="#ECECEC"/><path d="m174.736 125.658-9.744 4.622a.907.907 0 0 1-.888-.898l9.743-4.622a.915.915 0 0 0 .889.898Z" fill="#ECECEC"/><path d="m174.736 125.658-9.744 4.622a.907.907 0 0 1-.888-.898l9.743-4.622a.915.915 0 0 0 .889.898Z" fill="#ECECEC"/><path d="m191.458 127.635-9.744 4.622h-16.662l9.744-4.622h16.662Zm-19.537-2.875-9.744 4.622-.549-17.111 9.743-4.623.55 17.112Z" fill="#505050"/><path d="m174.796 127.635-9.744 4.622a2.992 2.992 0 0 1-2.905-2.875l9.743-4.622a2.996 2.996 0 0 0 2.876 2.875m17.36 20.865-9.753 4.622h-16.662l9.743-4.622h16.672Z" fill="#505050"/><path d="m175.454 148.53-9.743 4.622c-.1 0-.198.02-.29.06l9.754-4.622a.658.658 0 0 1 .279-.06Zm-.279 0-9.754 4.622 9.744-4.622h.06" fill="#505050"/><path d="m174.626 149.398-9.744 4.622a.864.864 0 0 1 .49-.818l9.743-4.623a.862.862 0 0 0-.489.819Z" fill="#ECECEC"/><path d="m172.699 149.398-9.743 4.622a2.762 2.762 0 0 1 1.557-2.615l9.743-4.632a2.806 2.806 0 0 0-1.557 2.625Z" fill="#505050"/><path d="m233.347 167.398-9.744 4.622H166.32l9.744-4.622h57.283Zm-58.172-.889-9.744 4.623-.549-17.112 9.744-4.622.549 17.111Z" fill="#ECECEC"/><path d="M211.114 106.76a.92.92 0 0 1 .889.889l1.208 37.995a2.932 2.932 0 0 0 2.845 2.886h16.662a.906.906 0 0 1 .889.898l.539 17.111a.86.86 0 0 1-.048.334.853.853 0 0 1-.451.484.85.85 0 0 1-.33.071h-57.253a.91.91 0 0 1-.889-.889l-.549-17.111a.865.865 0 0 1 .5-.821.848.848 0 0 1 .329-.077h16.642a2.714 2.714 0 0 0 1.954-.855 2.727 2.727 0 0 0 .741-2.001l-.519-17.111a2.936 2.936 0 0 0-2.875-2.855h-16.662a.92.92 0 0 1-.889-.898l-.549-17.112a.864.864 0 0 1 .509-.814.853.853 0 0 1 .33-.074l36.977-.05Z" fill="#ECECEC"/><path d="m176.063 167.398-9.753 4.622a.906.906 0 0 1-.879-.888l9.744-4.623a.906.906 0 0 0 .888.889Z" fill="#ECECEC"/><path d="m233.407 169.375-9.744 4.632H166.38l9.743-4.632h57.284Zm-60.159-2.866-9.743 4.623-.549-17.112 9.743-4.622.549 17.111Z" fill="#505050"/><path d="M232.688 146.533a2.992 2.992 0 0 1 2.885 2.875l.539 17.111a2.731 2.731 0 0 1-.74 2.011 2.725 2.725 0 0 1-1.965.854h-57.283a2.934 2.934 0 0 1-2.876-2.865l-.549-17.111a2.73 2.73 0 0 1 2.696-2.875h16.702a.84.84 0 0 0 .604-.263.844.844 0 0 0 .234-.616l-.589-17.091a.906.906 0 0 0-.888-.878h-16.662a2.994 2.994 0 0 1-2.875-2.875l-.549-17.112a2.716 2.716 0 0 1 .733-2.013 2.715 2.715 0 0 1 1.962-.862h36.998a2.996 2.996 0 0 1 2.875 2.875l1.208 37.996a.901.901 0 0 0 .888.879l16.652-.04Zm1.488 19.966-.539-17.111a.91.91 0 0 0-.889-.898h-16.692a2.937 2.937 0 0 1-2.875-2.856l-1.208-37.996a.914.914 0 0 0-.888-.888h-36.958a.872.872 0 0 0-.605.269.863.863 0 0 0-.234.619l.549 17.112a.915.915 0 0 0 .889.898h16.672a2.937 2.937 0 0 1 2.875 2.915l.549 17.131a2.728 2.728 0 0 1-2.725 2.836h-16.672a.848.848 0 0 0-.602.276.862.862 0 0 0-.227.622l.549 17.111a.912.912 0 0 0 .889.889h57.283a.85.85 0 0 0 .605-.267.842.842 0 0 0 .224-.622" fill="#505050"/><path d="m176.123 169.375-9.743 4.632a2.994 2.994 0 0 1-2.875-2.875l9.743-4.623a2.936 2.936 0 0 0 2.875 2.866Z" fill="#505050"/></g><g filter="url(#mentor-page-artwork__b)"><g style="mix-blend-mode:multiply" opacity=".45" fill="#505050"><path d="m86.95 54.118-6.013 2.853h-2.121l6.02-2.853h2.113Z" style="mix-blend-mode:multiply" opacity=".45"/><path d="m68.817 84.553-6.012 2.852c11.088-5.259 18.563-16.918 18.132-30.434l6.012-2.853c.431 13.495-7.044 25.198-18.132 30.435Z" style="mix-blend-mode:multiply" opacity=".45"/><path d="m67.88 82.57-6.012 2.853a30.164 30.164 0 0 0 16.947-28.452l6.02-2.853a30.186 30.186 0 0 1-16.954 28.453Z" style="mix-blend-mode:multiply" opacity=".45"/><path d="m75.217 98.091-6.013 2.853c16.026-7.6 26.822-24.452 26.208-43.973-.849-26.624-22.616-48.274-48.53-48.274a44.764 44.764 0 0 0-19.252 4.3l6.013-2.852a44.763 44.763 0 0 1 19.25-4.3c25.915 0 47.682 21.65 48.531 48.273.614 19.522-10.182 36.374-26.207 43.973Z" style="mix-blend-mode:multiply" opacity=".45"/><path d="M14.355 22.616a45.093 45.093 0 0 1 13.268-9.611l6.013-2.853a45.093 45.093 0 0 0-13.269 9.611l-6.012 2.853Zm3.891 37.244a31.514 31.514 0 0 1-.22-2.926l6.013-2.853c0 .973.102 1.939.22 2.926l-6.013 2.853Z" style="mix-blend-mode:multiply" opacity=".45"/><path d="m24.04 54.118-6.013 2.853h-2.121l6.012-2.853h2.121Zm-5.794 5.742.315-.154.336-.16.351-.162.351-.168.359-.168.344-.168.336-.161.315-.147.387-.182.41-.198.424-.197.432-.205.431-.205.424-.205.41-.19.388-.183c.139 1.144.34 2.28.6 3.401l-6.013 2.853a30.905 30.905 0 0 1-.6-3.401Z" style="mix-blend-mode:multiply" opacity=".45"/><path d="M49.412 88.202c-14.665 0-27.274-10.722-30.566-24.941l.732-.33.731-.35.732-.373.79-.373.782-.373.775-.366.732-.351.731-.337c3.292 14.22 15.901 24.942 30.566 24.942 4.3.006 8.548-.946 12.435-2.787l-6.013 2.853a28.957 28.957 0 0 1-12.427 2.786Z" style="mix-blend-mode:multiply" opacity=".45"/><path d="m68.817 84.553-6.012 2.852a30.925 30.925 0 0 1-13.341 2.984c-17.92 0-32.988-14.994-33.573-33.418l6.013-2.853c.585 18.425 15.652 33.419 33.572 33.419a30.924 30.924 0 0 0 13.341-2.984Z" style="mix-blend-mode:multiply" opacity=".45"/><path d="M14.355 22.616a.298.298 0 0 1 .11-.052l5.793-2.75A47.274 47.274 0 0 0 7.34 54.191c.84 26.624 22.608 48.274 48.515 48.274a44.802 44.802 0 0 0 19.266-4.308l-6.02 2.853a44.753 44.753 0 0 1-19.258 4.308c-25.907 0-47.674-21.658-48.516-48.274a47.272 47.272 0 0 1 13.027-34.428Z" style="mix-blend-mode:multiply" opacity=".45"/><path d="m75.846 99.415-6.012 2.853a46.155 46.155 0 0 1-19.837 4.432c-26.682 0-49.1-22.3-49.97-49.737-.644-20.07 10.48-37.463 26.982-45.29l6.012-2.852C16.55 16.647 5.395 34.011 6.04 54.118c.87 27.429 23.288 49.737 49.97 49.737a46.163 46.163 0 0 0 19.837-4.44Z" style="mix-blend-mode:multiply" opacity=".45"/><path d="M52.85 4.389c26.69 0 49.108 22.308 49.985 49.736.878 27.429-20.136 49.737-46.81 49.737-26.676 0-49.101-22.3-49.972-49.737C5.183 26.69 26.167 4.39 52.85 4.39Zm3.116 98.01c25.914 0 46.299-21.657 45.458-48.274-.841-26.616-22.616-48.274-48.53-48.274-25.915 0-46.292 21.65-45.444 48.274C8.3 80.75 30.06 102.4 55.966 102.4Z" style="mix-blend-mode:multiply" opacity=".45"/><path d="M52.894 5.844c25.914 0 47.681 21.65 48.53 48.274.848 26.624-19.544 48.274-45.458 48.274-25.915 0-47.675-21.657-48.516-48.274C6.61 27.501 26.994 5.844 52.894 5.844Zm2.596 81.693c17.935 0 32.044-14.994 31.452-33.419h-2.114c.54 17.225-12.647 31.232-29.41 31.232-16.765 0-30.823-14.007-31.379-31.232h-2.121c.585 18.425 15.652 33.419 33.572 33.419Z" style="mix-blend-mode:multiply" opacity=".45"/><path d="M86.949 54.118c.585 18.425-13.524 33.419-31.451 33.419S22.51 72.543 21.925 54.118h2.122c.548 17.225 14.628 31.232 31.385 31.232s29.988-14.007 29.41-31.232h2.107Z" style="mix-blend-mode:multiply" opacity=".45"/></g><path d="m92.8 49.73-6.012 2.852h-2.121l6.02-2.852H92.8ZM74.668 80.164l-6.012 2.853c11.088-5.26 18.564-16.918 18.132-30.435L92.8 49.73c.432 13.494-7.043 25.197-18.132 30.434Z" fill="#ECECEC"/><path d="m73.732 78.182-6.012 2.852a30.164 30.164 0 0 0 16.947-28.452l6.02-2.852a30.186 30.186 0 0 1-16.955 28.452Z" fill="#505050"/><path d="m81.068 93.703-6.012 2.852c16.026-7.6 26.821-24.451 26.207-43.973-.849-26.624-22.616-48.274-48.53-48.274a44.763 44.763 0 0 0-19.251 4.3l6.012-2.852a44.763 44.763 0 0 1 19.251-4.3c25.915 0 47.682 21.65 48.53 48.274.615 19.521-10.181 36.373-26.207 43.973Z" fill="#505050"/><path d="M20.206 18.227a45.094 45.094 0 0 1 13.269-9.61l6.012-2.853a45.09 45.09 0 0 0-13.268 9.61l-6.013 2.853Zm3.892 37.244c-.117-.95-.19-1.916-.22-2.925l6.013-2.853c0 .973.102 1.938.219 2.926l-6.012 2.852Z" fill="#ECECEC"/><path d="m29.89 49.73-6.012 2.852h-2.12l6.012-2.852h2.12Zm-5.792 5.741.314-.153.337-.161.35-.161.352-.169.358-.168.344-.168.336-.16.315-.147.388-.183.41-.198.423-.197.432-.205.431-.205.425-.204.41-.19.387-.184c.14 1.144.34 2.28.6 3.402l-6.013 2.852a30.877 30.877 0 0 1-.6-3.4Z" fill="#ECECEC"/><path d="M55.264 83.814c-14.665 0-27.275-10.723-30.567-24.942l.732-.329.731-.351.732-.373.79-.373.782-.373.776-.366.731-.35.732-.337c3.29 14.218 15.9 24.941 30.566 24.941a28.95 28.95 0 0 0 12.434-2.787l-6.012 2.853a28.957 28.957 0 0 1-12.427 2.787Z" fill="#ECECEC"/><path d="m74.668 80.164-6.012 2.853A30.924 30.924 0 0 1 55.315 86c-17.92 0-32.987-14.994-33.572-33.419l6.012-2.852c.585 18.424 15.652 33.418 33.572 33.418a30.926 30.926 0 0 0 13.341-2.984Z" fill="#505050"/><path d="M20.206 18.227a.3.3 0 0 1 .11-.051l5.793-2.75a47.27 47.27 0 0 0-12.917 34.377c.841 26.623 22.608 48.274 48.515 48.274a44.807 44.807 0 0 0 19.266-4.308l-6.02 2.852a44.748 44.748 0 0 1-19.258 4.308c-25.907 0-47.674-21.657-48.515-48.274a47.273 47.273 0 0 1 13.026-34.428Z" fill="#ECECEC"/><path d="m81.697 95.027-6.012 2.852a46.174 46.174 0 0 1-19.836 4.433c-26.683 0-49.1-22.301-49.971-49.737-.644-20.07 10.481-37.464 26.982-45.29l6.012-2.853C22.401 12.26 11.246 29.623 11.89 49.73c.87 27.428 23.289 49.736 49.971 49.736a46.16 46.16 0 0 0 19.836-4.44Z" fill="#505050"/><path d="M58.701 0c26.69 0 49.108 22.308 49.986 49.737.878 27.428-20.136 49.737-46.811 49.737s-49.1-22.301-49.971-49.737C11.035 22.3 32.019 0 58.7 0Zm3.116 98.01c25.915 0 46.299-21.657 45.458-48.273-.841-26.617-22.615-48.274-48.53-48.274-25.914 0-46.291 21.65-45.443 48.274C14.15 76.36 35.91 98.01 61.817 98.01Z" fill="#505050"/><path d="M58.745 1.456c25.915 0 47.682 21.65 48.53 48.274.849 26.623-19.543 48.274-45.458 48.274-25.914 0-47.674-21.658-48.515-48.274-.841-26.617 19.544-48.274 45.443-48.274Zm2.597 81.692c17.934 0 32.044-14.994 31.451-33.418H90.68c.542 17.225-12.646 31.231-29.41 31.231S30.447 66.955 29.89 49.73h-2.12c.585 18.424 15.652 33.418 33.572 33.418Z" fill="#ECECEC"/><path d="M92.8 49.73c.585 18.424-13.524 33.418-31.45 33.418-17.928 0-32.988-14.994-33.573-33.418h2.12c.55 17.224 14.63 31.231 31.386 31.231 16.757 0 29.989-14.007 29.41-31.231H92.8Z" fill="#505050"/></g><defs><filter id="mentor-page-artwork__a" x="123.638" y="74.823" width="142.478" height="133.177" filterUnits="userSpaceOnUse" color-interpolation-filters="sRGB"><feFlood flood-opacity="0" result="BackgroundImageFix"/><feGaussianBlur in="BackgroundImage" stdDeviation="15"/><feComposite in2="SourceAlpha" operator="in" result="effect1_backgroundBlur_1249_39251"/><feBlend in="SourceGraphic" in2="effect1_backgroundBlur_1249_39251" result="shape"/></filter><filter id="mentor-page-artwork__b" x="-30" y="-30" width="168.714" height="166.7" filterUnits="userSpaceOnUse" color-interpolation-filters="sRGB"><feFlood flood-opacity="0" result="BackgroundImageFix"/><feGaussianBlur in="BackgroundImage" stdDeviation="15"/><feComposite in2="SourceAlpha" operator="in" result="effect1_backgroundBlur_1249_39251"/><feBlend in="SourceGraphic" in2="effect1_backgroundBlur_1249_39251" result="shape"/></filter></defs></svg>