<svg width="27" height="27" fill="none" xmlns="http://www.w3.org/2000/svg"><path d="m1.857 10.359 8.514-8.526a.67.67 0 0 1 .476-.199h13.662a.5.5 0 0 1 .5.5v13.662a.67.67 0 0 1-.2.476l-8.513 8.532a.67.67 0 0 1-.476.199H2.158a.506.506 0 0 1-.5-.5V10.835c0-.181.072-.35.199-.476Z" fill="#00B265"/><path d="M6.957 10.75v8.671c0 .15.126.277.277.277h8.67a.28.28 0 0 0 .277-.277v-8.67a.28.28 0 0 0-.277-.277h-8.67a.28.28 0 0 0-.277.277Zm5.87 5.871h-2.522a.28.28 0 0 1-.277-.277v-2.523a.28.28 0 0 1 .277-.277h2.523a.28.28 0 0 1 .277.277v2.523a.28.28 0 0 1-.277.277Z" fill="#fff"/></svg>