<svg width="27" height="27" fill="none" xmlns="http://www.w3.org/2000/svg"><path d="m1.857 10.373 8.51-8.522a.668.668 0 0 1 .475-.199h13.685a.5.5 0 0 1 .5.5v13.655a.668.668 0 0 1-.2.475l-8.539 8.528a.66.66 0 0 1-.475.192H2.158a.5.5 0 0 1-.5-.481V10.848a.68.68 0 0 1 .199-.476Z" fill="#DB0049"/><path d="M10.03 13.556h-.007v.012h.007v-.012Z" fill="#fff"/><path d="M6.954 10.764v2.515a.271.271 0 0 0 .277.277h2.522a.277.277 0 0 1 .27.277v2.522a.277.277 0 0 1-.27.276H7.23a.277.277 0 0 0-.277.277v2.522a.277.277 0 0 0 .277.276h8.666a.283.283 0 0 0 .277-.276v-2.522a.283.283 0 0 0-.277-.277h-2.522a.282.282 0 0 1-.276-.276v-5.591a.272.272 0 0 0-.277-.277H7.23a.272.272 0 0 0-.277.277Z" fill="#fff"/></svg>