<svg width="27" height="27" fill="none" xmlns="http://www.w3.org/2000/svg"><path d="m1.857 10.372 8.508-8.521a.669.669 0 0 1 .476-.199h13.683a.5.5 0 0 1 .5.5v13.653a.668.668 0 0 1-.199.476l-8.538 8.526a.664.664 0 0 1-.476.193H2.158a.5.5 0 0 1-.5-.481V10.847a.68.68 0 0 1 .199-.475Z" fill="#3631FF"/><path d="M10.028 13.555h-.005v.012h.005v-.012Zm3.062-2.792v2.515a.272.272 0 0 1-.276.277H10.3a.277.277 0 0 0-.277.277v2.52a.277.277 0 0 1-.27.278H7.23a.277.277 0 0 0-.277.277v2.52a.277.277 0 0 0 .277.278h8.665a.282.282 0 0 0 .277-.277v-8.665a.276.276 0 0 0-.277-.277h-2.521a.278.278 0 0 0-.283.277Z" fill="#fff"/></svg>