<svg width="27" height="27" fill="none" xmlns="http://www.w3.org/2000/svg"><path d="m1.857 10.359 8.514-8.526a.67.67 0 0 1 .476-.199h13.662a.5.5 0 0 1 .5.5v13.662a.67.67 0 0 1-.2.476l-8.513 8.532a.67.67 0 0 1-.476.198H2.158a.506.506 0 0 1-.5-.5V10.836c0-.181.072-.35.199-.476Z" fill="#C1840A"/><path d="M16.188 13.267V10.75a.28.28 0 0 0-.277-.277h-2.523a.28.28 0 0 0-.277.277v2.126a.66.66 0 0 1-.663.662h-1.752a.66.66 0 0 1-.662-.662V10.75a.28.28 0 0 0-.277-.277H7.234a.28.28 0 0 0-.277.277v2.517c0 .15.126.277.277.277h2.132a.66.66 0 0 1 .662.662v1.752a.66.66 0 0 1-.662.663H7.234a.28.28 0 0 0-.277.277v2.535c0 .15.126.277.277.277h2.523a.28.28 0 0 0 .277-.277v-2.144a.66.66 0 0 1 .662-.662h1.752a.66.66 0 0 1 .663.662v2.132c0 .15.126.277.277.277h2.523a.28.28 0 0 0 .277-.277v-2.523a.28.28 0 0 0-.277-.277h-2.132a.66.66 0 0 1-.662-.663v-1.752a.66.66 0 0 1 .662-.662h2.132a.28.28 0 0 0 .277-.277Z" fill="#fff"/></svg>