<svg width="27" height="27" fill="none" xmlns="http://www.w3.org/2000/svg"><path d="m1.857 10.359 8.514-8.526a.67.67 0 0 1 .476-.199h13.662a.5.5 0 0 1 .5.5v13.662a.67.67 0 0 1-.2.476l-8.513 8.532a.67.67 0 0 1-.476.198H2.158a.506.506 0 0 1-.5-.5V10.836c0-.181.072-.35.199-.476Z" fill="#C1840A"/><path d="M16.188 13.267V10.75a.28.28 0 0 0-.277-.277h-2.523a.28.28 0 0 0-.277.277v2.126a.66.66 0 0 1-.663.662h-1.752a.66.66 0 0 1-.662-.662V10.75a.28.28 0 0 0-.277-.277H7.234a.28.28 0 0 0-.277.277v2.517c0 .15.126.277.277.277h2.132a.66.66 0 0 1 .662.662v1.752a.66.66 0 0 1-.662.663H7.234a.28.28 0 0 0-.277.277v2.535c0 .15.126.277.277.277h2.523a.28.28 0 0 0 .277-.277v-2.144a.66.66 0 0 1 .662-.662h1.752a.66.66 0 0 1 .663.662v2.132c0 .15.126.277.277.277h2.523a.28.28 0 0 0 .277-.277v-2.523a.28.28 0 0 0-.277-.277h-2.132a.66.66 0 0 1-.662-.663v-1.752a.66.66 0 0 1 .662-.662h2.132a.28.28 0 0 0 .277-.277Z" fill="#fff"/><path d="m1.857 10.358 8.503-8.53a.668.668 0 0 1 .475-.2h13.674a.499.499 0 0 1 .5.5v13.67a.67.67 0 0 1-.2.476l-8.532 8.536a.66.66 0 0 1-.475.193H2.157a.499.499 0 0 1-.499-.482V10.834a.681.681 0 0 1 .199-.476Z" fill="#1D1A3F"/><path d="M15.886 10.472h-8.66a.277.277 0 0 0-.276.277v2.524c0 .154.124.277.276.277h8.66a.277.277 0 0 0 .276-.277V10.75a.277.277 0 0 0-.276-.277Zm-.006 6.151h-5.586a.277.277 0 0 0-.277.277v2.524c0 .153.124.277.277.277h5.586a.277.277 0 0 0 .277-.277V16.9a.277.277 0 0 0-.277-.277Z" fill="#fff"/></svg>