<svg width="27" height="27" fill="none" xmlns="http://www.w3.org/2000/svg"><path d="M12.375 12.375h6.75c.319 0 .586-.108.801-.324.216-.215.324-.482.324-.801a1.09 1.09 0 0 0-.324-.802 1.087 1.087 0 0 0-.801-.323h-6.75c-.319 0-.586.108-.801.323a1.09 1.09 0 0 0-.324.802c0 .319.108.586.324.801.215.216.482.324.801.324Zm0 3.375h2.25c.319 0 .586-.108.802-.324.215-.215.323-.482.323-.801 0-.319-.108-.586-.323-.802a1.091 1.091 0 0 0-.802-.323h-2.25c-.319 0-.586.108-.801.323a1.09 1.09 0 0 0-.324.802c0 .319.108.586.324.801.215.216.482.324.801.324Zm0-6.75h6.75c.319 0 .586-.108.801-.323a1.09 1.09 0 0 0 .324-.802 1.09 1.09 0 0 0-.324-.802 1.087 1.087 0 0 0-.801-.323h-6.75c-.319 0-.586.108-.801.323a1.09 1.09 0 0 0-.324.802c0 .319.108.586.324.802.215.215.482.323.801.323ZM9 20.25c-.619 0-1.148-.22-1.588-.66A2.168 2.168 0 0 1 6.75 18V4.5c0-.619.22-1.149.662-1.59.44-.44.97-.66 1.588-.66h13.5c.619 0 1.149.22 1.59.66.44.441.66.971.66 1.59V18a2.17 2.17 0 0 1-.66 1.59 2.17 2.17 0 0 1-1.59.66H9ZM9 18h13.5V4.5H9V18Zm-4.5 6.75c-.619 0-1.148-.22-1.588-.66a2.168 2.168 0 0 1-.662-1.59V7.875c0-.319.108-.586.324-.802.215-.215.482-.323.801-.323.319 0 .586.108.802.323.215.216.323.483.323.802V22.5h14.625c.319 0 .586.108.801.324.216.215.324.482.324.801 0 .319-.108.586-.324.801a1.086 1.086 0 0 1-.801.324H4.5ZM9 4.5V18 4.5Z" fill="#4FBECD"/></svg>